<svg width="98" height="94" viewBox="0 0 98 94" fill="none" xmlns="http://www.w3.org/2000/svg">
<g clip-path="url(#clip0_54_3017)">
<rect x="0.87326" y="45.105" width="68.21" height="68.21" rx="10" transform="rotate(-45 0.87326 45.105)" fill="#263A5C"/>
<path d="M40.8957 50.0811L37.7239 25.0679L34.5522 50.0783H23.5135C21.9447 50.0783 20.6714 48.8363 20.6714 47.3044C20.6804 46.5591 20.9848 45.8479 21.5176 45.3268C22.0504 44.8057 22.7683 44.5173 23.5135 44.5248H29.5274L32.0853 24.3858C32.4661 21.3391 35.3082 19.1791 38.4203 19.5543C41.0066 19.8669 43.0415 21.8564 43.3626 24.3858L45.9177 44.5248H51.5279L54.7764 65.1186L58.0221 44.5277H74.671C76.2399 44.5277 77.5131 45.7725 77.5131 47.3072C77.5131 48.842 76.2399 50.0839 74.671 50.0839H62.8991L60.3952 65.9627C60.1994 67.1412 59.6332 68.2268 58.7788 69.0618C57.9243 69.8969 56.826 70.438 55.6433 70.6066C52.5397 71.0756 49.638 68.9952 49.1576 65.9627L46.6566 50.0839L40.8957 50.0811Z" fill="white"/>
</g>
<defs>
<clipPath id="clip0_54_3017">
<rect x="0.87326" y="45.105" width="68.21" height="68.21" rx="10" transform="rotate(-45 0.87326 45.105)" fill="white"/>
</clipPath>
</defs>
</svg>
