<svg width="37" height="36" viewBox="0 0 37 36" fill="none" xmlns="http://www.w3.org/2000/svg">
<g clip-path="url(#clip0_54_3017)">
<rect x="0.87326" y="18.105" width="25.06" height="25.06" rx="3" transform="rotate(-45 0.87326 18.105)" fill="#263A5C"/>
<path d="M15.5773 19.9332L14.412 10.7435L13.2467 19.9322H9.19117C8.61479 19.9322 8.147 19.4759 8.147 18.9131C8.15031 18.6393 8.26211 18.378 8.45787 18.1865C8.65364 17.995 8.91736 17.8891 9.19117 17.8919H11.4006L12.3404 10.4929C12.4803 9.37356 13.5245 8.57999 14.6678 8.71782C15.618 8.83268 16.3656 9.5636 16.4836 10.4929L17.4223 17.8919H19.4835L20.677 25.4579L21.8694 17.8929H27.9862C28.5625 17.8929 29.0303 18.3503 29.0303 18.9141C29.0303 19.478 28.5625 19.9343 27.9862 19.9343H23.6612L22.7413 25.768C22.6694 26.201 22.4614 26.5998 22.1474 26.9066C21.8335 27.2134 21.43 27.4122 20.9955 27.4742C19.8552 27.6465 18.7891 26.8821 18.6127 25.768L17.6938 19.9343L15.5773 19.9332Z" fill="white"/>
</g>
<defs>
<clipPath id="clip0_54_3017">
<rect x="0.87326" y="18.105" width="25.06" height="25.06" rx="3" transform="rotate(-45 0.87326 18.105)" fill="white"/>
</clipPath>
</defs>
</svg>
