<svg width="69" height="69" viewBox="0 0 69 69" fill="none" xmlns="http://www.w3.org/2000/svg">
<path d="M25.9084 39.0759L22.7367 14.0627L19.5649 39.073H8.52626C6.95743 39.073 5.68417 37.831 5.68417 36.2991C5.69317 35.5539 5.99748 34.8427 6.53032 34.3215C7.06316 33.8004 7.78099 33.512 8.52626 33.5196H14.5401L17.098 13.3806C17.4788 10.3339 20.3209 8.17389 23.433 8.54904C26.0193 8.86167 28.0542 10.8511 28.3754 13.3806L30.9304 33.5196H36.5407L39.7892 54.1133L43.0348 33.5224H59.6838C61.2526 33.5224 62.5258 34.7673 62.5258 36.302C62.5258 37.8367 61.2526 39.0787 59.6838 39.0787H47.9118L45.408 54.9574C45.2122 56.136 44.646 57.2215 43.7915 58.0566C42.937 58.8916 41.8388 59.4327 40.656 59.6014C37.5525 60.0703 34.6507 57.9899 34.1704 54.9574L31.6693 39.0787L25.9084 39.0759Z" fill="#263A5C"/>
</svg>
