<svg width="23" height="16" viewBox="0 0 23 16" fill="none" xmlns="http://www.w3.org/2000/svg">
<path d="M1.74951 7.04529C1.19723 7.04529 0.749512 7.493 0.749512 8.04529C0.749512 8.59757 1.19723 9.04529 1.74951 9.04529V7.04529ZM22.4566 8.75239C22.8471 8.36187 22.8471 7.72871 22.4566 7.33818L16.0927 0.97422C15.7021 0.583696 15.069 0.583696 14.6784 0.97422C14.2879 1.36474 14.2879 1.99791 14.6784 2.38843L20.3353 8.04529L14.6784 13.7021C14.2879 14.0927 14.2879 14.7258 14.6784 15.1164C15.069 15.5069 15.7021 15.5069 16.0927 15.1164L22.4566 8.75239ZM1.74951 9.04529H21.7495V7.04529H1.74951V9.04529Z" fill="#B2BAFF"/>
</svg>
