<svg width="31" height="31" viewBox="0 0 31 31" fill="none" xmlns="http://www.w3.org/2000/svg">
<path d="M25.1431 22.585C24.6458 22.585 24.1689 22.7825 23.8173 23.1341C23.4657 23.4858 23.2681 23.9627 23.2681 24.4599C23.2681 24.5312 23.2813 24.5996 23.2897 24.669C21.1477 26.36 18.4971 27.2774 15.7681 27.2724C11.7725 27.2724 8.26813 23.5487 8.26813 19.3037C8.26813 14.9096 11.8428 11.335 16.2369 11.335H16.7056V9.45995H16.2369C10.8088 9.45995 6.39313 13.8756 6.39313 19.3037C6.39313 21.07 6.89 22.7631 7.74031 24.2321C5.19688 21.9953 3.58063 18.7281 3.58063 15.085C3.58063 13.1021 4.04188 11.2103 4.95125 9.4637L3.28813 8.59839C2.24913 10.6028 1.70642 12.8273 1.70563 15.085C1.70563 22.839 8.01407 29.1474 15.7681 29.1474C18.9313 29.1474 21.9388 28.0974 24.3978 26.1793C24.6534 26.2905 24.9306 26.3433 25.2092 26.3339C25.4878 26.3244 25.7608 26.253 26.0083 26.1248C26.2558 25.9965 26.4716 25.8147 26.6399 25.5926C26.8083 25.3705 26.9251 25.1136 26.9817 24.8406C27.0383 24.5677 27.0333 24.2856 26.9671 24.0148C26.9009 23.744 26.7752 23.4914 26.5991 23.2753C26.423 23.0593 26.2009 22.8852 25.9491 22.7658C25.6972 22.6463 25.4219 22.5846 25.1431 22.585Z" fill="#03045E"/>
<path d="M12.9556 18.835V20.71H11.0806V18.835H12.9556ZM20.4556 9.45996V11.335H18.5806V9.45996H20.4556Z" fill="#03045E"/>
<path d="M15.7681 1.02246C12.605 1.02246 9.5975 2.07246 7.13844 3.99059C6.7681 3.83016 6.35589 3.79351 5.96306 3.88608C5.57023 3.97865 5.21775 4.19551 4.95801 4.50441C4.69828 4.81332 4.54515 5.19779 4.52138 5.60068C4.49762 6.00357 4.60448 6.40338 4.8261 6.74068C5.04772 7.07798 5.37226 7.33477 5.75148 7.47288C6.13071 7.611 6.54437 7.62306 6.931 7.50729C7.31763 7.39151 7.65658 7.15407 7.89748 6.83026C8.13838 6.50645 8.26837 6.11355 8.26813 5.70996C8.26813 5.63871 8.255 5.57027 8.24657 5.5009C10.3885 3.80993 13.0391 2.89248 15.7681 2.89746C19.7638 2.89746 23.2681 6.62121 23.2681 10.8662C23.2681 15.2603 19.6934 18.835 15.2994 18.835H14.8306V20.71H15.2994C20.7275 20.71 25.1431 16.2943 25.1431 10.8662C25.1431 9.09902 24.6444 7.40496 23.7931 5.93496C26.3384 8.17184 27.9556 11.44 27.9556 15.085C27.9556 17.0678 27.4944 18.9596 26.585 20.7062L28.2481 21.5715C29.2871 19.5671 29.8298 17.3426 29.8306 15.085C29.8306 7.3309 23.5222 1.02246 15.7681 1.02246Z" fill="#03045E"/>
</svg>
