<svg width="276" height="321" viewBox="0 0 276 321" fill="none" xmlns="http://www.w3.org/2000/svg">
<path d="M249.756 107.377C276.347 91.7257 285.619 56.3914 261.814 36.76C251.984 28.6531 241.169 21.7076 229.574 16.11C201.075 2.35287 169.138 -2.64461 137.799 1.74953C106.461 6.14367 77.1292 19.7321 53.5135 40.7963C29.8978 61.8606 13.0587 89.4548 5.12566 120.089C-2.80739 150.724 -1.47811 183.023 8.94543 212.902C19.369 242.781 38.4186 268.898 63.6853 287.95C88.9521 307.003 119.301 318.135 150.895 319.939C163.75 320.673 176.576 319.85 189.105 317.533C219.447 311.923 228.49 276.53 212.839 249.939L198.919 226.292C190.955 212.761 172.94 209.279 157.265 208.384C147.735 207.84 138.58 204.482 130.959 198.735C123.337 192.988 117.591 185.11 114.447 176.097C111.303 167.084 110.902 157.341 113.295 148.101C115.688 138.86 120.767 130.536 127.891 124.182C135.014 117.829 143.862 113.73 153.315 112.404C162.768 111.079 172.402 112.586 180.998 116.736C195.137 123.562 212.578 129.261 226.109 121.297L249.756 107.377Z" fill="url(#paint0_linear_3_6)" fill-opacity="0.15"/>
<defs>
<linearGradient id="paint0_linear_3_6" x1="78.8543" y1="22.313" x2="241.179" y2="298.086" gradientUnits="userSpaceOnUse">
<stop stop-color="#76BDFF"/>
<stop offset="1" stop-color="#FF94EE"/>
</linearGradient>
</defs>
</svg>
