<svg width="20" height="20" viewBox="0 0 20 20" fill="none" xmlns="http://www.w3.org/2000/svg">
<g clip-path="url(#clip0_54_3808)">
<path d="M18.25 15.6278L18.0611 15.4611C17.5253 14.9836 17.0562 14.4361 16.6667 13.8333C16.2412 13.0014 15.9863 12.0929 15.9167 11.1611V8.41664C15.9204 6.95309 15.3895 5.53857 14.4238 4.43885C13.458 3.33912 12.124 2.6299 10.6722 2.44442V1.72775C10.6722 1.53105 10.5941 1.3424 10.455 1.20331C10.3159 1.06422 10.1273 0.986084 9.93057 0.986084C9.73387 0.986084 9.54522 1.06422 9.40613 1.20331C9.26704 1.3424 9.1889 1.53105 9.1889 1.72775V2.45553C7.75016 2.65438 6.43222 3.36789 5.4792 4.46392C4.52617 5.55995 4.00264 6.96422 4.00557 8.41664V11.1611C3.93599 12.0929 3.681 13.0014 3.25557 13.8333C2.87273 14.4346 2.41123 14.9821 1.88335 15.4611L1.69446 15.6278V17.1944H18.25V15.6278Z" fill="#263A5C"/>
<path d="M8.51111 17.7778C8.55983 18.1299 8.73433 18.4526 9.00238 18.6861C9.27043 18.9196 9.61393 19.0482 9.96944 19.0482C10.325 19.0482 10.6685 18.9196 10.9365 18.6861C11.2046 18.4526 11.3791 18.1299 11.4278 17.7778H8.51111Z" fill="black"/>
</g>
<defs>
<clipPath id="clip0_54_3808">
<rect width="20" height="20" fill="white"/>
</clipPath>
</defs>
</svg>
