<svg width="498" height="450" viewBox="0 0 498 450" fill="none" xmlns="http://www.w3.org/2000/svg">
<path d="M294.502 364.287L285.859 363.122V322.659L294.502 323.536V364.287Z" fill="#999999" stroke="#263238" stroke-linecap="round" stroke-linejoin="round"/>
<path d="M488.801 343.22L91.5376 302.984V72.9158L488.801 23.8586V343.22Z" fill="white" stroke="#263238" stroke-linecap="round" stroke-linejoin="round"/>
<path d="M492.193 23.446L88.1237 73.3595C85.3362 73.7102 83.0674 72.3278 83.0674 70.1715V66.6534C83.0674 64.5901 85.3362 62.5267 88.1237 62.1552L492.193 7.7952C494.981 7.41348 497.25 9.51813 497.25 12.4894V17.4416C497.276 18.8493 496.784 20.2212 495.861 21.3184C494.937 22.4156 493.639 23.1685 492.193 23.446V23.446Z" fill="#999999" stroke="#263238" stroke-linecap="round" stroke-linejoin="round"/>
<path d="M481.422 13.4488L488.487 12.479" stroke="white" stroke-linecap="round" stroke-linejoin="round"/>
<path d="M462.439 16.0488L473.243 14.5735" stroke="white" stroke-linecap="round" stroke-linejoin="round"/>
<path d="M124.976 61.9902L456.065 16.8948" stroke="white" stroke-linecap="round" stroke-linejoin="round"/>
<path d="M91.8511 66.5093L116.43 63.1562" stroke="white" stroke-linecap="round" stroke-linejoin="round"/>
<path d="M329.161 309.113L261.593 303.304V212.174L329.215 212.03L329.161 309.113Z" fill="#7E8AF5"/>
<path opacity="0.8" d="M329.161 309.113L261.593 303.304V212.174L329.215 212.03L329.161 309.113Z" fill="white"/>
<path d="M396.783 314.921L329.161 309.112V212.071L396.783 211.937V314.921Z" fill="#7E8AF5"/>
<path opacity="0.6" d="M396.783 314.921L329.161 309.112V212.071L396.783 211.937V314.921Z" fill="white"/>
<path d="M464.395 320.729L396.783 314.921V211.896L464.395 211.751V320.729Z" fill="#7E8AF5"/>
<path opacity="0.4" d="M464.395 320.729L396.783 314.921V211.896L464.395 211.751V320.729Z" fill="white"/>
<path d="M464.395 211.751L261.593 212.174" stroke="#7F7F7F" stroke-linecap="round" stroke-linejoin="round"/>
<path d="M261.593 225.194L464.449 227.32" stroke="#7F7F7F" stroke-linecap="round" stroke-linejoin="round"/>
<path d="M464.395 242.888L261.593 238.214" stroke="#7F7F7F" stroke-linecap="round" stroke-linejoin="round"/>
<path d="M261.593 251.276L464.449 258.498" stroke="#7F7F7F" stroke-linecap="round" stroke-linejoin="round"/>
<path d="M464.395 274.024L261.593 264.244" stroke="#7F7F7F" stroke-linecap="round" stroke-linejoin="round"/>
<path d="M261.593 277.264L464.449 289.593" stroke="#7F7F7F" stroke-linecap="round" stroke-linejoin="round"/>
<path d="M464.395 305.161L261.593 290.284" stroke="#7F7F7F" stroke-linecap="round" stroke-linejoin="round"/>
<path d="M261.593 303.304L464.449 320.729" stroke="#7F7F7F" stroke-linecap="round" stroke-linejoin="round"/>
<path d="M278.447 304.759V212.133" stroke="#7F7F7F" stroke-linecap="round" stroke-linejoin="round"/>
<path d="M261.593 212.174V303.304" stroke="#7F7F7F" stroke-linecap="round" stroke-linejoin="round"/>
<path d="M312.253 307.658V212.071" stroke="#7F7F7F" stroke-linecap="round" stroke-linejoin="round"/>
<path d="M295.355 212.071V306.172" stroke="#7F7F7F" stroke-linecap="round" stroke-linejoin="round"/>
<path d="M346.069 310.567V211.999" stroke="#7F7F7F" stroke-linecap="round" stroke-linejoin="round"/>
<path d="M329.161 212.071V309.154" stroke="#7F7F7F" stroke-linecap="round" stroke-linejoin="round"/>
<path d="M379.875 313.466V211.927" stroke="#7F7F7F" stroke-linecap="round" stroke-linejoin="round"/>
<path d="M362.967 211.958V312.032" stroke="#7F7F7F" stroke-linecap="round" stroke-linejoin="round"/>
<path d="M413.681 316.376V211.854" stroke="#7F7F7F" stroke-linecap="round" stroke-linejoin="round"/>
<path d="M396.783 211.896V314.921" stroke="#7F7F7F" stroke-linecap="round" stroke-linejoin="round"/>
<path d="M447.497 319.275V211.782" stroke="#7F7F7F" stroke-linecap="round" stroke-linejoin="round"/>
<path d="M430.589 211.823V317.83" stroke="#7F7F7F" stroke-linecap="round" stroke-linejoin="round"/>
<path d="M464.395 211.751V320.729" stroke="#7F7F7F" stroke-linecap="round" stroke-linejoin="round"/>
<path d="M261.593 212.174V303.304L464.449 320.729V211.751L261.593 212.174Z" stroke="#263238" stroke-linecap="round" stroke-linejoin="round"/>
<path d="M269.998 303.634L264.92 303.201V277.068L269.998 277.377V303.634Z" fill="#263238"/>
<path d="M275.065 304.078L269.998 303.634V264.265L275.065 264.512V304.078Z" fill="#7E8AF5"/>
<path d="M286.896 305.089L281.829 304.655V258.229L286.896 258.435V305.089Z" fill="#263238"/>
<path d="M291.974 305.522L286.896 305.089V251.74L291.974 251.915V305.522Z" fill="#7E8AF5"/>
<path d="M303.804 306.533L298.737 306.1V265.637L303.804 265.884V306.533Z" fill="#263238"/>
<path d="M308.871 306.987L303.804 306.554V259.096L308.871 259.302V306.987Z" fill="#7E8AF5"/>
<path d="M320.712 308.019L315.634 307.586V280.163L320.712 280.473V308.019Z" fill="#263238" stroke="#263238" stroke-linecap="round" stroke-linejoin="round"/>
<path d="M325.779 308.411L320.712 307.978V274.963L325.779 275.242V308.411Z" fill="#7E8AF5" stroke="#7E8AF5" stroke-linecap="round" stroke-linejoin="round"/>
<path d="M337.61 309.422L332.542 308.989V262.016L337.61 262.232V309.422Z" fill="#263238"/>
<path d="M342.688 309.855L337.61 309.422V271.125L342.688 271.383V309.855Z" fill="#7E8AF5"/>
<path d="M354.507 310.866L349.44 310.433V269.702L354.507 269.949V310.866Z" fill="#263238"/>
<path d="M359.585 311.3L354.518 310.866V262.954L359.585 263.171V311.3Z" fill="#7E8AF5"/>
<path d="M371.426 312.311L366.348 311.877V260.953L371.426 261.159V312.311Z" fill="#263238"/>
<path d="M376.493 312.744L371.426 312.311V264.966L376.493 265.193V312.744Z" fill="#7E8AF5"/>
<path d="M388.324 313.755L383.257 313.322V250.595L388.324 250.76V313.755Z" fill="#263238"/>
<path d="M393.402 314.209L388.324 313.765V243.301L393.402 243.435V314.209Z" fill="#7E8AF5"/>
<path d="M405.286 315.241L400.219 314.807V255.733L405.286 255.908V315.241Z" fill="#263238"/>
<path d="M410.299 252.462V315.643L405.286 315.241V252.307L410.299 252.462Z" fill="#7E8AF5"/>
<path d="M422.14 316.654L417.062 316.221V248.335L422.14 248.48V316.654Z" fill="#263238"/>
<path d="M427.207 317.087L422.14 316.654V249.883L427.207 250.027V317.087Z" fill="#7E8AF5"/>
<path d="M439.038 318.099L433.971 317.665V238.895L439.038 238.998V318.099Z" fill="#263238"/>
<path d="M444.116 318.532L439.038 318.099V234.655L444.116 234.738V318.532Z" fill="#7E8AF5"/>
<path d="M455.946 319.543L450.868 319.11V226.721L455.946 226.773V319.543Z" fill="#263238"/>
<path d="M461.013 319.976L455.946 319.543V222.863H461.013V319.976Z" fill="#7E8AF5"/>
<path d="M330.598 260.922L315.894 260.303C315.089 260.307 314.312 260.025 313.713 259.512C313.114 258.999 312.736 258.292 312.653 257.528V248.572C312.686 248.201 312.797 247.839 312.979 247.51C313.162 247.18 313.411 246.888 313.713 246.651C314.015 246.415 314.364 246.238 314.738 246.132C315.113 246.026 315.506 245.993 315.894 246.035L330.598 246.457C331.407 246.439 332.192 246.716 332.795 247.232C333.397 247.747 333.771 248.463 333.839 249.233V258.374C333.81 258.747 333.702 259.111 333.521 259.444C333.34 259.776 333.091 260.07 332.788 260.309C332.486 260.547 332.135 260.724 331.759 260.829C331.382 260.935 330.988 260.966 330.598 260.922V260.922Z" fill="white" stroke="#263238" stroke-linecap="round" stroke-linejoin="round"/>
<path d="M316.888 256.878C316.39 256.811 315.936 256.569 315.615 256.198C315.295 255.828 315.133 255.356 315.159 254.876V254.371H316.672V254.99C316.672 255.495 316.985 255.722 317.493 255.743C318 255.763 318.314 255.557 318.314 255.031C318.314 254.505 318.022 253.999 316.953 253.287C315.656 252.41 315.202 251.74 315.202 250.842C315.185 250.615 315.214 250.387 315.29 250.171C315.365 249.955 315.485 249.755 315.641 249.583C315.798 249.411 315.989 249.271 316.203 249.17C316.417 249.069 316.65 249.01 316.888 248.996V248.284H318.184V248.996C318.68 249.06 319.131 249.301 319.448 249.67C319.765 250.04 319.923 250.51 319.891 250.987V251.276H318.389V250.956C318.402 250.853 318.39 250.749 318.354 250.652C318.318 250.554 318.259 250.466 318.182 250.393C318.105 250.321 318.011 250.266 317.909 250.233C317.806 250.2 317.697 250.189 317.59 250.203C317.082 250.203 316.801 250.399 316.801 250.873C316.801 251.348 317.093 251.833 318.163 252.565C319.459 253.463 319.913 254.123 319.913 255.072C319.933 255.306 319.905 255.541 319.828 255.764C319.752 255.987 319.63 256.193 319.469 256.37C319.307 256.547 319.111 256.692 318.89 256.795C318.669 256.898 318.429 256.958 318.184 256.971V257.796H316.888V256.878Z" fill="#263238"/>
<path d="M328.826 254.092V248.676L325.304 248.562V253.958L322.787 253.875C324.505 255.722 325.358 256.651 327.108 258.508L331.376 254.175L328.826 254.092Z" fill="#999999" stroke="#263238" stroke-linecap="round" stroke-linejoin="round"/>
<path d="M424.42 239.927L409.705 239.607C408.874 239.608 408.075 239.305 407.472 238.76C406.869 238.214 406.508 237.469 406.464 236.677V226.928C406.5 226.141 406.862 225.401 407.47 224.869C408.077 224.337 408.881 224.057 409.705 224.09L424.42 224.214C425.252 224.213 426.053 224.518 426.656 225.065C427.26 225.613 427.619 226.361 427.661 227.154V237.059C427.65 237.452 427.557 237.839 427.387 238.197C427.217 238.555 426.974 238.877 426.672 239.144C426.371 239.411 426.016 239.618 425.629 239.753C425.242 239.887 424.831 239.946 424.42 239.927V239.927Z" fill="white" stroke="#263238" stroke-linecap="round" stroke-linejoin="round"/>
<path d="M410.688 235.852C410.173 235.766 409.712 235.499 409.393 235.103C409.075 234.708 408.924 234.213 408.97 233.716V233.128H410.472V233.809C410.46 233.916 410.473 234.024 410.511 234.126C410.548 234.227 410.609 234.32 410.689 234.396C410.769 234.472 410.865 234.53 410.972 234.566C411.078 234.602 411.191 234.615 411.304 234.603C411.416 234.619 411.531 234.61 411.639 234.575C411.747 234.541 411.845 234.483 411.925 234.405C412.005 234.328 412.065 234.234 412.1 234.13C412.134 234.026 412.143 233.916 412.125 233.809C412.125 233.169 411.833 232.705 410.763 231.952C409.467 231.023 409.013 230.301 409.013 229.331C408.96 228.848 409.105 228.363 409.417 227.979C409.729 227.594 410.184 227.34 410.688 227.268V226.515H411.995V227.299C412.508 227.378 412.97 227.641 413.287 228.034C413.604 228.427 413.753 228.92 413.702 229.414V229.662H412.2V229.311C412.217 229.205 412.209 229.097 412.175 228.995C412.142 228.892 412.084 228.799 412.007 228.721C411.93 228.644 411.835 228.584 411.73 228.546C411.625 228.509 411.512 228.495 411.401 228.506C411.292 228.493 411.182 228.503 411.079 228.537C410.975 228.57 410.881 228.626 410.804 228.7C410.727 228.774 410.668 228.863 410.633 228.962C410.598 229.061 410.587 229.166 410.601 229.27C410.601 229.858 410.893 230.301 411.963 231.075C413.27 232.004 413.724 232.726 413.724 233.747C413.767 234.237 413.612 234.724 413.291 235.108C412.969 235.492 412.505 235.744 411.995 235.81V236.698H410.688V235.852Z" fill="#263238"/>
<path d="M419.115 231.477V237.337L422.637 237.41V231.529H425.154L420.833 226.597L416.565 231.405L419.115 231.477Z" fill="#999999" stroke="#263238" stroke-linecap="round" stroke-linejoin="round"/>
<path d="M360.741 159.382C365.255 160.307 369.868 160.712 374.483 160.589C400.467 159.919 424.063 141.286 424.182 116.949C424.257 93.622 399.678 75.815 374.483 79.2608V119.93C369.931 133.095 365.35 146.245 360.741 159.382Z" fill="#7E8AF5" stroke="#263238" stroke-linecap="round" stroke-linejoin="round"/>
<path d="M374.484 119.93V79.261C350.229 81.6339 324.429 99.8021 324.785 122.902C325.088 140.327 341.337 156.133 360.698 159.382C365.343 146.239 369.939 133.088 374.484 119.93Z" fill="#999999" stroke="#263238" stroke-linecap="round" stroke-linejoin="round"/>
<path d="M356.462 103.33C356.431 102.965 356.32 102.609 356.135 102.287C355.951 101.965 355.698 101.683 355.392 101.46C355.087 101.238 354.736 101.079 354.362 100.994C353.988 100.909 353.599 100.9 353.221 100.968C352.41 100.982 351.632 101.279 351.034 101.804C350.437 102.328 350.062 103.044 349.98 103.815V105.445C350.013 105.811 350.126 106.166 350.31 106.488C350.495 106.809 350.748 107.091 351.053 107.314C351.358 107.537 351.708 107.698 352.081 107.784C352.455 107.871 352.843 107.883 353.221 107.818C354.033 107.805 354.811 107.507 355.408 106.982C356.005 106.458 356.381 105.742 356.462 104.971" stroke="#263238" stroke-linecap="round" stroke-linejoin="round"/>
<path d="M347.441 134.694V139.966C347.465 140.211 347.541 140.448 347.663 140.665C347.786 140.881 347.954 141.071 348.156 141.223C348.358 141.376 348.59 141.487 348.839 141.551C349.087 141.615 349.347 141.631 349.602 141.596V141.596C350.134 141.599 350.65 141.415 351.048 141.078C351.447 140.741 351.702 140.275 351.763 139.77V126.492C351.788 126.148 351.944 125.825 352.2 125.582C352.456 125.339 352.796 125.193 353.156 125.171C353.334 125.136 353.518 125.137 353.696 125.174C353.873 125.211 354.04 125.283 354.186 125.387C354.332 125.49 354.454 125.622 354.543 125.773C354.631 125.925 354.685 126.092 354.701 126.265V139.677C354.724 139.923 354.798 140.162 354.921 140.379C355.043 140.596 355.21 140.787 355.412 140.941C355.615 141.095 355.848 141.207 356.097 141.272C356.346 141.337 356.606 141.352 356.862 141.318C357.396 141.321 357.913 141.135 358.312 140.796C358.711 140.456 358.964 139.988 359.023 139.481V126.606" stroke="#263238" stroke-linecap="round" stroke-linejoin="round"/>
<path d="M347.441 131.238V132.785" stroke="#263238" stroke-linecap="round" stroke-linejoin="round"/>
<path d="M359.002 124.728V114.266C359.02 114.101 359.103 113.949 359.232 113.838C359.362 113.728 359.53 113.667 359.704 113.668V113.668C359.785 113.655 359.869 113.658 359.949 113.677C360.029 113.697 360.104 113.732 360.169 113.78C360.234 113.829 360.288 113.89 360.327 113.959C360.366 114.029 360.389 114.105 360.395 114.184V120.374C360.415 120.751 360.589 121.105 360.881 121.36C361.172 121.615 361.556 121.75 361.951 121.736C362.409 121.768 362.863 121.629 363.215 121.348C363.568 121.067 363.793 120.666 363.842 120.23V112.77C363.842 110.81 361.886 109.356 359.466 109.521L346.977 110.387C344.557 110.563 342.655 112.255 342.655 114.184V121.406C342.678 121.78 342.853 122.13 343.145 122.381C343.436 122.632 343.819 122.764 344.211 122.747C344.666 122.782 345.118 122.646 345.471 122.369C345.824 122.092 346.05 121.695 346.102 121.261V115.071C346.12 114.905 346.202 114.751 346.332 114.639C346.461 114.527 346.629 114.464 346.804 114.462V114.462C346.885 114.451 346.968 114.455 347.047 114.475C347.127 114.495 347.201 114.53 347.266 114.579C347.33 114.627 347.384 114.687 347.424 114.756C347.463 114.825 347.488 114.9 347.495 114.978V129.67" stroke="#263238" stroke-linecap="round" stroke-linejoin="round"/>
<path d="M398.728 101.36C398.955 102.66 399.29 104.537 399.29 104.537L391.575 105.084C391.575 105.084 392.288 100.957 392.343 100.648C392.471 99.9117 392.838 99.2329 393.393 98.7071C393.947 98.1813 394.661 97.8352 395.432 97.7178C396.174 97.6973 396.898 97.9367 397.467 98.391C398.036 98.8453 398.412 99.483 398.522 100.184" stroke="#263238" stroke-linecap="round" stroke-linejoin="round"/>
<path d="M405.394 117.722V110.016C405.394 107.952 403.428 106.477 401.018 106.642" stroke="#263238" stroke-linecap="round" stroke-linejoin="round"/>
<path d="M400.554 130.051V127.472L403.017 127.338C402.034 121.034 401.537 117.877 400.554 111.594C400.567 111.426 400.645 111.269 400.773 111.153C400.9 111.036 401.069 110.969 401.245 110.965C401.328 110.953 401.413 110.958 401.493 110.979C401.574 111.001 401.649 111.038 401.714 111.088C401.779 111.139 401.833 111.201 401.871 111.272C401.909 111.344 401.932 111.421 401.937 111.501V117.908C401.948 118.292 402.118 118.656 402.409 118.921C402.701 119.186 403.09 119.33 403.492 119.322" stroke="#263238" stroke-linecap="round" stroke-linejoin="round"/>
<path d="M400.554 133.383V131.599" stroke="#263238" stroke-linecap="round" stroke-linejoin="round"/>
<path d="M388.14 126.193C388.021 126.956 387.967 127.338 387.848 128.101L390.311 127.967V138.057C390.33 138.307 390.402 138.55 390.522 138.772C390.642 138.995 390.808 139.191 391.01 139.351C391.212 139.51 391.446 139.628 391.697 139.698C391.948 139.769 392.212 139.789 392.472 139.759C393.015 139.761 393.538 139.568 393.939 139.218C394.339 138.869 394.587 138.388 394.633 137.871V127.74L396.232 127.658V137.789C396.251 138.038 396.322 138.282 396.442 138.504C396.562 138.726 396.728 138.923 396.93 139.082C397.132 139.241 397.366 139.36 397.618 139.43C397.869 139.5 398.133 139.521 398.393 139.491C398.937 139.493 399.462 139.298 399.863 138.946C400.263 138.594 400.51 138.111 400.554 137.593V135.179" stroke="#263238" stroke-linecap="round" stroke-linejoin="round"/>
<path d="M397.28 106.9L389.847 107.416C388.749 107.452 387.704 107.871 386.908 108.593C386.111 109.316 385.62 110.291 385.525 111.336V118.857C385.539 119.23 385.703 119.582 385.983 119.842C386.263 120.101 386.637 120.248 387.027 120.25C387.492 120.284 387.953 120.142 388.309 119.854C388.665 119.567 388.887 119.156 388.929 118.713V112.316C388.944 112.149 389.023 111.993 389.15 111.877C389.277 111.761 389.444 111.694 389.62 111.687V111.687C389.703 111.675 389.787 111.68 389.868 111.702C389.949 111.723 390.024 111.76 390.089 111.81C390.154 111.861 390.208 111.923 390.246 111.995C390.284 112.066 390.306 112.144 390.312 112.223L388.637 123.056" stroke="#263238" stroke-linecap="round" stroke-linejoin="round"/>
<path d="M442.3 113.235L436.812 113.575C436.339 113.637 435.857 113.605 435.398 113.48C434.939 113.355 434.512 113.14 434.144 112.849C433.776 112.558 433.476 112.197 433.262 111.789C433.048 111.381 432.925 110.936 432.901 110.48V105.806C432.969 104.847 433.406 103.946 434.128 103.276C434.85 102.605 435.806 102.213 436.812 102.175L442.3 101.783C442.773 101.719 443.255 101.75 443.714 101.875C444.174 102 444.601 102.214 444.968 102.506C445.335 102.797 445.635 103.159 445.847 103.567C446.059 103.976 446.18 104.422 446.201 104.878V109.634C446.134 110.589 445.698 111.487 444.977 112.152C444.257 112.818 443.302 113.203 442.3 113.235Z" fill="#999999" stroke="#263238" stroke-linecap="round" stroke-linejoin="round"/>
<path d="M455.557 109.706L452.208 109.923V108.53C453.493 105.817 454.131 104.465 455.449 101.742L457.361 101.607V108.2H458.182V109.593H457.361V111.367L455.6 111.481L455.557 109.706ZM455.557 108.313V104.517C454.876 106.085 454.531 106.869 453.839 108.427L455.557 108.313Z" fill="#263238"/>
<path d="M458.96 108.901V108.128L460.613 108.024V108.901C460.613 109.603 460.97 109.83 461.532 109.789C462.093 109.747 462.439 109.479 462.439 108.757V106.559C462.439 105.858 462.083 105.61 461.532 105.652C460.981 105.693 460.613 105.971 460.613 106.683V106.766L458.96 106.879C459.09 104.682 459.155 103.588 459.274 101.401L463.898 101.071V102.474L460.84 102.68C460.786 103.619 460.754 104.094 460.7 105.033C460.863 104.789 461.086 104.587 461.349 104.445C461.613 104.303 461.91 104.225 462.212 104.217C463.498 104.135 464.157 104.888 464.157 106.332V108.551C464.19 108.892 464.145 109.237 464.027 109.561C463.909 109.885 463.72 110.182 463.473 110.431C463.226 110.68 462.925 110.876 462.593 111.005C462.26 111.134 461.902 111.195 461.542 111.181C461.206 111.248 460.857 111.237 460.526 111.149C460.194 111.061 459.889 110.899 459.637 110.676C459.384 110.453 459.191 110.176 459.074 109.867C458.956 109.558 458.917 109.227 458.96 108.901Z" fill="#263238"/>
<path d="M465.291 104.929V102.474C465.273 102.253 465.304 102.032 465.381 101.823C465.459 101.615 465.582 101.424 465.742 101.265C465.902 101.105 466.096 100.979 466.311 100.896C466.525 100.813 466.756 100.774 466.988 100.782C467.205 100.736 467.43 100.74 467.645 100.795C467.86 100.849 468.058 100.952 468.223 101.094C468.388 101.236 468.515 101.414 468.593 101.613C468.672 101.812 468.699 102.026 468.673 102.237V104.702C468.693 104.922 468.664 105.144 468.588 105.352C468.511 105.561 468.389 105.751 468.23 105.911C468.07 106.071 467.877 106.197 467.663 106.28C467.449 106.364 467.219 106.402 466.988 106.394C466.769 106.44 466.542 106.435 466.326 106.381C466.11 106.326 465.91 106.222 465.744 106.079C465.578 105.936 465.451 105.757 465.372 105.557C465.293 105.357 465.266 105.141 465.291 104.929V104.929ZM467.56 104.847V102.247C467.56 101.814 467.333 101.648 466.988 101.669C466.642 101.69 466.404 101.896 466.404 102.329V104.929C466.404 105.363 466.62 105.528 466.988 105.507C467.355 105.486 467.56 105.28 467.56 104.847V104.847ZM471.028 100.637L472.109 100.565C470.38 104.63 469.516 106.663 467.787 110.707L466.707 110.779C468.435 106.735 469.3 104.713 471.028 100.648V100.637ZM470.186 109.118V106.652C470.165 106.433 470.194 106.212 470.271 106.004C470.347 105.796 470.47 105.606 470.629 105.447C470.789 105.287 470.982 105.163 471.196 105.08C471.41 104.998 471.64 104.961 471.871 104.971C472.09 104.922 472.318 104.925 472.535 104.979C472.753 105.033 472.953 105.136 473.12 105.28C473.286 105.424 473.414 105.604 473.492 105.805C473.57 106.007 473.596 106.223 473.567 106.436V108.901C473.586 109.121 473.555 109.343 473.477 109.551C473.4 109.758 473.277 109.948 473.116 110.107C472.956 110.266 472.762 110.391 472.547 110.473C472.332 110.555 472.102 110.592 471.871 110.583C471.653 110.629 471.426 110.625 471.21 110.57C470.994 110.515 470.796 110.412 470.63 110.268C470.465 110.124 470.338 109.945 470.261 109.745C470.184 109.545 470.158 109.33 470.186 109.118V109.118ZM472.454 109.046V106.436C472.454 106.002 472.228 105.837 471.871 105.858C471.514 105.878 471.298 106.074 471.298 106.518V109.118C471.298 109.562 471.514 109.727 471.871 109.706C472.228 109.685 472.454 109.489 472.454 109.046V109.046Z" fill="#263238"/>
<path d="M442.3 129.999L436.812 130.268C436.334 130.32 435.851 130.279 435.39 130.146C434.93 130.013 434.504 129.791 434.137 129.494C433.77 129.197 433.471 128.832 433.259 128.42C433.046 128.008 432.924 127.559 432.901 127.1V122.386C432.968 121.432 433.407 120.536 434.131 119.876C434.854 119.215 435.811 118.837 436.812 118.816L442.3 118.496C442.777 118.44 443.261 118.479 443.721 118.61C444.181 118.742 444.608 118.963 444.974 119.259C445.341 119.556 445.639 119.921 445.85 120.333C446.061 120.745 446.18 121.195 446.201 121.653V126.44C446.136 127.392 445.699 128.286 444.977 128.945C444.254 129.605 443.299 129.981 442.3 129.999V129.999Z" fill="#7E8AF5" stroke="#263238" stroke-linecap="round" stroke-linejoin="round"/>
<path d="M452.575 126.182V125.409L454.239 125.326V126.193C454.239 126.894 454.585 127.121 455.147 127.101C455.708 127.08 456.054 126.802 456.054 126.069V123.882C456.054 123.191 455.708 122.943 455.147 122.974C454.585 123.005 454.239 123.283 454.239 124.006V124.088L452.575 124.171L452.899 118.723L457.523 118.455V119.858L454.466 120.023C454.401 120.962 454.38 121.426 454.315 122.355C454.478 122.113 454.702 121.914 454.966 121.775C455.23 121.636 455.526 121.563 455.827 121.56C457.124 121.488 457.772 122.252 457.772 123.686V125.894C457.807 126.234 457.765 126.577 457.647 126.899C457.529 127.222 457.339 127.516 457.091 127.762C456.842 128.007 456.54 128.198 456.206 128.321C455.872 128.444 455.514 128.495 455.157 128.473C454.82 128.54 454.47 128.529 454.137 128.44C453.805 128.352 453.5 128.189 453.247 127.964C452.994 127.74 452.801 127.461 452.684 127.151C452.567 126.841 452.53 126.509 452.575 126.182Z" fill="#263238"/>
<path d="M458.96 125.852V125.089L460.613 124.996V125.883C460.613 126.574 460.97 126.812 461.531 126.781C462.093 126.75 462.439 126.492 462.439 125.749V123.551C462.439 122.85 462.082 122.602 461.531 122.633C460.98 122.664 460.613 122.943 460.613 123.665V123.747L458.96 123.84C459.09 121.643 459.155 120.549 459.273 118.362L463.897 118.094V119.497L460.84 119.662C460.786 120.601 460.754 121.075 460.7 122.014C460.862 121.772 461.086 121.572 461.35 121.433C461.614 121.294 461.911 121.221 462.212 121.22C463.498 121.148 464.157 121.911 464.157 123.355V125.574C464.192 125.914 464.149 126.258 464.031 126.582C463.914 126.906 463.724 127.201 463.476 127.448C463.228 127.695 462.926 127.888 462.592 128.013C462.258 128.138 461.9 128.193 461.542 128.173C461.201 128.242 460.848 128.231 460.513 128.141C460.178 128.051 459.87 127.885 459.616 127.657C459.363 127.429 459.171 127.145 459.056 126.831C458.942 126.517 458.909 126.181 458.96 125.852Z" fill="#263238"/>
<path d="M465.291 121.994V119.538C465.271 119.318 465.3 119.097 465.377 118.888C465.454 118.68 465.578 118.49 465.739 118.332C465.9 118.173 466.095 118.05 466.31 117.969C466.526 117.889 466.757 117.854 466.987 117.867C467.206 117.823 467.433 117.829 467.649 117.885C467.864 117.941 468.063 118.046 468.228 118.19C468.393 118.335 468.519 118.514 468.597 118.715C468.674 118.915 468.7 119.13 468.673 119.342V121.808C468.694 122.027 468.664 122.247 468.588 122.454C468.511 122.661 468.389 122.85 468.229 123.007C468.069 123.165 467.875 123.288 467.661 123.367C467.447 123.447 467.217 123.482 466.987 123.469C466.768 123.513 466.541 123.506 466.325 123.45C466.109 123.394 465.91 123.289 465.744 123.145C465.579 123.001 465.451 122.822 465.373 122.622C465.294 122.421 465.266 122.206 465.291 121.994ZM467.56 121.942V119.342C467.56 118.899 467.333 118.734 466.987 118.754C466.642 118.775 466.404 118.971 466.404 119.404V122.004C466.404 122.437 466.62 122.613 466.987 122.592C467.355 122.571 467.56 122.375 467.56 121.942V121.942ZM471.028 117.815L472.109 117.753C470.38 121.798 469.516 123.82 467.787 127.843L466.707 127.895C468.435 123.84 469.3 121.818 471.028 117.774V117.815ZM470.185 126.286V123.82C470.165 123.601 470.194 123.381 470.271 123.174C470.347 122.967 470.47 122.778 470.63 122.621C470.79 122.463 470.983 122.34 471.198 122.26C471.412 122.181 471.641 122.146 471.871 122.159C472.091 122.115 472.319 122.121 472.536 122.178C472.753 122.235 472.953 122.34 473.119 122.485C473.285 122.631 473.412 122.812 473.49 123.013C473.568 123.215 473.594 123.431 473.567 123.644V126.12C473.588 126.34 473.559 126.561 473.481 126.769C473.404 126.977 473.281 127.166 473.119 127.324C472.958 127.482 472.763 127.604 472.548 127.683C472.332 127.762 472.101 127.796 471.871 127.782C471.646 127.826 471.414 127.818 471.193 127.758C470.973 127.697 470.771 127.587 470.605 127.436C470.44 127.284 470.315 127.097 470.242 126.889C470.168 126.682 470.149 126.46 470.185 126.244V126.286ZM472.454 126.286V123.675C472.454 123.242 472.227 123.067 471.871 123.087C471.514 123.108 471.298 123.304 471.298 123.737V126.347C471.298 126.781 471.514 126.956 471.871 126.936C472.227 126.915 472.454 126.636 472.454 126.203V126.286Z" fill="#263238"/>
<path d="M177.321 183.431L109.71 184.927V78.9205L177.321 71.4819V183.431Z" fill="#7E8AF5"/>
<path opacity="0.8" d="M177.321 183.431L109.71 184.927V78.9205L177.321 71.4819V183.431Z" fill="white"/>
<path d="M244.987 181.946L177.321 183.431V71.482L244.944 64.0435L244.987 181.946Z" fill="#7E8AF5"/>
<path opacity="0.6" d="M244.987 181.946L177.321 183.431V71.482L244.944 64.0435L244.987 181.946Z" fill="white"/>
<path d="M312.609 180.46L244.987 181.945V64.0433L312.609 56.6047V180.46Z" fill="#7E8AF5"/>
<path opacity="0.4" d="M312.609 180.46L244.987 181.945V64.0433L312.609 56.6047V180.46Z" fill="white"/>
<path d="M312.609 56.6047L109.753 78.9203" stroke="#7F7F7F" stroke-linecap="round" stroke-linejoin="round"/>
<path d="M109.753 94.0659L312.609 74.2986" stroke="#7F7F7F" stroke-linecap="round" stroke-linejoin="round"/>
<path d="M312.609 91.9919L109.753 109.211" stroke="#7F7F7F" stroke-linecap="round" stroke-linejoin="round"/>
<path d="M109.753 124.377L312.609 109.717" stroke="#7F7F7F" stroke-linecap="round" stroke-linejoin="round"/>
<path d="M312.609 127.379L109.753 139.491" stroke="#7F7F7F" stroke-linecap="round" stroke-linejoin="round"/>
<path d="M109.753 154.637L312.609 145.073" stroke="#7F7F7F" stroke-linecap="round" stroke-linejoin="round"/>
<path d="M312.609 162.766L109.753 169.772" stroke="#7F7F7F" stroke-linecap="round" stroke-linejoin="round"/>
<path d="M109.753 184.927L312.609 180.46" stroke="#7F7F7F" stroke-linecap="round" stroke-linejoin="round"/>
<path d="M126.65 184.556V77.0635" stroke="#7F7F7F" stroke-linecap="round" stroke-linejoin="round"/>
<path d="M109.753 78.9204V184.927" stroke="#7F7F7F" stroke-linecap="round" stroke-linejoin="round"/>
<path d="M160.467 183.803V73.3389" stroke="#7F7F7F" stroke-linecap="round" stroke-linejoin="round"/>
<path d="M143.559 75.196V184.215" stroke="#7F7F7F" stroke-linecap="round" stroke-linejoin="round"/>
<path d="M194.273 183.06V69.6248" stroke="#7F7F7F" stroke-linecap="round" stroke-linejoin="round"/>
<path d="M177.321 71.4819V183.431" stroke="#7F7F7F" stroke-linecap="round" stroke-linejoin="round"/>
<path d="M228.1 182.317V65.9006" stroke="#7F7F7F" stroke-linecap="round" stroke-linejoin="round"/>
<path d="M211.181 67.7678V182.688" stroke="#7F7F7F" stroke-linecap="round" stroke-linejoin="round"/>
<path d="M261.895 181.574V62.1865" stroke="#7F7F7F" stroke-linecap="round" stroke-linejoin="round"/>
<path d="M244.987 64.0435V181.946" stroke="#7F7F7F" stroke-linecap="round" stroke-linejoin="round"/>
<path d="M295.701 180.832V58.4724" stroke="#7F7F7F" stroke-linecap="round" stroke-linejoin="round"/>
<path d="M278.792 60.3291V181.203" stroke="#7F7F7F" stroke-linecap="round" stroke-linejoin="round"/>
<path d="M312.609 56.6047V180.46" stroke="#7F7F7F" stroke-linecap="round" stroke-linejoin="round"/>
<path d="M109.753 78.9205V184.927L312.609 180.46V56.6565L109.753 78.9205Z" stroke="#263238" stroke-linecap="round" stroke-linejoin="round"/>
<path d="M109.753 169.771H110.963" stroke="#263238" stroke-linecap="round" stroke-linejoin="round"/>
<path d="M113.027 169.668L124.414 169.276" stroke="#263238" stroke-linecap="round" stroke-linejoin="round" stroke-dasharray="1.71 1.71"/>
<path d="M125.462 169.235H126.661L127.515 168.43" stroke="#263238" stroke-linecap="round" stroke-linejoin="round"/>
<path d="M129.2 166.79C134.267 161.993 136.763 159.568 141.862 154.688" stroke="#263238" stroke-linecap="round" stroke-linejoin="round" stroke-dasharray="1.98 1.98"/>
<path d="M142.749 153.873L143.602 153.048C143.948 153.337 144.121 153.491 144.456 153.791" stroke="#263238" stroke-linecap="round" stroke-linejoin="round"/>
<path d="M145.763 154.967L150.484 159.093" stroke="#263238" stroke-linecap="round" stroke-linejoin="round" stroke-dasharray="1.58 1.58"/>
<path d="M151.154 159.723L152.008 160.486C152.17 160.053 152.245 159.836 152.397 159.403" stroke="#263238" stroke-linecap="round" stroke-linejoin="round"/>
<path d="M153.088 157.391C155.746 149.88 157.075 146.104 159.732 138.511" stroke="#263238" stroke-linecap="round" stroke-linejoin="round" stroke-dasharray="1.83 1.83"/>
<path d="M160.035 137.562C160.197 137.118 160.273 136.902 160.424 136.468L161.623 136.396" stroke="#263238" stroke-linecap="round" stroke-linejoin="round"/>
<path d="M163.687 136.273L166.701 136.097" stroke="#263238" stroke-linecap="round" stroke-linejoin="round" stroke-dasharray="1.67 1.67"/>
<path d="M167.706 136.035L168.916 135.963L169.456 134.931" stroke="#263238" stroke-linecap="round" stroke-linejoin="round"/>
<path d="M170.514 132.868L176.305 121.519" stroke="#263238" stroke-linecap="round" stroke-linejoin="round" stroke-dasharray="1.95 1.95"/>
<path d="M176.824 120.518L177.364 119.487L178.574 119.394" stroke="#263238" stroke-linecap="round" stroke-linejoin="round"/>
<path d="M180.649 119.218L192.026 118.393" stroke="#263238" stroke-linecap="round" stroke-linejoin="round" stroke-dasharray="1.71 1.71"/>
<path d="M193.063 118.331L194.273 118.238L195.127 117.361" stroke="#263238" stroke-linecap="round" stroke-linejoin="round"/>
<path d="M196.477 115.969L201.198 111.068" stroke="#263238" stroke-linecap="round" stroke-linejoin="round" stroke-dasharray="1.58 1.58"/>
<path d="M201.868 110.367L202.721 109.469L203.931 109.376" stroke="#263238" stroke-linecap="round" stroke-linejoin="round"/>
<path d="M206.341 109.19L219.63 108.159C222.331 105.301 223.681 103.877 226.382 100.999" stroke="#263238" stroke-linecap="round" stroke-linejoin="round" stroke-dasharray="1.99 1.99"/>
<path d="M227.225 100.081C227.571 99.7092 227.744 99.5338 228.079 99.1624L228.932 99.9361" stroke="#263238" stroke-linecap="round" stroke-linejoin="round"/>
<path d="M230.628 101.453C235.684 106.033 238.191 108.344 243.29 113.008" stroke="#263238" stroke-linecap="round" stroke-linejoin="round" stroke-dasharray="1.98 1.98"/>
<path d="M244.133 113.792L244.987 114.576C245.332 114.215 245.494 114.029 245.84 113.658" stroke="#263238" stroke-linecap="round" stroke-linejoin="round"/>
<path d="M247.191 112.213C249.082 110.15 250.022 109.18 251.912 107.137" stroke="#263238" stroke-linecap="round" stroke-linejoin="round" stroke-dasharray="1.58 1.58"/>
<path d="M252.582 106.415L253.435 105.487L254.645 105.394" stroke="#263238" stroke-linecap="round" stroke-linejoin="round"/>
<path d="M256.968 105.208L270.344 104.176C273.725 100.473 275.411 98.6155 278.792 94.8911L284.875 94.3752" stroke="#263238" stroke-linecap="round" stroke-linejoin="round" stroke-dasharray="1.93 1.93"/>
<path d="M286.042 94.2513L287.252 94.1482L287.792 92.9927" stroke="#263238" stroke-linecap="round" stroke-linejoin="round"/>
<path d="M288.84 90.7334C291.152 85.7607 292.319 83.264 294.631 78.2603" stroke="#263238" stroke-linecap="round" stroke-linejoin="round" stroke-dasharray="1.95 1.95"/>
<path d="M295.161 77.115L295.701 75.9492" stroke="#263238" stroke-linecap="round" stroke-linejoin="round"/>
<path d="M109.753 154.637L126.65 153.842C133.414 150.448 136.795 148.735 143.559 145.258L152.007 144.804C155.389 138.356 157.085 135.107 160.467 128.576C163.849 125.192 165.534 123.5 168.916 120.075C172.297 113.472 173.983 110.15 177.364 103.464C184.128 106.095 187.509 107.426 194.273 110.139C197.654 113.111 199.34 114.607 202.721 117.63C209.485 110.614 212.866 107.065 219.63 99.8844C223.011 92.9824 224.697 89.5675 228.078 82.5313C234.842 88.5255 238.223 91.569 244.987 97.7282C248.368 104.187 250.054 107.426 253.435 113.967L270.344 112.739C273.725 109.067 275.411 107.22 278.792 103.454C282.174 92.8276 283.87 87.4835 287.252 76.7332C290.623 69.4494 292.319 65.7869 295.701 58.4309" stroke="#263238" stroke-linecap="round" stroke-linejoin="round"/>
<path d="M142.165 197.473C141.818 197.587 141.452 197.643 141.085 197.638C140.758 197.676 140.426 197.643 140.114 197.541C139.803 197.438 139.52 197.269 139.287 197.046C139.055 196.823 138.879 196.552 138.773 196.254C138.667 195.956 138.633 195.639 138.675 195.327V190.405C138.638 190.091 138.673 189.772 138.78 189.472C138.886 189.173 139.061 188.899 139.291 188.671C139.522 188.443 139.802 188.267 140.112 188.155C140.422 188.043 140.754 187.997 141.085 188.022C141.412 187.982 141.744 188.014 142.056 188.115C142.368 188.216 142.651 188.384 142.885 188.606C143.118 188.828 143.296 189.099 143.403 189.396C143.511 189.694 143.545 190.011 143.505 190.323V195.234C143.525 195.777 143.37 196.314 143.062 196.771C143.17 196.957 143.364 196.988 143.656 196.977H143.894V198.308H143.483C143.195 198.341 142.905 198.275 142.663 198.122C142.422 197.969 142.245 197.739 142.165 197.473V197.473ZM141.938 195.409V190.323C141.938 189.652 141.614 189.405 141.106 189.415C140.598 189.425 140.285 189.683 140.285 190.354V195.43C140.285 196.1 140.609 196.348 141.106 196.338C141.603 196.327 141.938 196.049 141.938 195.378V195.409Z" fill="#263238"/>
<path d="M146.833 190.302H145.169V189.271C146.519 189.271 146.995 188.971 147.33 188.053H148.41V197.421H146.811L146.833 190.302Z" fill="#263238"/>
<path d="M209.334 196.709C208.988 196.831 208.622 196.894 208.253 196.895C207.916 196.921 207.578 196.875 207.262 196.759C206.947 196.644 206.663 196.462 206.431 196.227C206.2 195.992 206.027 195.71 205.925 195.402C205.823 195.095 205.796 194.769 205.844 194.45V189.291C205.797 188.969 205.826 188.641 205.927 188.33C206.029 188.019 206.201 187.733 206.43 187.493C206.66 187.253 206.943 187.064 207.258 186.94C207.573 186.815 207.913 186.759 208.253 186.774C209.82 186.774 210.673 187.63 210.673 189.209V194.367C210.702 194.938 210.548 195.503 210.23 195.987C210.338 196.183 210.533 196.214 210.824 196.204H211.073V197.627H210.652C210.352 197.656 210.052 197.579 209.808 197.409C209.565 197.24 209.396 196.99 209.334 196.709V196.709ZM209.107 194.512V189.147C209.107 188.445 208.783 188.177 208.275 188.187C207.767 188.198 207.454 188.476 207.454 189.219V194.532C207.454 195.234 207.778 195.492 208.275 195.492C208.772 195.492 209.107 195.213 209.107 194.532V194.512Z" fill="#263238"/>
<path d="M211.743 195.647C211.729 194.986 211.865 194.331 212.141 193.726C212.417 193.121 212.827 192.579 213.342 192.139C214.552 190.88 214.897 190.075 214.897 189.198C214.897 188.321 214.584 188.074 214.076 188.084C213.568 188.095 213.244 188.373 213.244 189.116V190.148H211.743V189.188C211.743 187.61 212.553 186.691 214.119 186.671C215.686 186.65 216.496 187.527 216.496 189.106C216.496 190.282 215.999 191.334 214.519 192.882C213.568 193.913 213.32 194.378 213.32 195.058V195.275H216.345V196.689L211.743 196.74V195.647Z" fill="#263238"/>
<path d="M276.999 195.946C276.655 196.076 276.289 196.142 275.919 196.142C274.352 196.142 273.499 195.223 273.499 193.573V188.146C273.499 186.495 274.352 185.536 275.919 185.505C277.485 185.474 278.339 186.413 278.339 188.063V193.501C278.363 194.098 278.205 194.689 277.885 195.203C278.004 195.409 278.188 195.44 278.479 195.43H278.728V196.905H278.307C278.003 196.93 277.7 196.846 277.458 196.668C277.216 196.49 277.052 196.233 276.999 195.946V195.946ZM276.762 193.635V187.991C276.762 187.248 276.448 186.96 275.94 186.96C275.433 186.96 275.119 187.259 275.119 187.991V193.635C275.119 194.367 275.433 194.666 275.94 194.666C276.448 194.666 276.718 194.367 276.718 193.635H276.762Z" fill="#263238"/>
<path d="M279.322 193.5V192.654H280.824V193.573C280.824 194.305 281.137 194.604 281.645 194.604C282.153 194.604 282.477 194.336 282.477 193.418V192.572C282.477 191.612 282.153 191.262 281.396 191.272H280.867V189.786H281.44C282.034 189.786 282.401 189.508 282.401 188.672V187.919C282.401 187.176 282.066 186.887 281.602 186.887C281.137 186.887 280.835 187.186 280.835 187.867V188.548H279.333V188.001C279.333 186.34 280.143 185.402 281.656 185.381C283.168 185.36 283.989 186.237 283.989 187.898V188.342C283.989 189.456 283.644 190.147 282.909 190.457C283.762 190.766 284.076 191.489 284.076 192.572V193.5C284.076 195.161 283.265 196.08 281.699 196.09C280.132 196.1 279.322 195.182 279.322 193.5Z" fill="#263238"/>
<path d="M170.969 137.304C170.969 137.304 154.881 124.109 165.567 115.391C165.567 115.391 170.72 99.9155 187.65 102.092C204.58 104.269 196.099 95.1182 196.099 95.1182C196.099 95.1182 205.693 99.9156 201.285 103.619C202.609 103.679 203.925 103.384 205.084 102.768C206.243 102.152 207.198 101.239 207.843 100.132C207.843 100.132 210.792 105.146 205.282 107.354C205.282 107.354 212.488 109.098 210.565 113.028C210.565 113.028 205.444 110.429 204.083 120.25C202.722 130.072 186.429 128.638 186.429 128.638L170.969 137.304Z" fill="#263238" stroke="#263238" stroke-linecap="round" stroke-linejoin="round"/>
<path d="M171.995 140.574C171.995 140.069 168.17 151.201 175.441 150.262C178.888 149.818 173.983 140.574 173.983 140.574H171.995Z" fill="#263238" stroke="#263238" stroke-linecap="round" stroke-linejoin="round"/>
<path d="M207.465 110.49C207.465 110.49 203.143 109.83 202.29 114.617" stroke="#7F7F7F" stroke-linecap="round" stroke-linejoin="round"/>
<path d="M197.233 109.345C195.526 111.47 196.099 114.627 196.099 114.627" stroke="#7F7F7F" stroke-linecap="round" stroke-linejoin="round"/>
<path d="M206.244 103.619C204.662 105.684 202.365 107.146 199.761 107.746" stroke="#7F7F7F" stroke-linecap="round" stroke-linejoin="round"/>
<path d="M186.396 109.129C186.396 109.129 193.333 107.818 192.414 114.627" stroke="#7F7F7F" stroke-linecap="round" stroke-linejoin="round"/>
<path d="M220.408 273.725C220.408 273.725 226.166 302.427 220.408 330.551C214.649 358.675 211.095 448.99 211.095 448.99H175.258V269.237L218.603 267.783L220.408 273.725Z" fill="#999999"/>
<path opacity="0.2" d="M199.113 312.238C199.113 312.238 197.557 322.163 205.326 319.656C213.094 317.149 218.485 318.016 212.002 323.628C205.52 329.241 196.531 337.742 195.094 368.487C193.657 399.231 191.432 448.959 191.432 448.959H175.82L172.579 334.771L186.764 314.828L193.366 312.208L199.113 312.238Z" fill="black"/>
<path d="M220.408 273.725C220.408 273.725 226.166 302.427 220.408 330.551C214.649 358.675 211.095 448.99 211.095 448.99H175.258V269.237L218.603 267.783L220.408 273.725Z" stroke="#263238" stroke-linecap="round" stroke-linejoin="round"/>
<path d="M216.086 319.76C216.086 319.76 208.059 318.129 199.113 327.611" stroke="#263238" stroke-linecap="round" stroke-linejoin="round"/>
<path d="M204.213 276.954C204.213 276.954 203.845 308.937 199.524 321.07C195.202 333.202 188.72 390.131 189.443 449H152.397C152.397 449 150.236 342.663 148.777 326.961C147.319 311.258 139.777 313.889 150.214 269.248H205.736L204.213 276.954Z" fill="#999999" stroke="#263238" stroke-linecap="round" stroke-linejoin="round"/>
<path d="M197.19 283.805C200.042 283.619 202.646 283.403 205.012 283.176L205.325 288.447C202.862 288.685 200.139 288.912 197.19 289.097V283.805Z" fill="#263238"/>
<path d="M209.042 282.742C213.515 282.237 216.756 281.711 218.506 281.411L219.252 286.621C217.22 286.972 213.741 287.519 209.042 288.055V282.742Z" fill="#263238"/>
<path d="M148.237 287.942L149.08 282.784C155.152 283.434 160.964 283.867 166.507 284.114L166.139 289.345C160.489 289.056 154.503 288.623 148.237 287.942Z" fill="#263238"/>
<path d="M170.72 284.29C179.169 284.548 186.797 284.403 193.409 284.063V289.345C189.217 289.551 184.614 289.686 179.666 289.686C176.749 289.686 173.702 289.634 170.547 289.531L170.72 284.29Z" fill="#263238"/>
<path d="M273.682 227.897L282.801 222.646C282.801 222.646 286.636 213.051 291.444 210.441C296.252 207.831 301.038 205.427 302.248 206.077C303.458 206.727 302.01 208.914 298.888 211.091C296.943 212.453 302.605 210.142 309.865 206.964C314.187 205.045 319.178 202.373 319.945 203.529C322.765 207.728 308.342 213.072 308.342 213.072C308.342 213.072 313.29 212.845 311.367 216.332C311.367 216.332 312.091 219.602 310.405 220.696L308.493 222.924C307.707 225.125 306.189 227.019 304.171 228.32C299.821 230.634 294.979 231.977 290.007 232.251L278.015 240.267L273.682 227.897Z" fill="white" stroke="#263238" stroke-linecap="round" stroke-linejoin="round"/>
<path d="M305.36 213.495C305.36 213.495 295.161 215.455 295.701 217.622C296.241 219.788 299.407 218.261 299.407 218.261C299.407 218.261 296.036 219.355 296.403 220.552C296.77 221.748 299.158 221.728 299.158 221.728C299.158 221.728 296.036 222.409 296.403 223.791C296.77 225.174 298.845 225.648 300.563 225.432C302.281 225.215 303.599 224.658 304.085 225.483C304.571 226.309 299.396 224.988 296.403 227.01" stroke="#263238" stroke-linecap="round" stroke-linejoin="round"/>
<path d="M297.246 211.854C297.086 213.064 296.557 214.202 295.723 215.125C294.48 216.219 295.561 219.922 291.001 223.956" stroke="#263238" stroke-linecap="round" stroke-linejoin="round"/>
<path d="M307.607 217.25L301.935 217.9" stroke="#263238" stroke-linecap="round" stroke-linejoin="round"/>
<path d="M307.153 221.336L301.935 221.749" stroke="#263238" stroke-linecap="round" stroke-linejoin="round"/>
<path d="M252.085 233.437C260.005 231.374 269.577 225.731 274.18 222.811C274.445 222.637 274.752 222.529 275.072 222.498C275.393 222.467 275.716 222.514 276.012 222.635C276.309 222.755 276.568 222.945 276.767 223.187C276.966 223.429 277.098 223.715 277.151 224.018C277.669 228.011 279.311 234.81 284.843 236.656C292.762 239.318 285.2 243.424 280.165 244.807C275.13 246.189 239.11 262.861 228.306 260.581C217.502 258.301 213.904 256.65 208.859 246.684C203.813 236.718 206.33 188.641 206.33 188.641L221.456 185.041C221.456 185.041 225.41 188.424 227.333 211.091C229.256 233.757 232.422 236.594 232.422 236.594C232.422 236.594 242.027 229.816 239.509 236.367C239.488 236.367 249.363 234.139 252.085 233.437Z" fill="#7E8AF5" stroke="#263238" stroke-linecap="round" stroke-linejoin="round"/>
<path d="M234.442 240.257C234.442 240.257 230.542 252.699 227.603 251.75C224.665 250.801 225.442 247.407 230.304 240.257" stroke="#263238" stroke-linecap="round" stroke-linejoin="round"/>
<path d="M221.488 185.041C214.476 178.675 204.202 172.289 182.972 170.979C161.742 169.668 132.193 174.579 131.113 182.43C130.032 190.282 142.273 232.364 142.273 270.063C142.273 275.623 142.997 281.834 155.238 281.834C167.479 281.834 223.638 285.755 224.384 273.003C225.129 260.251 221.51 247.499 222.59 229.187C223.671 210.874 226.89 189.951 221.488 185.041Z" fill="#7E8AF5" stroke="#263238" stroke-linecap="round" stroke-linejoin="round"/>
<path d="M137.077 176.993C137.077 176.993 128.26 179.5 126.337 192.149C124.414 204.798 116.02 233.345 119.142 234.005C122.264 234.665 111.698 239.669 115.533 247.087C119.369 254.505 136.655 278.471 146.735 275.861C156.815 273.251 156.329 258.415 153.218 255.805C150.106 253.194 139.507 247.716 139.507 247.716C139.507 247.716 142.619 245.973 138.784 242.702C134.948 239.432 141.56 244.353 143.581 233.324C145.979 220.252 154.385 201.496 149.339 190.168" fill="#7E8AF5"/>
<path d="M137.077 176.993C137.077 176.993 128.26 179.5 126.337 192.149C124.414 204.798 116.02 233.345 119.142 234.005C122.264 234.665 111.698 239.669 115.533 247.087C119.369 254.505 136.655 278.471 146.735 275.861C156.815 273.251 156.329 258.415 153.218 255.805C150.106 253.194 139.507 247.716 139.507 247.716C139.507 247.716 142.619 245.973 138.784 242.702C134.948 239.432 141.56 244.353 143.581 233.324C145.979 220.252 154.385 201.496 149.339 190.168" stroke="#263238" stroke-linecap="round" stroke-linejoin="round"/>
<path d="M137.617 235.944C137.617 235.944 123.939 232.849 120.33 238.121C116.722 243.393 126.013 237.038 134.926 239.215" stroke="#263238" stroke-linecap="round" stroke-linejoin="round"/>
<path d="M157.41 260.798C155.249 259.323 150.095 256.764 146.735 259.766C143.375 262.769 135.337 264.553 135.812 266.844C136.288 269.134 139.291 269.794 144.693 267.287C150.095 264.78 145.633 267.937 146.606 272.951C147.578 277.966 148.367 282.526 152.591 281.669C152.591 281.669 152.969 283.846 156.815 282.866C156.815 282.866 159.689 285.115 164.249 283.124C164.249 283.124 166.777 285.59 170.493 281.339C174.21 277.089 171.919 276.036 171.919 276.036C171.919 276.036 170.245 271.115 166.517 276.036C166.517 276.036 167.166 269.949 163.406 266.132C161.542 264.22 159.538 262.438 157.41 260.798V260.798Z" fill="white" stroke="#263238" stroke-linecap="round" stroke-linejoin="round"/>
<path d="M154.211 280.163C154.211 280.163 160.294 276.459 158.976 274.282C157.658 272.105 152.731 276.676 152.731 276.676C152.731 276.676 153.455 275.5 152.018 273.694" stroke="#263238" stroke-linecap="round" stroke-linejoin="round"/>
<path d="M158.609 281.391C158.609 281.391 167.803 278.657 165.696 276.036C163.827 273.725 159.873 276.377 159.873 276.377" stroke="#263238" stroke-linecap="round" stroke-linejoin="round"/>
<path d="M170.839 276.954C170.839 276.954 169.867 279.575 165.556 282.113" stroke="#263238" stroke-linecap="round" stroke-linejoin="round"/>
<path d="M155.584 269.237C156.885 271.153 158.698 272.702 160.835 273.725" stroke="#263238" stroke-linecap="round" stroke-linejoin="round"/>
<path d="M137.617 246.684C137.617 246.684 129.881 243.084 123.939 245.859" stroke="#263238" stroke-linecap="round" stroke-linejoin="round"/>
<path d="M196.109 177.685L189.929 175.559L182.972 177.685C182.972 177.685 187.65 184.391 189.541 184.71C189.541 184.71 196.315 234.933 198.454 258.384C200.593 281.834 199.891 284.001 199.891 284.001L209.247 291.316L216.086 282.092C216.086 282.092 212.488 245.209 207.81 223.286C204.911 209.881 200.442 196.831 194.489 184.38C194.489 184.38 197.244 181.007 196.109 177.685Z" fill="#7E8AF5"/>
<path opacity="0.3" d="M196.109 177.685L189.929 175.559L182.972 177.685C182.972 177.685 187.65 184.391 189.541 184.71C189.541 184.71 196.315 234.933 198.454 258.384C200.593 281.834 199.891 284.001 199.891 284.001L209.247 291.316L216.086 282.092C216.086 282.092 212.488 245.209 207.81 223.286C204.911 209.881 200.442 196.831 194.489 184.38C194.489 184.38 197.244 181.007 196.109 177.685Z" fill="black"/>
<path d="M196.109 177.685L189.929 175.559L182.972 177.685C182.972 177.685 187.65 184.391 189.541 184.71C189.541 184.71 196.315 234.933 198.454 258.384C200.593 281.834 199.891 284.001 199.891 284.001L209.247 291.316L216.086 282.092C216.086 282.092 212.488 245.209 207.81 223.286C204.911 209.881 200.442 196.831 194.489 184.38C194.489 184.38 197.244 181.007 196.109 177.685Z" stroke="#263238" stroke-linecap="round" stroke-linejoin="round"/>
<path d="M196.844 160.486C196.844 160.486 195.624 168.028 198.659 173.197C198.659 173.197 192.091 175.941 189.271 176.292C186.451 176.643 171.984 168.41 171.984 168.41C173.875 159.743 174.551 150.876 173.994 142.039C173.065 127.493 190.34 151.129 190.34 151.129L198.649 158.351L196.844 160.486Z" fill="white"/>
<path d="M199.524 161.178C199.524 161.178 199.697 166.078 192.415 165.913C185.133 165.748 177.894 155.41 176.673 152.831C175.452 150.252 174.005 138.119 174.005 138.119L192.371 143.051L201.285 160.486L199.524 161.178Z" fill="#263238" stroke="#263238" stroke-linecap="round" stroke-linejoin="round"/>
<path d="M196.844 160.486C196.844 160.486 195.624 168.028 198.659 173.197C198.659 173.197 192.091 175.941 189.271 176.292C186.451 176.643 171.984 168.41 171.984 168.41C173.875 159.743 174.551 150.876 173.994 142.039C173.065 127.493 190.34 151.129 190.34 151.129L198.649 158.351L196.844 160.486Z" stroke="#263238" stroke-linecap="round" stroke-linejoin="round"/>
<path d="M197.611 169.452C197.611 169.452 194.014 175.343 189.93 175.559C185.846 175.776 172.168 163.179 169.294 165.098C167.503 166.39 166.196 168.199 165.567 170.256L177.797 184.091C177.797 184.091 186.753 176.787 190.351 177.004C193.949 177.22 201.684 184.091 201.684 184.091V174.074C201.684 174.074 199.308 167.172 197.611 169.452Z" fill="#7E8AF5" stroke="#263238" stroke-linecap="round" stroke-linejoin="round"/>
<path d="M202.83 116.557C202.83 116.557 207.864 130.66 206.87 134.25C206.87 134.25 211.559 160.981 200.388 163.138C191.572 164.809 182.853 156.721 179.525 153.172C178.62 152.201 177.926 151.068 177.483 149.839L175.323 143.793C175.323 143.793 170.925 144.103 168.246 138.47C165.567 132.837 171.023 127.369 175.247 135.901C175.247 135.901 178.553 127.276 178.305 123.809C178.056 120.343 182.821 121.189 183.804 117.764C183.804 117.743 195.105 119.487 202.83 116.557Z" fill="white"/>
<path d="M202.83 116.557C202.83 116.557 207.864 130.66 206.87 134.25C206.87 134.25 211.559 160.981 200.388 163.138C191.572 164.809 182.853 156.721 179.525 153.172C178.62 152.201 177.926 151.068 177.483 149.839L175.323 143.793C175.323 143.793 170.925 144.103 168.246 138.47C165.567 132.837 171.023 127.369 175.247 135.901C175.247 135.901 178.553 127.276 178.305 123.809C178.056 120.343 182.821 121.189 183.804 117.764C183.804 117.743 195.105 119.487 202.83 116.557Z" stroke="#263238" stroke-linecap="round" stroke-linejoin="round"/>
<path d="M202.29 136.685L208.253 143.855C208.393 144.027 208.487 144.228 208.528 144.441C208.569 144.655 208.556 144.874 208.489 145.082C208.422 145.289 208.304 145.478 208.144 145.633C207.985 145.788 207.789 145.903 207.573 145.97L203.338 147.394" fill="white"/>
<path d="M202.29 136.685L208.253 143.855C208.393 144.027 208.487 144.228 208.528 144.441C208.569 144.655 208.556 144.874 208.489 145.082C208.422 145.289 208.304 145.478 208.144 145.633C207.985 145.788 207.789 145.903 207.573 145.97L203.338 147.394" stroke="#263238" stroke-linecap="round" stroke-linejoin="round"/>
<path d="M193.614 150.262C193.614 150.262 195.461 153.894 201.641 150.685" stroke="#263238" stroke-linecap="round" stroke-linejoin="round"/>
<path d="M201.274 136.396C201.457 139.966 199.621 142.937 197.179 143.04C194.737 143.144 192.609 140.337 192.425 136.778C192.242 133.219 194.078 132.187 196.52 132.084C198.962 131.981 201.09 132.827 201.274 136.396Z" stroke="#263238" stroke-linecap="round" stroke-linejoin="round"/>
<path d="M212.521 135.591C212.704 139.161 211.235 142.122 209.28 142.205C207.324 142.287 205.52 139.471 205.336 135.901C205.152 132.331 206.643 131.331 208.642 131.238C210.641 131.145 212.337 132.022 212.521 135.591Z" fill="white" stroke="#263238" stroke-linecap="round" stroke-linejoin="round"/>
<path d="M192.447 131.207C192.447 131.207 195.105 127.493 199.815 130.33" stroke="#263238" stroke-linecap="round" stroke-linejoin="round"/>
<path d="M205.412 130.319C206.25 129.401 207.395 128.789 208.653 128.586" stroke="#263238" stroke-linecap="round" stroke-linejoin="round"/>
<path d="M192.447 136.758C190.887 137.174 189.287 137.437 187.672 137.542C184.009 137.201 174.026 132.569 174.026 132.569" stroke="#263238" stroke-linecap="round" stroke-linejoin="round"/>
<path d="M205.282 135.313L201.458 135.942" stroke="#263238" stroke-linecap="round" stroke-linejoin="round"/>
<path d="M199.124 136.83C199.016 137.933 198.324 138.769 197.568 138.707C196.812 138.645 196.304 137.676 196.401 136.644C196.499 135.612 197.212 134.704 197.957 134.766C198.703 134.828 199.232 135.726 199.124 136.83Z" fill="#263238"/>
<path d="M208.437 135.622C208.329 136.654 207.811 137.531 207.27 137.479C206.73 137.428 206.384 136.541 206.492 135.468C206.6 134.395 207.108 133.569 207.648 133.611C208.189 133.652 208.534 134.56 208.437 135.622Z" fill="#263238"/>
<path d="M165.75 259.89C167.641 255.227 180.336 256.001 180.336 256.001" stroke="#263238" stroke-linecap="round" stroke-linejoin="round"/>
<path d="M196.034 262.242C182.583 265.338 167.943 267.556 166.01 263.192" stroke="#263238" stroke-linecap="round" stroke-linejoin="round"/>
<path d="M219.252 256.001C219.252 256.001 217.847 256.434 215.503 257.125" stroke="#263238" stroke-linecap="round" stroke-linejoin="round"/>
<path d="M495.607 448.99H21.0735V388.656C21.0735 388.656 113.026 354.61 231.752 354.61C376.493 354.662 495.607 448.99 495.607 448.99Z" fill="#7E8AF5" stroke="#263238" stroke-linecap="round" stroke-linejoin="round"/>
<path opacity="0.2" d="M300.087 371.489L244.068 364.277L187.088 373.47L243.107 380.691L300.087 371.489Z" fill="black"/>
<path d="M293.227 370.983L241.173 364.277L188.223 372.82L240.276 379.526L293.227 370.983Z" fill="white" stroke="#263238" stroke-linecap="round" stroke-linejoin="round"/>
<path d="M300.087 368.971L248.033 362.265L195.083 370.808L247.136 377.514L300.087 368.971Z" fill="white" stroke="#263238" stroke-linecap="round" stroke-linejoin="round"/>
<path opacity="0.2" d="M193.138 406.102C203.013 406.102 211.019 404.541 211.019 402.615C211.019 400.689 203.013 399.128 193.138 399.128C183.263 399.128 175.258 400.689 175.258 402.615C175.258 404.541 183.263 406.102 193.138 406.102Z" fill="black"/>
<path d="M203.478 401.666C203.478 402.636 197.708 403.42 190.578 403.42C183.447 403.42 177.688 402.636 177.688 401.666V378.556C177.688 377.586 183.458 376.802 190.578 376.802C197.698 376.802 203.478 377.586 203.478 378.556V401.666Z" fill="white" stroke="#263238" stroke-linecap="round" stroke-linejoin="round"/>
<path d="M203.478 378.556C203.478 379.526 197.708 380.31 190.578 380.31C183.447 380.31 177.688 379.526 177.688 378.556C177.688 377.586 183.458 376.802 190.578 376.802C197.698 376.802 203.478 377.586 203.478 378.556Z" fill="white" stroke="#263238" stroke-linecap="round" stroke-linejoin="round"/>
<path d="M201.922 399.479C201.581 399.485 201.249 399.374 200.987 399.166C200.725 398.957 200.55 398.665 200.496 398.344C200.472 398.169 200.485 397.991 200.534 397.82C200.583 397.65 200.668 397.491 200.783 397.352C200.897 397.214 201.04 397.099 201.203 397.014C201.365 396.929 201.543 396.876 201.727 396.858C202.051 396.858 209.874 395.703 209.874 388.976C209.874 387.284 209.398 386.139 208.469 385.561C206.73 384.529 203.478 385.334 202.473 385.716C202.121 385.849 201.728 385.849 201.377 385.715C201.025 385.58 200.741 385.322 200.582 384.994C200.513 384.832 200.478 384.659 200.481 384.484C200.483 384.31 200.522 384.137 200.596 383.977C200.669 383.817 200.776 383.673 200.909 383.554C201.042 383.434 201.199 383.341 201.371 383.281C201.922 383.075 206.773 381.362 210.079 383.384C211.862 384.478 212.769 386.355 212.769 388.976C212.769 396.198 205.811 398.994 202.127 399.468L201.922 399.479Z" fill="white" stroke="#263238" stroke-linecap="round" stroke-linejoin="round"/>
<path d="M220.451 384.436C219.597 385.221 219.014 385.963 219.165 386.108C219.317 386.252 220.138 385.716 221.002 384.932C221.866 384.148 222.439 383.405 222.288 383.271C222.136 383.137 221.315 383.663 220.451 384.436Z" fill="#263238" stroke="#263238" stroke-linecap="round" stroke-linejoin="round"/>
<path d="M225.096 377.349C221.564 380.557 219.532 383.91 220.559 384.839C221.585 385.767 225.291 383.931 228.824 380.712L251.588 360.027C255.121 356.818 257.152 353.455 256.126 352.526C255.099 351.598 251.404 353.434 247.871 356.653L225.096 377.349Z" fill="#7E8AF5" stroke="#263238" stroke-linecap="round" stroke-linejoin="round"/>
<path d="M248.25 363.07L247.31 363.926C246.651 363.421 246.003 362.895 245.376 362.307C244.749 361.719 244.144 361.141 243.593 360.553L244.533 359.696C245.084 360.284 245.678 360.873 246.316 361.45C246.953 362.028 247.602 362.565 248.25 363.07Z" fill="#263238" stroke="#263238" stroke-linecap="round" stroke-linejoin="round"/>
<path d="M253.328 352.867C253.328 352.867 251.75 351.938 248.142 354.476C244.533 357.014 241.173 361.399 239.499 361.254" stroke="#263238" stroke-linecap="round" stroke-linejoin="round"/>
<path d="M209.485 395.579C209.485 395.579 212.11 389.523 212.11 386.428C212.11 383.333 218.938 372.902 223.994 371.066C229.051 369.229 246.078 361.564 247.32 364.669C248.563 367.775 240.903 371.623 239.293 372.345C237.502 373.418 235.817 374.644 234.258 376.007C234.258 376.007 242.048 374.522 242.901 372.17C243.755 369.817 246.143 366.681 247.439 368.693C248.736 370.705 248.141 375.822 246.121 379.753V382.404C246.121 382.404 248.336 385.499 245.927 388.068L244.068 389.894C244.068 389.894 247.309 392.989 242.901 395.568C242.901 395.568 244.922 398.313 241.292 401.047C241.292 401.047 233.642 404.524 228.813 405.617C223.984 406.711 219.759 413.303 219.759 413.303L209.485 395.579Z" fill="white" stroke="#263238" stroke-linecap="round" stroke-linejoin="round"/>
<path d="M61.5457 290.707L74.1647 263.811L66.0401 241.279L65.2298 215.435L87.4645 203.529L107.095 200.372L115.101 204.798L118.429 212.164C118.429 212.164 128.412 231.436 126.867 235.14C125.322 238.844 124.176 242.362 124.176 242.362C124.176 242.362 128.887 252.369 131.674 255.547C134.462 258.725 125.819 256.795 124.803 262.521C123.788 268.247 124.998 283.444 117.586 284.135C110.174 284.826 105.702 282.629 105.021 288.602C104.34 294.576 96.7343 309.742 96.7343 309.742L61.5457 290.707Z" fill="white" stroke="#263238" stroke-linecap="round" stroke-linejoin="round"/>
<path d="M123.452 183.184C122.372 179.717 111.968 184.535 110.887 191.963C110.887 191.963 109.559 180.615 106.123 179.531C103.119 178.593 98.9706 183.741 100.472 189.848C100.472 189.848 89.247 184.215 85.6277 185.526C82.9483 186.495 82.0083 191.489 87.7885 195.843C87.7885 195.843 52.6971 188.394 54.7498 217.58C54.7498 217.58 35.4539 231.312 71.1503 270.321C71.1503 270.321 79.6207 268.526 81.9543 267.226C83.3048 266.472 94.595 257.94 94.595 257.94C91.3538 256.836 85.7141 253.679 84.1799 249.873C82.2352 245.054 84.839 239.298 89.5819 238.524C92.4234 238.06 94.0332 239.267 96.0643 241.433C96.0643 241.433 91.3862 235.79 91.6779 233.603C92.0453 230.869 99.1111 227.97 99.6297 225.256C99.8673 223.977 96.7234 221.46 97.5553 220.397C101.79 215.001 122.026 221.253 119.952 203.364C117.878 185.474 124.965 188.043 123.452 183.184Z" fill="#263238" stroke="#263238" stroke-linecap="round" stroke-linejoin="round"/>
<path d="M122.707 240.958C122.707 242.372 122.416 243.527 121.94 243.538C121.465 243.548 121.065 242.413 121.022 241C120.979 239.586 121.314 238.431 121.778 238.42C122.243 238.41 122.664 239.566 122.707 240.958Z" fill="#263238"/>
<path d="M119.163 235.882C119.163 235.882 120.395 232.261 122.869 232.024" stroke="#263238" stroke-linecap="round" stroke-linejoin="round"/>
<path d="M92.6501 208.016C104.772 208.935 94.7461 191.943 94.7461 191.943" stroke="#7F7F7F" stroke-linecap="round" stroke-linejoin="round"/>
<path d="M61.9021 215.971C61.9021 215.971 71.442 202.724 89.0094 207.356" stroke="#7F7F7F" stroke-linecap="round" stroke-linejoin="round"/>
<path d="M109.256 200.423C110.445 206.304 109.256 214.166 95.103 215.115" stroke="#7F7F7F" stroke-linecap="round" stroke-linejoin="round"/>
<path d="M106.836 193.893C107.327 194.785 107.753 195.709 108.111 196.658" stroke="#7F7F7F" stroke-linecap="round" stroke-linejoin="round"/>
<path d="M119.93 448.99C119.93 448.99 130.864 341.466 117.899 321.173C104.935 300.879 66.1806 277.068 52.319 287.385C4.2196 323.35 4.05753 354.063 1 448.969L119.93 448.99Z" fill="#263238" stroke="#263238" stroke-linecap="round" stroke-linejoin="round"/>
<path d="M109.375 317.304C109.375 317.304 124.663 321.142 133.144 343.096C140.955 363.245 155.152 389.812 164.627 403.048C165.376 404.063 166.411 404.856 167.611 405.334C168.811 405.812 170.129 405.957 171.412 405.751C175.582 405.122 183.534 404.637 191.15 400.686C198.205 397.023 204.439 393.01 212.283 394.104C220.127 395.197 225.043 402.161 223.779 412.22C222.568 421.815 177.397 446.772 150.722 446.772C128.963 446.772 109.072 389.739 102.428 372.737C95.7835 355.735 88.8473 318.429 109.375 317.304Z" fill="#263238" stroke="#263238" stroke-linecap="round" stroke-linejoin="round"/>
<path d="M101.326 319.594C103.315 318.19 105.703 317.391 108.175 317.304" stroke="#7F7F7F" stroke-linecap="round" stroke-linejoin="round"/>
<path d="M95.9998 327.621C96.4162 326.26 96.9849 324.945 97.696 323.701" stroke="#7F7F7F" stroke-linecap="round" stroke-linejoin="round"/>
<path d="M118.342 408.712C111.882 397.058 106.167 385.041 101.229 372.727C97.0907 362.131 92.8339 343.664 95.1784 330.984" stroke="#7F7F7F" stroke-linecap="round" stroke-linejoin="round"/>
<path d="M108.867 313.497C108.867 313.497 114.907 305.089 108.867 298.135C102.828 291.181 75.2669 276.16 64.9599 279.864C64.1825 280.107 63.4648 280.499 62.85 281.014C62.2353 281.53 61.7362 282.159 61.3829 282.864C61.0296 283.568 60.8293 284.334 60.7942 285.115C60.759 285.895 60.8898 286.674 61.1785 287.405C61.1785 287.405 81.9006 288.272 108.867 313.497Z" fill="#263238" stroke="#263238" stroke-linecap="round" stroke-linejoin="round"/>
<path d="M105.518 311.114C106.372 311.877 107.236 312.661 108.1 313.476" stroke="#7F7F7F" stroke-linecap="round" stroke-linejoin="round"/>
<path d="M68.2551 288.953C75.4182 291.016 87.0001 295.876 100.775 307.09" stroke="#7F7F7F" stroke-linecap="round" stroke-linejoin="round"/>
<path d="M60.4436 287.385C61.658 287.473 62.8641 287.645 64.0521 287.901" stroke="#7F7F7F" stroke-linecap="round" stroke-linejoin="round"/>
<path d="M170.644 419.886C170.644 419.886 170.644 413.86 167.328 412.21C164.011 410.559 166.723 419.886 163.406 427.572" stroke="#7F7F7F" stroke-linecap="round" stroke-linejoin="round"/>
<path d="M135.628 354.084C135.628 354.084 138.351 354.352 140.76 379.577" stroke="#7F7F7F" stroke-linecap="round" stroke-linejoin="round"/>
<path d="M94.5412 257.878L96.8533 258.291C96.9297 261.395 97.6996 264.449 99.1113 267.246C101.272 271.084 104.34 271.817 111.547 279.286C118.267 286.24 121.357 281.71 121.746 281.06C121.382 281.88 120.804 282.595 120.065 283.137C119.327 283.68 118.454 284.03 117.532 284.156C110.131 284.847 105.648 282.649 104.967 288.623C103.779 284.001 99.9108 278.44 96.8533 271.486C94.9956 267.181 94.2044 262.524 94.5412 257.878V257.878Z" fill="#263238" stroke="#263238" stroke-linecap="round" stroke-linejoin="round"/>
<path opacity="0.3" d="M97.6957 253.535C98.5492 248.779 93.3741 239.091 96.0859 241.34C98.7977 243.589 102.331 251.884 106.555 255.041C110.779 258.198 110.38 265.596 116.419 262.49C119.051 261.09 122.15 260.72 125.062 261.458C124.925 261.791 124.827 262.137 124.771 262.49C123.766 268.247 124.965 283.413 117.553 284.104C115.418 284.256 113.276 284.301 111.136 284.238C106.944 280.05 100.958 273.828 98.668 270.218C94.9623 264.43 96.853 258.291 97.6957 253.535Z" fill="#263238"/>
<path d="M123.398 267.288C123.398 267.288 119.606 265.709 119.682 263.439" stroke="#263238" stroke-linecap="round" stroke-linejoin="round"/>
</svg>
