<svg width="26" height="26" viewBox="0 0 26 26" fill="none" xmlns="http://www.w3.org/2000/svg">
<path d="M0.751952 13.1195C1.19124 13.5587 1.63052 13.697 2.49731 13.697L12.002 13.7473C12.0898 13.7473 12.1648 13.7473 12.2028 13.7971C12.2403 13.8346 12.2527 13.9102 12.2527 13.9857L12.2902 23.5032C12.303 24.3695 12.4412 24.8087 12.8805 25.248C13.4709 25.8507 14.2996 25.7505 14.9146 25.1478C15.2414 24.8211 15.505 24.2816 15.7434 23.7791L25.3487 3.06249C25.8507 2.0082 25.788 1.22927 25.2737 0.714452C24.7707 0.212488 23.9923 0.149809 22.938 0.651773L2.22088 10.2571C1.71838 10.4955 1.17892 10.7591 0.85213 11.0859C0.249451 11.7009 0.149273 12.5168 0.751952 13.1195Z" fill="#263A5C"/>
</svg>
