<svg width="30" height="30" viewBox="0 0 30 30" fill="none" xmlns="http://www.w3.org/2000/svg">
<path d="M15 27.5313C14.6667 27.5313 14.3488 27.4688 14.0463 27.3438C13.7438 27.2188 13.4679 27.0417 13.2187 26.8125L3.1875 16.7813C2.95833 16.5313 2.78125 16.255 2.65625 15.9525C2.53125 15.65 2.46875 15.3325 2.46875 15C2.46875 14.6667 2.53125 14.3438 2.65625 14.0313C2.78125 13.7188 2.95833 13.4479 3.1875 13.2188L13.2187 3.1875C13.4687 2.9375 13.745 2.755 14.0475 2.64C14.35 2.525 14.6675 2.46792 15 2.46875C15.3333 2.46875 15.6562 2.52625 15.9687 2.64125C16.2812 2.75625 16.5521 2.93833 16.7812 3.1875L26.8125 13.2188C27.0625 13.4479 27.245 13.7188 27.36 14.0313C27.475 14.3438 27.5321 14.6667 27.5312 15C27.5312 15.3333 27.4742 15.6513 27.36 15.9538C27.2458 16.2563 27.0633 16.5321 26.8125 16.7813L16.7812 26.8125C16.5521 27.0417 16.2812 27.2188 15.9687 27.3438C15.6562 27.4688 15.3333 27.5313 15 27.5313ZM13.75 16.25H16.25V8.75H13.75V16.25ZM15 20C15.3542 20 15.6512 19.88 15.8912 19.64C16.1312 19.4 16.2508 19.1033 16.25 18.75C16.25 18.3958 16.13 18.0992 15.89 17.86C15.65 17.6208 15.3533 17.5008 15 17.5C14.6458 17.5 14.3492 17.62 14.11 17.86C13.8708 18.1 13.7508 18.3967 13.75 18.75C13.75 19.1042 13.87 19.4013 14.11 19.6413C14.35 19.8813 14.6467 20.0008 15 20Z" fill="#263A5C"/>
</svg>
