<svg width="69" height="69" viewBox="0 0 69 69" fill="none" xmlns="http://www.w3.org/2000/svg">
<path d="M34.105 62.5968C33.3471 62.5968 32.6243 62.4547 31.9365 62.1705C31.2487 61.8863 30.6216 61.4837 30.055 60.9626L7.24733 38.1549C6.72628 37.5865 6.32365 36.9584 6.03944 36.2706C5.75523 35.5828 5.61313 34.8609 5.61313 34.1049C5.61313 33.3471 5.75523 32.6129 6.03944 31.9023C6.32365 31.1918 6.72628 30.576 7.24733 30.055L30.055 7.24726C30.6235 6.67884 31.2516 6.26389 31.9393 6.00242C32.6271 5.74095 33.349 5.61116 34.105 5.61306C34.8629 5.61306 35.5971 5.74379 36.3076 6.00526C37.0181 6.26674 37.6339 6.68073 38.155 7.24726L60.9627 30.055C61.5311 30.576 61.9461 31.1918 62.2075 31.9023C62.469 32.6129 62.5988 33.3471 62.5969 34.1049C62.5969 34.8628 62.4671 35.5857 62.2075 36.2735C61.948 36.9612 61.533 37.5884 60.9627 38.1549L38.155 60.9626C37.6339 61.4837 37.0181 61.8863 36.3076 62.1705C35.5971 62.4547 34.8629 62.5968 34.105 62.5968ZM34.105 56.9127L56.9127 34.1049L34.105 11.2972L11.2973 34.1049L34.105 56.9127ZM31.2629 36.947H36.9471V19.8945H31.2629V36.947ZM34.105 45.4733C34.9103 45.4733 35.5857 45.2004 36.1314 44.6548C36.6771 44.1091 36.949 43.4346 36.9471 42.6312C36.9471 41.8259 36.6743 41.1514 36.1286 40.6076C35.5829 40.0638 34.9084 39.791 34.105 39.7891C33.2998 39.7891 32.6252 40.0619 32.0814 40.6076C31.5377 41.1533 31.2648 41.8278 31.2629 42.6312C31.2629 43.4364 31.5358 44.1119 32.0814 44.6576C32.6271 45.2033 33.3016 45.4752 34.105 45.4733Z" fill="#263A5C"/>
</svg>
