<svg width="687" height="457" viewBox="0 0 687 457" fill="none" xmlns="http://www.w3.org/2000/svg">
<path d="M309.756 166.377C336.347 150.726 345.619 115.391 321.814 95.76C311.984 87.6531 301.169 80.7076 289.574 75.11C261.075 61.3529 229.138 56.3554 197.799 60.7495C166.461 65.1437 137.129 78.7321 113.514 99.7963C89.8978 120.861 73.0587 148.455 65.1257 179.089C57.1926 209.724 58.5219 242.023 68.9454 271.902C79.369 301.781 98.4186 327.898 123.685 346.95C148.952 366.003 179.301 377.135 210.895 378.939C223.75 379.673 236.576 378.85 249.105 376.533C279.447 370.923 288.49 335.53 272.839 308.939L258.919 285.292C250.955 271.761 232.94 268.279 217.265 267.384C207.735 266.84 198.58 263.482 190.959 257.735C183.337 251.988 177.591 244.11 174.447 235.097C171.303 226.084 170.902 216.341 173.295 207.101C175.688 197.86 180.767 189.536 187.891 183.182C195.014 176.829 203.862 172.73 213.315 171.404C222.768 170.079 232.402 171.586 240.998 175.736C255.137 182.562 272.578 188.261 286.109 180.297L309.756 166.377Z" fill="url(#paint0_linear_267_1078)" fill-opacity="0.15"/>
<path d="M483.502 371.287L474.859 370.122V329.659L483.502 330.536V371.287Z" fill="#999999" stroke="#263238" stroke-linecap="round" stroke-linejoin="round"/>
<path d="M677.801 350.22L280.538 309.984V79.9158L677.801 30.8586V350.22Z" fill="white" stroke="#263238" stroke-linecap="round" stroke-linejoin="round"/>
<path d="M681.193 30.446L277.124 80.3595C274.336 80.7102 272.067 79.3278 272.067 77.1715V73.6534C272.067 71.59 274.336 69.5267 277.124 69.1552L681.193 14.7952C683.981 14.4135 686.25 16.5181 686.25 19.4894V24.4416C686.276 25.8493 685.784 27.2212 684.861 28.3184C683.937 29.4156 682.639 30.1685 681.193 30.446Z" fill="#999999" stroke="#263238" stroke-linecap="round" stroke-linejoin="round"/>
<path d="M670.422 20.4488L677.487 19.479" stroke="white" stroke-linecap="round" stroke-linejoin="round"/>
<path d="M651.439 23.0488L662.243 21.5735" stroke="white" stroke-linecap="round" stroke-linejoin="round"/>
<path d="M313.976 68.9902L645.065 23.8948" stroke="white" stroke-linecap="round" stroke-linejoin="round"/>
<path d="M280.851 73.5093L305.43 70.1562" stroke="white" stroke-linecap="round" stroke-linejoin="round"/>
<path d="M518.161 316.113L450.593 310.304V219.174L518.215 219.03L518.161 316.113Z" fill="#7E8AF5"/>
<path opacity="0.8" d="M518.161 316.113L450.593 310.304V219.174L518.215 219.03L518.161 316.113Z" fill="white"/>
<path d="M585.783 321.921L518.161 316.112V219.071L585.783 218.937V321.921Z" fill="#7E8AF5"/>
<path opacity="0.6" d="M585.783 321.921L518.161 316.112V219.071L585.783 218.937V321.921Z" fill="white"/>
<path d="M653.395 327.729L585.783 321.921V218.896L653.395 218.751V327.729Z" fill="#7E8AF5"/>
<path opacity="0.4" d="M653.395 327.729L585.783 321.921V218.896L653.395 218.751V327.729Z" fill="white"/>
<path d="M653.395 218.751L450.593 219.174" stroke="#7F7F7F" stroke-linecap="round" stroke-linejoin="round"/>
<path d="M450.593 232.194L653.449 234.32" stroke="#7F7F7F" stroke-linecap="round" stroke-linejoin="round"/>
<path d="M653.395 249.888L450.593 245.214" stroke="#7F7F7F" stroke-linecap="round" stroke-linejoin="round"/>
<path d="M450.593 258.276L653.449 265.498" stroke="#7F7F7F" stroke-linecap="round" stroke-linejoin="round"/>
<path d="M653.395 281.024L450.593 271.244" stroke="#7F7F7F" stroke-linecap="round" stroke-linejoin="round"/>
<path d="M450.593 284.264L653.449 296.593" stroke="#7F7F7F" stroke-linecap="round" stroke-linejoin="round"/>
<path d="M653.395 312.161L450.593 297.284" stroke="#7F7F7F" stroke-linecap="round" stroke-linejoin="round"/>
<path d="M450.593 310.304L653.449 327.729" stroke="#7F7F7F" stroke-linecap="round" stroke-linejoin="round"/>
<path d="M467.447 311.759V219.133" stroke="#7F7F7F" stroke-linecap="round" stroke-linejoin="round"/>
<path d="M450.593 219.174V310.304" stroke="#7F7F7F" stroke-linecap="round" stroke-linejoin="round"/>
<path d="M501.253 314.658V219.071" stroke="#7F7F7F" stroke-linecap="round" stroke-linejoin="round"/>
<path d="M484.355 219.071V313.172" stroke="#7F7F7F" stroke-linecap="round" stroke-linejoin="round"/>
<path d="M535.069 317.567V218.999" stroke="#7F7F7F" stroke-linecap="round" stroke-linejoin="round"/>
<path d="M518.161 219.071V316.154" stroke="#7F7F7F" stroke-linecap="round" stroke-linejoin="round"/>
<path d="M568.875 320.466V218.927" stroke="#7F7F7F" stroke-linecap="round" stroke-linejoin="round"/>
<path d="M551.967 218.958V319.032" stroke="#7F7F7F" stroke-linecap="round" stroke-linejoin="round"/>
<path d="M602.681 323.376V218.854" stroke="#7F7F7F" stroke-linecap="round" stroke-linejoin="round"/>
<path d="M585.783 218.896V321.921" stroke="#7F7F7F" stroke-linecap="round" stroke-linejoin="round"/>
<path d="M636.497 326.275V218.782" stroke="#7F7F7F" stroke-linecap="round" stroke-linejoin="round"/>
<path d="M619.589 218.823V324.83" stroke="#7F7F7F" stroke-linecap="round" stroke-linejoin="round"/>
<path d="M653.395 218.751V327.729" stroke="#7F7F7F" stroke-linecap="round" stroke-linejoin="round"/>
<path d="M450.593 219.174V310.304L653.449 327.729V218.751L450.593 219.174Z" stroke="#263238" stroke-linecap="round" stroke-linejoin="round"/>
<path d="M458.998 310.634L453.92 310.201V284.068L458.998 284.377V310.634Z" fill="#263238"/>
<path d="M464.065 311.078L458.998 310.634V271.265L464.065 271.512V311.078Z" fill="#7E8AF5"/>
<path d="M475.896 312.089L470.829 311.655V265.229L475.896 265.435V312.089Z" fill="#263238"/>
<path d="M480.974 312.522L475.896 312.089V258.74L480.974 258.915V312.522Z" fill="#7E8AF5"/>
<path d="M492.804 313.533L487.737 313.1V272.637L492.804 272.884V313.533Z" fill="#263238"/>
<path d="M497.871 313.987L492.804 313.554V266.096L497.871 266.302V313.987Z" fill="#7E8AF5"/>
<path d="M509.712 315.019L504.634 314.586V287.163L509.712 287.473V315.019Z" fill="#263238" stroke="#263238" stroke-linecap="round" stroke-linejoin="round"/>
<path d="M514.779 315.411L509.712 314.978V281.963L514.779 282.242V315.411Z" fill="#7E8AF5" stroke="#7E8AF5" stroke-linecap="round" stroke-linejoin="round"/>
<path d="M526.61 316.422L521.542 315.989V269.016L526.61 269.232V316.422Z" fill="#263238"/>
<path d="M531.688 316.855L526.61 316.422V278.125L531.688 278.383V316.855Z" fill="#7E8AF5"/>
<path d="M543.507 317.866L538.44 317.433V276.702L543.507 276.949V317.866Z" fill="#263238"/>
<path d="M548.585 318.3L543.518 317.866V269.954L548.585 270.171V318.3Z" fill="#7E8AF5"/>
<path d="M560.426 319.311L555.348 318.877V267.953L560.426 268.159V319.311Z" fill="#263238"/>
<path d="M565.493 319.744L560.426 319.311V271.966L565.493 272.193V319.744Z" fill="#7E8AF5"/>
<path d="M577.324 320.755L572.257 320.322V257.595L577.324 257.76V320.755Z" fill="#263238"/>
<path d="M582.402 321.209L577.324 320.765V250.301L582.402 250.435V321.209Z" fill="#7E8AF5"/>
<path d="M594.286 322.241L589.219 321.807V262.733L594.286 262.908V322.241Z" fill="#263238"/>
<path d="M599.299 259.462V322.643L594.286 322.241V259.307L599.299 259.462Z" fill="#7E8AF5"/>
<path d="M611.14 323.654L606.062 323.221V255.335L611.14 255.48V323.654Z" fill="#263238"/>
<path d="M616.207 324.087L611.14 323.654V256.883L616.207 257.027V324.087Z" fill="#7E8AF5"/>
<path d="M628.038 325.099L622.971 324.665V245.895L628.038 245.998V325.099Z" fill="#263238"/>
<path d="M633.116 325.532L628.038 325.099V241.655L633.116 241.738V325.532Z" fill="#7E8AF5"/>
<path d="M644.946 326.543L639.868 326.11V233.721L644.946 233.773V326.543Z" fill="#263238"/>
<path d="M650.013 326.976L644.946 326.543V229.863H650.013V326.976Z" fill="#7E8AF5"/>
<path d="M519.598 267.922L504.894 267.303C504.089 267.307 503.312 267.025 502.713 266.512C502.114 265.999 501.736 265.292 501.653 264.528V255.572C501.686 255.201 501.797 254.839 501.979 254.51C502.162 254.18 502.411 253.888 502.713 253.651C503.015 253.415 503.364 253.238 503.738 253.132C504.113 253.026 504.506 252.993 504.894 253.035L519.598 253.457C520.407 253.439 521.192 253.716 521.795 254.232C522.397 254.747 522.771 255.463 522.839 256.233V265.374C522.81 265.747 522.702 266.111 522.521 266.444C522.34 266.776 522.091 267.07 521.788 267.309C521.486 267.547 521.135 267.724 520.759 267.829C520.382 267.935 519.988 267.966 519.598 267.922Z" fill="white" stroke="#263238" stroke-linecap="round" stroke-linejoin="round"/>
<path d="M505.888 263.878C505.39 263.811 504.936 263.569 504.615 263.198C504.295 262.828 504.133 262.356 504.159 261.876V261.371H505.672V261.99C505.672 262.495 505.985 262.722 506.493 262.743C507 262.763 507.314 262.557 507.314 262.031C507.314 261.505 507.022 260.999 505.953 260.287C504.656 259.41 504.202 258.74 504.202 257.842C504.185 257.615 504.214 257.387 504.29 257.171C504.365 256.955 504.485 256.755 504.641 256.583C504.798 256.411 504.989 256.271 505.203 256.17C505.417 256.069 505.65 256.01 505.888 255.996V255.284H507.184V255.996C507.68 256.06 508.131 256.301 508.448 256.67C508.765 257.04 508.923 257.51 508.891 257.987V258.276H507.389V257.956C507.402 257.853 507.39 257.749 507.354 257.652C507.318 257.554 507.259 257.466 507.182 257.393C507.105 257.321 507.011 257.266 506.909 257.233C506.806 257.2 506.697 257.189 506.59 257.203C506.082 257.203 505.801 257.399 505.801 257.873C505.801 258.348 506.093 258.833 507.163 259.565C508.459 260.463 508.913 261.123 508.913 262.072C508.933 262.306 508.905 262.541 508.828 262.764C508.752 262.987 508.63 263.193 508.469 263.37C508.307 263.547 508.111 263.692 507.89 263.795C507.669 263.898 507.429 263.958 507.184 263.971V264.796H505.888V263.878Z" fill="#263238"/>
<path d="M517.826 261.092V255.676L514.304 255.562V260.958L511.787 260.875C513.505 262.722 514.358 263.651 516.108 265.508L520.376 261.175L517.826 261.092Z" fill="#999999" stroke="#263238" stroke-linecap="round" stroke-linejoin="round"/>
<path d="M613.42 246.927L598.705 246.607C597.874 246.608 597.075 246.305 596.472 245.76C595.869 245.214 595.508 244.469 595.464 243.677V233.928C595.5 233.141 595.862 232.401 596.47 231.869C597.077 231.337 597.881 231.057 598.705 231.09L613.42 231.214C614.252 231.213 615.053 231.518 615.656 232.065C616.26 232.613 616.619 233.361 616.661 234.154V244.059C616.65 244.452 616.557 244.839 616.387 245.197C616.217 245.555 615.974 245.877 615.672 246.144C615.371 246.411 615.016 246.618 614.629 246.753C614.242 246.887 613.831 246.946 613.42 246.927Z" fill="white" stroke="#263238" stroke-linecap="round" stroke-linejoin="round"/>
<path d="M599.688 242.852C599.173 242.766 598.712 242.499 598.393 242.103C598.075 241.708 597.924 241.213 597.97 240.716V240.128H599.472V240.809C599.46 240.916 599.473 241.024 599.511 241.126C599.548 241.227 599.609 241.32 599.689 241.396C599.769 241.472 599.865 241.53 599.972 241.566C600.078 241.602 600.191 241.615 600.304 241.603C600.416 241.619 600.531 241.61 600.639 241.575C600.747 241.541 600.845 241.483 600.925 241.405C601.005 241.328 601.065 241.234 601.1 241.13C601.134 241.026 601.143 240.916 601.125 240.809C601.125 240.169 600.833 239.705 599.763 238.952C598.467 238.023 598.013 237.301 598.013 236.331C597.96 235.848 598.105 235.363 598.417 234.979C598.729 234.594 599.184 234.34 599.688 234.268V233.515H600.995V234.299C601.508 234.378 601.97 234.641 602.287 235.034C602.604 235.427 602.753 235.92 602.702 236.414V236.662H601.2V236.311C601.217 236.205 601.209 236.097 601.175 235.995C601.142 235.892 601.084 235.799 601.007 235.721C600.93 235.644 600.835 235.584 600.73 235.546C600.625 235.509 600.512 235.495 600.401 235.506C600.292 235.493 600.182 235.503 600.079 235.537C599.975 235.57 599.881 235.626 599.804 235.7C599.727 235.774 599.668 235.863 599.633 235.962C599.598 236.061 599.587 236.166 599.601 236.27C599.601 236.858 599.893 237.301 600.963 238.075C602.27 239.004 602.724 239.726 602.724 240.747C602.767 241.237 602.612 241.724 602.291 242.108C601.969 242.492 601.505 242.744 600.995 242.81V243.698H599.688V242.852Z" fill="#263238"/>
<path d="M608.115 238.477V244.337L611.637 244.41V238.529H614.154L609.833 233.597L605.565 238.405L608.115 238.477Z" fill="#999999" stroke="#263238" stroke-linecap="round" stroke-linejoin="round"/>
<path d="M549.741 166.382C554.255 167.307 558.868 167.712 563.483 167.589C589.467 166.919 613.063 148.286 613.182 123.949C613.257 100.622 588.678 82.815 563.483 86.2608V126.93C558.931 140.095 554.35 153.245 549.741 166.382Z" fill="#7E8AF5" stroke="#263238" stroke-linecap="round" stroke-linejoin="round"/>
<path d="M563.484 126.93V86.261C539.229 88.6339 513.429 106.802 513.785 129.902C514.088 147.327 530.337 163.133 549.698 166.382C554.343 153.239 558.939 140.088 563.484 126.93Z" fill="#999999" stroke="#263238" stroke-linecap="round" stroke-linejoin="round"/>
<path d="M545.462 110.33C545.431 109.965 545.32 109.609 545.135 109.287C544.951 108.965 544.698 108.683 544.392 108.46C544.087 108.238 543.736 108.079 543.362 107.994C542.988 107.909 542.599 107.9 542.221 107.968C541.41 107.982 540.632 108.279 540.034 108.804C539.437 109.328 539.062 110.044 538.98 110.815V112.445C539.013 112.811 539.126 113.166 539.31 113.488C539.495 113.809 539.748 114.091 540.053 114.314C540.358 114.537 540.708 114.698 541.081 114.784C541.455 114.871 541.843 114.883 542.221 114.818C543.033 114.805 543.811 114.507 544.408 113.982C545.005 113.458 545.381 112.742 545.462 111.971" stroke="#263238" stroke-linecap="round" stroke-linejoin="round"/>
<path d="M536.441 141.694V146.966C536.465 147.211 536.541 147.448 536.663 147.665C536.786 147.881 536.954 148.071 537.156 148.223C537.358 148.376 537.59 148.487 537.839 148.551C538.087 148.615 538.347 148.631 538.602 148.596V148.596C539.134 148.599 539.65 148.415 540.048 148.078C540.447 147.741 540.702 147.275 540.763 146.77V133.492C540.788 133.148 540.944 132.825 541.2 132.582C541.456 132.339 541.796 132.193 542.156 132.171C542.334 132.136 542.518 132.137 542.696 132.174C542.873 132.211 543.04 132.283 543.186 132.387C543.332 132.49 543.454 132.622 543.543 132.773C543.631 132.925 543.685 133.092 543.701 133.265V146.677C543.724 146.923 543.798 147.162 543.921 147.379C544.043 147.596 544.21 147.787 544.412 147.941C544.615 148.095 544.848 148.207 545.097 148.272C545.346 148.337 545.606 148.352 545.862 148.318C546.396 148.321 546.913 148.135 547.312 147.796C547.711 147.456 547.964 146.988 548.023 146.481V133.606" stroke="#263238" stroke-linecap="round" stroke-linejoin="round"/>
<path d="M536.441 138.238V139.785" stroke="#263238" stroke-linecap="round" stroke-linejoin="round"/>
<path d="M548.002 131.728V121.266C548.02 121.101 548.103 120.949 548.232 120.838C548.362 120.728 548.53 120.667 548.704 120.668V120.668C548.785 120.655 548.869 120.658 548.949 120.677C549.029 120.697 549.104 120.732 549.169 120.78C549.234 120.829 549.288 120.89 549.327 120.959C549.366 121.029 549.389 121.105 549.395 121.184V127.374C549.415 127.751 549.589 128.105 549.881 128.36C550.172 128.615 550.556 128.75 550.951 128.736C551.409 128.768 551.863 128.629 552.215 128.348C552.568 128.067 552.793 127.666 552.842 127.23V119.77C552.842 117.81 550.886 116.356 548.466 116.521L535.977 117.387C533.557 117.563 531.655 119.255 531.655 121.184V128.406C531.678 128.78 531.853 129.13 532.145 129.381C532.436 129.632 532.819 129.764 533.211 129.747C533.666 129.782 534.118 129.646 534.471 129.369C534.824 129.092 535.05 128.695 535.102 128.261V122.071C535.12 121.905 535.202 121.751 535.332 121.639C535.461 121.527 535.629 121.464 535.804 121.462V121.462C535.885 121.451 535.968 121.455 536.047 121.475C536.127 121.495 536.201 121.53 536.266 121.579C536.33 121.627 536.384 121.687 536.424 121.756C536.463 121.825 536.488 121.9 536.495 121.978V136.67" stroke="#263238" stroke-linecap="round" stroke-linejoin="round"/>
<path d="M587.728 108.36C587.955 109.66 588.29 111.537 588.29 111.537L580.575 112.084C580.575 112.084 581.288 107.957 581.343 107.648C581.471 106.912 581.838 106.233 582.393 105.707C582.947 105.181 583.661 104.835 584.432 104.718C585.174 104.697 585.898 104.937 586.467 105.391C587.036 105.845 587.412 106.483 587.522 107.184" stroke="#263238" stroke-linecap="round" stroke-linejoin="round"/>
<path d="M594.394 124.722V117.016C594.394 114.952 592.428 113.477 590.018 113.642" stroke="#263238" stroke-linecap="round" stroke-linejoin="round"/>
<path d="M589.554 137.051V134.472L592.017 134.338C591.034 128.034 590.537 124.877 589.554 118.594C589.567 118.426 589.645 118.269 589.773 118.153C589.9 118.036 590.069 117.969 590.245 117.965C590.328 117.953 590.413 117.958 590.493 117.979C590.574 118.001 590.649 118.038 590.714 118.088C590.779 118.139 590.833 118.201 590.871 118.272C590.909 118.344 590.932 118.421 590.937 118.501V124.908C590.948 125.292 591.118 125.656 591.409 125.921C591.701 126.186 592.09 126.33 592.492 126.322" stroke="#263238" stroke-linecap="round" stroke-linejoin="round"/>
<path d="M589.554 140.383V138.599" stroke="#263238" stroke-linecap="round" stroke-linejoin="round"/>
<path d="M577.14 133.193C577.021 133.956 576.967 134.338 576.848 135.101L579.311 134.967V145.057C579.33 145.307 579.402 145.55 579.522 145.772C579.642 145.995 579.808 146.191 580.01 146.351C580.212 146.51 580.446 146.628 580.697 146.698C580.948 146.769 581.212 146.789 581.472 146.759C582.015 146.761 582.538 146.568 582.939 146.218C583.339 145.869 583.587 145.388 583.633 144.871V134.74L585.232 134.658V144.789C585.251 145.038 585.322 145.282 585.442 145.504C585.562 145.726 585.728 145.923 585.93 146.082C586.132 146.241 586.366 146.36 586.618 146.43C586.869 146.5 587.133 146.521 587.393 146.491C587.937 146.493 588.462 146.298 588.863 145.946C589.263 145.594 589.51 145.111 589.554 144.593V142.179" stroke="#263238" stroke-linecap="round" stroke-linejoin="round"/>
<path d="M586.28 113.9L578.847 114.416C577.749 114.452 576.704 114.871 575.908 115.593C575.111 116.316 574.62 117.291 574.525 118.336V125.857C574.539 126.23 574.703 126.582 574.983 126.842C575.263 127.101 575.637 127.248 576.027 127.25C576.492 127.284 576.953 127.142 577.309 126.854C577.665 126.567 577.887 126.156 577.929 125.713V119.316C577.944 119.149 578.023 118.993 578.15 118.877C578.277 118.761 578.444 118.694 578.62 118.687V118.687C578.703 118.675 578.787 118.68 578.868 118.702C578.949 118.723 579.024 118.76 579.089 118.81C579.154 118.861 579.208 118.923 579.246 118.995C579.284 119.066 579.306 119.144 579.312 119.223L577.637 130.056" stroke="#263238" stroke-linecap="round" stroke-linejoin="round"/>
<path d="M631.3 120.235L625.812 120.575C625.339 120.637 624.857 120.605 624.398 120.48C623.939 120.355 623.512 120.14 623.144 119.849C622.776 119.558 622.476 119.197 622.262 118.789C622.048 118.381 621.925 117.936 621.901 117.48V112.806C621.969 111.847 622.406 110.946 623.128 110.276C623.85 109.605 624.806 109.213 625.812 109.175L631.3 108.783C631.773 108.719 632.255 108.75 632.714 108.875C633.174 109 633.601 109.214 633.968 109.506C634.335 109.797 634.635 110.159 634.847 110.567C635.059 110.976 635.18 111.422 635.201 111.878V116.634C635.134 117.589 634.698 118.487 633.977 119.152C633.257 119.818 632.302 120.203 631.3 120.235Z" fill="#999999" stroke="#263238" stroke-linecap="round" stroke-linejoin="round"/>
<path d="M644.557 116.706L641.208 116.923V115.53C642.493 112.817 643.131 111.465 644.449 108.742L646.361 108.607V115.2H647.182V116.593H646.361V118.367L644.6 118.481L644.557 116.706ZM644.557 115.313V111.517C643.876 113.085 643.531 113.869 642.839 115.427L644.557 115.313Z" fill="#263238"/>
<path d="M647.96 115.901V115.128L649.613 115.024V115.901C649.613 116.603 649.97 116.83 650.532 116.789C651.093 116.747 651.439 116.479 651.439 115.757V113.559C651.439 112.858 651.083 112.61 650.532 112.652C649.981 112.693 649.613 112.971 649.613 113.683V113.766L647.96 113.879C648.09 111.682 648.155 110.588 648.274 108.401L652.898 108.071V109.474L649.84 109.68C649.786 110.619 649.754 111.094 649.7 112.033C649.863 111.789 650.086 111.587 650.349 111.445C650.613 111.303 650.91 111.225 651.212 111.217C652.498 111.135 653.157 111.888 653.157 113.332V115.551C653.19 115.892 653.145 116.237 653.027 116.561C652.909 116.885 652.72 117.182 652.473 117.431C652.226 117.68 651.925 117.876 651.593 118.005C651.26 118.134 650.902 118.195 650.542 118.181C650.206 118.248 649.857 118.237 649.526 118.149C649.194 118.061 648.889 117.899 648.637 117.676C648.384 117.453 648.191 117.176 648.074 116.867C647.956 116.558 647.917 116.227 647.96 115.901Z" fill="#263238"/>
<path d="M654.291 111.929V109.474C654.273 109.253 654.304 109.032 654.381 108.823C654.459 108.615 654.582 108.424 654.742 108.265C654.902 108.105 655.096 107.979 655.311 107.896C655.525 107.813 655.756 107.774 655.988 107.782C656.205 107.736 656.43 107.74 656.645 107.795C656.86 107.849 657.058 107.952 657.223 108.094C657.388 108.236 657.515 108.414 657.593 108.613C657.672 108.812 657.699 109.026 657.673 109.237V111.702C657.693 111.922 657.664 112.144 657.588 112.352C657.511 112.561 657.389 112.751 657.23 112.911C657.07 113.071 656.877 113.197 656.663 113.28C656.449 113.364 656.219 113.402 655.988 113.394C655.769 113.44 655.542 113.435 655.326 113.381C655.11 113.326 654.91 113.222 654.744 113.079C654.578 112.936 654.451 112.757 654.372 112.557C654.293 112.357 654.266 112.141 654.291 111.929ZM656.56 111.847V109.247C656.56 108.814 656.333 108.648 655.988 108.669C655.642 108.69 655.404 108.896 655.404 109.329V111.929C655.404 112.363 655.62 112.528 655.988 112.507C656.355 112.486 656.56 112.28 656.56 111.847ZM660.028 107.637L661.109 107.565C659.38 111.63 658.516 113.663 656.787 117.707L655.707 117.779C657.435 113.735 658.3 111.713 660.028 107.648V107.637ZM659.186 116.118V113.652C659.165 113.433 659.194 113.212 659.271 113.004C659.347 112.796 659.47 112.606 659.629 112.447C659.789 112.287 659.982 112.163 660.196 112.08C660.41 111.998 660.64 111.961 660.871 111.971C661.09 111.922 661.318 111.925 661.535 111.979C661.753 112.033 661.953 112.136 662.12 112.28C662.286 112.424 662.414 112.604 662.492 112.805C662.57 113.007 662.596 113.223 662.567 113.436V115.901C662.586 116.121 662.555 116.343 662.477 116.551C662.4 116.758 662.277 116.948 662.116 117.107C661.956 117.266 661.762 117.391 661.547 117.473C661.332 117.555 661.102 117.592 660.871 117.583C660.653 117.629 660.426 117.625 660.21 117.57C659.994 117.515 659.796 117.412 659.63 117.268C659.465 117.124 659.338 116.945 659.261 116.745C659.184 116.545 659.158 116.33 659.186 116.118ZM661.454 116.046V113.436C661.454 113.002 661.228 112.837 660.871 112.858C660.514 112.878 660.298 113.074 660.298 113.518V116.118C660.298 116.562 660.514 116.727 660.871 116.706C661.228 116.685 661.454 116.489 661.454 116.046Z" fill="#263238"/>
<path d="M631.3 136.999L625.812 137.268C625.334 137.32 624.851 137.279 624.39 137.146C623.93 137.013 623.504 136.791 623.137 136.494C622.77 136.197 622.471 135.832 622.259 135.42C622.046 135.008 621.924 134.559 621.901 134.1V129.386C621.968 128.432 622.407 127.536 623.131 126.876C623.854 126.215 624.811 125.837 625.812 125.816L631.3 125.496C631.777 125.44 632.261 125.479 632.721 125.61C633.181 125.742 633.608 125.963 633.974 126.259C634.341 126.556 634.639 126.921 634.85 127.333C635.061 127.745 635.18 128.195 635.201 128.653V133.44C635.136 134.392 634.699 135.286 633.977 135.945C633.254 136.605 632.299 136.981 631.3 136.999Z" fill="#7E8AF5" stroke="#263238" stroke-linecap="round" stroke-linejoin="round"/>
<path d="M641.575 133.182V132.409L643.239 132.326V133.193C643.239 133.894 643.585 134.121 644.147 134.101C644.708 134.08 645.054 133.802 645.054 133.069V130.882C645.054 130.191 644.708 129.943 644.147 129.974C643.585 130.005 643.239 130.283 643.239 131.006V131.088L641.575 131.171L641.899 125.723L646.523 125.455V126.858L643.466 127.023C643.401 127.962 643.38 128.426 643.315 129.355C643.478 129.113 643.702 128.914 643.966 128.775C644.23 128.636 644.526 128.563 644.827 128.56C646.124 128.488 646.772 129.252 646.772 130.686V132.894C646.807 133.234 646.765 133.577 646.647 133.899C646.529 134.222 646.339 134.516 646.091 134.762C645.842 135.007 645.54 135.198 645.206 135.321C644.872 135.444 644.514 135.495 644.157 135.473C643.82 135.54 643.47 135.529 643.137 135.44C642.805 135.352 642.5 135.189 642.247 134.964C641.994 134.74 641.801 134.461 641.684 134.151C641.567 133.841 641.53 133.509 641.575 133.182Z" fill="#263238"/>
<path d="M647.96 132.852V132.089L649.613 131.996V132.883C649.613 133.574 649.97 133.812 650.531 133.781C651.093 133.75 651.439 133.492 651.439 132.749V130.551C651.439 129.85 651.082 129.602 650.531 129.633C649.98 129.664 649.613 129.943 649.613 130.665V130.747L647.96 130.84C648.09 128.643 648.155 127.549 648.273 125.362L652.897 125.094V126.497L649.84 126.662C649.786 127.601 649.754 128.075 649.7 129.014C649.862 128.772 650.086 128.572 650.35 128.433C650.614 128.294 650.911 128.221 651.212 128.22C652.498 128.148 653.157 128.911 653.157 130.355V132.574C653.192 132.914 653.149 133.258 653.031 133.582C652.914 133.906 652.724 134.201 652.476 134.448C652.228 134.695 651.926 134.888 651.592 135.013C651.258 135.138 650.9 135.193 650.542 135.173C650.201 135.242 649.848 135.231 649.513 135.141C649.178 135.051 648.87 134.885 648.616 134.657C648.363 134.429 648.171 134.145 648.056 133.831C647.942 133.517 647.909 133.181 647.96 132.852Z" fill="#263238"/>
<path d="M654.291 128.994V126.538C654.271 126.318 654.3 126.097 654.377 125.888C654.454 125.68 654.578 125.49 654.739 125.332C654.9 125.173 655.095 125.05 655.31 124.969C655.526 124.889 655.757 124.854 655.987 124.867C656.206 124.823 656.433 124.829 656.649 124.885C656.864 124.941 657.063 125.046 657.228 125.19C657.393 125.335 657.519 125.514 657.597 125.715C657.674 125.915 657.7 126.13 657.673 126.342V128.808C657.694 129.027 657.664 129.247 657.588 129.454C657.511 129.661 657.389 129.85 657.229 130.007C657.069 130.165 656.875 130.288 656.661 130.367C656.447 130.447 656.217 130.482 655.987 130.469C655.768 130.513 655.541 130.506 655.325 130.45C655.109 130.394 654.91 130.289 654.744 130.145C654.579 130.001 654.451 129.822 654.373 129.622C654.294 129.421 654.266 129.206 654.291 128.994ZM656.56 128.942V126.342C656.56 125.899 656.333 125.734 655.987 125.754C655.642 125.775 655.404 125.971 655.404 126.404V129.004C655.404 129.437 655.62 129.613 655.987 129.592C656.355 129.571 656.56 129.375 656.56 128.942ZM660.028 124.815L661.109 124.753C659.38 128.798 658.516 130.82 656.787 134.843L655.707 134.895C657.435 130.84 658.3 128.818 660.028 124.774V124.815ZM659.185 133.286V130.82C659.165 130.601 659.194 130.381 659.271 130.174C659.347 129.967 659.47 129.778 659.63 129.621C659.79 129.463 659.983 129.34 660.198 129.26C660.412 129.181 660.641 129.146 660.871 129.159C661.091 129.115 661.319 129.121 661.536 129.178C661.753 129.235 661.953 129.34 662.119 129.485C662.285 129.631 662.412 129.812 662.49 130.013C662.568 130.215 662.594 130.431 662.567 130.644V133.12C662.588 133.34 662.559 133.561 662.481 133.769C662.404 133.977 662.281 134.166 662.119 134.324C661.958 134.482 661.763 134.604 661.548 134.683C661.332 134.762 661.101 134.796 660.871 134.782C660.646 134.826 660.414 134.818 660.193 134.758C659.973 134.697 659.771 134.587 659.605 134.436C659.44 134.284 659.315 134.097 659.242 133.889C659.168 133.682 659.149 133.46 659.185 133.244V133.286ZM661.454 133.286V130.675C661.454 130.242 661.227 130.067 660.871 130.087C660.514 130.108 660.298 130.304 660.298 130.737V133.347C660.298 133.781 660.514 133.956 660.871 133.936C661.227 133.915 661.454 133.636 661.454 133.203V133.286Z" fill="#263238"/>
<path d="M366.321 190.431L298.71 191.927V85.9205L366.321 78.4819V190.431Z" fill="#7E8AF5"/>
<path opacity="0.8" d="M366.321 190.431L298.71 191.927V85.9205L366.321 78.4819V190.431Z" fill="white"/>
<path d="M433.987 188.946L366.321 190.431V78.482L433.944 71.0435L433.987 188.946Z" fill="#7E8AF5"/>
<path opacity="0.6" d="M433.987 188.946L366.321 190.431V78.482L433.944 71.0435L433.987 188.946Z" fill="white"/>
<path d="M501.609 187.46L433.987 188.945V71.0433L501.609 63.6047V187.46Z" fill="#7E8AF5"/>
<path opacity="0.4" d="M501.609 187.46L433.987 188.945V71.0433L501.609 63.6047V187.46Z" fill="white"/>
<path d="M501.609 63.6047L298.753 85.9203" stroke="#7F7F7F" stroke-linecap="round" stroke-linejoin="round"/>
<path d="M298.753 101.066L501.609 81.2986" stroke="#7F7F7F" stroke-linecap="round" stroke-linejoin="round"/>
<path d="M501.609 98.9919L298.753 116.211" stroke="#7F7F7F" stroke-linecap="round" stroke-linejoin="round"/>
<path d="M298.753 131.377L501.609 116.717" stroke="#7F7F7F" stroke-linecap="round" stroke-linejoin="round"/>
<path d="M501.609 134.379L298.753 146.491" stroke="#7F7F7F" stroke-linecap="round" stroke-linejoin="round"/>
<path d="M298.753 161.637L501.609 152.073" stroke="#7F7F7F" stroke-linecap="round" stroke-linejoin="round"/>
<path d="M501.609 169.766L298.753 176.772" stroke="#7F7F7F" stroke-linecap="round" stroke-linejoin="round"/>
<path d="M298.753 191.927L501.609 187.46" stroke="#7F7F7F" stroke-linecap="round" stroke-linejoin="round"/>
<path d="M315.65 191.556V84.0635" stroke="#7F7F7F" stroke-linecap="round" stroke-linejoin="round"/>
<path d="M298.753 85.9204V191.927" stroke="#7F7F7F" stroke-linecap="round" stroke-linejoin="round"/>
<path d="M349.467 190.803V80.3389" stroke="#7F7F7F" stroke-linecap="round" stroke-linejoin="round"/>
<path d="M332.559 82.196V191.215" stroke="#7F7F7F" stroke-linecap="round" stroke-linejoin="round"/>
<path d="M383.273 190.06V76.6248" stroke="#7F7F7F" stroke-linecap="round" stroke-linejoin="round"/>
<path d="M366.321 78.4819V190.431" stroke="#7F7F7F" stroke-linecap="round" stroke-linejoin="round"/>
<path d="M417.1 189.317V72.9006" stroke="#7F7F7F" stroke-linecap="round" stroke-linejoin="round"/>
<path d="M400.181 74.7678V189.688" stroke="#7F7F7F" stroke-linecap="round" stroke-linejoin="round"/>
<path d="M450.895 188.574V69.1865" stroke="#7F7F7F" stroke-linecap="round" stroke-linejoin="round"/>
<path d="M433.987 71.0435V188.946" stroke="#7F7F7F" stroke-linecap="round" stroke-linejoin="round"/>
<path d="M484.701 187.832V65.4724" stroke="#7F7F7F" stroke-linecap="round" stroke-linejoin="round"/>
<path d="M467.792 67.3291V188.203" stroke="#7F7F7F" stroke-linecap="round" stroke-linejoin="round"/>
<path d="M501.609 63.6047V187.46" stroke="#7F7F7F" stroke-linecap="round" stroke-linejoin="round"/>
<path d="M298.753 85.9205V191.927L501.609 187.46V63.6565L298.753 85.9205Z" stroke="#263238" stroke-linecap="round" stroke-linejoin="round"/>
<path d="M298.753 176.771H299.963" stroke="#263238" stroke-linecap="round" stroke-linejoin="round"/>
<path d="M302.027 176.668L313.414 176.276" stroke="#263238" stroke-linecap="round" stroke-linejoin="round" stroke-dasharray="1.71 1.71"/>
<path d="M314.462 176.235H315.661L316.515 175.43" stroke="#263238" stroke-linecap="round" stroke-linejoin="round"/>
<path d="M318.2 173.79C323.267 168.993 325.763 166.568 330.862 161.688" stroke="#263238" stroke-linecap="round" stroke-linejoin="round" stroke-dasharray="1.98 1.98"/>
<path d="M331.749 160.873L332.602 160.048C332.948 160.337 333.121 160.491 333.456 160.791" stroke="#263238" stroke-linecap="round" stroke-linejoin="round"/>
<path d="M334.763 161.967L339.484 166.093" stroke="#263238" stroke-linecap="round" stroke-linejoin="round" stroke-dasharray="1.58 1.58"/>
<path d="M340.154 166.723L341.008 167.486C341.17 167.053 341.245 166.836 341.397 166.403" stroke="#263238" stroke-linecap="round" stroke-linejoin="round"/>
<path d="M342.088 164.391C344.746 156.88 346.075 153.104 348.732 145.511" stroke="#263238" stroke-linecap="round" stroke-linejoin="round" stroke-dasharray="1.83 1.83"/>
<path d="M349.035 144.562C349.197 144.118 349.273 143.902 349.424 143.468L350.623 143.396" stroke="#263238" stroke-linecap="round" stroke-linejoin="round"/>
<path d="M352.687 143.273L355.701 143.097" stroke="#263238" stroke-linecap="round" stroke-linejoin="round" stroke-dasharray="1.67 1.67"/>
<path d="M356.706 143.035L357.916 142.963L358.456 141.931" stroke="#263238" stroke-linecap="round" stroke-linejoin="round"/>
<path d="M359.514 139.868L365.305 128.519" stroke="#263238" stroke-linecap="round" stroke-linejoin="round" stroke-dasharray="1.95 1.95"/>
<path d="M365.824 127.518L366.364 126.487L367.574 126.394" stroke="#263238" stroke-linecap="round" stroke-linejoin="round"/>
<path d="M369.649 126.218L381.026 125.393" stroke="#263238" stroke-linecap="round" stroke-linejoin="round" stroke-dasharray="1.71 1.71"/>
<path d="M382.063 125.331L383.273 125.238L384.127 124.361" stroke="#263238" stroke-linecap="round" stroke-linejoin="round"/>
<path d="M385.477 122.969L390.198 118.068" stroke="#263238" stroke-linecap="round" stroke-linejoin="round" stroke-dasharray="1.58 1.58"/>
<path d="M390.868 117.367L391.721 116.469L392.931 116.376" stroke="#263238" stroke-linecap="round" stroke-linejoin="round"/>
<path d="M395.341 116.19L408.63 115.159C411.331 112.301 412.681 110.877 415.382 107.999" stroke="#263238" stroke-linecap="round" stroke-linejoin="round" stroke-dasharray="1.99 1.99"/>
<path d="M416.225 107.081C416.571 106.709 416.744 106.534 417.079 106.162L417.932 106.936" stroke="#263238" stroke-linecap="round" stroke-linejoin="round"/>
<path d="M419.628 108.453C424.684 113.033 427.191 115.344 432.29 120.008" stroke="#263238" stroke-linecap="round" stroke-linejoin="round" stroke-dasharray="1.98 1.98"/>
<path d="M433.133 120.792L433.987 121.576C434.332 121.215 434.494 121.029 434.84 120.658" stroke="#263238" stroke-linecap="round" stroke-linejoin="round"/>
<path d="M436.191 119.213C438.082 117.15 439.022 116.18 440.912 114.137" stroke="#263238" stroke-linecap="round" stroke-linejoin="round" stroke-dasharray="1.58 1.58"/>
<path d="M441.582 113.415L442.435 112.487L443.645 112.394" stroke="#263238" stroke-linecap="round" stroke-linejoin="round"/>
<path d="M445.968 112.208L459.344 111.176C462.725 107.473 464.411 105.616 467.792 101.891L473.875 101.375" stroke="#263238" stroke-linecap="round" stroke-linejoin="round" stroke-dasharray="1.93 1.93"/>
<path d="M475.042 101.251L476.252 101.148L476.792 99.9927" stroke="#263238" stroke-linecap="round" stroke-linejoin="round"/>
<path d="M477.84 97.7334C480.152 92.7607 481.319 90.264 483.631 85.2603" stroke="#263238" stroke-linecap="round" stroke-linejoin="round" stroke-dasharray="1.95 1.95"/>
<path d="M484.161 84.115L484.701 82.9492" stroke="#263238" stroke-linecap="round" stroke-linejoin="round"/>
<path d="M298.753 161.637L315.65 160.842C322.414 157.448 325.795 155.735 332.559 152.258L341.007 151.804C344.389 145.356 346.085 142.107 349.467 135.576C352.849 132.192 354.534 130.5 357.916 127.075C361.297 120.472 362.983 117.15 366.364 110.464C373.128 113.095 376.509 114.426 383.273 117.139C386.654 120.111 388.34 121.607 391.721 124.63C398.485 117.614 401.866 114.065 408.63 106.884C412.011 99.9824 413.697 96.5675 417.078 89.5313C423.842 95.5255 427.223 98.569 433.987 104.728C437.368 111.187 439.054 114.426 442.435 120.967L459.344 119.739C462.725 116.067 464.411 114.22 467.792 110.454C471.174 99.8276 472.87 94.4835 476.252 83.7332C479.623 76.4494 481.319 72.7869 484.701 65.4309" stroke="#263238" stroke-linecap="round" stroke-linejoin="round"/>
<path d="M331.165 204.473C330.818 204.587 330.452 204.643 330.085 204.638C329.758 204.676 329.426 204.643 329.114 204.541C328.803 204.438 328.52 204.269 328.287 204.046C328.055 203.823 327.879 203.552 327.773 203.254C327.667 202.956 327.633 202.639 327.675 202.327V197.405C327.638 197.091 327.673 196.772 327.78 196.472C327.886 196.173 328.061 195.899 328.291 195.671C328.522 195.443 328.802 195.267 329.112 195.155C329.422 195.043 329.754 194.997 330.085 195.022C330.412 194.982 330.744 195.014 331.056 195.115C331.368 195.216 331.651 195.384 331.885 195.606C332.118 195.828 332.296 196.099 332.403 196.396C332.511 196.694 332.545 197.011 332.505 197.323V202.234C332.525 202.777 332.37 203.314 332.062 203.771C332.17 203.957 332.364 203.988 332.656 203.977H332.894V205.308H332.483C332.195 205.341 331.905 205.275 331.663 205.122C331.422 204.969 331.245 204.739 331.165 204.473ZM330.938 202.409V197.323C330.938 196.652 330.614 196.405 330.106 196.415C329.598 196.425 329.285 196.683 329.285 197.354V202.43C329.285 203.1 329.609 203.348 330.106 203.338C330.603 203.327 330.938 203.049 330.938 202.378V202.409Z" fill="#263238"/>
<path d="M335.833 197.302H334.169V196.271C335.519 196.271 335.995 195.971 336.33 195.053H337.41V204.421H335.811L335.833 197.302Z" fill="#263238"/>
<path d="M398.334 203.709C397.988 203.831 397.622 203.894 397.253 203.895C396.916 203.921 396.578 203.875 396.262 203.759C395.947 203.644 395.663 203.462 395.431 203.227C395.2 202.992 395.027 202.71 394.925 202.402C394.823 202.095 394.796 201.769 394.844 201.45V196.291C394.797 195.969 394.826 195.641 394.927 195.33C395.029 195.019 395.201 194.733 395.43 194.493C395.66 194.253 395.943 194.064 396.258 193.94C396.573 193.815 396.913 193.759 397.253 193.774C398.82 193.774 399.673 194.63 399.673 196.209V201.367C399.702 201.938 399.548 202.503 399.23 202.987C399.338 203.183 399.533 203.214 399.824 203.204H400.073V204.627H399.652C399.352 204.656 399.052 204.579 398.808 204.409C398.565 204.24 398.396 203.99 398.334 203.709ZM398.107 201.512V196.147C398.107 195.445 397.783 195.177 397.275 195.187C396.767 195.198 396.454 195.476 396.454 196.219V201.532C396.454 202.234 396.778 202.492 397.275 202.492C397.772 202.492 398.107 202.213 398.107 201.532V201.512Z" fill="#263238"/>
<path d="M400.743 202.647C400.729 201.986 400.865 201.331 401.141 200.726C401.417 200.121 401.827 199.579 402.342 199.139C403.552 197.88 403.897 197.075 403.897 196.198C403.897 195.321 403.584 195.074 403.076 195.084C402.568 195.095 402.244 195.373 402.244 196.116V197.148H400.743V196.188C400.743 194.61 401.553 193.691 403.119 193.671C404.686 193.65 405.496 194.527 405.496 196.106C405.496 197.282 404.999 198.334 403.519 199.882C402.568 200.913 402.32 201.378 402.32 202.058V202.275H405.345V203.689L400.743 203.74V202.647Z" fill="#263238"/>
<path d="M465.999 202.946C465.655 203.076 465.289 203.142 464.919 203.142C463.352 203.142 462.499 202.223 462.499 200.573V195.146C462.499 193.495 463.352 192.536 464.919 192.505C466.485 192.474 467.339 193.413 467.339 195.063V200.501C467.363 201.098 467.205 201.689 466.885 202.203C467.004 202.409 467.188 202.44 467.479 202.43H467.728V203.905H467.307C467.003 203.93 466.7 203.846 466.458 203.668C466.216 203.49 466.052 203.233 465.999 202.946ZM465.762 200.635V194.991C465.762 194.248 465.448 193.96 464.94 193.96C464.433 193.96 464.119 194.259 464.119 194.991V200.635C464.119 201.367 464.433 201.666 464.94 201.666C465.448 201.666 465.718 201.367 465.718 200.635H465.762Z" fill="#263238"/>
<path d="M468.322 200.5V199.654H469.824V200.573C469.824 201.305 470.137 201.604 470.645 201.604C471.153 201.604 471.477 201.336 471.477 200.418V199.572C471.477 198.612 471.153 198.262 470.396 198.272H469.867V196.786H470.44C471.034 196.786 471.401 196.508 471.401 195.672V194.919C471.401 194.176 471.066 193.887 470.602 193.887C470.137 193.887 469.835 194.186 469.835 194.867V195.548H468.333V195.001C468.333 193.34 469.143 192.402 470.656 192.381C472.168 192.36 472.989 193.237 472.989 194.898V195.342C472.989 196.456 472.644 197.147 471.909 197.457C472.762 197.766 473.076 198.489 473.076 199.572V200.5C473.076 202.161 472.265 203.08 470.699 203.09C469.132 203.1 468.322 202.182 468.322 200.5Z" fill="#263238"/>
<path d="M359.969 144.304C359.969 144.304 343.881 131.109 354.567 122.391C354.567 122.391 359.72 106.916 376.65 109.092C393.58 111.269 385.099 102.118 385.099 102.118C385.099 102.118 394.693 106.916 390.285 110.619C391.609 110.679 392.925 110.384 394.084 109.768C395.243 109.152 396.198 108.239 396.843 107.132C396.843 107.132 399.792 112.146 394.282 114.354C394.282 114.354 401.488 116.098 399.565 120.028C399.565 120.028 394.444 117.429 393.083 127.25C391.722 137.072 375.429 135.638 375.429 135.638L359.969 144.304Z" fill="#263238" stroke="#263238" stroke-linecap="round" stroke-linejoin="round"/>
<path d="M360.995 147.574C360.995 147.069 357.17 158.201 364.441 157.262C367.888 156.818 362.983 147.574 362.983 147.574H360.995Z" fill="#263238" stroke="#263238" stroke-linecap="round" stroke-linejoin="round"/>
<path d="M396.465 117.49C396.465 117.49 392.143 116.83 391.29 121.617" stroke="#7F7F7F" stroke-linecap="round" stroke-linejoin="round"/>
<path d="M386.233 116.345C384.526 118.47 385.099 121.627 385.099 121.627" stroke="#7F7F7F" stroke-linecap="round" stroke-linejoin="round"/>
<path d="M395.244 110.619C393.662 112.684 391.365 114.146 388.761 114.746" stroke="#7F7F7F" stroke-linecap="round" stroke-linejoin="round"/>
<path d="M375.396 116.129C375.396 116.129 382.333 114.818 381.414 121.627" stroke="#7F7F7F" stroke-linecap="round" stroke-linejoin="round"/>
<path d="M409.408 280.725C409.408 280.725 415.166 309.427 409.408 337.551C403.649 365.675 400.095 455.99 400.095 455.99H364.258V276.237L407.603 274.783L409.408 280.725Z" fill="#999999"/>
<path opacity="0.2" d="M388.113 319.238C388.113 319.238 386.557 329.163 394.326 326.656C402.094 324.149 407.485 325.016 401.002 330.628C394.52 336.241 385.531 344.742 384.094 375.487C382.657 406.231 380.432 455.959 380.432 455.959H364.82L361.579 341.771L375.764 321.828L382.366 319.208L388.113 319.238Z" fill="black"/>
<path d="M409.408 280.725C409.408 280.725 415.166 309.427 409.408 337.551C403.649 365.675 400.095 455.99 400.095 455.99H364.258V276.237L407.603 274.783L409.408 280.725Z" stroke="#263238" stroke-linecap="round" stroke-linejoin="round"/>
<path d="M405.086 326.76C405.086 326.76 397.059 325.129 388.113 334.611" stroke="#263238" stroke-linecap="round" stroke-linejoin="round"/>
<path d="M393.213 283.954C393.213 283.954 392.845 315.937 388.524 328.07C384.202 340.202 377.72 397.131 378.443 456H341.397C341.397 456 339.236 349.663 337.777 333.961C336.319 318.258 328.777 320.889 339.214 276.248H394.736L393.213 283.954Z" fill="#999999" stroke="#263238" stroke-linecap="round" stroke-linejoin="round"/>
<path d="M386.19 290.805C389.042 290.619 391.646 290.403 394.012 290.176L394.325 295.447C391.862 295.685 389.139 295.912 386.19 296.097V290.805Z" fill="#263238"/>
<path d="M398.042 289.742C402.515 289.237 405.756 288.711 407.506 288.411L408.252 293.621C406.22 293.972 402.741 294.519 398.042 295.056V289.742Z" fill="#263238"/>
<path d="M337.237 294.942L338.08 289.784C344.152 290.434 349.964 290.867 355.507 291.114L355.139 296.345C349.489 296.056 343.503 295.623 337.237 294.942Z" fill="#263238"/>
<path d="M359.72 291.29C368.169 291.548 375.797 291.403 382.409 291.063V296.345C378.217 296.551 373.614 296.686 368.666 296.686C365.749 296.686 362.702 296.634 359.547 296.531L359.72 291.29Z" fill="#263238"/>
<path d="M462.682 234.897L471.801 229.646C471.801 229.646 475.636 220.051 480.444 217.441C485.252 214.831 490.038 212.427 491.248 213.077C492.458 213.727 491.01 215.914 487.888 218.091C485.943 219.453 491.605 217.142 498.865 213.964C503.187 212.045 508.178 209.373 508.945 210.529C511.765 214.728 497.342 220.072 497.342 220.072C497.342 220.072 502.29 219.845 500.367 223.332C500.367 223.332 501.091 226.602 499.405 227.696L497.493 229.924C496.707 232.125 495.189 234.019 493.171 235.32C488.821 237.634 483.979 238.977 479.007 239.251L467.015 247.267L462.682 234.897Z" fill="white" stroke="#263238" stroke-linecap="round" stroke-linejoin="round"/>
<path d="M494.36 220.495C494.36 220.495 484.161 222.455 484.701 224.622C485.241 226.788 488.407 225.261 488.407 225.261C488.407 225.261 485.036 226.355 485.403 227.552C485.77 228.748 488.158 228.728 488.158 228.728C488.158 228.728 485.036 229.409 485.403 230.791C485.77 232.174 487.845 232.648 489.563 232.432C491.281 232.215 492.599 231.658 493.085 232.483C493.571 233.309 488.396 231.988 485.403 234.01" stroke="#263238" stroke-linecap="round" stroke-linejoin="round"/>
<path d="M486.246 218.854C486.086 220.064 485.557 221.202 484.723 222.125C483.48 223.219 484.561 226.922 480.001 230.956" stroke="#263238" stroke-linecap="round" stroke-linejoin="round"/>
<path d="M496.607 224.25L490.935 224.9" stroke="#263238" stroke-linecap="round" stroke-linejoin="round"/>
<path d="M496.153 228.336L490.935 228.749" stroke="#263238" stroke-linecap="round" stroke-linejoin="round"/>
<path d="M441.085 240.437C449.005 238.374 458.577 232.731 463.18 229.811C463.445 229.637 463.752 229.529 464.072 229.498C464.393 229.467 464.716 229.514 465.012 229.635C465.309 229.755 465.568 229.945 465.767 230.187C465.966 230.429 466.098 230.715 466.151 231.018C466.669 235.011 468.311 241.81 473.843 243.656C481.762 246.318 474.2 250.424 469.165 251.807C464.13 253.189 428.11 269.861 417.306 267.581C406.502 265.301 402.904 263.65 397.859 253.684C392.813 243.718 395.33 195.641 395.33 195.641L410.456 192.041C410.456 192.041 414.41 195.424 416.333 218.091C418.256 240.757 421.422 243.594 421.422 243.594C421.422 243.594 431.027 236.816 428.509 243.367C428.488 243.367 438.363 241.139 441.085 240.437Z" fill="#7E8AF5" stroke="#263238" stroke-linecap="round" stroke-linejoin="round"/>
<path d="M423.442 247.257C423.442 247.257 419.542 259.699 416.603 258.75C413.665 257.801 414.442 254.407 419.304 247.257" stroke="#263238" stroke-linecap="round" stroke-linejoin="round"/>
<path d="M410.488 192.041C403.476 185.675 393.202 179.289 371.972 177.979C350.742 176.668 321.193 181.579 320.113 189.43C319.032 197.282 331.273 239.364 331.273 277.063C331.273 282.623 331.997 288.834 344.238 288.834C356.479 288.834 412.638 292.755 413.384 280.003C414.129 267.251 410.51 254.499 411.59 236.187C412.671 217.874 415.89 196.951 410.488 192.041Z" fill="#7E8AF5" stroke="#263238" stroke-linecap="round" stroke-linejoin="round"/>
<path d="M326.077 183.993C326.077 183.993 317.26 186.5 315.337 199.149C313.414 211.798 305.02 240.345 308.142 241.005C311.264 241.665 300.698 246.669 304.533 254.087C308.369 261.505 325.655 285.471 335.735 282.861C345.815 280.251 345.329 265.415 342.218 262.805C339.106 260.194 328.507 254.716 328.507 254.716C328.507 254.716 331.619 252.973 327.784 249.702C323.948 246.432 330.56 251.353 332.581 240.324C334.979 227.252 343.385 208.496 338.339 197.168" fill="#7E8AF5"/>
<path d="M326.077 183.993C326.077 183.993 317.26 186.5 315.337 199.149C313.414 211.798 305.02 240.345 308.142 241.005C311.264 241.665 300.698 246.669 304.533 254.087C308.369 261.505 325.655 285.471 335.735 282.861C345.815 280.251 345.329 265.415 342.218 262.805C339.106 260.194 328.507 254.716 328.507 254.716C328.507 254.716 331.619 252.973 327.784 249.702C323.948 246.432 330.56 251.353 332.581 240.324C334.979 227.252 343.385 208.496 338.339 197.168" stroke="#263238" stroke-linecap="round" stroke-linejoin="round"/>
<path d="M326.617 242.944C326.617 242.944 312.939 239.849 309.33 245.121C305.722 250.393 315.013 244.038 323.926 246.215" stroke="#263238" stroke-linecap="round" stroke-linejoin="round"/>
<path d="M346.41 267.798C344.249 266.323 339.095 263.764 335.735 266.766C332.375 269.769 324.337 271.553 324.812 273.844C325.288 276.134 328.291 276.794 333.693 274.287C339.095 271.78 334.633 274.937 335.606 279.951C336.578 284.966 337.367 289.526 341.591 288.669C341.591 288.669 341.969 290.846 345.815 289.866C345.815 289.866 348.689 292.115 353.249 290.124C353.249 290.124 355.777 292.59 359.493 288.339C363.21 284.089 360.919 283.036 360.919 283.036C360.919 283.036 359.245 278.115 355.517 283.036C355.517 283.036 356.166 276.949 352.406 273.132C350.542 271.22 348.538 269.438 346.41 267.798Z" fill="white" stroke="#263238" stroke-linecap="round" stroke-linejoin="round"/>
<path d="M343.211 287.163C343.211 287.163 349.294 283.459 347.976 281.282C346.658 279.105 341.731 283.676 341.731 283.676C341.731 283.676 342.455 282.5 341.018 280.694" stroke="#263238" stroke-linecap="round" stroke-linejoin="round"/>
<path d="M347.609 288.391C347.609 288.391 356.803 285.657 354.696 283.036C352.827 280.725 348.873 283.377 348.873 283.377" stroke="#263238" stroke-linecap="round" stroke-linejoin="round"/>
<path d="M359.839 283.954C359.839 283.954 358.867 286.575 354.556 289.113" stroke="#263238" stroke-linecap="round" stroke-linejoin="round"/>
<path d="M344.584 276.237C345.885 278.153 347.698 279.702 349.835 280.725" stroke="#263238" stroke-linecap="round" stroke-linejoin="round"/>
<path d="M326.617 253.684C326.617 253.684 318.881 250.084 312.939 252.859" stroke="#263238" stroke-linecap="round" stroke-linejoin="round"/>
<path d="M385.109 184.685L378.929 182.559L371.972 184.685C371.972 184.685 376.65 191.391 378.541 191.71C378.541 191.71 385.315 241.933 387.454 265.384C389.593 288.834 388.891 291.001 388.891 291.001L398.247 298.316L405.086 289.092C405.086 289.092 401.488 252.209 396.81 230.286C393.911 216.881 389.442 203.831 383.489 191.38C383.489 191.38 386.244 188.007 385.109 184.685Z" fill="#7E8AF5"/>
<path opacity="0.3" d="M385.109 184.685L378.929 182.559L371.972 184.685C371.972 184.685 376.65 191.391 378.541 191.71C378.541 191.71 385.315 241.933 387.454 265.384C389.593 288.834 388.891 291.001 388.891 291.001L398.247 298.316L405.086 289.092C405.086 289.092 401.488 252.209 396.81 230.286C393.911 216.881 389.442 203.831 383.489 191.38C383.489 191.38 386.244 188.007 385.109 184.685Z" fill="black"/>
<path d="M385.109 184.685L378.929 182.559L371.972 184.685C371.972 184.685 376.65 191.391 378.541 191.71C378.541 191.71 385.315 241.933 387.454 265.384C389.593 288.834 388.891 291.001 388.891 291.001L398.247 298.316L405.086 289.092C405.086 289.092 401.488 252.209 396.81 230.286C393.911 216.881 389.442 203.831 383.489 191.38C383.489 191.38 386.244 188.007 385.109 184.685Z" stroke="#263238" stroke-linecap="round" stroke-linejoin="round"/>
<path d="M385.844 167.486C385.844 167.486 384.624 175.028 387.659 180.197C387.659 180.197 381.091 182.941 378.271 183.292C375.451 183.643 360.984 175.41 360.984 175.41C362.875 166.743 363.551 157.876 362.994 149.039C362.065 134.493 379.34 158.129 379.34 158.129L387.649 165.351L385.844 167.486Z" fill="white"/>
<path d="M388.524 168.178C388.524 168.178 388.697 173.078 381.415 172.913C374.133 172.748 366.894 162.41 365.673 159.831C364.452 157.252 363.005 145.119 363.005 145.119L381.371 150.051L390.285 167.486L388.524 168.178Z" fill="#263238" stroke="#263238" stroke-linecap="round" stroke-linejoin="round"/>
<path d="M385.844 167.486C385.844 167.486 384.624 175.028 387.659 180.197C387.659 180.197 381.091 182.941 378.271 183.292C375.451 183.643 360.984 175.41 360.984 175.41C362.875 166.743 363.551 157.876 362.994 149.039C362.065 134.493 379.34 158.129 379.34 158.129L387.649 165.351L385.844 167.486Z" stroke="#263238" stroke-linecap="round" stroke-linejoin="round"/>
<path d="M386.611 176.452C386.611 176.452 383.014 182.343 378.93 182.559C374.846 182.776 361.168 170.179 358.294 172.098C356.503 173.39 355.196 175.199 354.567 177.256L366.797 191.091C366.797 191.091 375.753 183.787 379.351 184.004C382.949 184.22 390.684 191.091 390.684 191.091V181.074C390.684 181.074 388.308 174.172 386.611 176.452Z" fill="#7E8AF5" stroke="#263238" stroke-linecap="round" stroke-linejoin="round"/>
<path d="M391.83 123.557C391.83 123.557 396.864 137.66 395.87 141.25C395.87 141.25 400.559 167.981 389.388 170.138C380.572 171.809 371.853 163.721 368.525 160.172C367.62 159.201 366.926 158.068 366.483 156.839L364.323 150.793C364.323 150.793 359.925 151.103 357.246 145.47C354.567 139.837 360.023 134.369 364.247 142.901C364.247 142.901 367.553 134.276 367.305 130.809C367.056 127.343 371.821 128.189 372.804 124.764C372.804 124.743 384.105 126.487 391.83 123.557Z" fill="white"/>
<path d="M391.83 123.557C391.83 123.557 396.864 137.66 395.87 141.25C395.87 141.25 400.559 167.981 389.388 170.138C380.572 171.809 371.853 163.721 368.525 160.172C367.62 159.201 366.926 158.068 366.483 156.839L364.323 150.793C364.323 150.793 359.925 151.103 357.246 145.47C354.567 139.837 360.023 134.369 364.247 142.901C364.247 142.901 367.553 134.276 367.305 130.809C367.056 127.343 371.821 128.189 372.804 124.764C372.804 124.743 384.105 126.487 391.83 123.557Z" stroke="#263238" stroke-linecap="round" stroke-linejoin="round"/>
<path d="M391.29 143.685L397.253 150.855C397.393 151.027 397.487 151.228 397.528 151.441C397.569 151.655 397.556 151.874 397.489 152.082C397.422 152.289 397.304 152.478 397.144 152.633C396.985 152.788 396.789 152.903 396.573 152.97L392.338 154.394" fill="white"/>
<path d="M391.29 143.685L397.253 150.855C397.393 151.027 397.487 151.228 397.528 151.441C397.569 151.655 397.556 151.874 397.489 152.082C397.422 152.289 397.304 152.478 397.144 152.633C396.985 152.788 396.789 152.903 396.573 152.97L392.338 154.394" stroke="#263238" stroke-linecap="round" stroke-linejoin="round"/>
<path d="M382.614 157.262C382.614 157.262 384.461 160.894 390.641 157.685" stroke="#263238" stroke-linecap="round" stroke-linejoin="round"/>
<path d="M390.274 143.396C390.457 146.966 388.621 149.937 386.179 150.04C383.737 150.144 381.609 147.337 381.425 143.778C381.242 140.219 383.078 139.187 385.52 139.084C387.962 138.981 390.09 139.827 390.274 143.396Z" stroke="#263238" stroke-linecap="round" stroke-linejoin="round"/>
<path d="M401.521 142.591C401.704 146.161 400.235 149.122 398.28 149.205C396.324 149.287 394.52 146.471 394.336 142.901C394.152 139.331 395.643 138.331 397.642 138.238C399.641 138.145 401.337 139.022 401.521 142.591Z" fill="white" stroke="#263238" stroke-linecap="round" stroke-linejoin="round"/>
<path d="M381.447 138.207C381.447 138.207 384.105 134.493 388.815 137.33" stroke="#263238" stroke-linecap="round" stroke-linejoin="round"/>
<path d="M394.412 137.319C395.25 136.401 396.395 135.789 397.653 135.586" stroke="#263238" stroke-linecap="round" stroke-linejoin="round"/>
<path d="M381.447 143.758C379.887 144.174 378.287 144.437 376.672 144.542C373.009 144.201 363.026 139.569 363.026 139.569" stroke="#263238" stroke-linecap="round" stroke-linejoin="round"/>
<path d="M394.282 142.313L390.458 142.942" stroke="#263238" stroke-linecap="round" stroke-linejoin="round"/>
<path d="M388.124 143.83C388.016 144.933 387.324 145.769 386.568 145.707C385.812 145.645 385.304 144.676 385.401 143.644C385.499 142.612 386.212 141.704 386.957 141.766C387.703 141.828 388.232 142.726 388.124 143.83Z" fill="#263238"/>
<path d="M397.437 142.622C397.329 143.654 396.811 144.531 396.27 144.479C395.73 144.428 395.384 143.541 395.492 142.468C395.6 141.395 396.108 140.569 396.648 140.611C397.189 140.652 397.534 141.56 397.437 142.622Z" fill="#263238"/>
<path d="M354.75 266.89C356.641 262.227 369.336 263.001 369.336 263.001" stroke="#263238" stroke-linecap="round" stroke-linejoin="round"/>
<path d="M385.034 269.242C371.583 272.338 356.943 274.556 355.01 270.192" stroke="#263238" stroke-linecap="round" stroke-linejoin="round"/>
<path d="M408.252 263.001C408.252 263.001 406.847 263.434 404.503 264.125" stroke="#263238" stroke-linecap="round" stroke-linejoin="round"/>
<path d="M684.607 455.99H210.073V395.656C210.073 395.656 302.026 361.61 420.752 361.61C565.493 361.662 684.607 455.99 684.607 455.99Z" fill="#7E8AF5" stroke="#263238" stroke-linecap="round" stroke-linejoin="round"/>
<path opacity="0.2" d="M489.087 378.489L433.068 371.277L376.088 380.47L432.107 387.691L489.087 378.489Z" fill="black"/>
<path d="M482.227 377.983L430.173 371.277L377.223 379.82L429.276 386.526L482.227 377.983Z" fill="white" stroke="#263238" stroke-linecap="round" stroke-linejoin="round"/>
<path d="M489.087 375.971L437.033 369.265L384.083 377.808L436.136 384.514L489.087 375.971Z" fill="white" stroke="#263238" stroke-linecap="round" stroke-linejoin="round"/>
<path opacity="0.2" d="M382.138 413.102C392.013 413.102 400.019 411.541 400.019 409.615C400.019 407.689 392.013 406.128 382.138 406.128C372.263 406.128 364.258 407.689 364.258 409.615C364.258 411.541 372.263 413.102 382.138 413.102Z" fill="black"/>
<path d="M392.478 408.666C392.478 409.636 386.708 410.42 379.578 410.42C372.447 410.42 366.688 409.636 366.688 408.666V385.556C366.688 384.586 372.458 383.802 379.578 383.802C386.698 383.802 392.478 384.586 392.478 385.556V408.666Z" fill="white" stroke="#263238" stroke-linecap="round" stroke-linejoin="round"/>
<path d="M392.478 385.556C392.478 386.526 386.708 387.31 379.578 387.31C372.447 387.31 366.688 386.526 366.688 385.556C366.688 384.586 372.458 383.802 379.578 383.802C386.698 383.802 392.478 384.586 392.478 385.556Z" fill="white" stroke="#263238" stroke-linecap="round" stroke-linejoin="round"/>
<path d="M390.922 406.479C390.581 406.485 390.249 406.374 389.987 406.166C389.725 405.957 389.55 405.665 389.496 405.344C389.472 405.169 389.485 404.991 389.534 404.82C389.583 404.65 389.668 404.491 389.783 404.352C389.897 404.214 390.04 404.099 390.203 404.014C390.365 403.929 390.543 403.876 390.727 403.858C391.051 403.858 398.874 402.703 398.874 395.976C398.874 394.284 398.398 393.139 397.469 392.561C395.73 391.529 392.478 392.334 391.473 392.716C391.121 392.849 390.728 392.849 390.377 392.715C390.025 392.58 389.741 392.322 389.582 391.994C389.513 391.832 389.478 391.659 389.481 391.484C389.483 391.31 389.522 391.137 389.596 390.977C389.669 390.817 389.776 390.673 389.909 390.554C390.042 390.434 390.199 390.341 390.371 390.281C390.922 390.075 395.773 388.362 399.079 390.384C400.862 391.478 401.769 393.355 401.769 395.976C401.769 403.198 394.811 405.994 391.127 406.468L390.922 406.479Z" fill="white" stroke="#263238" stroke-linecap="round" stroke-linejoin="round"/>
<path d="M409.451 391.436C408.597 392.221 408.014 392.963 408.165 393.108C408.317 393.252 409.138 392.716 410.002 391.932C410.866 391.148 411.439 390.405 411.288 390.271C411.136 390.137 410.315 390.663 409.451 391.436Z" fill="#263238" stroke="#263238" stroke-linecap="round" stroke-linejoin="round"/>
<path d="M414.096 384.349C410.564 387.557 408.532 390.91 409.559 391.839C410.585 392.767 414.291 390.931 417.824 387.712L440.588 367.027C444.121 363.818 446.152 360.455 445.126 359.526C444.099 358.598 440.404 360.434 436.871 363.653L414.096 384.349Z" fill="#7E8AF5" stroke="#263238" stroke-linecap="round" stroke-linejoin="round"/>
<path d="M437.25 370.07L436.31 370.926C435.651 370.421 435.003 369.895 434.376 369.307C433.749 368.719 433.144 368.141 432.593 367.553L433.533 366.696C434.084 367.284 434.678 367.873 435.316 368.45C435.953 369.028 436.602 369.565 437.25 370.07Z" fill="#263238" stroke="#263238" stroke-linecap="round" stroke-linejoin="round"/>
<path d="M442.328 359.867C442.328 359.867 440.75 358.938 437.142 361.476C433.533 364.014 430.173 368.399 428.499 368.254" stroke="#263238" stroke-linecap="round" stroke-linejoin="round"/>
<path d="M398.485 402.579C398.485 402.579 401.11 396.523 401.11 393.428C401.11 390.333 407.938 379.902 412.994 378.066C418.051 376.229 435.078 368.564 436.32 371.669C437.563 374.775 429.903 378.623 428.293 379.345C426.502 380.418 424.817 381.644 423.258 383.007C423.258 383.007 431.048 381.522 431.901 379.17C432.755 376.817 435.143 373.681 436.439 375.693C437.736 377.705 437.141 382.822 435.121 386.753V389.404C435.121 389.404 437.336 392.499 434.927 395.068L433.068 396.894C433.068 396.894 436.309 399.989 431.901 402.568C431.901 402.568 433.922 405.313 430.292 408.047C430.292 408.047 422.642 411.524 417.813 412.617C412.984 413.711 408.759 420.303 408.759 420.303L398.485 402.579Z" fill="white" stroke="#263238" stroke-linecap="round" stroke-linejoin="round"/>
<path d="M250.546 297.707L263.165 270.811L255.04 248.279L254.23 222.435L276.464 210.529L296.095 207.372L304.101 211.798L307.429 219.164C307.429 219.164 317.412 238.436 315.867 242.14C314.322 245.844 313.176 249.362 313.176 249.362C313.176 249.362 317.887 259.369 320.674 262.547C323.462 265.725 314.819 263.795 313.803 269.521C312.788 275.247 313.998 290.444 306.586 291.135C299.174 291.826 294.702 289.629 294.021 295.602C293.34 301.576 285.734 316.742 285.734 316.742L250.546 297.707Z" fill="white" stroke="#263238" stroke-linecap="round" stroke-linejoin="round"/>
<path d="M312.452 190.184C311.372 186.717 300.968 191.535 299.887 198.963C299.887 198.963 298.559 187.615 295.123 186.531C292.119 185.593 287.971 190.741 289.472 196.848C289.472 196.848 278.247 191.215 274.628 192.526C271.948 193.495 271.008 198.489 276.788 202.843C276.788 202.843 241.697 195.394 243.75 224.58C243.75 224.58 224.454 238.312 260.15 277.321C260.15 277.321 268.621 275.526 270.954 274.226C272.305 273.472 283.595 264.94 283.595 264.94C280.354 263.836 274.714 260.679 273.18 256.873C271.235 252.054 273.839 246.298 278.582 245.524C281.423 245.06 283.033 246.267 285.064 248.433C285.064 248.433 280.386 242.79 280.678 240.603C281.045 237.869 288.111 234.97 288.63 232.256C288.867 230.977 285.723 228.46 286.555 227.397C290.79 222.001 311.026 228.253 308.952 210.364C306.878 192.474 313.965 195.043 312.452 190.184Z" fill="#263238" stroke="#263238" stroke-linecap="round" stroke-linejoin="round"/>
<path d="M311.707 247.958C311.707 249.372 311.416 250.527 310.94 250.538C310.465 250.548 310.065 249.413 310.022 248C309.979 246.586 310.314 245.431 310.778 245.42C311.243 245.41 311.664 246.566 311.707 247.958Z" fill="#263238"/>
<path d="M308.163 242.882C308.163 242.882 309.395 239.261 311.869 239.024" stroke="#263238" stroke-linecap="round" stroke-linejoin="round"/>
<path d="M281.65 215.016C293.772 215.935 283.746 198.943 283.746 198.943" stroke="#7F7F7F" stroke-linecap="round" stroke-linejoin="round"/>
<path d="M250.902 222.971C250.902 222.971 260.442 209.724 278.009 214.356" stroke="#7F7F7F" stroke-linecap="round" stroke-linejoin="round"/>
<path d="M298.256 207.423C299.445 213.304 298.256 221.166 284.103 222.115" stroke="#7F7F7F" stroke-linecap="round" stroke-linejoin="round"/>
<path d="M295.836 200.893C296.327 201.785 296.753 202.709 297.111 203.658" stroke="#7F7F7F" stroke-linecap="round" stroke-linejoin="round"/>
<path d="M308.93 455.99C308.93 455.99 319.864 348.466 306.899 328.173C293.935 307.879 255.181 284.068 241.319 294.385C193.22 330.35 193.058 361.063 190 455.969L308.93 455.99Z" fill="#263238" stroke="#263238" stroke-linecap="round" stroke-linejoin="round"/>
<path d="M298.375 324.304C298.375 324.304 313.663 328.142 322.144 350.096C329.955 370.245 344.152 396.812 353.627 410.048C354.376 411.063 355.411 411.856 356.611 412.334C357.811 412.812 359.129 412.957 360.412 412.751C364.582 412.122 372.534 411.637 380.15 407.686C387.205 404.023 393.439 400.01 401.283 401.104C409.127 402.197 414.043 409.161 412.779 419.22C411.568 428.815 366.397 453.772 339.722 453.772C317.963 453.772 298.072 396.739 291.428 379.737C284.783 362.735 277.847 325.429 298.375 324.304Z" fill="#263238" stroke="#263238" stroke-linecap="round" stroke-linejoin="round"/>
<path d="M290.326 326.594C292.315 325.19 294.703 324.391 297.175 324.304" stroke="#7F7F7F" stroke-linecap="round" stroke-linejoin="round"/>
<path d="M285 334.621C285.416 333.26 285.985 331.945 286.696 330.701" stroke="#7F7F7F" stroke-linecap="round" stroke-linejoin="round"/>
<path d="M307.342 415.712C300.882 404.058 295.167 392.041 290.229 379.727C286.091 369.131 281.834 350.664 284.178 337.984" stroke="#7F7F7F" stroke-linecap="round" stroke-linejoin="round"/>
<path d="M297.867 320.497C297.867 320.497 303.907 312.089 297.867 305.135C291.828 298.181 264.267 283.16 253.96 286.864C253.182 287.107 252.465 287.499 251.85 288.014C251.235 288.53 250.736 289.159 250.383 289.864C250.03 290.568 249.829 291.334 249.794 292.115C249.759 292.895 249.89 293.674 250.178 294.405C250.178 294.405 270.901 295.272 297.867 320.497Z" fill="#263238" stroke="#263238" stroke-linecap="round" stroke-linejoin="round"/>
<path d="M294.518 318.114C295.372 318.877 296.236 319.661 297.1 320.476" stroke="#7F7F7F" stroke-linecap="round" stroke-linejoin="round"/>
<path d="M257.255 295.953C264.418 298.016 276 302.876 289.775 314.09" stroke="#7F7F7F" stroke-linecap="round" stroke-linejoin="round"/>
<path d="M249.444 294.385C250.658 294.473 251.864 294.645 253.052 294.901" stroke="#7F7F7F" stroke-linecap="round" stroke-linejoin="round"/>
<path d="M359.644 426.886C359.644 426.886 359.644 420.86 356.328 419.21C353.011 417.559 355.723 426.886 352.406 434.572" stroke="#7F7F7F" stroke-linecap="round" stroke-linejoin="round"/>
<path d="M324.628 361.084C324.628 361.084 327.351 361.352 329.76 386.577" stroke="#7F7F7F" stroke-linecap="round" stroke-linejoin="round"/>
<path d="M283.541 264.878L285.853 265.291C285.93 268.395 286.7 271.449 288.111 274.246C290.272 278.084 293.34 278.817 300.547 286.286C307.267 293.24 310.357 288.71 310.746 288.06C310.382 288.88 309.804 289.595 309.065 290.137C308.327 290.68 307.454 291.03 306.532 291.156C299.131 291.847 294.648 289.649 293.967 295.623C292.779 291.001 288.911 285.44 285.853 278.486C283.996 274.181 283.204 269.524 283.541 264.878Z" fill="#263238" stroke="#263238" stroke-linecap="round" stroke-linejoin="round"/>
<path opacity="0.3" d="M286.696 260.535C287.549 255.779 282.374 246.091 285.086 248.34C287.798 250.589 291.331 258.884 295.555 262.041C299.779 265.198 299.38 272.596 305.419 269.49C308.051 268.09 311.15 267.72 314.062 268.458C313.925 268.791 313.827 269.137 313.771 269.49C312.766 275.247 313.965 290.413 306.553 291.104C304.418 291.256 302.276 291.301 300.136 291.238C295.944 287.05 289.958 280.828 287.668 277.218C283.962 271.43 285.853 265.291 286.696 260.535Z" fill="#263238"/>
<path d="M312.398 274.288C312.398 274.288 308.606 272.709 308.682 270.439" stroke="#263238" stroke-linecap="round" stroke-linejoin="round"/>
<defs>
<linearGradient id="paint0_linear_267_1078" x1="138.854" y1="81.313" x2="301.179" y2="357.086" gradientUnits="userSpaceOnUse">
<stop stop-color="#76BDFF"/>
<stop offset="1" stop-color="#FF94EE"/>
</linearGradient>
</defs>
</svg>
