<svg width="686" height="457" viewBox="0 0 686 457" fill="none" xmlns="http://www.w3.org/2000/svg">
<path d="M308.788 166.227C335.379 150.575 344.651 115.241 320.846 95.6092C311.016 87.5022 300.202 80.5567 288.606 74.9591C260.108 61.202 228.17 56.2045 196.832 60.5987C165.493 64.9928 136.161 78.5812 112.546 99.6455C88.93 120.71 72.0909 148.304 64.1579 178.938C56.2248 209.573 57.5541 241.872 67.9777 271.751C78.4012 301.63 97.4508 327.747 122.718 346.8C147.984 365.852 178.333 376.984 209.927 378.788C222.782 379.522 235.608 378.699 248.138 376.382C278.479 370.772 287.523 335.379 271.871 308.788L257.951 285.141C249.987 271.61 231.972 268.128 216.297 267.233V267.233C206.767 266.689 197.613 263.331 189.991 257.584C182.37 251.837 176.623 243.959 173.479 234.946C170.335 225.933 169.934 216.19 172.327 206.95C174.72 197.709 179.799 189.385 186.923 183.032C194.046 176.678 202.894 172.579 212.347 171.253C221.8 169.928 231.434 171.435 240.03 175.585V175.585C254.17 182.411 271.61 188.11 285.141 180.146L308.788 166.227Z" fill="url(#paint0_linear_267_1078)" fill-opacity="0.15"/>
<path d="M482.534 371.137L473.891 369.971V329.508L482.534 330.385V371.137Z" fill="#999999" stroke="#263238" stroke-linecap="round" stroke-linejoin="round"/>
<path d="M676.833 350.069L279.57 309.833V79.7649L676.833 30.7078V350.069Z" fill="white" stroke="#263238" stroke-linecap="round" stroke-linejoin="round"/>
<path d="M680.226 30.2951L276.156 80.2086C273.368 80.5594 271.1 79.1769 271.1 77.0206V73.5026C271.1 71.4392 273.368 69.3758 276.156 69.0044L680.226 14.6443C683.013 14.2626 685.282 16.3673 685.282 19.3385V24.2907C685.308 25.6984 684.817 27.0703 683.893 28.1675C682.969 29.2647 681.671 30.0176 680.226 30.2951V30.2951Z" fill="#999999" stroke="#263238" stroke-linecap="round" stroke-linejoin="round"/>
<path d="M669.454 20.2979L676.52 19.3281" stroke="white" stroke-linecap="round" stroke-linejoin="round"/>
<path d="M650.471 22.8979L661.275 21.4226" stroke="white" stroke-linecap="round" stroke-linejoin="round"/>
<path d="M313.008 68.8393L644.097 23.7439" stroke="white" stroke-linecap="round" stroke-linejoin="round"/>
<path d="M279.883 73.3584L304.462 70.0054" stroke="white" stroke-linecap="round" stroke-linejoin="round"/>
<path d="M517.193 315.962L449.625 310.153V219.024L517.247 218.879L517.193 315.962Z" fill="#7E8AF5"/>
<path opacity="0.8" d="M517.193 315.962L449.625 310.153V219.024L517.247 218.879L517.193 315.962Z" fill="white"/>
<path d="M584.816 321.77L517.193 315.962V218.92L584.816 218.786V321.77Z" fill="#7E8AF5"/>
<path opacity="0.6" d="M584.816 321.77L517.193 315.962V218.92L584.816 218.786V321.77Z" fill="white"/>
<path d="M652.427 327.578L584.816 321.77V218.745L652.427 218.6V327.578Z" fill="#7E8AF5"/>
<path opacity="0.4" d="M652.427 327.578L584.816 321.77V218.745L652.427 218.6V327.578Z" fill="white"/>
<path d="M652.427 218.6L449.625 219.023" stroke="#7F7F7F" stroke-linecap="round" stroke-linejoin="round"/>
<path d="M449.625 232.043L652.481 234.169" stroke="#7F7F7F" stroke-linecap="round" stroke-linejoin="round"/>
<path d="M652.427 249.737L449.625 245.063" stroke="#7F7F7F" stroke-linecap="round" stroke-linejoin="round"/>
<path d="M449.625 258.125L652.481 265.347" stroke="#7F7F7F" stroke-linecap="round" stroke-linejoin="round"/>
<path d="M652.427 280.873L449.625 271.093" stroke="#7F7F7F" stroke-linecap="round" stroke-linejoin="round"/>
<path d="M449.625 284.113L652.481 296.442" stroke="#7F7F7F" stroke-linecap="round" stroke-linejoin="round"/>
<path d="M652.427 312.01L449.625 297.133" stroke="#7F7F7F" stroke-linecap="round" stroke-linejoin="round"/>
<path d="M449.625 310.153L652.481 327.578" stroke="#7F7F7F" stroke-linecap="round" stroke-linejoin="round"/>
<path d="M466.479 311.608V218.982" stroke="#7F7F7F" stroke-linecap="round" stroke-linejoin="round"/>
<path d="M449.625 219.023V310.153" stroke="#7F7F7F" stroke-linecap="round" stroke-linejoin="round"/>
<path d="M500.285 314.507V218.92" stroke="#7F7F7F" stroke-linecap="round" stroke-linejoin="round"/>
<path d="M483.387 218.92V313.021" stroke="#7F7F7F" stroke-linecap="round" stroke-linejoin="round"/>
<path d="M534.102 317.416V218.848" stroke="#7F7F7F" stroke-linecap="round" stroke-linejoin="round"/>
<path d="M517.193 218.92V316.003" stroke="#7F7F7F" stroke-linecap="round" stroke-linejoin="round"/>
<path d="M567.907 320.315V218.776" stroke="#7F7F7F" stroke-linecap="round" stroke-linejoin="round"/>
<path d="M550.999 218.807V318.881" stroke="#7F7F7F" stroke-linecap="round" stroke-linejoin="round"/>
<path d="M601.713 323.225V218.704" stroke="#7F7F7F" stroke-linecap="round" stroke-linejoin="round"/>
<path d="M584.816 218.745V321.77" stroke="#7F7F7F" stroke-linecap="round" stroke-linejoin="round"/>
<path d="M635.529 326.124V218.631" stroke="#7F7F7F" stroke-linecap="round" stroke-linejoin="round"/>
<path d="M618.621 218.673V324.679" stroke="#7F7F7F" stroke-linecap="round" stroke-linejoin="round"/>
<path d="M652.427 218.6V327.578" stroke="#7F7F7F" stroke-linecap="round" stroke-linejoin="round"/>
<path d="M449.625 219.023V310.153L652.481 327.578V218.6L449.625 219.023Z" stroke="#263238" stroke-linecap="round" stroke-linejoin="round"/>
<path d="M458.03 310.483L452.952 310.05V283.917L458.03 284.227V310.483Z" fill="#263238"/>
<path d="M463.098 310.927L458.031 310.483V271.114L463.098 271.361V310.927Z" fill="#7E8AF5"/>
<path d="M474.928 311.938L469.861 311.505V265.078L474.928 265.285V311.938Z" fill="#263238"/>
<path d="M480.006 312.371L474.928 311.938V258.589L480.006 258.764V312.371Z" fill="#7E8AF5"/>
<path d="M491.836 313.382L486.769 312.949V272.486L491.836 272.734V313.382Z" fill="#263238"/>
<path d="M496.903 313.836L491.836 313.403V265.945L496.903 266.151V313.836Z" fill="#7E8AF5"/>
<path d="M508.744 314.868L503.667 314.435V287.012L508.744 287.322V314.868Z" fill="#263238" stroke="#263238" stroke-linecap="round" stroke-linejoin="round"/>
<path d="M513.812 315.26L508.745 314.827V281.812L513.812 282.091V315.26Z" fill="#7E8AF5" stroke="#7E8AF5" stroke-linecap="round" stroke-linejoin="round"/>
<path d="M525.642 316.271L520.575 315.838V268.865L525.642 269.081V316.271Z" fill="#263238"/>
<path d="M530.72 316.704L525.642 316.271V277.974L530.72 278.232V316.704Z" fill="#7E8AF5"/>
<path d="M542.539 317.715L537.472 317.282V276.551L542.539 276.798V317.715Z" fill="#263238"/>
<path d="M547.617 318.149L542.55 317.716V269.804L547.617 270.02V318.149Z" fill="#7E8AF5"/>
<path d="M559.459 319.16L554.381 318.726V267.802L559.459 268.008V319.16Z" fill="#263238"/>
<path d="M564.525 319.593L559.458 319.16V271.815L564.525 272.042V319.593Z" fill="#7E8AF5"/>
<path d="M576.356 320.604L571.289 320.171V257.444L576.356 257.609V320.604Z" fill="#263238"/>
<path d="M581.434 321.058L576.356 320.614V250.15L581.434 250.284V321.058Z" fill="#7E8AF5"/>
<path d="M593.318 322.09L588.251 321.657V262.582L593.318 262.757V322.09Z" fill="#263238"/>
<path d="M598.331 259.311V322.492L593.318 322.09V259.156L598.331 259.311Z" fill="#7E8AF5"/>
<path d="M610.173 323.503L605.095 323.07V255.184L610.173 255.329V323.503Z" fill="#263238"/>
<path d="M615.239 323.937L610.172 323.503V256.732L615.239 256.876V323.937Z" fill="#7E8AF5"/>
<path d="M627.07 324.948L622.003 324.514V245.744L627.07 245.847V324.948Z" fill="#263238"/>
<path d="M632.148 325.381L627.07 324.948V241.504L632.148 241.587V325.381Z" fill="#7E8AF5"/>
<path d="M643.978 326.392L638.9 325.959V233.57L643.978 233.622V326.392Z" fill="#263238"/>
<path d="M649.046 326.825L643.979 326.392V229.712H649.046V326.825Z" fill="#7E8AF5"/>
<path d="M518.63 267.771L503.926 267.152C503.121 267.156 502.344 266.874 501.745 266.361C501.146 265.848 500.768 265.141 500.685 264.377V255.422C500.718 255.05 500.83 254.689 501.012 254.359C501.194 254.029 501.443 253.737 501.745 253.5C502.047 253.264 502.396 253.087 502.77 252.982C503.145 252.876 503.538 252.842 503.926 252.884L518.63 253.307C519.439 253.288 520.225 253.565 520.827 254.081C521.429 254.596 521.803 255.312 521.871 256.082V265.223C521.842 265.596 521.734 265.96 521.553 266.293C521.373 266.625 521.123 266.92 520.821 267.158C520.518 267.396 520.168 267.573 519.791 267.678C519.415 267.784 519.02 267.815 518.63 267.771V267.771Z" fill="white" stroke="#263238" stroke-linecap="round" stroke-linejoin="round"/>
<path d="M504.92 263.727C504.422 263.66 503.968 263.418 503.648 263.047C503.328 262.677 503.165 262.205 503.191 261.725V261.22H504.704V261.839C504.704 262.344 505.017 262.571 505.525 262.592C506.033 262.613 506.346 262.406 506.346 261.88C506.346 261.354 506.054 260.848 504.985 260.137C503.688 259.26 503.234 258.589 503.234 257.691C503.217 257.464 503.247 257.236 503.322 257.02C503.397 256.804 503.517 256.604 503.674 256.432C503.83 256.26 504.021 256.12 504.235 256.019C504.449 255.918 504.682 255.859 504.92 255.845V255.133H506.216V255.845C506.712 255.909 507.163 256.15 507.48 256.52C507.797 256.889 507.955 257.359 507.923 257.836V258.125H506.422V257.805C506.434 257.702 506.422 257.598 506.386 257.501C506.35 257.403 506.291 257.315 506.214 257.242C506.137 257.17 506.044 257.115 505.941 257.082C505.839 257.049 505.729 257.039 505.622 257.052C505.114 257.052 504.833 257.248 504.833 257.722C504.833 258.197 505.125 258.682 506.195 259.414C507.491 260.312 507.945 260.972 507.945 261.921C507.966 262.155 507.937 262.39 507.861 262.613C507.784 262.836 507.662 263.042 507.501 263.219C507.34 263.396 507.143 263.541 506.922 263.644C506.702 263.747 506.462 263.807 506.216 263.82V264.645H504.92V263.727Z" fill="#263238"/>
<path d="M516.859 260.941V255.525L513.336 255.411V260.807L510.819 260.725C512.537 262.571 513.39 263.5 515.141 265.357L519.408 261.024L516.859 260.941Z" fill="#999999" stroke="#263238" stroke-linecap="round" stroke-linejoin="round"/>
<path d="M612.452 246.776L597.737 246.456C596.907 246.457 596.107 246.154 595.504 245.609C594.901 245.064 594.54 244.318 594.496 243.526V233.777C594.532 232.99 594.894 232.25 595.502 231.718C596.109 231.186 596.913 230.906 597.737 230.939L612.452 231.063C613.284 231.062 614.085 231.367 614.689 231.914C615.292 232.462 615.652 233.21 615.693 234.004V243.908C615.682 244.301 615.589 244.688 615.419 245.046C615.25 245.404 615.007 245.726 614.705 245.993C614.403 246.26 614.048 246.467 613.661 246.602C613.274 246.736 612.863 246.795 612.452 246.776V246.776Z" fill="white" stroke="#263238" stroke-linecap="round" stroke-linejoin="round"/>
<path d="M598.72 242.701C598.206 242.615 597.744 242.348 597.426 241.952C597.108 241.557 596.956 241.062 597.002 240.565V239.977H598.504V240.658C598.492 240.765 598.505 240.874 598.543 240.975C598.581 241.077 598.641 241.169 598.721 241.245C598.801 241.321 598.898 241.379 599.004 241.415C599.11 241.451 599.224 241.464 599.336 241.453C599.448 241.469 599.563 241.459 599.672 241.424C599.78 241.39 599.878 241.332 599.958 241.254C600.038 241.177 600.097 241.083 600.132 240.979C600.167 240.875 600.175 240.765 600.157 240.658C600.157 240.018 599.865 239.554 598.796 238.801C597.499 237.873 597.045 237.15 597.045 236.181C596.992 235.697 597.137 235.212 597.449 234.828C597.761 234.444 598.216 234.189 598.72 234.117V233.364H600.027V234.148C600.54 234.227 601.002 234.49 601.319 234.883C601.637 235.276 601.785 235.769 601.734 236.263V236.511H600.233V236.16C600.25 236.054 600.241 235.946 600.208 235.844C600.174 235.742 600.117 235.648 600.039 235.57C599.962 235.493 599.867 235.433 599.762 235.396C599.657 235.358 599.545 235.344 599.433 235.355C599.325 235.342 599.215 235.352 599.111 235.386C599.008 235.419 598.914 235.475 598.836 235.549C598.759 235.623 598.701 235.712 598.665 235.811C598.63 235.91 598.619 236.015 598.634 236.119C598.634 236.707 598.925 237.15 599.995 237.924C601.302 238.853 601.756 239.575 601.756 240.596C601.799 241.086 601.644 241.573 601.323 241.957C601.001 242.341 600.537 242.593 600.027 242.66V243.547H598.72V242.701Z" fill="#263238"/>
<path d="M607.147 238.326V244.186L610.669 244.259V238.378H613.187L608.865 233.447L604.597 238.254L607.147 238.326Z" fill="#999999" stroke="#263238" stroke-linecap="round" stroke-linejoin="round"/>
<path d="M548.773 166.231C553.287 167.156 557.901 167.562 562.516 167.439C588.499 166.768 612.095 148.135 612.214 123.798C612.29 100.471 587.711 82.6641 562.516 86.1099V126.779C557.964 139.944 553.383 153.094 548.773 166.231Z" fill="#7E8AF5" stroke="#263238" stroke-linecap="round" stroke-linejoin="round"/>
<path d="M562.516 126.78V86.1101C538.261 88.483 512.461 106.651 512.817 129.751C513.12 147.176 529.369 162.982 548.73 166.232C553.376 153.088 557.971 139.937 562.516 126.78Z" fill="#999999" stroke="#263238" stroke-linecap="round" stroke-linejoin="round"/>
<path d="M544.495 110.18C544.463 109.814 544.352 109.458 544.168 109.136C543.983 108.814 543.73 108.532 543.425 108.309C543.119 108.087 542.768 107.928 542.394 107.843C542.02 107.758 541.631 107.749 541.253 107.817C540.442 107.831 539.664 108.128 539.066 108.653C538.469 109.178 538.094 109.893 538.012 110.664V112.294C538.045 112.66 538.158 113.015 538.342 113.337C538.527 113.659 538.78 113.94 539.085 114.163C539.39 114.387 539.74 114.547 540.114 114.633C540.487 114.72 540.875 114.732 541.253 114.667C542.065 114.654 542.843 114.356 543.44 113.831C544.038 113.307 544.413 112.591 544.495 111.82" stroke="#263238" stroke-linecap="round" stroke-linejoin="round"/>
<path d="M535.473 141.543V146.815C535.497 147.06 535.573 147.298 535.696 147.514C535.818 147.73 535.986 147.92 536.188 148.072C536.39 148.225 536.622 148.336 536.871 148.4C537.12 148.465 537.379 148.48 537.634 148.445V148.445C538.167 148.449 538.682 148.264 539.081 147.927C539.479 147.59 539.734 147.124 539.795 146.619V133.341C539.82 132.997 539.976 132.674 540.232 132.431C540.488 132.188 540.828 132.042 541.189 132.021C541.367 131.985 541.55 131.986 541.728 132.023C541.905 132.06 542.073 132.132 542.219 132.236C542.365 132.339 542.486 132.471 542.575 132.622C542.664 132.774 542.718 132.941 542.734 133.114V146.526C542.756 146.772 542.831 147.011 542.953 147.228C543.075 147.445 543.243 147.637 543.445 147.79C543.647 147.944 543.88 148.056 544.129 148.121C544.378 148.186 544.639 148.201 544.894 148.167C545.429 148.17 545.945 147.984 546.344 147.645C546.743 147.305 546.997 146.837 547.055 146.33V133.455" stroke="#263238" stroke-linecap="round" stroke-linejoin="round"/>
<path d="M535.473 138.087V139.634" stroke="#263238" stroke-linecap="round" stroke-linejoin="round"/>
<path d="M547.034 131.577V121.115C547.053 120.95 547.135 120.798 547.265 120.687C547.394 120.577 547.562 120.516 547.736 120.517V120.517C547.818 120.504 547.901 120.507 547.981 120.527C548.061 120.546 548.136 120.581 548.201 120.629C548.266 120.678 548.32 120.739 548.359 120.808C548.398 120.878 548.421 120.954 548.428 121.033V127.223C548.447 127.6 548.622 127.954 548.913 128.209C549.204 128.464 549.589 128.599 549.983 128.585C550.442 128.617 550.895 128.478 551.248 128.197C551.6 127.916 551.825 127.515 551.874 127.079V119.62C551.874 117.659 549.919 116.205 547.499 116.37L535.009 117.236C532.589 117.412 530.688 119.104 530.688 121.033V128.255C530.71 128.629 530.886 128.979 531.177 129.231C531.468 129.482 531.851 129.613 532.243 129.596C532.699 129.631 533.15 129.496 533.503 129.218C533.856 128.941 534.082 128.544 534.134 128.11V121.92C534.153 121.754 534.234 121.6 534.364 121.488C534.493 121.376 534.661 121.313 534.836 121.312V121.312C534.917 121.3 535 121.304 535.08 121.324C535.159 121.344 535.233 121.379 535.298 121.428C535.363 121.476 535.416 121.536 535.456 121.605C535.495 121.674 535.52 121.749 535.528 121.827V136.519" stroke="#263238" stroke-linecap="round" stroke-linejoin="round"/>
<path d="M586.76 108.209C586.987 109.509 587.322 111.386 587.322 111.386L579.608 111.933C579.608 111.933 580.321 107.806 580.375 107.497C580.503 106.761 580.871 106.082 581.425 105.556C581.98 105.03 582.693 104.684 583.465 104.567C584.206 104.546 584.93 104.786 585.499 105.24C586.069 105.694 586.444 106.332 586.555 107.033" stroke="#263238" stroke-linecap="round" stroke-linejoin="round"/>
<path d="M593.426 124.572V116.865C593.426 114.801 591.46 113.326 589.051 113.491" stroke="#263238" stroke-linecap="round" stroke-linejoin="round"/>
<path d="M588.586 136.9V134.321L591.049 134.187C590.066 127.883 589.569 124.726 588.586 118.443C588.599 118.275 588.677 118.118 588.805 118.002C588.933 117.885 589.101 117.819 589.277 117.814C589.36 117.802 589.445 117.807 589.525 117.829C589.606 117.85 589.681 117.887 589.746 117.937C589.811 117.988 589.865 118.05 589.903 118.122C589.941 118.193 589.964 118.271 589.969 118.35V124.757C589.98 125.141 590.15 125.505 590.442 125.77C590.733 126.035 591.122 126.179 591.525 126.171" stroke="#263238" stroke-linecap="round" stroke-linejoin="round"/>
<path d="M588.586 140.233V138.448" stroke="#263238" stroke-linecap="round" stroke-linejoin="round"/>
<path d="M576.172 133.042C576.053 133.805 575.999 134.187 575.88 134.95L578.344 134.816V144.906C578.362 145.156 578.434 145.399 578.554 145.621C578.674 145.844 578.84 146.04 579.042 146.2C579.244 146.359 579.478 146.477 579.729 146.547C579.981 146.618 580.244 146.639 580.505 146.609C581.047 146.61 581.571 146.417 581.971 146.067C582.371 145.718 582.619 145.237 582.665 144.721V134.589L584.264 134.507V144.638C584.283 144.888 584.354 145.131 584.474 145.353C584.594 145.575 584.761 145.772 584.963 145.931C585.165 146.091 585.399 146.209 585.65 146.279C585.901 146.349 586.165 146.37 586.425 146.34C586.969 146.342 587.494 146.147 587.895 145.795C588.296 145.443 588.542 144.96 588.586 144.442V142.028" stroke="#263238" stroke-linecap="round" stroke-linejoin="round"/>
<path d="M585.312 113.749L577.879 114.265C576.782 114.301 575.736 114.72 574.94 115.443C574.144 116.165 573.652 117.141 573.558 118.185V125.706C573.572 126.079 573.736 126.431 574.015 126.691C574.295 126.95 574.669 127.097 575.059 127.099C575.524 127.134 575.985 126.991 576.341 126.704C576.697 126.416 576.92 126.006 576.961 125.562V119.165C576.976 118.998 577.055 118.842 577.182 118.726C577.31 118.611 577.477 118.543 577.652 118.536V118.536C577.735 118.525 577.82 118.529 577.9 118.551C577.981 118.572 578.056 118.609 578.121 118.659C578.186 118.71 578.24 118.773 578.278 118.844C578.316 118.915 578.339 118.993 578.344 119.073L576.669 129.905" stroke="#263238" stroke-linecap="round" stroke-linejoin="round"/>
<path d="M630.333 120.084L624.844 120.424C624.371 120.486 623.889 120.454 623.43 120.329C622.971 120.204 622.544 119.989 622.176 119.698C621.808 119.407 621.508 119.046 621.294 118.638C621.08 118.23 620.957 117.785 620.933 117.329V112.656C621.002 111.696 621.439 110.795 622.161 110.125C622.882 109.454 623.838 109.062 624.844 109.024L630.333 108.632C630.805 108.568 631.287 108.6 631.746 108.724C632.206 108.849 632.633 109.064 633 109.355C633.367 109.646 633.667 110.008 633.879 110.417C634.091 110.825 634.212 111.271 634.233 111.727V116.483C634.166 117.438 633.73 118.336 633.01 119.001C632.289 119.667 631.335 120.053 630.333 120.084Z" fill="#999999" stroke="#263238" stroke-linecap="round" stroke-linejoin="round"/>
<path d="M643.589 116.555L640.24 116.772V115.379C641.526 112.666 642.163 111.314 643.481 108.591L645.394 108.457V115.049H646.215V116.442H645.394V118.216L643.632 118.33L643.589 116.555ZM643.589 115.163V111.366C642.909 112.934 642.563 113.718 641.871 115.276L643.589 115.163Z" fill="#263238"/>
<path d="M646.993 115.75V114.977L648.646 114.874V115.75C648.646 116.452 649.002 116.679 649.564 116.638C650.126 116.596 650.471 116.328 650.471 115.606V113.409C650.471 112.707 650.115 112.459 649.564 112.501C649.013 112.542 648.646 112.82 648.646 113.532V113.615L646.993 113.728C647.122 111.531 647.187 110.437 647.306 108.25L651.93 107.92V109.323L648.872 109.529C648.818 110.468 648.786 110.943 648.732 111.882C648.895 111.638 649.118 111.436 649.382 111.294C649.645 111.152 649.942 111.074 650.245 111.067C651.53 110.984 652.189 111.737 652.189 113.182V115.4C652.222 115.742 652.178 116.086 652.06 116.41C651.942 116.735 651.753 117.031 651.505 117.28C651.258 117.529 650.958 117.725 650.625 117.854C650.292 117.984 649.934 118.044 649.575 118.031C649.238 118.097 648.889 118.086 648.558 117.998C648.226 117.91 647.922 117.748 647.669 117.525C647.417 117.302 647.223 117.025 647.106 116.716C646.988 116.407 646.949 116.076 646.993 115.75Z" fill="#263238"/>
<path d="M653.324 111.778V109.323C653.305 109.102 653.336 108.881 653.413 108.672C653.491 108.464 653.614 108.273 653.774 108.114C653.935 107.954 654.128 107.828 654.343 107.745C654.558 107.662 654.788 107.623 655.02 107.631C655.237 107.585 655.462 107.589 655.677 107.644C655.892 107.698 656.091 107.801 656.256 107.943C656.421 108.085 656.547 108.263 656.626 108.462C656.704 108.661 656.731 108.875 656.705 109.086V111.551C656.725 111.771 656.696 111.993 656.62 112.201C656.543 112.41 656.421 112.6 656.262 112.76C656.103 112.92 655.91 113.046 655.695 113.129C655.481 113.213 655.251 113.252 655.02 113.243C654.801 113.289 654.574 113.284 654.358 113.23C654.142 113.175 653.943 113.071 653.777 112.928C653.611 112.785 653.483 112.606 653.404 112.406C653.325 112.206 653.298 111.991 653.324 111.778V111.778ZM655.592 111.696V109.096C655.592 108.663 655.366 108.498 655.02 108.518C654.674 108.539 654.436 108.745 654.436 109.179V111.778C654.436 112.212 654.652 112.377 655.02 112.356C655.387 112.336 655.592 112.129 655.592 111.696V111.696ZM659.061 107.487L660.141 107.414C658.412 111.479 657.548 113.512 655.819 117.556L654.739 117.628C656.468 113.584 657.332 111.562 659.061 107.497V107.487ZM658.218 115.967V113.501C658.198 113.282 658.227 113.061 658.303 112.853C658.38 112.645 658.502 112.455 658.661 112.296C658.821 112.136 659.014 112.012 659.228 111.93C659.443 111.847 659.673 111.81 659.903 111.82C660.122 111.771 660.35 111.774 660.567 111.828C660.785 111.882 660.985 111.985 661.152 112.129C661.318 112.273 661.446 112.453 661.524 112.655C661.602 112.856 661.628 113.072 661.599 113.285V115.75C661.618 115.97 661.587 116.192 661.51 116.4C661.432 116.608 661.309 116.797 661.148 116.956C660.988 117.115 660.794 117.24 660.579 117.322C660.365 117.404 660.134 117.442 659.903 117.432C659.685 117.478 659.459 117.474 659.243 117.419C659.027 117.364 658.828 117.261 658.663 117.117C658.497 116.974 658.371 116.794 658.293 116.594C658.216 116.394 658.19 116.179 658.218 115.967V115.967ZM660.487 115.895V113.285C660.487 112.851 660.26 112.686 659.903 112.707C659.547 112.728 659.331 112.924 659.331 113.367V115.967C659.331 116.411 659.547 116.576 659.903 116.555C660.26 116.534 660.487 116.338 660.487 115.895V115.895Z" fill="#263238"/>
<path d="M630.333 136.849L624.844 137.117C624.367 137.17 623.883 137.128 623.423 136.995C622.962 136.862 622.536 136.64 622.169 136.343C621.802 136.046 621.504 135.681 621.291 135.269C621.078 134.857 620.957 134.408 620.933 133.949V129.235C621 128.281 621.439 127.385 622.163 126.725C622.887 126.064 623.843 125.686 624.844 125.665L630.333 125.345C630.809 125.289 631.293 125.328 631.753 125.459C632.213 125.591 632.64 125.812 633.007 126.108C633.373 126.405 633.671 126.771 633.882 127.183C634.093 127.595 634.213 128.044 634.233 128.502V133.289C634.168 134.241 633.731 135.135 633.009 135.795C632.287 136.454 631.332 136.83 630.333 136.849V136.849Z" fill="#7E8AF5" stroke="#263238" stroke-linecap="round" stroke-linejoin="round"/>
<path d="M640.607 133.032V132.258L642.271 132.175V133.042C642.271 133.743 642.617 133.97 643.179 133.95C643.741 133.929 644.086 133.651 644.086 132.918V130.731C644.086 130.04 643.741 129.792 643.179 129.823C642.617 129.854 642.271 130.133 642.271 130.855V130.937L640.607 131.02L640.932 125.572L645.556 125.304V126.707L642.498 126.872C642.433 127.811 642.412 128.275 642.347 129.204C642.51 128.962 642.734 128.763 642.998 128.624C643.262 128.485 643.558 128.412 643.859 128.41C645.156 128.337 645.804 129.101 645.804 130.535V132.743C645.84 133.083 645.797 133.426 645.679 133.749C645.561 134.071 645.372 134.365 645.123 134.611C644.874 134.856 644.572 135.047 644.238 135.17C643.904 135.293 643.547 135.345 643.19 135.322C642.852 135.389 642.502 135.378 642.17 135.289C641.837 135.201 641.532 135.038 641.279 134.814C641.026 134.589 640.833 134.311 640.717 134.001C640.6 133.691 640.562 133.358 640.607 133.032Z" fill="#263238"/>
<path d="M646.992 132.701V131.938L648.645 131.845V132.732C648.645 133.423 649.002 133.661 649.564 133.63C650.125 133.599 650.471 133.341 650.471 132.598V130.401C650.471 129.699 650.115 129.451 649.564 129.482C649.013 129.513 648.645 129.792 648.645 130.514V130.597L646.992 130.689C647.122 128.492 647.187 127.398 647.306 125.211L651.93 124.943V126.346L648.872 126.511C648.818 127.45 648.786 127.924 648.732 128.863C648.894 128.621 649.118 128.421 649.382 128.282C649.646 128.143 649.943 128.07 650.244 128.069C651.53 127.997 652.189 128.76 652.189 130.205V132.423C652.224 132.764 652.181 133.108 652.064 133.431C651.946 133.755 651.757 134.05 651.508 134.297C651.26 134.544 650.958 134.737 650.625 134.862C650.291 134.987 649.932 135.042 649.574 135.023C649.234 135.091 648.88 135.08 648.545 134.99C648.21 134.9 647.902 134.734 647.649 134.506C647.395 134.278 647.203 133.995 647.089 133.68C646.974 133.366 646.941 133.03 646.992 132.701Z" fill="#263238"/>
<path d="M653.323 128.843V126.387C653.303 126.167 653.332 125.946 653.409 125.738C653.487 125.529 653.61 125.339 653.771 125.181C653.932 125.022 654.127 124.899 654.342 124.818C654.558 124.738 654.789 124.703 655.02 124.716C655.238 124.672 655.465 124.678 655.681 124.734C655.897 124.79 656.095 124.895 656.26 125.039C656.425 125.184 656.551 125.364 656.629 125.564C656.706 125.764 656.732 125.979 656.705 126.191V128.657C656.726 128.876 656.697 129.096 656.62 129.303C656.543 129.51 656.421 129.699 656.261 129.856C656.101 130.014 655.907 130.137 655.693 130.217C655.479 130.296 655.249 130.331 655.02 130.318C654.8 130.362 654.573 130.355 654.357 130.299C654.141 130.243 653.942 130.138 653.777 129.994C653.611 129.85 653.484 129.671 653.405 129.471C653.326 129.271 653.298 129.055 653.323 128.843ZM655.592 128.791V126.191C655.592 125.748 655.365 125.583 655.02 125.603C654.674 125.624 654.436 125.82 654.436 126.253V128.853C654.436 129.286 654.652 129.462 655.02 129.441C655.387 129.421 655.592 129.225 655.592 128.791V128.791ZM659.06 124.664L660.141 124.603C658.412 128.647 657.548 130.669 655.819 134.693L654.739 134.744C656.467 130.69 657.332 128.667 659.06 124.623V124.664ZM658.218 133.135V130.669C658.197 130.45 658.226 130.23 658.303 130.023C658.379 129.816 658.502 129.627 658.662 129.47C658.822 129.312 659.016 129.189 659.23 129.109C659.444 129.03 659.674 128.995 659.903 129.008C660.123 128.964 660.351 128.97 660.568 129.027C660.785 129.084 660.985 129.189 661.151 129.334C661.317 129.48 661.444 129.661 661.522 129.862C661.6 130.064 661.627 130.28 661.599 130.494V132.97C661.62 133.189 661.591 133.41 661.514 133.618C661.436 133.826 661.313 134.015 661.152 134.173C660.99 134.331 660.795 134.453 660.58 134.532C660.364 134.611 660.133 134.645 659.903 134.631C659.679 134.675 659.446 134.667 659.226 134.607C659.005 134.546 658.803 134.436 658.638 134.285C658.472 134.133 658.347 133.946 658.274 133.738C658.201 133.531 658.181 133.31 658.218 133.093V133.135ZM660.487 133.135V130.524C660.487 130.091 660.26 129.916 659.903 129.936C659.547 129.957 659.331 130.153 659.331 130.586V133.197C659.331 133.63 659.547 133.805 659.903 133.785C660.26 133.764 660.487 133.485 660.487 133.052V133.135Z" fill="#263238"/>
<path d="M365.353 190.28L297.742 191.776V85.7696L365.353 78.3311V190.28Z" fill="#7E8AF5"/>
<path opacity="0.8" d="M365.353 190.28L297.742 191.776V85.7696L365.353 78.3311V190.28Z" fill="white"/>
<path d="M433.019 188.795L365.354 190.28V78.3311L432.976 70.8926L433.019 188.795Z" fill="#7E8AF5"/>
<path opacity="0.6" d="M433.019 188.795L365.354 190.28V78.3311L432.976 70.8926L433.019 188.795Z" fill="white"/>
<path d="M500.641 187.309L433.019 188.795V70.8924L500.641 63.4539V187.309Z" fill="#7E8AF5"/>
<path opacity="0.4" d="M500.641 187.309L433.019 188.795V70.8924L500.641 63.4539V187.309Z" fill="white"/>
<path d="M500.641 63.4539L297.785 85.7694" stroke="#7F7F7F" stroke-linecap="round" stroke-linejoin="round"/>
<path d="M297.785 100.915L500.641 81.1477" stroke="#7F7F7F" stroke-linecap="round" stroke-linejoin="round"/>
<path d="M500.641 98.8411L297.785 116.06" stroke="#7F7F7F" stroke-linecap="round" stroke-linejoin="round"/>
<path d="M297.785 131.226L500.641 116.566" stroke="#7F7F7F" stroke-linecap="round" stroke-linejoin="round"/>
<path d="M500.641 134.228L297.785 146.34" stroke="#7F7F7F" stroke-linecap="round" stroke-linejoin="round"/>
<path d="M297.785 161.486L500.641 151.922" stroke="#7F7F7F" stroke-linecap="round" stroke-linejoin="round"/>
<path d="M500.641 169.615L297.785 176.621" stroke="#7F7F7F" stroke-linecap="round" stroke-linejoin="round"/>
<path d="M297.785 191.776L500.641 187.309" stroke="#7F7F7F" stroke-linecap="round" stroke-linejoin="round"/>
<path d="M314.683 191.405V83.9126" stroke="#7F7F7F" stroke-linecap="round" stroke-linejoin="round"/>
<path d="M297.785 85.7695V191.776" stroke="#7F7F7F" stroke-linecap="round" stroke-linejoin="round"/>
<path d="M348.499 190.652V80.188" stroke="#7F7F7F" stroke-linecap="round" stroke-linejoin="round"/>
<path d="M331.591 82.0452V191.064" stroke="#7F7F7F" stroke-linecap="round" stroke-linejoin="round"/>
<path d="M382.305 189.909V76.4739" stroke="#7F7F7F" stroke-linecap="round" stroke-linejoin="round"/>
<path d="M365.354 78.3311V190.28" stroke="#7F7F7F" stroke-linecap="round" stroke-linejoin="round"/>
<path d="M416.132 189.166V72.7498" stroke="#7F7F7F" stroke-linecap="round" stroke-linejoin="round"/>
<path d="M399.213 74.6169V189.538" stroke="#7F7F7F" stroke-linecap="round" stroke-linejoin="round"/>
<path d="M449.927 188.423V69.0356" stroke="#7F7F7F" stroke-linecap="round" stroke-linejoin="round"/>
<path d="M433.019 70.8926V188.795" stroke="#7F7F7F" stroke-linecap="round" stroke-linejoin="round"/>
<path d="M483.733 187.681V65.3215" stroke="#7F7F7F" stroke-linecap="round" stroke-linejoin="round"/>
<path d="M466.824 67.1782V188.052" stroke="#7F7F7F" stroke-linecap="round" stroke-linejoin="round"/>
<path d="M500.641 63.4539V187.309" stroke="#7F7F7F" stroke-linecap="round" stroke-linejoin="round"/>
<path d="M297.785 85.7696V191.776L500.641 187.309V63.5056L297.785 85.7696Z" stroke="#263238" stroke-linecap="round" stroke-linejoin="round"/>
<path d="M297.785 176.621H298.995" stroke="#263238" stroke-linecap="round" stroke-linejoin="round"/>
<path d="M301.059 176.518L312.446 176.125" stroke="#263238" stroke-linecap="round" stroke-linejoin="round" stroke-dasharray="1.71 1.71"/>
<path d="M313.494 176.084H314.694L315.547 175.279" stroke="#263238" stroke-linecap="round" stroke-linejoin="round"/>
<path d="M317.232 173.639C322.299 168.842 324.795 166.417 329.895 161.537" stroke="#263238" stroke-linecap="round" stroke-linejoin="round" stroke-dasharray="1.98 1.98"/>
<path d="M330.781 160.722L331.635 159.897C331.98 160.186 332.153 160.341 332.488 160.64" stroke="#263238" stroke-linecap="round" stroke-linejoin="round"/>
<path d="M333.795 161.816L338.516 165.942" stroke="#263238" stroke-linecap="round" stroke-linejoin="round" stroke-dasharray="1.58 1.58"/>
<path d="M339.186 166.572L340.04 167.335C340.202 166.902 340.277 166.685 340.429 166.252" stroke="#263238" stroke-linecap="round" stroke-linejoin="round"/>
<path d="M341.12 164.24C343.778 156.729 345.107 152.953 347.765 145.36" stroke="#263238" stroke-linecap="round" stroke-linejoin="round" stroke-dasharray="1.83 1.83"/>
<path d="M348.067 144.411C348.229 143.967 348.305 143.751 348.456 143.317L349.655 143.245" stroke="#263238" stroke-linecap="round" stroke-linejoin="round"/>
<path d="M351.719 143.122L354.733 142.946" stroke="#263238" stroke-linecap="round" stroke-linejoin="round" stroke-dasharray="1.67 1.67"/>
<path d="M355.738 142.884L356.948 142.812L357.488 141.78" stroke="#263238" stroke-linecap="round" stroke-linejoin="round"/>
<path d="M358.547 139.717L364.338 128.368" stroke="#263238" stroke-linecap="round" stroke-linejoin="round" stroke-dasharray="1.95 1.95"/>
<path d="M364.856 127.367L365.397 126.336L366.607 126.243" stroke="#263238" stroke-linecap="round" stroke-linejoin="round"/>
<path d="M368.681 126.068L380.058 125.242" stroke="#263238" stroke-linecap="round" stroke-linejoin="round" stroke-dasharray="1.71 1.71"/>
<path d="M381.095 125.18L382.305 125.087L383.159 124.21" stroke="#263238" stroke-linecap="round" stroke-linejoin="round"/>
<path d="M384.509 122.818L389.23 117.917" stroke="#263238" stroke-linecap="round" stroke-linejoin="round" stroke-dasharray="1.58 1.58"/>
<path d="M389.9 117.216L390.754 116.318L391.964 116.225" stroke="#263238" stroke-linecap="round" stroke-linejoin="round"/>
<path d="M394.373 116.04L407.662 115.008C410.363 112.15 411.713 110.726 414.414 107.848" stroke="#263238" stroke-linecap="round" stroke-linejoin="round" stroke-dasharray="1.99 1.99"/>
<path d="M415.257 106.93C415.603 106.558 415.776 106.383 416.111 106.011L416.964 106.785" stroke="#263238" stroke-linecap="round" stroke-linejoin="round"/>
<path d="M418.66 108.302C423.716 112.882 426.223 115.193 431.322 119.857" stroke="#263238" stroke-linecap="round" stroke-linejoin="round" stroke-dasharray="1.98 1.98"/>
<path d="M432.165 120.641L433.019 121.425C433.365 121.064 433.527 120.878 433.872 120.507" stroke="#263238" stroke-linecap="round" stroke-linejoin="round"/>
<path d="M435.223 119.062C437.114 116.999 438.054 116.029 439.944 113.986" stroke="#263238" stroke-linecap="round" stroke-linejoin="round" stroke-dasharray="1.58 1.58"/>
<path d="M440.614 113.264L441.468 112.336L442.678 112.243" stroke="#263238" stroke-linecap="round" stroke-linejoin="round"/>
<path d="M445 112.057L458.376 111.025C461.758 107.322 463.443 105.465 466.825 101.74L472.907 101.224" stroke="#263238" stroke-linecap="round" stroke-linejoin="round" stroke-dasharray="1.93 1.93"/>
<path d="M474.074 101.1L475.285 100.997L475.825 99.8418" stroke="#263238" stroke-linecap="round" stroke-linejoin="round"/>
<path d="M476.873 97.5826C479.185 92.6098 480.351 90.1131 482.663 85.1094" stroke="#263238" stroke-linecap="round" stroke-linejoin="round" stroke-dasharray="1.95 1.95"/>
<path d="M483.193 83.9642L483.733 82.7983" stroke="#263238" stroke-linecap="round" stroke-linejoin="round"/>
<path d="M297.785 161.486L314.683 160.691C321.446 157.297 324.828 155.584 331.591 152.108L340.04 151.654C343.421 145.205 345.117 141.956 348.499 135.425C351.881 132.041 353.566 130.349 356.948 126.924C360.33 120.321 362.015 116.999 365.397 110.314C372.16 112.944 375.542 114.275 382.305 116.989C385.687 119.96 387.372 121.456 390.754 124.479C397.517 117.463 400.899 113.914 407.662 106.734C411.044 99.8315 412.729 96.4166 416.111 89.3804C422.874 95.3746 426.256 98.4181 433.019 104.577C436.401 111.036 438.086 114.275 441.468 120.816L458.376 119.588C461.758 115.916 463.443 114.069 466.825 110.303C470.206 99.6768 471.903 94.3326 475.284 83.5823C478.655 76.2985 480.351 72.636 483.733 65.28" stroke="#263238" stroke-linecap="round" stroke-linejoin="round"/>
<path d="M330.197 204.322C329.85 204.436 329.484 204.492 329.117 204.487C328.79 204.526 328.458 204.492 328.146 204.39C327.835 204.287 327.552 204.118 327.319 203.895C327.087 203.672 326.911 203.401 326.805 203.103C326.699 202.805 326.666 202.488 326.708 202.176V197.255C326.67 196.94 326.706 196.621 326.812 196.322C326.919 196.022 327.093 195.748 327.323 195.52C327.554 195.292 327.834 195.116 328.144 195.004C328.454 194.892 328.786 194.846 329.117 194.871C329.444 194.831 329.776 194.863 330.088 194.964C330.4 195.065 330.684 195.234 330.917 195.456C331.151 195.678 331.328 195.948 331.435 196.245C331.543 196.543 331.578 196.86 331.537 197.172V202.083C331.557 202.626 331.403 203.163 331.094 203.62C331.202 203.806 331.397 203.837 331.688 203.826H331.926V205.157H331.515C331.228 205.19 330.937 205.124 330.695 204.971C330.454 204.818 330.277 204.588 330.197 204.322V204.322ZM329.97 202.258V197.172C329.97 196.501 329.646 196.254 329.139 196.264C328.631 196.274 328.317 196.532 328.317 197.203V202.279C328.317 202.95 328.642 203.197 329.139 203.187C329.635 203.177 329.97 202.898 329.97 202.227V202.258Z" fill="#263238"/>
<path d="M334.865 197.151H333.201V196.12C334.551 196.12 335.027 195.821 335.362 194.902H336.442V204.27H334.843L334.865 197.151Z" fill="#263238"/>
<path d="M397.366 203.558C397.02 203.68 396.654 203.743 396.285 203.744C395.949 203.771 395.61 203.724 395.295 203.609C394.979 203.493 394.695 203.311 394.464 203.076C394.232 202.841 394.059 202.559 393.957 202.251C393.856 201.944 393.828 201.618 393.876 201.299V196.14C393.83 195.818 393.858 195.49 393.96 195.179C394.061 194.868 394.233 194.583 394.463 194.342C394.693 194.102 394.975 193.913 395.29 193.789C395.605 193.664 395.945 193.608 396.285 193.623C397.852 193.623 398.705 194.479 398.705 196.058V201.216C398.735 201.787 398.58 202.352 398.263 202.836C398.371 203.032 398.565 203.063 398.857 203.053H399.105V204.476H398.684C398.384 204.506 398.084 204.428 397.841 204.258C397.597 204.089 397.428 203.84 397.366 203.558V203.558ZM397.139 201.361V195.996C397.139 195.294 396.815 195.026 396.307 195.036C395.799 195.047 395.486 195.325 395.486 196.068V201.381C395.486 202.083 395.81 202.341 396.307 202.341C396.804 202.341 397.139 202.062 397.139 201.381V201.361Z" fill="#263238"/>
<path d="M399.775 202.496C399.762 201.836 399.898 201.18 400.173 200.575C400.449 199.97 400.859 199.428 401.374 198.988C402.584 197.729 402.93 196.924 402.93 196.048C402.93 195.171 402.616 194.923 402.108 194.933C401.601 194.944 401.277 195.222 401.277 195.965V196.997H399.775V196.037C399.775 194.459 400.585 193.541 402.152 193.52C403.718 193.499 404.529 194.376 404.529 195.955C404.529 197.131 404.032 198.183 402.551 199.731C401.601 200.762 401.352 201.227 401.352 201.908V202.124H404.377V203.538L399.775 203.589V202.496Z" fill="#263238"/>
<path d="M465.032 202.795C464.688 202.925 464.321 202.991 463.951 202.991C462.385 202.991 461.531 202.073 461.531 200.422V194.995C461.531 193.344 462.385 192.385 463.951 192.354C465.518 192.323 466.371 193.262 466.371 194.913V200.35C466.395 200.947 466.238 201.538 465.917 202.052C466.036 202.258 466.22 202.289 466.512 202.279H466.76V203.754H466.339C466.035 203.779 465.732 203.695 465.49 203.517C465.248 203.339 465.084 203.082 465.032 202.795V202.795ZM464.794 200.484V194.84C464.794 194.098 464.481 193.809 463.973 193.809C463.465 193.809 463.152 194.108 463.152 194.84V200.484C463.152 201.216 463.465 201.515 463.973 201.515C464.481 201.515 464.751 201.216 464.751 200.484H464.794Z" fill="#263238"/>
<path d="M467.354 200.35V199.504H468.856V200.422C468.856 201.154 469.169 201.453 469.677 201.453C470.185 201.453 470.509 201.185 470.509 200.267V199.421C470.509 198.462 470.185 198.111 469.429 198.121H468.899V196.635H469.472C470.066 196.635 470.433 196.357 470.433 195.521V194.768C470.433 194.025 470.098 193.736 469.634 193.736C469.169 193.736 468.867 194.036 468.867 194.716V195.397H467.365V194.851C467.365 193.19 468.175 192.251 469.688 192.23C471.2 192.209 472.022 193.086 472.022 194.747V195.191C472.022 196.305 471.676 196.997 470.941 197.306C471.795 197.616 472.108 198.338 472.108 199.421V200.35C472.108 202.011 471.298 202.929 469.731 202.939C468.165 202.949 467.354 202.031 467.354 200.35Z" fill="#263238"/>
<path d="M359.001 144.153C359.001 144.153 342.914 130.958 353.599 122.24C353.599 122.24 358.752 106.765 375.682 108.942C392.612 111.118 384.131 101.967 384.131 101.967C384.131 101.967 393.725 106.765 389.317 110.468C390.642 110.528 391.957 110.233 393.116 109.617C394.275 109.001 395.23 108.088 395.875 106.981C395.875 106.981 398.824 111.995 393.314 114.203C393.314 114.203 400.521 115.947 398.598 119.878C398.598 119.878 393.476 117.278 392.115 127.099C390.754 136.921 374.461 135.487 374.461 135.487L359.001 144.153Z" fill="#263238" stroke="#263238" stroke-linecap="round" stroke-linejoin="round"/>
<path d="M360.027 147.423C360.027 146.918 356.203 158.05 363.474 157.111C366.92 156.667 362.015 147.423 362.015 147.423H360.027Z" fill="#263238" stroke="#263238" stroke-linecap="round" stroke-linejoin="round"/>
<path d="M395.497 117.339C395.497 117.339 391.175 116.679 390.322 121.466" stroke="#7F7F7F" stroke-linecap="round" stroke-linejoin="round"/>
<path d="M385.265 116.194C383.558 118.319 384.131 121.476 384.131 121.476" stroke="#7F7F7F" stroke-linecap="round" stroke-linejoin="round"/>
<path d="M394.276 110.469C392.694 112.533 390.397 113.995 387.793 114.595" stroke="#7F7F7F" stroke-linecap="round" stroke-linejoin="round"/>
<path d="M374.429 115.978C374.429 115.978 381.365 114.667 380.447 121.477" stroke="#7F7F7F" stroke-linecap="round" stroke-linejoin="round"/>
<path d="M408.44 280.574C408.44 280.574 414.199 309.276 408.44 337.4C402.681 365.524 399.127 455.839 399.127 455.839H363.29V276.086L406.636 274.632L408.44 280.574Z" fill="#999999"/>
<path opacity="0.2" d="M387.145 319.088C387.145 319.088 385.59 329.013 393.358 326.505C401.126 323.998 406.517 324.865 400.035 330.478C393.552 336.09 384.563 344.591 383.126 375.336C381.689 406.08 379.464 455.808 379.464 455.808H363.852L360.611 341.62L374.797 321.677L381.398 319.057L387.145 319.088Z" fill="black"/>
<path d="M408.44 280.574C408.44 280.574 414.199 309.276 408.44 337.4C402.681 365.524 399.127 455.839 399.127 455.839H363.29V276.086L406.636 274.632L408.44 280.574Z" stroke="#263238" stroke-linecap="round" stroke-linejoin="round"/>
<path d="M404.118 326.609C404.118 326.609 396.091 324.979 387.145 334.46" stroke="#263238" stroke-linecap="round" stroke-linejoin="round"/>
<path d="M392.245 283.804C392.245 283.804 391.877 315.786 387.556 327.919C383.234 340.052 376.752 396.981 377.476 455.849H340.429C340.429 455.849 338.268 349.512 336.809 333.81C335.351 318.107 327.81 320.738 338.246 276.097H393.768L392.245 283.804Z" fill="#999999" stroke="#263238" stroke-linecap="round" stroke-linejoin="round"/>
<path d="M385.222 290.654C388.074 290.468 390.678 290.252 393.044 290.025L393.358 295.297C390.894 295.534 388.172 295.761 385.222 295.947V290.654Z" fill="#263238"/>
<path d="M397.074 289.591C401.547 289.086 404.788 288.56 406.538 288.26L407.284 293.471C405.253 293.821 401.774 294.368 397.074 294.905V289.591Z" fill="#263238"/>
<path d="M336.269 294.791L337.112 289.633C343.184 290.283 348.996 290.716 354.539 290.964L354.172 296.194C348.521 295.905 342.536 295.472 336.269 294.791Z" fill="#263238"/>
<path d="M358.752 291.139C367.201 291.397 374.829 291.252 381.441 290.912V296.194C377.249 296.401 372.646 296.535 367.698 296.535C364.781 296.535 361.734 296.483 358.58 296.38L358.752 291.139Z" fill="#263238"/>
<path d="M461.715 234.746L470.833 229.495C470.833 229.495 474.669 219.9 479.476 217.29C484.284 214.68 489.07 212.276 490.28 212.926C491.49 213.576 490.043 215.763 486.92 217.94C484.976 219.302 490.637 216.991 497.897 213.813C502.219 211.894 507.21 209.222 507.977 210.378C510.797 214.577 496.374 219.921 496.374 219.921C496.374 219.921 501.322 219.694 499.399 223.181C499.399 223.181 500.123 226.451 498.437 227.545L496.525 229.774C495.739 231.974 494.221 233.868 492.204 235.169C487.853 237.483 483.011 238.827 478.039 239.1L466.047 247.116L461.715 234.746Z" fill="white" stroke="#263238" stroke-linecap="round" stroke-linejoin="round"/>
<path d="M493.392 220.344C493.392 220.344 483.193 222.304 483.733 224.471C484.273 226.637 487.439 225.11 487.439 225.11C487.439 225.11 484.068 226.204 484.435 227.401C484.803 228.598 487.19 228.577 487.19 228.577C487.19 228.577 484.068 229.258 484.435 230.64C484.803 232.023 486.877 232.497 488.595 232.281C490.313 232.064 491.631 231.507 492.117 232.332C492.603 233.158 487.428 231.837 484.435 233.859" stroke="#263238" stroke-linecap="round" stroke-linejoin="round"/>
<path d="M485.278 218.704C485.119 219.913 484.589 221.051 483.755 221.974C482.512 223.068 483.593 226.771 479.033 230.805" stroke="#263238" stroke-linecap="round" stroke-linejoin="round"/>
<path d="M495.639 224.099L489.967 224.749" stroke="#263238" stroke-linecap="round" stroke-linejoin="round"/>
<path d="M495.185 228.185L489.967 228.598" stroke="#263238" stroke-linecap="round" stroke-linejoin="round"/>
<path d="M440.118 240.286C448.037 238.223 457.609 232.58 462.212 229.66C462.477 229.486 462.784 229.378 463.105 229.347C463.425 229.316 463.748 229.363 464.045 229.484C464.341 229.604 464.601 229.794 464.8 230.036C464.999 230.278 465.13 230.564 465.183 230.867C465.701 234.86 467.344 241.659 472.875 243.505C480.795 246.167 473.232 250.273 468.197 251.656C463.163 253.038 427.142 269.71 416.338 267.43C405.534 265.15 401.936 263.5 396.891 253.533C391.845 243.567 394.363 195.49 394.363 195.49L409.488 191.89C409.488 191.89 413.442 195.274 415.366 217.94C417.289 240.606 420.454 243.443 420.454 243.443C420.454 243.443 430.059 236.665 427.542 243.216C427.52 243.216 437.395 240.988 440.118 240.286Z" fill="#7E8AF5" stroke="#263238" stroke-linecap="round" stroke-linejoin="round"/>
<path d="M422.474 247.106C422.474 247.106 418.574 259.548 415.635 258.599C412.697 257.65 413.475 254.256 418.336 247.106" stroke="#263238" stroke-linecap="round" stroke-linejoin="round"/>
<path d="M409.52 191.89C402.509 185.524 392.234 179.138 371.004 177.828C349.774 176.517 320.225 181.428 319.145 189.279C318.065 197.131 330.305 239.214 330.305 276.912C330.305 282.473 331.029 288.683 343.27 288.683C355.511 288.683 411.67 292.604 412.416 279.852C413.161 267.1 409.542 254.349 410.622 236.036C411.703 217.723 414.922 196.801 409.52 191.89Z" fill="#7E8AF5" stroke="#263238" stroke-linecap="round" stroke-linejoin="round"/>
<path d="M325.109 183.843C325.109 183.843 316.293 186.35 314.37 198.998C312.446 211.647 304.052 240.194 307.174 240.854C310.296 241.514 299.73 246.518 303.566 253.936C307.401 261.354 324.687 285.32 334.768 282.71C344.848 280.1 344.361 265.264 341.25 262.654C338.138 260.044 327.54 254.565 327.54 254.565C327.54 254.565 330.651 252.822 326.816 249.551C322.98 246.281 329.592 251.202 331.613 240.173C334.011 227.102 342.417 208.345 337.371 197.017" fill="#7E8AF5"/>
<path d="M325.109 183.843C325.109 183.843 316.293 186.35 314.37 198.998C312.446 211.647 304.052 240.194 307.174 240.854C310.296 241.514 299.73 246.518 303.566 253.936C307.401 261.354 324.687 285.32 334.768 282.71C344.848 280.1 344.361 265.264 341.25 262.654C338.138 260.044 327.54 254.565 327.54 254.565C327.54 254.565 330.651 252.822 326.816 249.551C322.98 246.281 329.592 251.202 331.613 240.173C334.011 227.102 342.417 208.345 337.371 197.017" stroke="#263238" stroke-linecap="round" stroke-linejoin="round"/>
<path d="M325.649 242.794C325.649 242.794 311.971 239.698 308.362 244.97C304.754 250.242 314.045 243.887 322.959 246.064" stroke="#263238" stroke-linecap="round" stroke-linejoin="round"/>
<path d="M345.442 267.647C343.281 266.172 338.128 263.613 334.768 266.616C331.407 269.618 323.369 271.403 323.845 273.693C324.32 275.983 327.324 276.644 332.726 274.137C338.128 271.63 333.666 274.787 334.638 279.801C335.61 284.815 336.399 289.375 340.623 288.518C340.623 288.518 341.001 290.695 344.848 289.715C344.848 289.715 347.722 291.964 352.281 289.973C352.281 289.973 354.809 292.439 358.526 288.188C362.242 283.938 359.952 282.885 359.952 282.885C359.952 282.885 358.277 277.964 354.55 282.885C354.55 282.885 355.198 276.798 351.438 272.981C349.574 271.07 347.571 269.287 345.442 267.647V267.647Z" fill="white" stroke="#263238" stroke-linecap="round" stroke-linejoin="round"/>
<path d="M342.244 287.012C342.244 287.012 348.326 283.308 347.008 281.131C345.69 278.955 340.763 283.525 340.763 283.525C340.763 283.525 341.487 282.349 340.05 280.543" stroke="#263238" stroke-linecap="round" stroke-linejoin="round"/>
<path d="M346.641 288.24C346.641 288.24 355.835 285.506 353.728 282.885C351.859 280.574 347.905 283.226 347.905 283.226" stroke="#263238" stroke-linecap="round" stroke-linejoin="round"/>
<path d="M358.871 283.804C358.871 283.804 357.899 286.424 353.588 288.962" stroke="#263238" stroke-linecap="round" stroke-linejoin="round"/>
<path d="M343.616 276.087C344.917 278.002 346.73 279.551 348.867 280.574" stroke="#263238" stroke-linecap="round" stroke-linejoin="round"/>
<path d="M325.649 253.534C325.649 253.534 317.913 249.933 311.971 252.708" stroke="#263238" stroke-linecap="round" stroke-linejoin="round"/>
<path d="M384.142 184.534L377.962 182.408L371.004 184.534C371.004 184.534 375.682 191.24 377.573 191.56C377.573 191.56 384.347 241.783 386.486 265.233C388.625 288.683 387.923 290.85 387.923 290.85L397.279 298.165L404.118 288.941C404.118 288.941 400.52 252.058 395.842 230.135C392.943 216.731 388.474 203.68 382.521 191.229C382.521 191.229 385.276 187.856 384.142 184.534Z" fill="#7E8AF5"/>
<path opacity="0.3" d="M384.142 184.534L377.962 182.408L371.004 184.534C371.004 184.534 375.682 191.24 377.573 191.56C377.573 191.56 384.347 241.783 386.486 265.233C388.625 288.683 387.923 290.85 387.923 290.85L397.279 298.165L404.118 288.941C404.118 288.941 400.52 252.058 395.842 230.135C392.943 216.731 388.474 203.68 382.521 191.229C382.521 191.229 385.276 187.856 384.142 184.534Z" fill="black"/>
<path d="M384.142 184.534L377.962 182.408L371.004 184.534C371.004 184.534 375.682 191.24 377.573 191.56C377.573 191.56 384.347 241.783 386.486 265.233C388.625 288.683 387.923 290.85 387.923 290.85L397.279 298.165L404.118 288.941C404.118 288.941 400.52 252.058 395.842 230.135C392.943 216.731 388.474 203.68 382.521 191.229C382.521 191.229 385.276 187.856 384.142 184.534Z" stroke="#263238" stroke-linecap="round" stroke-linejoin="round"/>
<path d="M384.877 167.335C384.877 167.335 383.656 174.877 386.692 180.046C386.692 180.046 380.123 182.79 377.303 183.141C374.483 183.492 360.017 175.259 360.017 175.259C361.907 166.593 362.583 157.725 362.026 148.889C361.097 134.342 378.373 157.978 378.373 157.978L386.681 165.2L384.877 167.335Z" fill="white"/>
<path d="M387.556 168.027C387.556 168.027 387.729 172.927 380.447 172.762C373.165 172.597 365.926 162.259 364.705 159.68C363.485 157.101 362.037 144.968 362.037 144.968L380.404 149.9L389.317 167.335L387.556 168.027Z" fill="#263238" stroke="#263238" stroke-linecap="round" stroke-linejoin="round"/>
<path d="M384.877 167.335C384.877 167.335 383.656 174.877 386.692 180.046C386.692 180.046 380.123 182.79 377.303 183.141C374.483 183.492 360.017 175.259 360.017 175.259C361.907 166.593 362.583 157.725 362.026 148.889C361.097 134.342 378.373 157.978 378.373 157.978L386.681 165.2L384.877 167.335Z" stroke="#263238" stroke-linecap="round" stroke-linejoin="round"/>
<path d="M385.644 176.301C385.644 176.301 382.046 182.192 377.962 182.408C373.878 182.625 360.2 170.028 357.326 171.947C355.535 173.239 354.228 175.048 353.599 177.106L365.829 190.941C365.829 190.941 374.786 183.636 378.383 183.853C381.981 184.069 389.717 190.941 389.717 190.941V180.923C389.717 180.923 387.34 174.021 385.644 176.301Z" fill="#7E8AF5" stroke="#263238" stroke-linecap="round" stroke-linejoin="round"/>
<path d="M390.862 123.406C390.862 123.406 395.897 137.509 394.903 141.099C394.903 141.099 399.591 167.831 388.42 169.987C379.604 171.658 370.885 163.57 367.558 160.021C366.653 159.05 365.958 157.917 365.516 156.688L363.355 150.643C363.355 150.643 358.958 150.952 356.278 145.319C353.599 139.686 359.055 134.218 363.279 142.75C363.279 142.75 366.585 134.125 366.337 130.659C366.088 127.192 370.853 128.038 371.836 124.613C371.836 124.592 383.137 126.336 390.862 123.406Z" fill="white"/>
<path d="M390.862 123.406C390.862 123.406 395.897 137.509 394.903 141.099C394.903 141.099 399.591 167.831 388.42 169.987C379.604 171.658 370.885 163.57 367.558 160.021C366.653 159.05 365.958 157.917 365.516 156.688L363.355 150.643C363.355 150.643 358.958 150.952 356.278 145.319C353.599 139.686 359.055 134.218 363.279 142.75C363.279 142.75 366.585 134.125 366.337 130.659C366.088 127.192 370.853 128.038 371.836 124.613C371.836 124.592 383.137 126.336 390.862 123.406Z" stroke="#263238" stroke-linecap="round" stroke-linejoin="round"/>
<path d="M390.322 143.534L396.286 150.704C396.425 150.876 396.519 151.077 396.56 151.29C396.601 151.504 396.588 151.723 396.521 151.931C396.454 152.138 396.336 152.327 396.177 152.482C396.017 152.637 395.821 152.752 395.605 152.819L391.37 154.243" fill="white"/>
<path d="M390.322 143.534L396.286 150.704C396.425 150.876 396.519 151.077 396.56 151.29C396.601 151.504 396.588 151.723 396.521 151.931C396.454 152.138 396.336 152.327 396.177 152.482C396.017 152.637 395.821 152.752 395.605 152.819L391.37 154.243" stroke="#263238" stroke-linecap="round" stroke-linejoin="round"/>
<path d="M381.646 157.111C381.646 157.111 383.494 160.743 389.674 157.534" stroke="#263238" stroke-linecap="round" stroke-linejoin="round"/>
<path d="M389.306 143.245C389.49 146.815 387.653 149.786 385.211 149.89C382.77 149.993 380.641 147.187 380.457 143.627C380.274 140.068 382.111 139.036 384.552 138.933C386.994 138.83 389.122 139.676 389.306 143.245Z" stroke="#263238" stroke-linecap="round" stroke-linejoin="round"/>
<path d="M400.553 142.441C400.737 146.01 399.267 148.971 397.312 149.054C395.356 149.136 393.552 146.32 393.368 142.75C393.185 139.18 394.676 138.18 396.674 138.087C398.673 137.994 400.369 138.871 400.553 142.441Z" fill="white" stroke="#263238" stroke-linecap="round" stroke-linejoin="round"/>
<path d="M380.479 138.056C380.479 138.056 383.137 134.342 387.848 137.179" stroke="#263238" stroke-linecap="round" stroke-linejoin="round"/>
<path d="M393.444 137.169C394.282 136.251 395.428 135.638 396.685 135.435" stroke="#263238" stroke-linecap="round" stroke-linejoin="round"/>
<path d="M380.479 143.607C378.92 144.023 377.319 144.286 375.704 144.391C372.041 144.05 362.058 139.418 362.058 139.418" stroke="#263238" stroke-linecap="round" stroke-linejoin="round"/>
<path d="M393.315 142.162L389.49 142.791" stroke="#263238" stroke-linecap="round" stroke-linejoin="round"/>
<path d="M387.156 143.679C387.048 144.783 386.357 145.618 385.6 145.556C384.844 145.494 384.336 144.525 384.434 143.493C384.531 142.461 385.244 141.553 385.989 141.615C386.735 141.677 387.264 142.575 387.156 143.679Z" fill="#263238"/>
<path d="M396.469 142.472C396.361 143.503 395.843 144.38 395.303 144.329C394.762 144.277 394.417 143.39 394.525 142.317C394.633 141.244 395.14 140.418 395.681 140.46C396.221 140.501 396.567 141.409 396.469 142.472Z" fill="#263238"/>
<path d="M353.783 266.739C355.673 262.076 368.368 262.85 368.368 262.85" stroke="#263238" stroke-linecap="round" stroke-linejoin="round"/>
<path d="M384.066 269.092C370.615 272.187 355.976 274.405 354.042 270.041" stroke="#263238" stroke-linecap="round" stroke-linejoin="round"/>
<path d="M407.284 262.85C407.284 262.85 405.879 263.283 403.535 263.974" stroke="#263238" stroke-linecap="round" stroke-linejoin="round"/>
<path d="M683.639 455.839H209.106V395.505C209.106 395.505 301.059 361.459 419.784 361.459C564.525 361.511 683.639 455.839 683.639 455.839Z" fill="#7E8AF5" stroke="#263238" stroke-linecap="round" stroke-linejoin="round"/>
<path opacity="0.2" d="M488.119 378.338L432.101 371.126L375.12 380.319L431.139 387.541L488.119 378.338Z" fill="black"/>
<path d="M481.259 377.832L429.205 371.126L376.255 379.669L428.309 386.375L481.259 377.832Z" fill="white" stroke="#263238" stroke-linecap="round" stroke-linejoin="round"/>
<path d="M488.119 375.82L436.065 369.114L383.115 377.657L435.169 384.363L488.119 375.82Z" fill="white" stroke="#263238" stroke-linecap="round" stroke-linejoin="round"/>
<path opacity="0.2" d="M381.17 412.951C391.046 412.951 399.051 411.39 399.051 409.464C399.051 407.538 391.046 405.977 381.17 405.977C371.295 405.977 363.29 407.538 363.29 409.464C363.29 411.39 371.295 412.951 381.17 412.951Z" fill="black"/>
<path d="M391.51 408.515C391.51 409.485 385.741 410.269 378.61 410.269C371.479 410.269 365.721 409.485 365.721 408.515V385.405C365.721 384.435 371.49 383.651 378.61 383.651C385.73 383.651 391.51 384.435 391.51 385.405V408.515Z" fill="white" stroke="#263238" stroke-linecap="round" stroke-linejoin="round"/>
<path d="M391.51 385.405C391.51 386.375 385.741 387.159 378.61 387.159C371.479 387.159 365.721 386.375 365.721 385.405C365.721 384.435 371.49 383.651 378.61 383.651C385.73 383.651 391.51 384.435 391.51 385.405Z" fill="white" stroke="#263238" stroke-linecap="round" stroke-linejoin="round"/>
<path d="M389.954 406.328C389.613 406.334 389.281 406.223 389.019 406.015C388.757 405.806 388.583 405.514 388.528 405.193C388.504 405.018 388.517 404.84 388.566 404.669C388.615 404.499 388.7 404.34 388.815 404.201C388.93 404.063 389.072 403.948 389.235 403.863C389.397 403.778 389.576 403.725 389.76 403.707C390.084 403.707 397.906 402.552 397.906 395.825C397.906 394.133 397.43 392.988 396.501 392.41C394.762 391.378 391.51 392.183 390.505 392.565C390.153 392.698 389.761 392.698 389.409 392.564C389.057 392.429 388.773 392.171 388.614 391.843C388.545 391.681 388.51 391.508 388.513 391.333C388.515 391.159 388.554 390.986 388.628 390.826C388.701 390.667 388.808 390.523 388.941 390.403C389.074 390.283 389.231 390.191 389.403 390.13C389.954 389.924 394.805 388.211 398.111 390.233C399.894 391.327 400.801 393.205 400.801 395.825C400.801 403.047 393.844 405.843 390.159 406.317L389.954 406.328Z" fill="white" stroke="#263238" stroke-linecap="round" stroke-linejoin="round"/>
<path d="M408.483 391.286C407.63 392.07 407.046 392.812 407.197 392.957C407.349 393.101 408.17 392.565 409.034 391.781C409.898 390.997 410.471 390.254 410.32 390.12C410.169 389.986 409.347 390.512 408.483 391.286Z" fill="#263238" stroke="#263238" stroke-linecap="round" stroke-linejoin="round"/>
<path d="M413.129 384.198C409.596 387.407 407.565 390.76 408.591 391.688C409.617 392.617 413.323 390.78 416.856 387.561L439.62 366.876C443.153 363.667 445.184 360.304 444.158 359.375C443.131 358.447 439.436 360.283 435.904 363.502L413.129 384.198Z" fill="#7E8AF5" stroke="#263238" stroke-linecap="round" stroke-linejoin="round"/>
<path d="M436.282 369.919L435.342 370.775C434.683 370.27 434.035 369.744 433.408 369.156C432.782 368.568 432.176 367.99 431.625 367.402L432.565 366.546C433.116 367.134 433.711 367.722 434.348 368.299C434.986 368.877 435.634 369.414 436.282 369.919Z" fill="#263238" stroke="#263238" stroke-linecap="round" stroke-linejoin="round"/>
<path d="M441.36 359.716C441.36 359.716 439.783 358.787 436.174 361.325C432.565 363.863 429.205 368.248 427.531 368.103" stroke="#263238" stroke-linecap="round" stroke-linejoin="round"/>
<path d="M397.517 402.428C397.517 402.428 400.142 396.372 400.142 393.277C400.142 390.182 406.97 379.751 412.027 377.915C417.083 376.078 434.11 368.413 435.352 371.518C436.595 374.624 428.935 378.472 427.325 379.194C425.535 380.267 423.85 381.493 422.29 382.857C422.29 382.857 430.08 381.371 430.934 379.019C431.787 376.666 434.175 373.53 435.471 375.542C436.768 377.554 436.174 382.671 434.153 386.602V389.253C434.153 389.253 436.368 392.348 433.959 394.917L432.1 396.743C432.1 396.743 435.342 399.838 430.934 402.418C430.934 402.418 432.954 405.162 429.324 407.896C429.324 407.896 421.675 411.373 416.845 412.466C412.016 413.56 407.791 420.152 407.791 420.152L397.517 402.428Z" fill="white" stroke="#263238" stroke-linecap="round" stroke-linejoin="round"/>
<path d="M249.578 297.556L262.197 270.66L254.072 248.128L253.262 222.284L275.497 210.378L295.128 207.221L303.133 211.647L306.461 219.013C306.461 219.013 316.444 238.285 314.899 241.989C313.354 245.693 312.209 249.211 312.209 249.211C312.209 249.211 316.919 259.218 319.707 262.396C322.494 265.574 313.851 263.644 312.835 269.37C311.82 275.096 313.03 290.293 305.618 290.984C298.207 291.676 293.734 289.478 293.053 295.452C292.373 301.425 284.767 316.591 284.767 316.591L249.578 297.556Z" fill="white" stroke="#263238" stroke-linecap="round" stroke-linejoin="round"/>
<path d="M311.485 190.033C310.404 186.566 300 191.384 298.92 198.813C298.92 198.813 297.591 187.464 294.155 186.381C291.152 185.442 287.003 190.59 288.505 196.698C288.505 196.698 277.279 191.065 273.66 192.375C270.981 193.345 270.041 198.338 275.821 202.692C275.821 202.692 240.729 195.243 242.782 224.43C242.782 224.43 223.486 238.161 259.183 277.17C259.183 277.17 267.653 275.375 269.987 274.075C271.337 273.322 282.627 264.789 282.627 264.789C279.386 263.686 273.746 260.529 272.212 256.722C270.267 251.904 272.871 246.147 277.614 245.373C280.456 244.909 282.065 246.116 284.097 248.282C284.097 248.282 279.418 242.639 279.71 240.452C280.077 237.718 287.143 234.819 287.662 232.105C287.9 230.826 284.756 228.309 285.588 227.246C289.823 221.85 310.059 228.102 307.984 210.213C305.91 192.323 312.997 194.892 311.485 190.033Z" fill="#263238" stroke="#263238" stroke-linecap="round" stroke-linejoin="round"/>
<path d="M310.739 247.808C310.739 249.221 310.448 250.376 309.972 250.387C309.497 250.397 309.097 249.262 309.054 247.849C309.011 246.435 309.346 245.28 309.81 245.27C310.275 245.259 310.696 246.415 310.739 247.808Z" fill="#263238"/>
<path d="M307.196 242.732C307.196 242.732 308.427 239.11 310.901 238.873" stroke="#263238" stroke-linecap="round" stroke-linejoin="round"/>
<path d="M280.682 214.866C292.804 215.784 282.778 198.792 282.778 198.792" stroke="#7F7F7F" stroke-linecap="round" stroke-linejoin="round"/>
<path d="M249.934 222.82C249.934 222.82 259.474 209.573 277.042 214.205" stroke="#7F7F7F" stroke-linecap="round" stroke-linejoin="round"/>
<path d="M297.288 207.272C298.477 213.153 297.289 221.015 283.135 221.964" stroke="#7F7F7F" stroke-linecap="round" stroke-linejoin="round"/>
<path d="M294.868 200.742C295.359 201.634 295.785 202.558 296.143 203.507" stroke="#7F7F7F" stroke-linecap="round" stroke-linejoin="round"/>
<path d="M307.963 455.839C307.963 455.839 318.896 348.315 305.932 328.022C292.967 307.729 254.213 283.917 240.351 294.234C192.252 330.199 192.09 360.912 189.032 455.818L307.963 455.839Z" fill="#263238" stroke="#263238" stroke-linecap="round" stroke-linejoin="round"/>
<path d="M297.407 324.153C297.407 324.153 312.695 327.991 321.176 349.946C328.987 370.095 343.184 396.661 352.659 409.897C353.408 410.913 354.443 411.705 355.643 412.183C356.844 412.661 358.161 412.806 359.444 412.6C363.614 411.971 371.566 411.486 379.183 407.535C386.238 403.872 392.472 399.859 400.315 400.953C408.159 402.046 413.075 409.01 411.811 419.069C410.601 428.664 365.429 453.621 338.754 453.621C316.995 453.621 297.105 396.589 290.46 379.586C283.816 362.584 276.88 325.278 297.407 324.153Z" fill="#263238" stroke="#263238" stroke-linecap="round" stroke-linejoin="round"/>
<path d="M289.358 326.444C291.347 325.039 293.735 324.24 296.208 324.153" stroke="#7F7F7F" stroke-linecap="round" stroke-linejoin="round"/>
<path d="M284.032 334.47C284.448 333.109 285.017 331.795 285.728 330.55" stroke="#7F7F7F" stroke-linecap="round" stroke-linejoin="round"/>
<path d="M306.374 415.561C299.914 403.907 294.199 391.89 289.261 379.576C285.123 368.98 280.866 350.513 283.211 337.833" stroke="#7F7F7F" stroke-linecap="round" stroke-linejoin="round"/>
<path d="M296.9 320.346C296.9 320.346 302.939 311.938 296.9 304.984C290.86 298.031 263.299 283.009 252.992 286.713C252.215 286.956 251.497 287.348 250.882 287.863C250.268 288.379 249.768 289.008 249.415 289.713C249.062 290.417 248.862 291.183 248.826 291.964C248.791 292.744 248.922 293.524 249.211 294.255C249.211 294.255 269.933 295.121 296.9 320.346Z" fill="#263238" stroke="#263238" stroke-linecap="round" stroke-linejoin="round"/>
<path d="M293.55 317.963C294.404 318.726 295.268 319.511 296.132 320.326" stroke="#7F7F7F" stroke-linecap="round" stroke-linejoin="round"/>
<path d="M256.287 295.802C263.45 297.866 275.032 302.725 288.807 313.939" stroke="#7F7F7F" stroke-linecap="round" stroke-linejoin="round"/>
<path d="M248.476 294.234C249.69 294.322 250.896 294.494 252.084 294.75" stroke="#7F7F7F" stroke-linecap="round" stroke-linejoin="round"/>
<path d="M358.677 426.735C358.677 426.735 358.677 420.71 355.36 419.059C352.043 417.408 354.755 426.735 351.438 434.421" stroke="#7F7F7F" stroke-linecap="round" stroke-linejoin="round"/>
<path d="M323.661 360.933C323.661 360.933 326.383 361.201 328.793 386.426" stroke="#7F7F7F" stroke-linecap="round" stroke-linejoin="round"/>
<path d="M282.573 264.727L284.885 265.14C284.962 268.245 285.732 271.298 287.144 274.095C289.304 277.933 292.373 278.666 299.579 286.135C306.299 293.089 309.389 288.56 309.778 287.91C309.415 288.729 308.836 289.444 308.097 289.986C307.359 290.529 306.487 290.879 305.564 291.005C298.164 291.696 293.68 289.498 292.999 295.472C291.811 290.85 287.943 285.289 284.885 278.335C283.028 274.03 282.237 269.373 282.573 264.727V264.727Z" fill="#263238" stroke="#263238" stroke-linecap="round" stroke-linejoin="round"/>
<path opacity="0.3" d="M285.728 260.384C286.581 255.628 281.406 245.94 284.118 248.19C286.83 250.439 290.363 258.733 294.587 261.89C298.812 265.047 298.412 272.445 304.451 269.339C307.083 267.939 310.182 267.569 313.094 268.308C312.958 268.64 312.86 268.986 312.803 269.339C311.798 275.096 312.997 290.262 305.586 290.953C303.45 291.105 301.308 291.15 299.168 291.087C294.976 286.899 288.991 280.678 286.7 277.067C282.994 271.279 284.885 265.14 285.728 260.384Z" fill="#263238"/>
<path d="M311.431 274.137C311.431 274.137 307.638 272.558 307.714 270.288" stroke="#263238" stroke-linecap="round" stroke-linejoin="round"/>
<defs>
<linearGradient id="paint0_linear_267_1078" x1="137.887" y1="81.1621" x2="300.211" y2="356.935" gradientUnits="userSpaceOnUse">
<stop stop-color="#76BDFF"/>
<stop offset="1" stop-color="#FF94EE"/>
</linearGradient>
</defs>
</svg>
