<svg width="268" height="46" viewBox="0 0 268 46" fill="none" xmlns="http://www.w3.org/2000/svg">
<path d="M30.1795 0.234978V32.803H19.9675V20.107H10.2615V32.803H0.0495118V0.234978H10.2615V11.965H19.9675V0.234978H30.1795ZM47.1021 33.125C44.4955 33.125 42.1495 32.5883 40.0641 31.515C37.9788 30.4416 36.3381 28.9083 35.1421 26.915C33.9768 24.891 33.3941 22.5296 33.3941 19.831C33.3941 17.1323 33.9768 14.7863 35.1421 12.793C36.3381 10.769 37.9788 9.22031 40.0641 8.14698C42.1495 7.07364 44.4955 6.53698 47.1021 6.53698C49.7088 6.53698 52.0548 7.07364 54.1401 8.14698C56.2255 9.22031 57.8508 10.769 59.0161 12.793C60.2121 14.7863 60.8101 17.1323 60.8101 19.831C60.8101 22.5296 60.2121 24.891 59.0161 26.915C57.8508 28.9083 56.2255 30.4416 54.1401 31.515C52.0548 32.5883 49.7088 33.125 47.1021 33.125ZM47.1021 24.293C48.0528 24.293 48.8501 23.925 49.4941 23.189C50.1381 22.4223 50.4601 21.303 50.4601 19.831C50.4601 18.359 50.1381 17.255 49.4941 16.519C48.8501 15.7523 48.0528 15.369 47.1021 15.369C46.1515 15.369 45.3541 15.7523 44.7101 16.519C44.0661 17.255 43.7441 18.359 43.7441 19.831C43.7441 21.303 44.0508 22.4223 44.6641 23.189C45.3081 23.925 46.1208 24.293 47.1021 24.293ZM98.6563 6.67498C101.968 6.67498 104.529 7.67164 106.338 9.66498C108.178 11.6583 109.098 14.357 109.098 17.761V32.803H98.9323V19.049C98.9323 17.945 98.5949 17.0863 97.9203 16.473C97.2763 15.829 96.4023 15.507 95.2983 15.507C94.1636 15.507 93.2743 15.829 92.6303 16.473C91.9863 17.0863 91.6643 17.945 91.6643 19.049V32.803H81.4983V19.049C81.4983 17.945 81.1609 17.0863 80.4863 16.473C79.8423 15.829 78.9683 15.507 77.8643 15.507C76.7296 15.507 75.8403 15.829 75.1963 16.473C74.5523 17.0863 74.2303 17.945 74.2303 19.049V32.803H64.0183V6.85898H74.2303V10.355C74.9663 9.25098 75.9629 8.36164 77.2203 7.68698C78.5083 7.01231 80.0109 6.67498 81.7283 6.67498C83.5989 6.67498 85.2549 7.08898 86.6963 7.91698C88.1376 8.71431 89.2876 9.84898 90.1463 11.321C91.0969 9.97164 92.3083 8.86764 93.7803 8.00898C95.2523 7.11964 96.8776 6.67498 98.6563 6.67498ZM138.638 19.601C138.638 20.3063 138.592 20.981 138.5 21.625H122.078C122.232 23.8636 123.167 24.983 124.884 24.983C125.988 24.983 126.786 24.477 127.276 23.465H138.086C137.718 25.305 136.936 26.961 135.74 28.433C134.575 29.8743 133.088 31.0243 131.278 31.883C129.5 32.711 127.537 33.125 125.39 33.125C122.814 33.125 120.514 32.5883 118.49 31.515C116.497 30.4416 114.933 28.9083 113.798 26.915C112.694 24.891 112.142 22.5296 112.142 19.831C112.142 17.1323 112.694 14.7863 113.798 12.793C114.933 10.769 116.497 9.22031 118.49 8.14698C120.514 7.07364 122.814 6.53698 125.39 6.53698C127.966 6.53698 130.251 7.07364 132.244 8.14698C134.268 9.18964 135.832 10.6923 136.936 12.655C138.071 14.6176 138.638 16.933 138.638 19.601ZM128.288 17.163C128.288 16.3043 128.012 15.6603 127.46 15.231C126.908 14.771 126.218 14.541 125.39 14.541C123.581 14.541 122.523 15.415 122.216 17.163H128.288ZM176.318 11.413C176.318 13.4676 175.843 15.3383 174.892 17.025C173.942 18.681 172.531 19.9996 170.66 20.981C168.82 21.9623 166.582 22.453 163.944 22.453H159.896V32.803H149.684V0.234978H163.944C167.931 0.234978 170.982 1.24698 173.098 3.27098C175.245 5.29498 176.318 8.00898 176.318 11.413ZM162.794 14.403C164.91 14.403 165.968 13.4063 165.968 11.413C165.968 9.41964 164.91 8.42298 162.794 8.42298H159.896V14.403H162.794ZM178.177 19.831C178.177 17.1016 178.637 14.7403 179.557 12.747C180.508 10.723 181.796 9.18964 183.421 8.14698C185.047 7.07364 186.871 6.53698 188.895 6.53698C190.582 6.53698 192.039 6.88964 193.265 7.59498C194.492 8.26964 195.427 9.20498 196.071 10.401V6.85898H206.237V32.803H196.071V29.261C195.427 30.457 194.492 31.4076 193.265 32.113C192.039 32.7876 190.582 33.125 188.895 33.125C186.871 33.125 185.047 32.6036 183.421 31.561C181.796 30.4876 180.508 28.9543 179.557 26.961C178.637 24.937 178.177 22.5603 178.177 19.831ZM196.071 19.831C196.071 18.451 195.719 17.3776 195.013 16.611C194.308 15.8443 193.403 15.461 192.299 15.461C191.195 15.461 190.291 15.8443 189.585 16.611C188.88 17.3776 188.527 18.451 188.527 19.831C188.527 21.211 188.88 22.2843 189.585 23.051C190.291 23.8176 191.195 24.201 192.299 24.201C193.403 24.201 194.308 23.8176 195.013 23.051C195.719 22.2843 196.071 21.211 196.071 19.831ZM220.161 6.53698C221.848 6.53698 223.304 6.88964 224.531 7.59498C225.758 8.26964 226.693 9.20498 227.337 10.401V6.85898H237.503V32.343C237.503 34.7656 237.058 36.9736 236.169 38.967C235.28 40.9603 233.838 42.555 231.845 43.751C229.882 44.947 227.352 45.545 224.255 45.545C220.084 45.545 216.772 44.5636 214.319 42.601C211.896 40.669 210.516 38.0316 210.179 34.689H220.207C220.483 36.0383 221.587 36.713 223.519 36.713C224.715 36.713 225.65 36.4063 226.325 35.793C227 35.1796 227.337 34.0296 227.337 32.343V29.261C226.693 30.457 225.758 31.4076 224.531 32.113C223.304 32.7876 221.848 33.125 220.161 33.125C218.137 33.125 216.312 32.6036 214.687 31.561C213.062 30.4876 211.774 28.9543 210.823 26.961C209.903 24.937 209.443 22.5603 209.443 19.831C209.443 17.1016 209.903 14.7403 210.823 12.747C211.774 10.723 213.062 9.18964 214.687 8.14698C216.312 7.07364 218.137 6.53698 220.161 6.53698ZM227.337 19.831C227.337 18.451 226.984 17.3776 226.279 16.611C225.574 15.8443 224.669 15.461 223.565 15.461C222.461 15.461 221.556 15.8443 220.851 16.611C220.146 17.3776 219.793 18.451 219.793 19.831C219.793 21.211 220.146 22.2843 220.851 23.051C221.556 23.8176 222.461 24.201 223.565 24.201C224.669 24.201 225.574 23.8176 226.279 23.051C226.984 22.2843 227.337 21.211 227.337 19.831ZM267.205 19.601C267.205 20.3063 267.159 20.981 267.067 21.625H250.645C250.798 23.8636 251.733 24.983 253.451 24.983C254.555 24.983 255.352 24.477 255.843 23.465H266.653C266.285 25.305 265.503 26.961 264.307 28.433C263.141 29.8743 261.654 31.0243 259.845 31.883C258.066 32.711 256.103 33.125 253.957 33.125C251.381 33.125 249.081 32.5883 247.057 31.515C245.063 30.4416 243.499 28.9083 242.365 26.915C241.261 24.891 240.709 22.5296 240.709 19.831C240.709 17.1323 241.261 14.7863 242.365 12.793C243.499 10.769 245.063 9.22031 247.057 8.14698C249.081 7.07364 251.381 6.53698 253.957 6.53698C256.533 6.53698 258.817 7.07364 260.811 8.14698C262.835 9.18964 264.399 10.6923 265.503 12.655C266.637 14.6176 267.205 16.933 267.205 19.601ZM256.855 17.163C256.855 16.3043 256.579 15.6603 256.027 15.231C255.475 14.771 254.785 14.541 253.957 14.541C252.147 14.541 251.089 15.415 250.783 17.163H256.855Z" fill="url(#paint0_linear_3_17)"/>
<defs>
<linearGradient id="paint0_linear_3_17" x1="14.8748" y1="31.803" x2="489.81" y2="70.6954" gradientUnits="userSpaceOnUse">
<stop stop-color="#263238"/>
<stop offset="1" stop-color="#FDA5FF"/>
</linearGradient>
</defs>
</svg>
