<svg width="24" height="24" viewBox="0 0 24 24" fill="none" xmlns="http://www.w3.org/2000/svg">
<path d="M9.116 13.7491L8 4.94806L6.884 13.7481H3C2.448 13.7481 2 13.3111 2 12.7721C2.00317 12.5098 2.11024 12.2596 2.29772 12.0762C2.4852 11.8929 2.73777 11.7914 3 11.7941H5.116L6.016 4.70806C6.15 3.63606 7.15 2.87606 8.245 3.00806C9.155 3.11806 9.871 3.81806 9.984 4.70806L10.883 11.7941H12.857L14 19.0401L15.142 11.7951H21C21.552 11.7951 22 12.2331 22 12.7731C22 13.3131 21.552 13.7501 21 13.7501H16.858L15.977 19.3371C15.9081 19.7517 15.7089 20.1337 15.4082 20.4275C15.1076 20.7213 14.7212 20.9117 14.305 20.9711C13.213 21.1361 12.192 20.4041 12.023 19.3371L11.143 13.7501L9.116 13.7491Z" fill="#263238"/>
</svg>
