<svg width="60" height="60" viewBox="0 0 60 60" fill="none" xmlns="http://www.w3.org/2000/svg">
<path d="M37 11.5321L53.7525 39.4346C56.16 43.4421 54.9775 48.7146 51.11 51.2096C49.812 52.0501 48.2989 52.4981 46.7525 52.4996H13.245C8.6925 52.4996 5 48.6746 5 43.9521C5 42.3546 5.4325 40.7921 6.245 39.4346L23 11.5321C25.405 7.52465 30.49 6.29715 34.3575 8.79215C35.4275 9.48215 36.3325 10.4196 37 11.5321ZM30 42.4996C30.663 42.4996 31.2989 42.2363 31.7678 41.7674C32.2366 41.2986 32.5 40.6627 32.5 39.9996C32.5 39.3366 32.2366 38.7007 31.7678 38.2319C31.2989 37.763 30.663 37.4996 30 37.4996C29.337 37.4996 28.7011 37.763 28.2322 38.2319C27.7634 38.7007 27.5 39.3366 27.5 39.9996C27.5 40.6627 27.7634 41.2986 28.2322 41.7674C28.7011 42.2363 29.337 42.4996 30 42.4996ZM30 19.9996C29.337 19.9996 28.7011 20.263 28.2322 20.7319C27.7634 21.2007 27.5 21.8366 27.5 22.4996V32.4996C27.5 33.1627 27.7634 33.7986 28.2322 34.2674C28.7011 34.7363 29.337 34.9996 30 34.9996C30.663 34.9996 31.2989 34.7363 31.7678 34.2674C32.2366 33.7986 32.5 33.1627 32.5 32.4996V22.4996C32.5 21.8366 32.2366 21.2007 31.7678 20.7319C31.2989 20.263 30.663 19.9996 30 19.9996Z" fill="#990505"/>
</svg>
