<svg width="24" height="24" viewBox="0 0 24 24" fill="none" xmlns="http://www.w3.org/2000/svg">
<path d="M9.116 13.749L8 4.948L6.884 13.748H3C2.448 13.748 2 13.311 2 12.772C2.00317 12.5098 2.11024 12.2595 2.29772 12.0762C2.4852 11.8928 2.73777 11.7913 3 11.794H5.116L6.016 4.708C6.15 3.636 7.15 2.876 8.245 3.008C9.155 3.118 9.871 3.818 9.984 4.708L10.883 11.794H12.857L14 19.04L15.142 11.795H21C21.552 11.795 22 12.233 22 12.773C22 13.313 21.552 13.75 21 13.75H16.858L15.977 19.337C15.9081 19.7517 15.7089 20.1336 15.4082 20.4274C15.1076 20.7213 14.7212 20.9116 14.305 20.971C13.213 21.136 12.192 20.404 12.023 19.337L11.143 13.75L9.116 13.749Z" fill="white"/>
</svg>
