<svg width="24" height="24" viewBox="0 0 24 24" fill="none" xmlns="http://www.w3.org/2000/svg">
<path d="M12 22.025C11.7333 22.025 11.479 21.975 11.237 21.875C10.995 21.775 10.7743 21.6333 10.575 21.45L2.55 13.425C2.36667 13.225 2.225 13.004 2.125 12.762C2.025 12.52 1.975 12.266 1.975 12C1.975 11.7333 2.025 11.475 2.125 11.225C2.225 10.975 2.36667 10.7583 2.55 10.575L10.575 2.54998C10.775 2.34998 10.996 2.20398 11.238 2.11198C11.48 2.01998 11.734 1.97432 12 1.97498C12.2667 1.97498 12.525 2.02098 12.775 2.11298C13.025 2.20498 13.2417 2.35065 13.425 2.54998L21.45 10.575C21.65 10.7583 21.796 10.975 21.888 11.225C21.98 11.475 22.0257 11.7333 22.025 12C22.025 12.2666 21.9793 12.521 21.888 12.763C21.7967 13.005 21.6507 13.2256 21.45 13.425L13.425 21.45C13.2417 21.6333 13.025 21.775 12.775 21.875C12.525 21.975 12.2667 22.025 12 22.025ZM12 20.025L20.025 12L12 3.97498L3.975 12L12 20.025ZM11 13H13V6.99998H11V13ZM12 16C12.2833 16 12.521 15.904 12.713 15.712C12.905 15.52 13.0007 15.2826 13 15C13 14.7166 12.904 14.4793 12.712 14.288C12.52 14.0966 12.2827 14.0006 12 14C11.7167 14 11.4793 14.096 11.288 14.288C11.0967 14.48 11.0007 14.7173 11 15C11 15.2833 11.096 15.521 11.288 15.713C11.48 15.905 11.7173 16.0006 12 16Z" fill="#263238"/>
</svg>
