<svg width="30" height="30" viewBox="0 0 30 30" fill="none" xmlns="http://www.w3.org/2000/svg">
<path d="M7.5 21.25C7.5 18.75 12.5 17.375 15 17.375C17.5 17.375 22.5 18.75 22.5 21.25V22.5H7.5M18.75 11.25C18.75 12.2446 18.3549 13.1984 17.6517 13.9017C16.9484 14.6049 15.9946 15 15 15C14.0054 15 13.0516 14.6049 12.3483 13.9017C11.6451 13.1984 11.25 12.2446 11.25 11.25C11.25 10.2554 11.6451 9.30161 12.3483 8.59835C13.0516 7.89509 14.0054 7.5 15 7.5C15.9946 7.5 16.9484 7.89509 17.6517 8.59835C18.3549 9.30161 18.75 10.2554 18.75 11.25ZM3.75 6.25V23.75C3.75 24.413 4.01339 25.0489 4.48223 25.5178C4.95107 25.9866 5.58696 26.25 6.25 26.25H23.75C24.413 26.25 25.0489 25.9866 25.5178 25.5178C25.9866 25.0489 26.25 24.413 26.25 23.75V6.25C26.25 5.58696 25.9866 4.95107 25.5178 4.48223C25.0489 4.01339 24.413 3.75 23.75 3.75H6.25C5.58696 3.75 4.95107 4.01339 4.48223 4.48223C4.01339 4.95107 3.75 5.58696 3.75 6.25Z" fill="#263238"/>
</svg>
