<svg width="375" height="276" viewBox="0 0 375 276" fill="none" xmlns="http://www.w3.org/2000/svg">
<path d="M337.057 257.007H312.281V257.194H337.057V257.007Z" fill="#EBEBEB"/>
<path d="M248.278 259.042H241.778V259.229H248.278V259.042Z" fill="#EBEBEB"/>
<path d="M311.533 250.065H297.178V250.252H311.533V250.065Z" fill="#EBEBEB"/>
<path d="M72.0598 251.322H39.7515V251.509H72.0598V251.322Z" fill="#EBEBEB"/>
<path d="M83.4603 251.322H78.7251V251.509H83.4603V251.322Z" fill="#EBEBEB"/>
<path d="M168.932 254.479H98.855V254.666H168.932V254.479Z" fill="#EBEBEB"/>
<path d="M177.797 211.608H33.3632C32.2303 211.608 31.1439 211.158 30.3429 210.357C29.5418 209.556 29.0918 208.469 29.0918 207.337V4.29317C29.1017 3.16683 29.556 2.08997 30.356 1.29701C31.156 0.504042 32.2368 0.0591609 33.3632 0.0592041H177.797C178.93 0.0592041 180.016 0.509222 180.817 1.31026C181.618 2.1113 182.068 3.19774 182.068 4.33057V207.337C182.068 208.469 181.618 209.556 180.817 210.357C180.016 211.158 178.93 211.608 177.797 211.608ZM33.3632 0.208815C32.2805 0.210792 31.2428 0.641742 30.4773 1.40728C29.7117 2.17282 29.2808 3.21054 29.2788 4.29317V207.337C29.2808 208.419 29.7117 209.457 30.4773 210.223C31.2428 210.988 32.2805 211.419 33.3632 211.421H177.797C178.879 211.419 179.917 210.988 180.683 210.223C181.448 209.457 181.879 208.419 181.881 207.337V4.29317C181.879 3.21054 181.448 2.17282 180.683 1.40728C179.917 0.641742 178.879 0.210792 177.797 0.208815H33.3632Z" fill="#EBEBEB"/>
<path d="M339.608 211.608H195.159C194.027 211.606 192.942 211.155 192.141 210.355C191.34 209.554 190.89 208.469 190.888 207.337V4.29317C190.9 3.16744 191.354 2.09172 192.154 1.29917C192.954 0.50662 194.033 0.0611104 195.159 0.0592041H339.608C340.732 0.0630973 341.809 0.509717 342.605 1.30226C343.402 2.09481 343.854 3.16941 343.864 4.29317V207.337C343.864 208.467 343.416 209.551 342.618 210.352C341.821 211.152 340.738 211.604 339.608 211.608ZM195.159 0.208815C194.076 0.210792 193.039 0.641742 192.273 1.40728C191.508 2.17282 191.077 3.21054 191.075 4.29317V207.337C191.077 208.419 191.508 209.457 192.273 210.223C193.039 210.988 194.076 211.419 195.159 211.421H339.608C340.69 211.419 341.728 210.988 342.494 210.223C343.259 209.457 343.69 208.419 343.692 207.337V4.29317C343.69 3.21054 343.259 2.17282 342.494 1.40728C341.728 0.641742 340.69 0.210792 339.608 0.208815H195.159Z" fill="#EBEBEB"/>
<path d="M374.534 244.971H0.508789V245.158H374.534V244.971Z" fill="#EBEBEB"/>
<path d="M312.259 29.7344H218.91V129.143H312.259V29.7344Z" fill="#EBEBEB"/>
<path d="M306.649 35.3447H224.52V123.532H306.649V35.3447Z" fill="#F5F5F5"/>
<path d="M256.754 123.532H281.439L304.614 35.3447H279.928L256.754 123.532Z" fill="#FAFAFA"/>
<path d="M268.461 35.3447L245.286 123.532H251.271L274.445 35.3447H268.461Z" fill="#FAFAFA"/>
<path d="M313.433 34.4097H217.728L215.708 29.697H315.453L313.433 34.4097Z" fill="#F5F5F5"/>
<path d="M313.433 37.1401H217.728L215.708 32.4274H315.453L313.433 37.1401Z" fill="#F0F0F0"/>
<path d="M313.433 39.8704H217.728L215.708 35.1577H315.453L313.433 39.8704Z" fill="#E6E6E6"/>
<path d="M313.433 42.6008H217.728L215.708 37.8881H315.453L313.433 42.6008Z" fill="#E0E0E0"/>
<path d="M318.939 23.7949H212.23V30.0785H318.939V23.7949Z" fill="#E0E0E0"/>
<path d="M213.322 87.05C213.034 87.05 212.758 86.9358 212.555 86.7324C212.351 86.5289 212.237 86.253 212.237 85.9654V49.3109C212.237 49.0232 212.351 48.7473 212.555 48.5439C212.758 48.3405 213.034 48.2262 213.322 48.2262C213.609 48.2262 213.885 48.3405 214.089 48.5439C214.292 48.7473 214.406 49.0232 214.406 49.3109V85.9654C214.406 86.253 214.292 86.5289 214.089 86.7324C213.885 86.9358 213.609 87.05 213.322 87.05Z" fill="#E0E0E0"/>
<path d="M213.711 28.8218H212.925V50.5901H213.711V28.8218Z" fill="#E0E0E0"/>
<path d="M68.2225 27.8119H66.876V132.816H68.2225V27.8119Z" fill="#E0E0E0"/>
<path d="M152.041 27.8119H150.695V132.816H152.041V27.8119Z" fill="#E0E0E0"/>
<path d="M157.323 34.4097H61.6023L59.5825 29.697H159.335L157.323 34.4097Z" fill="#F5F5F5"/>
<path d="M157.323 40.8803H61.6023L59.5825 36.1676H159.335L157.323 40.8803Z" fill="#F5F5F5"/>
<path d="M157.323 47.351H61.6023L59.5825 42.6383H159.335L157.323 47.351Z" fill="#F5F5F5"/>
<path d="M157.323 53.8216H61.6023L59.5825 49.1089H159.335L157.323 53.8216Z" fill="#F5F5F5"/>
<path d="M157.323 60.2923H61.6023L59.5825 55.5795H159.335L157.323 60.2923Z" fill="#F5F5F5"/>
<path d="M157.323 66.7629H61.6023L59.5825 62.0502H159.335L157.323 66.7629Z" fill="#F5F5F5"/>
<path d="M157.323 73.2335H61.6023L59.5825 68.5208H159.335L157.323 73.2335Z" fill="#F5F5F5"/>
<path d="M157.323 79.7042H61.6023L59.5825 74.9915H159.335L157.323 79.7042Z" fill="#F5F5F5"/>
<path d="M157.323 86.1748H61.6023L59.5825 81.4621H159.335L157.323 86.1748Z" fill="#F5F5F5"/>
<path d="M157.323 92.6455H61.6023L59.5825 87.9327H159.335L157.323 92.6455Z" fill="#F5F5F5"/>
<path d="M157.323 99.1162H61.6023L59.5825 94.4034H159.335L157.323 99.1162Z" fill="#F5F5F5"/>
<path d="M157.323 105.579H61.6023L59.5825 100.867H159.335L157.323 105.579Z" fill="#F5F5F5"/>
<path d="M157.323 112.057H61.6023L59.5825 107.337H159.335L157.323 112.057Z" fill="#F5F5F5"/>
<path d="M157.323 118.521H61.6023L59.5825 113.808H159.335L157.323 118.521Z" fill="#F5F5F5"/>
<path d="M157.323 124.991H61.6023L59.5825 120.278H159.335L157.323 124.991Z" fill="#F5F5F5"/>
<path d="M157.323 131.462H61.6023L59.5825 126.749H159.335L157.323 131.462Z" fill="#F5F5F5"/>
<path d="M159.335 131.462H59.5825V134.155H159.335V131.462Z" fill="#E0E0E0"/>
<path d="M162.813 23.7949H56.104V30.0785H162.813V23.7949Z" fill="#E0E0E0"/>
<path d="M57.2038 87.05C56.9161 87.05 56.6403 86.9358 56.4368 86.7324C56.2334 86.5289 56.1191 86.253 56.1191 85.9654V49.3109C56.1191 49.0232 56.2334 48.7473 56.4368 48.5439C56.6403 48.3405 56.9161 48.2262 57.2038 48.2262C57.4915 48.2262 57.7674 48.3405 57.9708 48.5439C58.1742 48.7473 58.2885 49.0232 58.2885 49.3109V85.9654C58.2885 86.253 58.1742 86.5289 57.9708 86.7324C57.7674 86.9358 57.4915 87.05 57.2038 87.05Z" fill="#E0E0E0"/>
<path d="M57.5926 28.8218H56.8071V50.5901H57.5926V28.8218Z" fill="#E0E0E0"/>
<path d="M67.3247 200.073C67.2349 200.17 67.7361 200.873 65.6865 200.567C60.6371 199.819 51.8475 197.762 49.4014 192.57C45.908 185.157 56.7398 187.865 56.3658 184.072C55.9917 180.28 43.6489 180.938 42.3548 175.38C41.0606 169.822 49.4089 172.47 49.5211 169.762C49.6333 167.054 39.9984 168.73 38.0834 162.73C36.1684 156.731 43.4544 161.152 42.6166 158.653C41.7788 156.155 33.64 144.882 38.061 143.573C42.4819 142.264 49.9699 153.836 52.8724 155.474C55.7748 157.113 58.3182 147.665 61.7592 151.659C65.2002 155.654 59.7395 169.612 64.123 172.313C67.392 174.333 66.4719 168.775 70.7807 169.814C76.608 171.221 74.6406 191.889 67.3247 200.073Z" fill="#EBEBEB"/>
<path d="M51.7427 169.792C53.2284 169.902 54.6939 170.201 56.1038 170.682C55.169 169.278 54.1314 167.945 52.9994 166.695C52.9386 166.623 52.9072 166.531 52.9115 166.437C52.9158 166.343 52.9555 166.253 53.0225 166.187C53.0896 166.121 53.1792 166.083 53.2734 166.08C53.3676 166.077 53.4594 166.11 53.5305 166.171C55.9705 168.908 58.0588 171.938 59.7468 175.193C61.3402 165.625 57.3306 157.24 57.2857 157.18C57.2618 157.114 57.2632 157.041 57.2897 156.976C57.3161 156.911 57.3657 156.858 57.4289 156.827C57.4921 156.797 57.5645 156.79 57.6319 156.81C57.6994 156.829 57.7573 156.873 57.7944 156.933C57.8393 157.023 62.1107 165.947 60.1732 175.986C60.6894 176.966 61.213 178.021 61.7217 179.15C63.5317 183.177 64.9617 187.364 65.9931 191.657C67.8614 188.133 68.8857 184.223 68.9853 180.235C68.9862 180.198 68.9944 180.163 69.0092 180.129C69.024 180.096 69.0452 180.066 69.0716 180.041C69.098 180.016 69.1291 179.997 69.163 179.984C69.197 179.971 69.2332 179.964 69.2695 179.965C69.3069 179.966 69.3436 179.975 69.3778 179.99C69.4119 180.005 69.4427 180.027 69.4684 180.054C69.4941 180.081 69.5142 180.113 69.5276 180.148C69.5409 180.183 69.5473 180.22 69.5463 180.257C69.4565 184.533 68.3076 188.72 66.2025 192.443C68.1113 200.891 68.7492 209.577 68.0951 218.213C68.0922 218.262 68.0797 218.311 68.0582 218.355C68.0367 218.399 68.0067 218.439 67.9698 218.471C67.933 218.504 67.8901 218.529 67.8435 218.545C67.797 218.561 67.7478 218.568 67.6986 218.565H67.6537C67.5632 218.548 67.4822 218.499 67.4267 218.425C67.3713 218.352 67.3455 218.26 67.3545 218.168C68.2746 204.703 66.2698 193.924 63.4871 185.74C61.9429 183.952 59.8294 182.75 57.5027 182.337C57.4306 182.322 57.3667 182.281 57.3237 182.221C57.2807 182.162 57.2618 182.088 57.2708 182.015C57.2754 181.979 57.2872 181.943 57.3055 181.912C57.3239 181.88 57.3484 181.852 57.3777 181.829C57.4069 181.807 57.4403 181.791 57.4759 181.782C57.5115 181.773 57.5486 181.77 57.585 181.776C59.6255 182.128 61.5185 183.069 63.0308 184.484C61.4142 179.931 59.2755 175.58 56.6574 171.52C55.0797 170.861 53.4039 170.466 51.6978 170.353C51.6237 170.347 51.5548 170.313 51.5059 170.257C51.4569 170.201 51.4319 170.128 51.436 170.054C51.4378 170.016 51.4473 169.979 51.464 169.945C51.4806 169.911 51.504 169.881 51.5327 169.857C51.5615 169.832 51.5949 169.814 51.631 169.803C51.6671 169.791 51.7051 169.788 51.7427 169.792Z" fill="#F5F5F5"/>
<path d="M73.8179 202.938C78.0144 203.013 85.1808 199.116 88.0308 195.331C90.8809 191.545 82.8543 193.834 83.6772 190.842C84.5 187.85 94.4042 190.057 96.2295 185.726C98.0547 181.394 90.9183 182.397 91.2026 180.182C91.4868 177.968 98.8851 178.425 101.256 173.824C103.628 169.224 97.1271 171.804 98.1445 169.897C99.1618 167.989 107.323 159.97 103.912 158.302C100.501 156.634 92.8483 164.982 90.29 165.917C87.7316 166.852 87.1257 161.077 83.7894 163.838C80.4531 166.598 82.9516 178.656 79.0318 180.25C76.1069 181.439 77.3487 175.911 73.9824 177.31C68.028 179.756 72.0899 202.901 73.8179 202.938Z" fill="#E0E0E0"/>
<g opacity="0.3">
<path opacity="0.3" d="M73.8179 202.938C78.0144 203.013 85.1808 199.116 88.0308 195.331C90.8809 191.545 82.8543 193.834 83.6772 190.842C84.5 187.85 94.4042 190.057 96.2295 185.726C98.0547 181.394 90.9183 182.397 91.2026 180.182C91.4868 177.968 98.8851 178.425 101.256 173.824C103.628 169.224 97.1271 171.804 98.1445 169.897C99.1618 167.989 107.323 159.97 103.912 158.302C100.501 156.634 92.8483 164.982 90.29 165.917C87.7316 166.852 87.1257 161.077 83.7894 163.838C80.4531 166.598 82.9516 178.656 79.0318 180.25C76.1069 181.439 77.3487 175.911 73.9824 177.31C68.028 179.756 72.0899 202.901 73.8179 202.938Z" fill="#E0E0E0"/>
</g>
<path d="M75.1793 197.904C75.1159 197.88 75.0629 197.835 75.0297 197.777C73.4303 194.266 72.7803 190.397 73.1446 186.556C73.1421 186.515 73.1484 186.474 73.163 186.436C73.1775 186.398 73.2001 186.364 73.2292 186.335C73.2582 186.307 73.2931 186.285 73.3314 186.271C73.3696 186.257 73.4104 186.252 73.451 186.255C73.4916 186.258 73.531 186.27 73.5666 186.29C73.6022 186.31 73.6331 186.337 73.6572 186.37C73.6814 186.402 73.6982 186.44 73.7066 186.48C73.7149 186.52 73.7146 186.561 73.7057 186.601C73.3923 190.247 73.9753 193.914 75.4038 197.283C77.1383 192.603 79.2758 188.083 81.7921 183.773C81.0441 174.796 85.667 167.391 85.7119 167.316C85.7516 167.253 85.8145 167.209 85.8867 167.193C85.959 167.177 86.0347 167.19 86.0971 167.23C86.1596 167.27 86.2038 167.332 86.2199 167.405C86.2361 167.477 86.2228 167.553 86.1832 167.615C83.5095 172.259 82.1662 177.549 82.3008 182.905C85.3169 177.731 88.9161 172.92 93.0278 168.565C93.0617 168.526 93.1031 168.495 93.1497 168.473C93.1963 168.451 93.2469 168.438 93.2984 168.437C93.3499 168.435 93.4012 168.444 93.449 168.463C93.4969 168.482 93.5403 168.511 93.5765 168.548C93.6126 168.585 93.6409 168.628 93.6593 168.677C93.6778 168.725 93.6861 168.776 93.6838 168.828C93.6814 168.879 93.6684 168.929 93.6457 168.976C93.6229 169.022 93.5908 169.063 93.5515 169.096C90.5137 172.293 87.7721 175.758 85.3603 179.449C87.8873 178.498 90.567 178.016 93.2672 178.028C93.3413 178.032 93.4109 178.065 93.4612 178.119C93.5116 178.174 93.5386 178.246 93.5365 178.32C93.5346 178.392 93.5045 178.46 93.4528 178.511C93.4011 178.561 93.3319 178.589 93.2597 178.589C90.357 178.565 87.4793 179.127 84.7993 180.242C83.1469 182.779 81.6239 185.398 80.2362 188.089C81.3631 187.307 82.6464 186.779 83.9973 186.542C85.3482 186.304 86.7346 186.362 88.0608 186.713C88.1329 186.732 88.1945 186.779 88.2323 186.844C88.2701 186.908 88.281 186.985 88.2628 187.057C88.2533 187.093 88.2368 187.126 88.2142 187.155C88.1917 187.184 88.1636 187.208 88.1315 187.226C88.0995 187.245 88.0642 187.256 88.0276 187.26C87.9911 187.265 87.954 187.262 87.9186 187.251C86.4809 186.882 84.9743 186.871 83.5315 187.221C82.0888 187.57 80.7541 188.269 79.6452 189.256C74.8221 198.817 72.0716 209.289 71.5737 219.986C71.5699 220.083 71.5288 220.174 71.459 220.241C71.3893 220.308 71.2964 220.345 71.1997 220.345C71.103 220.345 71.0101 220.308 70.9404 220.241C70.8707 220.174 70.8295 220.083 70.8257 219.986C71.1396 212.446 72.6079 204.999 75.1793 197.904Z" fill="#F5F5F5"/>
<path d="M61.9912 243.924C57.9891 236.398 55.356 225.522 55.356 220.734C55.3753 218.782 55.8236 216.859 56.669 215.099C57.5145 213.34 58.7364 211.788 60.2482 210.553H80.7523C82.2641 211.788 83.486 213.34 84.3315 215.099C85.1769 216.859 85.6252 218.782 85.6445 220.734C85.6445 225.507 83.0114 236.384 79.0093 243.924H61.9912Z" fill="#F0F0F0"/>
<path d="M183.916 275.873C264.019 275.873 328.956 272.082 328.956 267.405C328.956 262.728 264.019 258.937 183.916 258.937C103.813 258.937 38.8765 262.728 38.8765 267.405C38.8765 272.082 103.813 275.873 183.916 275.873Z" fill="#F5F5F5"/>
<path d="M219.426 48.4132H201.473C200.888 48.4257 200.324 48.6335 199.872 49.0037C199.419 49.3738 199.103 49.8849 198.974 50.4554L198.855 51.0165C198.545 52.4083 197.776 53.6556 196.671 54.5578C195.567 55.46 194.191 55.9647 192.766 55.991H175.71C174.357 56.0212 173.047 55.5151 172.066 54.5831C171.085 53.6512 170.513 52.369 170.474 51.0165V50.4554C170.46 49.9012 170.227 49.375 169.826 48.9922C169.425 48.6094 168.888 48.4012 168.334 48.4132H150.381C147.432 48.4657 144.605 49.5969 142.434 51.5928C140.263 53.5888 138.899 56.3112 138.599 59.245L124.192 224.22C124.04 225.6 124.183 226.996 124.613 228.315C125.042 229.635 125.748 230.848 126.683 231.873C127.618 232.899 128.76 233.713 130.035 234.263C131.309 234.812 132.686 235.084 134.073 235.059H203.096C206.045 235.005 208.873 233.872 211.044 231.875C213.214 229.878 214.579 227.155 214.878 224.22L229.315 59.245C229.466 57.8656 229.322 56.4698 228.891 55.1505C228.461 53.8313 227.754 52.6189 226.819 51.5941C225.883 50.5693 224.74 49.7555 223.465 49.2071C222.19 48.6586 220.814 48.388 219.426 48.4132Z" fill="#407BFF"/>
<path opacity="0.7" d="M219.426 48.4132H201.473C200.888 48.4257 200.324 48.6335 199.872 49.0037C199.419 49.3738 199.103 49.8849 198.974 50.4554L198.855 51.0165C198.545 52.4083 197.776 53.6556 196.671 54.5578C195.567 55.46 194.191 55.9647 192.766 55.991H175.71C174.357 56.0212 173.047 55.5151 172.066 54.5831C171.085 53.6512 170.513 52.369 170.474 51.0165V50.4554C170.46 49.9012 170.227 49.375 169.826 48.9922C169.425 48.6094 168.888 48.4012 168.334 48.4132H150.381C147.432 48.4657 144.605 49.5969 142.434 51.5928C140.263 53.5888 138.899 56.3112 138.599 59.245L124.192 224.22C124.04 225.6 124.183 226.996 124.613 228.315C125.042 229.635 125.748 230.848 126.683 231.873C127.618 232.899 128.76 233.713 130.035 234.263C131.309 234.812 132.686 235.084 134.073 235.059H203.096C206.045 235.005 208.873 233.872 211.044 231.875C213.214 229.878 214.579 227.155 214.878 224.22L229.315 59.245C229.466 57.8656 229.322 56.4698 228.891 55.1505C228.461 53.8313 227.754 52.6189 226.819 51.5941C225.883 50.5693 224.74 49.7555 223.465 49.2071C222.19 48.6586 220.814 48.388 219.426 48.4132Z" fill="white"/>
<path d="M212.432 124.296H175.777C175.469 124.3 175.163 124.24 174.88 124.118C174.597 123.995 174.343 123.814 174.135 123.587C173.927 123.359 173.77 123.09 173.674 122.797C173.578 122.504 173.545 122.193 173.578 121.887L176.338 90.3265C176.404 89.6741 176.707 89.0685 177.189 88.6246C177.672 88.1806 178.301 87.9291 178.956 87.9178H215.611C215.92 87.9116 216.226 87.9715 216.51 88.0932C216.793 88.215 217.048 88.396 217.256 88.624C217.464 88.852 217.621 89.1218 217.717 89.4154C217.812 89.709 217.844 90.0196 217.81 90.3265L215.05 121.887C214.982 122.539 214.679 123.143 214.197 123.587C213.715 124.031 213.087 124.283 212.432 124.296Z" fill="white"/>
<path d="M200.239 222.978H138.899C138.132 222.993 137.371 222.843 136.667 222.54C135.963 222.237 135.331 221.788 134.815 221.221C134.298 220.655 133.908 219.985 133.67 219.256C133.433 218.527 133.354 217.756 133.438 216.994C133.604 215.373 134.358 213.87 135.557 212.767C136.756 211.665 138.317 211.039 139.946 211.01H201.286C202.053 210.995 202.813 211.145 203.518 211.448C204.222 211.751 204.853 212.2 205.37 212.767C205.887 213.333 206.277 214.003 206.514 214.732C206.752 215.461 206.831 216.232 206.747 216.994C206.582 218.615 205.829 220.119 204.63 221.222C203.43 222.325 201.868 222.95 200.239 222.978Z" fill="white"/>
<path d="M205.123 79.2404H148.847C148.416 79.2534 147.987 79.1729 147.59 79.0045C147.192 78.836 146.836 78.5836 146.545 78.2646C146.255 77.9455 146.036 77.5674 145.906 77.156C145.775 76.7447 145.735 76.31 145.788 75.8817L146.244 70.6453C146.339 69.7375 146.762 68.8957 147.435 68.2784C148.107 67.6611 148.982 67.311 149.895 67.2941H206.171C206.6 67.2863 207.026 67.37 207.421 67.5396C207.816 67.7092 208.17 67.9609 208.46 68.2778C208.75 68.5947 208.969 68.9697 209.103 69.3779C209.238 69.7861 209.283 70.2181 209.238 70.6453L208.774 75.8817C208.681 76.7909 208.258 77.6345 207.585 78.2533C206.913 78.8721 206.037 79.2233 205.123 79.2404Z" fill="white"/>
<path d="M216.569 70.4658C216.543 70.7192 216.425 70.9544 216.238 71.1267C216.05 71.2991 215.806 71.3966 215.551 71.4008C215.432 71.4026 215.313 71.3789 215.203 71.3314C215.093 71.2839 214.995 71.2136 214.914 71.1252C214.834 71.0369 214.773 70.9324 214.736 70.8187C214.698 70.705 214.686 70.5847 214.698 70.4658C214.724 70.2131 214.842 69.9788 215.03 69.8076C215.218 69.6365 215.462 69.5406 215.716 69.5382C215.835 69.5354 215.953 69.5581 216.063 69.6047C216.173 69.6514 216.272 69.7209 216.352 69.8087C216.433 69.8966 216.494 70.0006 216.531 70.1139C216.569 70.2272 216.581 70.3472 216.569 70.4658Z" fill="white"/>
<path d="M216.322 73.2635C216.298 73.5162 216.182 73.7513 215.995 73.9238C215.809 74.0963 215.566 74.1941 215.312 74.1985C215.192 74.2003 215.074 74.1766 214.964 74.1291C214.854 74.0816 214.756 74.0113 214.675 73.9229C214.594 73.8345 214.534 73.7301 214.496 73.6164C214.459 73.5027 214.446 73.3824 214.459 73.2635C214.483 73.0107 214.599 72.7756 214.785 72.6031C214.972 72.4306 215.215 72.3328 215.469 72.3284C215.589 72.3267 215.707 72.3503 215.817 72.3978C215.927 72.4454 216.025 72.5156 216.106 72.604C216.186 72.6924 216.247 72.7969 216.285 72.9106C216.322 73.0242 216.334 73.1445 216.322 73.2635Z" fill="white"/>
<path d="M216.082 76.0537C216.057 76.3071 215.939 76.5423 215.752 76.7147C215.564 76.887 215.32 76.9845 215.065 76.9887C214.945 76.9905 214.827 76.9668 214.717 76.9193C214.607 76.8718 214.509 76.8015 214.428 76.7131C214.348 76.6248 214.287 76.5203 214.249 76.4066C214.212 76.2929 214.2 76.1726 214.212 76.0537C214.238 75.8003 214.356 75.5651 214.543 75.3927C214.731 75.2204 214.975 75.1228 215.23 75.1186C215.349 75.1169 215.468 75.1406 215.578 75.1881C215.687 75.2356 215.786 75.3058 215.866 75.3942C215.947 75.4826 216.008 75.5871 216.045 75.7008C216.082 75.8145 216.095 75.9347 216.082 76.0537Z" fill="white"/>
<path d="M207.876 176.36H139.407C139.098 176.366 138.792 176.306 138.508 176.184C138.224 176.063 137.97 175.882 137.762 175.654C137.553 175.426 137.396 175.156 137.301 174.862C137.205 174.569 137.174 174.258 137.208 173.951L140.394 137.932C140.46 137.28 140.763 136.674 141.246 136.231C141.728 135.787 142.357 135.535 143.013 135.524H211.459C211.767 135.519 212.073 135.579 212.356 135.702C212.638 135.824 212.892 136.005 213.099 136.233C213.307 136.461 213.463 136.73 213.558 137.023C213.653 137.316 213.685 137.626 213.651 137.932L210.502 173.951C210.436 174.605 210.132 175.211 209.648 175.656C209.163 176.1 208.533 176.35 207.876 176.36Z" fill="white"/>
<path d="M158.243 183.885H136.924C136.849 183.887 136.775 183.872 136.706 183.843C136.637 183.813 136.576 183.769 136.526 183.714C136.475 183.659 136.437 183.594 136.414 183.522C136.391 183.451 136.384 183.376 136.393 183.302C136.407 183.142 136.48 182.994 136.598 182.885C136.715 182.776 136.868 182.714 137.028 182.711H158.348C158.423 182.709 158.498 182.724 158.568 182.754C158.637 182.784 158.699 182.828 158.749 182.884C158.8 182.94 158.837 183.007 158.86 183.079C158.882 183.151 158.889 183.227 158.879 183.302C158.863 183.46 158.789 183.607 158.672 183.714C158.555 183.822 158.402 183.882 158.243 183.885Z" fill="white"/>
<path d="M184.889 183.885H162.006C161.931 183.888 161.856 183.874 161.786 183.845C161.716 183.816 161.654 183.773 161.603 183.717C161.552 183.662 161.513 183.596 161.49 183.524C161.466 183.453 161.459 183.377 161.467 183.302C161.482 183.142 161.555 182.994 161.672 182.885C161.79 182.776 161.943 182.714 162.103 182.711H184.994C185.069 182.709 185.144 182.724 185.213 182.754C185.282 182.784 185.344 182.828 185.395 182.884C185.445 182.94 185.483 183.007 185.505 183.079C185.528 183.151 185.534 183.227 185.525 183.302C185.508 183.46 185.434 183.607 185.317 183.714C185.2 183.822 185.048 183.882 184.889 183.885Z" fill="white"/>
<path d="M150.867 189.084H136.475C136.399 189.086 136.324 189.071 136.254 189.041C136.185 189.011 136.122 188.967 136.071 188.911C136.02 188.855 135.982 188.789 135.958 188.717C135.935 188.645 135.927 188.569 135.936 188.493C135.952 188.334 136.026 188.187 136.143 188.078C136.26 187.969 136.412 187.907 136.572 187.902H150.994C151.07 187.902 151.144 187.917 151.213 187.948C151.282 187.978 151.344 188.022 151.395 188.078C151.446 188.134 151.484 188.2 151.508 188.271C151.532 188.343 151.54 188.418 151.533 188.493C151.516 188.657 151.438 188.809 151.315 188.918C151.192 189.028 151.032 189.087 150.867 189.084Z" fill="white"/>
<path d="M178.276 189.084H154.652C154.577 189.086 154.501 189.071 154.432 189.041C154.362 189.011 154.3 188.967 154.249 188.911C154.198 188.855 154.159 188.789 154.136 188.717C154.113 188.645 154.105 188.568 154.114 188.493C154.13 188.333 154.205 188.185 154.323 188.076C154.442 187.967 154.596 187.905 154.757 187.902H178.373C178.449 187.901 178.524 187.915 178.593 187.945C178.663 187.975 178.725 188.02 178.776 188.076C178.827 188.131 178.866 188.198 178.889 188.27C178.913 188.342 178.92 188.418 178.912 188.493C178.897 188.653 178.824 188.801 178.707 188.91C178.589 189.019 178.436 189.081 178.276 189.084Z" fill="white"/>
<path d="M174.461 194.276H136.019C135.943 194.278 135.868 194.265 135.799 194.236C135.729 194.207 135.667 194.163 135.615 194.108C135.564 194.052 135.526 193.986 135.502 193.915C135.479 193.843 135.471 193.767 135.48 193.692C135.496 193.532 135.571 193.384 135.69 193.275C135.808 193.166 135.962 193.104 136.123 193.101H174.566C174.641 193.101 174.716 193.116 174.785 193.147C174.854 193.177 174.916 193.221 174.966 193.277C175.017 193.333 175.056 193.398 175.079 193.47C175.103 193.542 175.112 193.617 175.104 193.692C175.086 193.851 175.011 193.998 174.893 194.105C174.774 194.212 174.621 194.273 174.461 194.276Z" fill="white"/>
<path d="M180.789 194.276H178.253C178.178 194.278 178.103 194.265 178.034 194.236C177.964 194.207 177.901 194.163 177.85 194.108C177.799 194.052 177.761 193.986 177.737 193.915C177.714 193.843 177.706 193.767 177.715 193.692C177.73 193.533 177.803 193.384 177.92 193.275C178.037 193.166 178.191 193.104 178.351 193.101H180.894C180.97 193.1 181.044 193.114 181.114 193.144C181.183 193.174 181.245 193.219 181.295 193.275C181.346 193.331 181.384 193.397 181.406 193.469C181.428 193.541 181.435 193.617 181.425 193.692C181.409 193.85 181.335 193.997 181.218 194.105C181.101 194.212 180.948 194.273 180.789 194.276Z" fill="white"/>
<path d="M153.508 199.475H135.555C135.479 199.475 135.405 199.46 135.336 199.429C135.267 199.399 135.205 199.355 135.154 199.299C135.103 199.243 135.065 199.177 135.041 199.106C135.017 199.034 135.009 198.959 135.016 198.884C135.033 198.724 135.107 198.575 135.226 198.466C135.344 198.357 135.499 198.296 135.66 198.293H153.613C153.688 198.291 153.764 198.306 153.833 198.336C153.903 198.366 153.965 198.41 154.016 198.466C154.067 198.522 154.106 198.588 154.129 198.66C154.152 198.732 154.16 198.808 154.151 198.884C154.135 199.044 154.06 199.192 153.942 199.301C153.823 199.41 153.669 199.472 153.508 199.475Z" fill="white"/>
<path d="M179.622 199.475H157.271C157.195 199.475 157.121 199.46 157.052 199.429C156.983 199.399 156.921 199.355 156.87 199.299C156.819 199.243 156.781 199.177 156.757 199.106C156.733 199.034 156.725 198.959 156.732 198.884C156.748 198.724 156.823 198.575 156.942 198.466C157.06 198.357 157.214 198.296 157.375 198.293H179.72C179.795 198.291 179.871 198.306 179.94 198.336C180.01 198.366 180.072 198.41 180.123 198.466C180.174 198.522 180.213 198.588 180.236 198.66C180.259 198.732 180.267 198.808 180.258 198.884C180.242 199.043 180.169 199.19 180.052 199.299C179.935 199.408 179.782 199.47 179.622 199.475Z" fill="white"/>
<path d="M157.211 204.666H135.106C135.03 204.668 134.955 204.653 134.886 204.623C134.817 204.593 134.755 204.549 134.704 204.493C134.654 204.437 134.616 204.37 134.594 204.298C134.572 204.226 134.565 204.15 134.575 204.075C134.591 203.917 134.665 203.77 134.782 203.663C134.899 203.555 135.052 203.495 135.211 203.492H157.308C157.383 203.489 157.458 203.503 157.528 203.532C157.598 203.561 157.66 203.604 157.711 203.66C157.762 203.715 157.801 203.781 157.824 203.853C157.848 203.924 157.855 204 157.847 204.075C157.832 204.235 157.759 204.383 157.642 204.492C157.524 204.601 157.371 204.663 157.211 204.666Z" fill="white"/>
<path d="M178.77 204.666H160.966C160.891 204.668 160.816 204.653 160.747 204.623C160.677 204.593 160.615 204.549 160.565 204.493C160.514 204.437 160.477 204.37 160.454 204.298C160.432 204.226 160.425 204.15 160.435 204.075C160.451 203.917 160.525 203.77 160.642 203.663C160.759 203.555 160.912 203.495 161.071 203.492H178.874C178.95 203.489 179.025 203.503 179.094 203.532C179.164 203.561 179.227 203.604 179.278 203.66C179.329 203.715 179.367 203.781 179.391 203.853C179.414 203.924 179.422 204 179.413 204.075C179.397 204.235 179.322 204.384 179.204 204.493C179.085 204.602 178.931 204.663 178.77 204.666Z" fill="white"/>
<path d="M211.564 121.303C211.499 121.378 211.42 121.439 211.331 121.483C211.242 121.527 211.146 121.553 211.047 121.559C210.948 121.565 210.849 121.552 210.755 121.519C210.662 121.487 210.576 121.437 210.502 121.371L179.884 92.1518C179.745 92.0116 179.667 91.822 179.667 91.6244C179.667 91.4268 179.745 91.2372 179.884 91.097C179.949 91.0223 180.028 90.9613 180.117 90.9174C180.206 90.8735 180.302 90.8477 180.401 90.8415C180.5 90.8352 180.599 90.8486 180.693 90.8809C180.786 90.9132 180.872 90.9638 180.946 91.0297L211.564 120.249C211.703 120.389 211.782 120.578 211.782 120.776C211.782 120.974 211.703 121.163 211.564 121.303Z" fill="#407BFF"/>
<path d="M177.176 121.296C177.115 121.216 177.071 121.125 177.046 121.028C177.021 120.932 177.015 120.831 177.03 120.731C177.045 120.632 177.079 120.537 177.131 120.452C177.183 120.366 177.252 120.292 177.333 120.234L192.953 107.464C193.101 107.336 193.294 107.271 193.49 107.284C193.686 107.296 193.869 107.385 194 107.532C194.06 107.611 194.103 107.701 194.127 107.798C194.152 107.894 194.157 107.994 194.142 108.092C194.128 108.19 194.094 108.284 194.042 108.369C193.991 108.454 193.923 108.528 193.843 108.586L178.223 121.363C178.075 121.492 177.882 121.557 177.686 121.544C177.49 121.531 177.307 121.442 177.176 121.296Z" fill="#407BFF"/>
<path d="M197.359 104.786C197.299 104.707 197.256 104.617 197.231 104.52C197.207 104.424 197.202 104.324 197.216 104.226C197.231 104.128 197.265 104.034 197.316 103.949C197.368 103.864 197.435 103.79 197.516 103.732L213.165 90.9399C213.313 90.8114 213.506 90.7465 213.702 90.7591C213.898 90.7717 214.081 90.8608 214.212 91.0072C214.272 91.0865 214.315 91.1769 214.34 91.2731C214.364 91.3692 214.369 91.4693 214.355 91.5675C214.34 91.6657 214.306 91.76 214.254 91.8448C214.203 91.9297 214.135 92.0035 214.055 92.062L198.406 104.854C198.257 104.982 198.064 105.047 197.868 105.034C197.672 105.022 197.489 104.933 197.359 104.786Z" fill="#407BFF"/>
<g opacity="0.7">
<path opacity="0.7" d="M211.564 121.303C211.499 121.378 211.42 121.439 211.331 121.483C211.242 121.527 211.146 121.553 211.047 121.559C210.948 121.565 210.849 121.552 210.755 121.519C210.662 121.487 210.576 121.437 210.502 121.371L179.884 92.1518C179.745 92.0116 179.667 91.822 179.667 91.6244C179.667 91.4268 179.745 91.2372 179.884 91.097C179.949 91.0223 180.028 90.9613 180.117 90.9174C180.206 90.8735 180.302 90.8477 180.401 90.8415C180.5 90.8352 180.599 90.8486 180.693 90.8809C180.786 90.9132 180.872 90.9638 180.946 91.0297L211.564 120.249C211.703 120.389 211.782 120.578 211.782 120.776C211.782 120.974 211.703 121.163 211.564 121.303Z" fill="white"/>
</g>
<g opacity="0.7">
<path opacity="0.7" d="M177.176 121.296C177.115 121.216 177.071 121.125 177.046 121.028C177.021 120.932 177.015 120.831 177.03 120.731C177.045 120.632 177.079 120.537 177.131 120.452C177.183 120.366 177.252 120.292 177.333 120.234L192.953 107.464C193.101 107.336 193.294 107.271 193.49 107.284C193.686 107.296 193.869 107.385 194 107.532C194.06 107.611 194.103 107.701 194.127 107.798C194.152 107.894 194.157 107.994 194.142 108.092C194.128 108.19 194.094 108.284 194.042 108.369C193.991 108.454 193.923 108.528 193.843 108.586L178.223 121.363C178.075 121.492 177.882 121.557 177.686 121.544C177.49 121.531 177.307 121.442 177.176 121.296Z" fill="white"/>
</g>
<g opacity="0.7">
<path opacity="0.7" d="M197.359 104.786C197.299 104.707 197.256 104.617 197.231 104.52C197.207 104.424 197.202 104.324 197.216 104.226C197.231 104.128 197.265 104.034 197.316 103.949C197.368 103.864 197.435 103.79 197.516 103.732L213.165 90.9399C213.313 90.8114 213.506 90.7465 213.702 90.7591C213.898 90.7717 214.081 90.8608 214.212 91.0072C214.272 91.0865 214.315 91.1769 214.34 91.2731C214.364 91.3692 214.369 91.4693 214.355 91.5675C214.34 91.6657 214.306 91.76 214.254 91.8448C214.203 91.9297 214.135 92.0035 214.055 92.062L198.406 104.854C198.257 104.982 198.064 105.047 197.868 105.034C197.672 105.022 197.489 104.933 197.359 104.786Z" fill="white"/>
</g>
<path d="M124.491 44.8225H114.766C113.824 44.8265 112.922 45.2034 112.258 45.8707C111.593 46.5381 111.22 47.4415 111.22 48.3833V58.1079C111.22 59.0523 111.595 59.958 112.263 60.6257C112.931 61.2935 113.837 61.6687 114.781 61.6687H124.506C125.45 61.6687 126.356 61.2935 127.023 60.6257C127.691 59.958 128.066 59.0523 128.066 58.1079V48.3833C128.066 47.9144 127.974 47.4502 127.794 47.0172C127.614 46.5842 127.35 46.191 127.018 45.8602C126.686 45.5293 126.292 45.2673 125.858 45.0893C125.424 44.9112 124.96 44.8206 124.491 44.8225ZM119.651 48.2636C121.109 48.2636 121.895 49.453 121.895 50.9117C121.895 52.3704 121.109 53.5598 119.651 53.5598C118.192 53.5598 117.407 52.3779 117.407 50.9117C117.407 49.4455 118.185 48.2636 119.651 48.2636ZM125.493 58.1902H113.801C113.754 58.1903 113.707 58.1811 113.663 58.1632C113.62 58.1452 113.58 58.1188 113.547 58.0855L114.295 56.0433C114.528 55.3993 114.954 54.8427 115.515 54.4493C116.076 54.0558 116.744 53.8445 117.429 53.844H121.85C122.536 53.844 123.206 54.0551 123.768 54.4485C124.33 54.8419 124.757 55.3987 124.992 56.0433L125.74 58.0855C125.708 58.1186 125.669 58.1449 125.627 58.1629C125.585 58.1809 125.539 58.1902 125.493 58.1902Z" fill="#407BFF"/>
<path opacity="0.7" d="M124.491 44.8225H114.766C113.824 44.8265 112.922 45.2034 112.258 45.8707C111.593 46.5381 111.22 47.4415 111.22 48.3833V58.1079C111.22 59.0523 111.595 59.958 112.263 60.6257C112.931 61.2935 113.837 61.6687 114.781 61.6687H124.506C125.45 61.6687 126.356 61.2935 127.023 60.6257C127.691 59.958 128.066 59.0523 128.066 58.1079V48.3833C128.066 47.9144 127.974 47.4502 127.794 47.0172C127.614 46.5842 127.35 46.191 127.018 45.8602C126.686 45.5293 126.292 45.2673 125.858 45.0893C125.424 44.9112 124.96 44.8206 124.491 44.8225ZM119.651 48.2636C121.109 48.2636 121.895 49.453 121.895 50.9117C121.895 52.3704 121.109 53.5598 119.651 53.5598C118.192 53.5598 117.407 52.3779 117.407 50.9117C117.407 49.4455 118.185 48.2636 119.651 48.2636ZM125.493 58.1902H113.801C113.754 58.1903 113.707 58.1811 113.663 58.1632C113.62 58.1452 113.58 58.1188 113.547 58.0855L114.295 56.0433C114.528 55.3993 114.954 54.8427 115.515 54.4493C116.076 54.0558 116.744 53.8445 117.429 53.844H121.85C122.536 53.844 123.206 54.0551 123.768 54.4485C124.33 54.8419 124.757 55.3987 124.992 56.0433L125.74 58.0855C125.708 58.1186 125.669 58.1449 125.627 58.1629C125.585 58.1809 125.539 58.1902 125.493 58.1902Z" fill="white"/>
<path d="M90.0206 84.6787H82.6598C82.0304 84.6777 81.4071 84.8008 80.8253 85.041C80.2436 85.2812 79.715 85.6336 79.2696 86.0783C78.8243 86.523 78.4709 87.0511 78.2299 87.6324C77.9888 88.2137 77.8647 88.8369 77.8647 89.4662V96.8271C77.8647 98.0988 78.3699 99.3184 79.2692 100.218C80.1684 101.117 81.388 101.622 82.6598 101.622H90.0206C90.6499 101.622 91.2731 101.498 91.8544 101.257C92.4357 101.016 92.9639 100.663 93.4085 100.217C93.8532 99.7718 94.2057 99.2432 94.4458 98.6615C94.686 98.0798 94.8091 97.4564 94.8081 96.8271V89.4662C94.8091 88.8373 94.6859 88.2143 94.4457 87.633C94.2054 87.0517 93.8528 86.5235 93.4081 86.0788C92.9633 85.634 92.4351 85.2814 91.8538 85.0411C91.2726 84.8009 90.6496 84.6777 90.0206 84.6787ZM86.3402 97.1637C86.3402 97.1637 83.348 93.8797 83.348 92.2041C83.348 91.4016 83.6668 90.632 84.2342 90.0645C84.8017 89.497 85.5713 89.1782 86.3738 89.1782C87.1763 89.1782 87.946 89.497 88.5134 90.0645C89.0809 90.632 89.3997 91.4016 89.3997 92.2041C89.3623 93.8797 86.3402 97.1637 86.3402 97.1637Z" fill="#407BFF"/>
<path d="M86.3401 90.8277C86.0657 90.8262 85.7972 90.9063 85.5684 91.0578C85.3397 91.2093 85.1612 91.4254 85.0555 91.6786C84.9498 91.9317 84.9218 92.2106 84.975 92.4798C85.0281 92.7489 85.1601 92.9962 85.3541 93.1902C85.5481 93.3841 85.7953 93.5161 86.0645 93.5693C86.3336 93.6224 86.6125 93.5944 86.8657 93.4887C87.1188 93.383 87.3349 93.2045 87.4864 92.9758C87.6379 92.7471 87.718 92.4785 87.7165 92.2041C87.7165 91.8391 87.5715 91.489 87.3134 91.2309C87.0552 90.9727 86.7051 90.8277 86.3401 90.8277Z" fill="#407BFF"/>
<g opacity="0.7">
<path opacity="0.7" d="M90.0206 84.6787H82.6598C82.0304 84.6777 81.4071 84.8008 80.8253 85.041C80.2436 85.2812 79.715 85.6336 79.2696 86.0783C78.8243 86.523 78.4709 87.0511 78.2299 87.6324C77.9888 88.2137 77.8647 88.8369 77.8647 89.4662V96.8271C77.8647 98.0988 78.3699 99.3184 79.2692 100.218C80.1684 101.117 81.388 101.622 82.6598 101.622H90.0206C90.6499 101.622 91.2731 101.498 91.8544 101.257C92.4357 101.016 92.9639 100.663 93.4085 100.217C93.8532 99.7718 94.2057 99.2432 94.4458 98.6615C94.686 98.0798 94.8091 97.4564 94.8081 96.8271V89.4662C94.8091 88.8373 94.6859 88.2143 94.4457 87.633C94.2054 87.0517 93.8528 86.5235 93.4081 86.0788C92.9633 85.634 92.4351 85.2814 91.8538 85.0411C91.2726 84.8009 90.6496 84.6777 90.0206 84.6787ZM86.3402 97.1637C86.3402 97.1637 83.348 93.8797 83.348 92.2041C83.348 91.4016 83.6668 90.632 84.2342 90.0645C84.8017 89.497 85.5713 89.1782 86.3738 89.1782C87.1763 89.1782 87.946 89.497 88.5134 90.0645C89.0809 90.632 89.3997 91.4016 89.3997 92.2041C89.3623 93.8797 86.3402 97.1637 86.3402 97.1637Z" fill="white"/>
<path opacity="0.7" d="M86.3401 90.8277C86.0657 90.8262 85.7972 90.9063 85.5684 91.0578C85.3397 91.2093 85.1612 91.4254 85.0555 91.6786C84.9498 91.9317 84.9218 92.2106 84.975 92.4798C85.0281 92.7489 85.1601 92.9962 85.3541 93.1902C85.5481 93.3841 85.7953 93.5161 86.0645 93.5693C86.3336 93.6224 86.6125 93.5944 86.8657 93.4887C87.1188 93.383 87.3349 93.2045 87.4864 92.9758C87.6379 92.7471 87.718 92.4785 87.7165 92.2041C87.7165 91.8391 87.5715 91.489 87.3134 91.2309C87.0552 90.9727 86.7051 90.8277 86.3401 90.8277Z" fill="white"/>
</g>
<path d="M251.63 63.8156L256.559 60.6289L251.63 57.4347V63.8156Z" fill="#407BFF"/>
<path d="M257.981 51.929H248.585C247.524 51.929 246.506 52.3507 245.755 53.1012C245.005 53.8517 244.583 54.8697 244.583 55.9311V65.3266C244.585 66.3874 245.007 67.4042 245.757 68.1543C246.507 68.9044 247.524 69.3267 248.585 69.3287H257.981C259.042 69.3287 260.06 68.907 260.81 68.1565C261.561 67.406 261.983 66.388 261.983 65.3266V55.9311C261.984 55.4053 261.881 54.8844 261.68 54.3984C261.479 53.9124 261.185 53.4708 260.813 53.099C260.441 52.7272 259.999 52.4324 259.513 52.2317C259.027 52.0309 258.506 51.928 257.981 51.929ZM253.283 66.89C252.044 66.89 250.833 66.5226 249.804 65.8343C248.774 65.146 247.971 64.1677 247.498 63.0232C247.024 61.8787 246.9 60.6194 247.143 59.4046C247.385 58.1899 247.982 57.0742 248.858 56.1989C249.735 55.3235 250.851 54.7278 252.066 54.4871C253.281 54.2463 254.54 54.3714 255.684 54.8464C256.828 55.3215 257.805 56.1251 258.492 57.1558C259.18 58.1864 259.546 59.3977 259.544 60.6363C259.543 61.4576 259.38 62.2706 259.065 63.029C258.75 63.7873 258.288 64.4762 257.707 65.0562C257.126 65.6362 256.436 66.096 255.677 66.4094C254.917 66.7228 254.104 66.8835 253.283 66.8826V66.89Z" fill="#407BFF"/>
<g opacity="0.7">
<path opacity="0.7" d="M251.63 63.8155L256.559 60.6288L251.63 57.4346V63.8155Z" fill="white"/>
<path opacity="0.7" d="M257.981 51.929H248.585C247.524 51.929 246.506 52.3507 245.755 53.1012C245.005 53.8517 244.583 54.8697 244.583 55.9311V65.3266C244.585 66.3874 245.007 67.4042 245.757 68.1543C246.507 68.9044 247.524 69.3267 248.585 69.3287H257.981C259.042 69.3287 260.06 68.907 260.81 68.1565C261.561 67.406 261.983 66.388 261.983 65.3266V55.9311C261.984 55.4053 261.881 54.8844 261.68 54.3984C261.479 53.9124 261.185 53.4708 260.813 53.099C260.441 52.7272 259.999 52.4324 259.513 52.2317C259.027 52.0309 258.506 51.928 257.981 51.929ZM253.283 66.89C252.044 66.89 250.833 66.5226 249.804 65.8343C248.774 65.146 247.971 64.1677 247.498 63.0232C247.024 61.8787 246.9 60.6194 247.143 59.4046C247.385 58.1899 247.982 57.0742 248.858 56.1989C249.735 55.3235 250.851 54.7278 252.066 54.4871C253.281 54.2463 254.54 54.3714 255.684 54.8464C256.828 55.3215 257.805 56.1251 258.492 57.1558C259.18 58.1864 259.546 59.3977 259.544 60.6363C259.543 61.4576 259.38 62.2706 259.065 63.029C258.75 63.7873 258.288 64.4762 257.707 65.0562C257.126 65.6362 256.436 66.096 255.677 66.4094C254.917 66.7228 254.104 66.8835 253.283 66.8826V66.89Z" fill="white"/>
</g>
<path d="M267.204 87.9626C267.204 87.7681 267.204 87.5736 267.204 87.3866L268.334 86.7582C268.251 86.2234 268.111 85.6991 267.915 85.1948H266.628C266.465 84.8436 266.269 84.5081 266.045 84.1924L266.71 83.0928C266.369 82.6707 265.986 82.2846 265.566 81.9408L264.459 82.6066C264.145 82.386 263.812 82.1933 263.464 82.0305V80.7364C262.958 80.5452 262.434 80.4049 261.9 80.3175L261.272 81.4471C261.085 81.4471 260.891 81.4471 260.696 81.4471C260.502 81.4471 260.315 81.4471 260.12 81.4471L259.492 80.3175C258.958 80.4068 258.435 80.5471 257.928 80.7364V82.0305C257.58 82.1916 257.247 82.3844 256.933 82.6066L255.826 81.9408C255.402 82.2825 255.016 82.6687 254.674 83.0928L255.34 84.1924C255.121 84.51 254.928 84.8453 254.764 85.1948H253.477C253.282 85.7 253.139 86.2239 253.051 86.7582L254.181 87.3866C254.181 87.5736 254.181 87.7681 254.181 87.9626C254.181 88.1571 254.181 88.3516 254.181 88.5386L253.051 89.1669C253.138 89.7015 253.281 90.2255 253.477 90.7304H254.764C254.928 91.0799 255.121 91.4152 255.34 91.7328L254.674 92.8399C255.018 93.2598 255.404 93.6433 255.826 93.9844L256.933 93.3186C257.245 93.5435 257.578 93.7364 257.928 93.8946V95.1888C258.434 95.3816 258.958 95.5219 259.492 95.6077L260.12 94.4781C260.315 94.4781 260.502 94.4781 260.696 94.4781C260.891 94.4781 261.085 94.4781 261.272 94.4781L261.9 95.6077C262.435 95.5239 262.959 95.3834 263.464 95.1888V93.8946C263.813 93.7348 264.146 93.5419 264.459 93.3186L265.566 93.9844C265.984 93.6412 266.367 93.2579 266.71 92.8399L266.045 91.7328C266.269 91.4171 266.465 91.0816 266.628 90.7304H267.915C268.112 90.2264 268.252 89.702 268.334 89.1669L267.204 88.5386C267.189 88.3291 267.204 88.1571 267.204 87.9626ZM260.681 92.391C259.805 92.391 258.949 92.1313 258.221 91.6447C257.493 91.1581 256.925 90.4665 256.59 89.6573C256.255 88.8481 256.167 87.9577 256.338 87.0986C256.509 86.2396 256.93 85.4505 257.55 84.8312C258.169 84.2119 258.958 83.7901 259.817 83.6192C260.676 83.4483 261.567 83.536 262.376 83.8712C263.185 84.2064 263.877 84.774 264.363 85.5023C264.85 86.2305 265.11 87.0867 265.11 87.9626C265.11 89.1371 264.643 90.2635 263.813 91.094C262.982 91.9245 261.856 92.391 260.681 92.391Z" fill="#407BFF"/>
<path opacity="0.7" d="M267.204 87.9626C267.204 87.7681 267.204 87.5736 267.204 87.3866L268.334 86.7582C268.251 86.2234 268.111 85.6991 267.915 85.1948H266.628C266.465 84.8436 266.269 84.5081 266.045 84.1924L266.71 83.0928C266.369 82.6707 265.986 82.2846 265.566 81.9408L264.459 82.6066C264.145 82.386 263.812 82.1933 263.464 82.0305V80.7364C262.958 80.5452 262.434 80.4049 261.9 80.3175L261.272 81.4471C261.085 81.4471 260.891 81.4471 260.696 81.4471C260.502 81.4471 260.315 81.4471 260.12 81.4471L259.492 80.3175C258.958 80.4068 258.435 80.5471 257.928 80.7364V82.0305C257.58 82.1916 257.247 82.3844 256.933 82.6066L255.826 81.9408C255.402 82.2825 255.016 82.6687 254.674 83.0928L255.34 84.1924C255.121 84.51 254.928 84.8453 254.764 85.1948H253.477C253.282 85.7 253.139 86.2239 253.051 86.7582L254.181 87.3866C254.181 87.5736 254.181 87.7681 254.181 87.9626C254.181 88.1571 254.181 88.3516 254.181 88.5386L253.051 89.1669C253.138 89.7015 253.281 90.2255 253.477 90.7304H254.764C254.928 91.0799 255.121 91.4152 255.34 91.7328L254.674 92.8399C255.018 93.2598 255.404 93.6433 255.826 93.9844L256.933 93.3186C257.245 93.5435 257.578 93.7364 257.928 93.8946V95.1888C258.434 95.3816 258.958 95.5219 259.492 95.6077L260.12 94.4781C260.315 94.4781 260.502 94.4781 260.696 94.4781C260.891 94.4781 261.085 94.4781 261.272 94.4781L261.9 95.6077C262.435 95.5239 262.959 95.3834 263.464 95.1888V93.8946C263.813 93.7348 264.146 93.5419 264.459 93.3186L265.566 93.9844C265.984 93.6412 266.367 93.2579 266.71 92.8399L266.045 91.7328C266.269 91.4171 266.465 91.0816 266.628 90.7304H267.915C268.112 90.2264 268.252 89.702 268.334 89.1669L267.204 88.5386C267.189 88.3291 267.204 88.1571 267.204 87.9626ZM260.681 92.391C259.805 92.391 258.949 92.1313 258.221 91.6447C257.493 91.1581 256.925 90.4665 256.59 89.6573C256.255 88.8481 256.167 87.9577 256.338 87.0986C256.509 86.2396 256.93 85.4505 257.55 84.8312C258.169 84.2119 258.958 83.7901 259.817 83.6192C260.676 83.4483 261.567 83.536 262.376 83.8712C263.185 84.2064 263.877 84.774 264.363 85.5023C264.85 86.2305 265.11 87.0867 265.11 87.9626C265.11 89.1371 264.643 90.2635 263.813 91.094C262.982 91.9245 261.856 92.391 260.681 92.391Z" fill="white"/>
<path d="M250.156 110.202C250.156 109.91 250.156 109.626 250.119 109.342L251.809 108.407C251.682 107.604 251.471 106.817 251.181 106.058L249.251 106.095C249.007 105.572 248.717 105.071 248.383 104.599L249.378 102.946C248.868 102.317 248.294 101.743 247.665 101.233L246.012 102.22C245.538 101.892 245.038 101.604 244.516 101.36V99.4302C243.76 99.1387 242.975 98.9281 242.174 98.8018L241.239 100.492C240.955 100.492 240.671 100.492 240.379 100.492C240.087 100.492 239.803 100.492 239.519 100.492L238.606 98.8018C237.806 98.9299 237.021 99.1405 236.265 99.4302V101.36C235.742 101.604 235.242 101.892 234.769 102.22L233.153 101.233C232.521 101.742 231.944 102.317 231.432 102.946L232.427 104.599C232.096 105.071 231.808 105.572 231.567 106.095L229.637 106.058C229.343 106.816 229.132 107.603 229.009 108.407L230.699 109.342C230.639 109.914 230.639 110.49 230.699 111.062L229.009 112.005C229.133 112.806 229.344 113.591 229.637 114.346L231.567 114.309C231.806 114.833 232.094 115.334 232.427 115.805L231.432 117.458C231.944 118.088 232.521 118.662 233.153 119.171L234.806 118.184C235.278 118.515 235.778 118.803 236.302 119.044V120.974C237.058 121.267 237.843 121.478 238.643 121.602L239.586 119.912C240.158 119.972 240.735 119.972 241.307 119.912L242.242 121.602C243.043 121.48 243.828 121.269 244.583 120.974V119.044C245.107 118.803 245.607 118.515 246.079 118.184L247.732 119.171C248.362 118.662 248.936 118.088 249.445 117.458L248.45 115.805C248.786 115.334 249.076 114.834 249.318 114.309L251.248 114.346C251.538 113.59 251.748 112.805 251.876 112.005L250.186 111.062C250.141 110.771 250.156 110.494 250.156 110.202ZM240.431 114.047C239.671 114.047 238.927 113.822 238.295 113.399C237.663 112.977 237.17 112.376 236.879 111.674C236.588 110.971 236.512 110.198 236.66 109.452C236.809 108.706 237.175 108.021 237.712 107.483C238.25 106.946 238.935 106.579 239.681 106.431C240.427 106.283 241.2 106.359 241.903 106.65C242.605 106.941 243.206 107.434 243.628 108.066C244.051 108.698 244.276 109.442 244.276 110.202C244.276 110.709 244.176 111.211 243.981 111.679C243.787 112.147 243.502 112.572 243.142 112.929C242.783 113.286 242.356 113.569 241.887 113.761C241.418 113.953 240.916 114.05 240.409 114.047H240.431Z" fill="#407BFF"/>
<path opacity="0.7" d="M250.156 110.202C250.156 109.91 250.156 109.626 250.119 109.342L251.809 108.407C251.682 107.604 251.471 106.817 251.181 106.058L249.251 106.095C249.007 105.572 248.717 105.071 248.383 104.599L249.378 102.946C248.868 102.317 248.294 101.743 247.665 101.233L246.012 102.22C245.538 101.892 245.038 101.604 244.516 101.36V99.4302C243.76 99.1387 242.975 98.9281 242.174 98.8018L241.239 100.492C240.955 100.492 240.671 100.492 240.379 100.492C240.087 100.492 239.803 100.492 239.519 100.492L238.606 98.8018C237.806 98.9299 237.021 99.1405 236.265 99.4302V101.36C235.742 101.604 235.242 101.892 234.769 102.22L233.153 101.233C232.521 101.742 231.944 102.317 231.432 102.946L232.427 104.599C232.096 105.071 231.808 105.572 231.567 106.095L229.637 106.058C229.343 106.816 229.132 107.603 229.009 108.407L230.699 109.342C230.639 109.914 230.639 110.49 230.699 111.062L229.009 112.005C229.133 112.806 229.344 113.591 229.637 114.346L231.567 114.309C231.806 114.833 232.094 115.334 232.427 115.805L231.432 117.458C231.944 118.088 232.521 118.662 233.153 119.171L234.806 118.184C235.278 118.515 235.778 118.803 236.302 119.044V120.974C237.058 121.267 237.843 121.478 238.643 121.602L239.586 119.912C240.158 119.972 240.735 119.972 241.307 119.912L242.242 121.602C243.043 121.48 243.828 121.269 244.583 120.974V119.044C245.107 118.803 245.607 118.515 246.079 118.184L247.732 119.171C248.362 118.662 248.936 118.088 249.445 117.458L248.45 115.805C248.786 115.334 249.076 114.834 249.318 114.309L251.248 114.346C251.538 113.59 251.748 112.805 251.876 112.005L250.186 111.062C250.141 110.771 250.156 110.494 250.156 110.202ZM240.431 114.047C239.671 114.047 238.927 113.822 238.295 113.399C237.663 112.977 237.17 112.376 236.879 111.674C236.588 110.971 236.512 110.198 236.66 109.452C236.809 108.706 237.175 108.021 237.712 107.483C238.25 106.946 238.935 106.579 239.681 106.431C240.427 106.283 241.2 106.359 241.903 106.65C242.605 106.941 243.206 107.434 243.628 108.066C244.051 108.698 244.276 109.442 244.276 110.202C244.276 110.709 244.176 111.211 243.981 111.679C243.787 112.147 243.502 112.572 243.142 112.929C242.783 113.286 242.356 113.569 241.887 113.761C241.418 113.953 240.916 114.05 240.409 114.047H240.431Z" fill="white"/>
<path d="M222.68 66.8302V70.75L218.94 72.7174C218.794 72.7954 218.673 72.9114 218.588 73.053C218.503 73.1946 218.459 73.3566 218.459 73.5216C218.459 73.6866 218.503 73.8485 218.588 73.9901C218.673 74.1317 218.794 74.2477 218.94 74.3257L222.68 76.2931V80.2129C222.68 80.6315 222.846 81.033 223.142 81.329C223.438 81.625 223.84 81.7913 224.258 81.7913H237.641C238.06 81.7913 238.463 81.6252 238.76 81.3294C239.057 81.0336 239.225 80.6322 239.227 80.2129V66.8302C239.227 66.4097 239.06 66.0063 238.762 65.7089C238.465 65.4115 238.062 65.2444 237.641 65.2444H224.236C223.82 65.2503 223.423 65.4202 223.132 65.7172C222.84 66.0142 222.678 66.4142 222.68 66.8302Z" fill="#407BFF"/>
<g opacity="0.9">
<path opacity="0.9" d="M227.258 70.9146H234.866C235.114 70.9146 235.352 70.8161 235.527 70.6407C235.702 70.4654 235.801 70.2276 235.801 69.9796C235.801 69.7316 235.702 69.4937 235.527 69.3184C235.352 69.143 235.114 69.0445 234.866 69.0445H227.258C227.01 69.0445 226.772 69.143 226.597 69.3184C226.422 69.4937 226.323 69.7316 226.323 69.9796C226.323 70.2276 226.422 70.4654 226.597 70.6407C226.772 70.8161 227.01 70.9146 227.258 70.9146Z" fill="white"/>
<path opacity="0.9" d="M234.866 72.6201H227.258C227.01 72.6201 226.772 72.7186 226.597 72.894C226.422 73.0694 226.323 73.3072 226.323 73.5552C226.323 73.8032 226.422 74.041 226.597 74.2164C226.772 74.3917 227.01 74.4902 227.258 74.4902H234.866C235.114 74.4902 235.352 74.3917 235.527 74.2164C235.702 74.041 235.801 73.8032 235.801 73.5552C235.801 73.3072 235.702 73.0694 235.527 72.894C235.352 72.7186 235.114 72.6201 234.866 72.6201Z" fill="white"/>
<path opacity="0.9" d="M234.866 76.1285H227.258C227.01 76.1285 226.772 76.227 226.597 76.4024C226.422 76.5777 226.323 76.8155 226.323 77.0635C226.323 77.3115 226.422 77.5494 226.597 77.7247C226.772 77.9001 227.01 77.9986 227.258 77.9986H234.866C235.114 77.9986 235.352 77.9001 235.527 77.7247C235.702 77.5494 235.801 77.3115 235.801 77.0635C235.801 76.8155 235.702 76.5777 235.527 76.4024C235.352 76.227 235.114 76.1285 234.866 76.1285Z" fill="white"/>
</g>
<path d="M147.052 60.6514H150.246L151.892 63.7708C152 63.9741 152.162 64.1442 152.36 64.2628C152.557 64.3814 152.784 64.444 153.014 64.444C153.244 64.444 153.471 64.3814 153.668 64.2628C153.866 64.1442 154.028 63.9741 154.136 63.7708L155.782 60.6514H158.976C159.279 60.6514 159.579 60.5915 159.859 60.4753C160.139 60.359 160.394 60.1887 160.608 59.9739C160.822 59.7592 160.991 59.5043 161.107 59.2239C161.222 58.9435 161.281 58.6431 161.28 58.3399V46.4384C161.28 45.8274 161.037 45.2413 160.605 44.8092C160.173 44.3772 159.587 44.1344 158.976 44.1344H147.052C146.749 44.1334 146.449 44.1923 146.169 44.3078C145.889 44.4232 145.635 44.5929 145.421 44.807C145.207 45.0212 145.037 45.2756 144.921 45.5555C144.806 45.8355 144.747 46.1356 144.748 46.4384V58.4072C144.764 59.0079 145.013 59.5786 145.444 59.9978C145.874 60.4171 146.451 60.6516 147.052 60.6514Z" fill="#407BFF"/>
<path opacity="0.9" d="M153.022 47.7026L149.341 49.857V56.1556H152.079V51.9291H153.972V56.1556H156.71V49.857L153.022 47.7026Z" fill="white"/>
<path d="M182.884 231.798H180.041L178.208 228.312C178.117 228.143 177.982 228.002 177.818 227.904C177.653 227.806 177.465 227.754 177.273 227.754C177.082 227.754 176.893 227.806 176.729 227.904C176.564 228.002 176.429 228.143 176.338 228.312L174.505 231.798H171.588C170.892 231.798 170.224 232.075 169.731 232.567C169.239 233.059 168.962 233.727 168.962 234.424V245.719C168.962 246.416 169.239 247.083 169.731 247.576C170.224 248.068 170.892 248.345 171.588 248.345H182.884C183.58 248.345 184.248 248.068 184.74 247.576C185.233 247.083 185.509 246.416 185.509 245.719V234.424C185.509 233.727 185.233 233.059 184.74 232.567C184.248 232.075 183.58 231.798 182.884 231.798Z" fill="#407BFF"/>
<path opacity="0.9" d="M178.837 236.114C178.288 235.565 177.595 235.184 176.838 235.015C176.08 234.846 175.29 234.896 174.561 235.16C173.831 235.424 173.191 235.89 172.717 236.504C172.242 237.118 171.952 237.854 171.881 238.627C171.81 239.4 171.96 240.177 172.315 240.867C172.669 241.557 173.213 242.132 173.882 242.525C174.552 242.917 175.319 243.111 176.094 243.083C176.87 243.055 177.621 242.807 178.261 242.368C178.292 242.553 178.378 242.725 178.508 242.862L181.051 245.398C181.223 245.569 181.456 245.666 181.698 245.666C181.941 245.666 182.174 245.569 182.345 245.398C182.517 245.226 182.613 244.993 182.613 244.75C182.613 244.508 182.517 244.275 182.345 244.103L179.809 241.568C179.673 241.433 179.498 241.344 179.308 241.313C179.846 240.527 180.093 239.578 180.007 238.629C179.921 237.68 179.507 236.791 178.837 236.114ZM177.969 241.029C177.568 241.429 177.058 241.702 176.502 241.812C175.947 241.922 175.371 241.865 174.847 241.648C174.324 241.431 173.877 241.064 173.562 240.593C173.248 240.122 173.08 239.568 173.08 239.002C173.08 238.435 173.248 237.881 173.562 237.41C173.877 236.939 174.324 236.572 174.847 236.355C175.371 236.138 175.947 236.081 176.502 236.191C177.058 236.302 177.568 236.574 177.969 236.974C178.236 237.241 178.447 237.557 178.591 237.904C178.735 238.252 178.81 238.625 178.81 239.002C178.81 239.378 178.735 239.751 178.591 240.099C178.447 240.447 178.236 240.763 177.969 241.029Z" fill="white"/>
<path d="M303.686 156.574C303.686 156.574 297.59 171.685 291.62 173.315C285.651 174.946 276.659 173.622 276.659 173.622L273.876 174.37L271.146 173.966H271.049L267.974 173.891C267.863 173.901 267.752 173.878 267.654 173.826C267.555 173.774 267.474 173.695 267.419 173.598C267.364 173.502 267.337 173.391 267.343 173.28C267.349 173.169 267.386 173.062 267.451 172.971L268.55 171.475C268.643 171.352 268.771 171.261 268.917 171.213L271.849 170.271C271.965 170.245 272.085 170.245 272.201 170.271L276.689 170.981C276.689 170.981 289.144 168.939 290.416 167.787C291.687 166.635 295.435 154.554 295.435 154.554L303.686 156.574Z" fill="#EEC1BB"/>
<path opacity="0.1" d="M276.966 170.884L276.674 170.929L272.186 170.218C272.07 170.193 271.95 170.193 271.834 170.218L268.902 171.161C268.756 171.208 268.628 171.3 268.535 171.423L267.436 172.919C267.371 173.009 267.334 173.117 267.328 173.228C267.322 173.339 267.349 173.449 267.404 173.546C267.459 173.643 267.54 173.722 267.639 173.774C267.737 173.825 267.848 173.848 267.959 173.839L271.034 173.914H271.131L272.964 174.183C274.527 173.395 275.894 172.268 276.966 170.884Z" fill="black"/>
<path d="M307.367 141.605C302.938 140.154 296.707 143.483 294.321 157.427L303.514 160.142C303.514 160.142 313.695 143.685 307.367 141.605Z" fill="#407BFF"/>
<path d="M281.604 123.383C281.604 123.847 281.851 124.213 282.15 124.213C282.449 124.213 282.711 123.817 282.688 123.368C282.666 122.919 282.442 122.545 282.142 122.553C281.843 122.56 281.604 122.927 281.604 123.383Z" fill="#263238"/>
<path d="M283.414 123.839L281.237 127.437C281.237 127.437 281.985 128.29 283.624 127.662L283.414 123.839Z" fill="#D4827D"/>
<path d="M283.825 120.495C283.799 120.526 283.765 120.548 283.727 120.562C283.689 120.575 283.648 120.578 283.609 120.57C283.314 120.52 283.012 120.54 282.727 120.63C282.442 120.72 282.183 120.876 281.97 121.086C281.925 121.129 281.864 121.153 281.802 121.153C281.74 121.153 281.679 121.129 281.634 121.086C281.591 121.039 281.567 120.978 281.567 120.914C281.567 120.851 281.591 120.789 281.634 120.742C281.898 120.472 282.224 120.27 282.584 120.154C282.943 120.038 283.326 120.011 283.698 120.077C283.73 120.08 283.76 120.09 283.788 120.106C283.816 120.121 283.84 120.142 283.859 120.167C283.879 120.192 283.893 120.221 283.902 120.252C283.91 120.282 283.912 120.314 283.908 120.346C283.896 120.403 283.868 120.455 283.825 120.495Z" fill="#263238"/>
<path d="M299.205 120.121C299.542 126.203 299.819 128.776 297.133 132.232C292.847 135.935 285.546 136.526 283.392 130.669C281.454 125.433 281.23 116.359 286.855 113.224C287.809 112.693 288.859 112.354 289.944 112.229C291.029 112.103 292.128 112.192 293.179 112.492C294.229 112.791 295.21 113.295 296.066 113.974C296.922 114.653 297.635 115.494 298.166 116.448C298.788 117.577 299.144 118.834 299.205 120.121Z" fill="#EEC1BB"/>
<path d="M290.73 133.429L292.271 142.443L299.781 140.708L297.156 131.507L290.73 133.429Z" fill="#EEC1BB"/>
<path d="M285.322 120.57C285.703 116.62 284.342 121.184 282.516 115.97C280.691 110.756 289.316 106.522 290.693 107.494C292.069 108.467 291.284 109.955 295.847 110.801C297.091 110.998 298.222 111.643 299.026 112.613C299.83 113.584 300.253 114.815 300.215 116.074C300.215 116.074 302.841 117.286 301.906 122.927C301.22 126.541 299.681 129.939 297.418 132.838C297.418 132.838 295.69 131.058 292.929 132.696C291.852 131.993 290.941 131.064 290.259 129.973C289.032 128.133 288.65 126.383 286.967 126.233C283.451 125.911 285.194 121.872 285.322 120.57Z" fill="#263238"/>
<path d="M299.729 116.755C299.729 116.755 303.469 114.466 301.809 112.065C300.148 109.664 300.948 114.713 299.729 116.755Z" fill="#263238"/>
<path d="M286.391 122.867C285.562 123.794 285.134 125.013 285.202 126.255C285.307 127.901 286.922 128.193 288.194 127.295C289.466 126.398 290.67 124.647 289.937 123.203C289.774 122.888 289.535 122.619 289.242 122.421C288.948 122.222 288.609 122.101 288.256 122.067C287.903 122.034 287.547 122.089 287.222 122.229C286.896 122.369 286.61 122.588 286.391 122.867Z" fill="#FFC3BD"/>
<path opacity="0.1" d="M290.872 134.282L291.485 137.858C291.432 136.972 291.553 136.085 291.843 135.247C292.133 134.408 292.586 133.636 293.176 132.973C292.718 133.002 292.272 133.135 291.873 133.362C291.474 133.589 291.132 133.903 290.872 134.282Z" fill="black"/>
<path d="M238.067 157.531H235.92V170.196H238.067V157.531Z" fill="#407BFF"/>
<path opacity="0.7" d="M238.067 157.531H235.92V170.196H238.067V157.531Z" fill="white"/>
<path d="M223.316 132.382H217.967C217.005 132.382 216.082 132.764 215.402 133.445C214.721 134.125 214.339 135.048 214.339 136.01V160.793C214.339 161.269 214.433 161.741 214.615 162.181C214.798 162.621 215.065 163.021 215.402 163.358C215.739 163.695 216.139 163.962 216.579 164.145C217.019 164.327 217.491 164.421 217.967 164.421H223.316V132.382Z" fill="#407BFF"/>
<path d="M256.028 132.382H219.837C217.834 132.382 216.209 134.006 216.209 136.01V160.785C216.209 162.789 217.834 164.413 219.837 164.413H256.028C258.032 164.413 259.656 162.789 259.656 160.785V136.01C259.656 134.006 258.032 132.382 256.028 132.382Z" fill="#407BFF"/>
<path opacity="0.5" d="M256.028 132.382H219.837C217.834 132.382 216.209 134.006 216.209 136.01V160.785C216.209 162.789 217.834 164.413 219.837 164.413H256.028C258.032 164.413 259.656 162.789 259.656 160.785V136.01C259.656 134.006 258.032 132.382 256.028 132.382Z" fill="white"/>
<path d="M256.028 133.878H219.837C218.66 133.878 217.705 134.832 217.705 136.01V160.785C217.705 161.963 218.66 162.917 219.837 162.917H256.028C257.205 162.917 258.16 161.963 258.16 160.785V136.01C258.16 134.832 257.205 133.878 256.028 133.878Z" fill="#263238"/>
<path d="M229.18 175.507C229.243 173.477 230.094 171.551 231.552 170.137C233.011 168.723 234.962 167.932 236.994 167.932C239.025 167.932 240.977 168.723 242.435 170.137C243.894 171.551 244.744 173.477 244.807 175.507H229.18Z" fill="#407BFF"/>
<path d="M247.62 172.844H231.993V175.38H263.247V174.34L247.62 172.844Z" fill="#407BFF"/>
<path opacity="0.8" d="M247.62 172.844H231.993V175.38H263.247V174.34L247.62 172.844Z" fill="white"/>
<path d="M247.62 175.38H231.993V172.844L247.62 174.34V175.38Z" fill="#407BFF"/>
<path opacity="0.6" d="M247.62 175.38H231.993V172.844L247.62 174.34V175.38Z" fill="white"/>
<path d="M282.075 262.685H249.842C249.199 262.686 248.562 262.56 247.967 262.315C247.373 262.069 246.833 261.709 246.377 261.255C245.922 260.8 245.561 260.261 245.315 259.667C245.069 259.073 244.942 258.436 244.942 257.793V183.676C244.942 183.033 245.069 182.396 245.315 181.802C245.561 181.208 245.922 180.668 246.377 180.214C246.833 179.759 247.373 179.399 247.967 179.154C248.562 178.908 249.199 178.783 249.842 178.784H282.075C282.422 178.784 282.755 178.921 283.001 179.167C283.246 179.412 283.384 179.745 283.384 180.093C283.384 180.44 283.246 180.773 283.001 181.018C282.755 181.264 282.422 181.402 282.075 181.402H249.842C249.544 181.397 249.248 181.451 248.971 181.562C248.695 181.672 248.443 181.837 248.231 182.046C248.018 182.254 247.85 182.504 247.734 182.778C247.619 183.053 247.56 183.348 247.56 183.646V257.763C247.56 258.061 247.619 258.356 247.734 258.63C247.85 258.905 248.018 259.154 248.231 259.363C248.443 259.572 248.695 259.736 248.971 259.847C249.248 259.957 249.544 260.012 249.842 260.007H282.075C282.422 260.007 282.755 260.145 283.001 260.39C283.246 260.636 283.384 260.969 283.384 261.316C283.392 261.493 283.364 261.67 283.302 261.835C283.24 262.001 283.145 262.153 283.023 262.281C282.9 262.409 282.753 262.51 282.59 262.58C282.427 262.649 282.252 262.685 282.075 262.685Z" fill="#263238"/>
<g opacity="0.5">
<path opacity="0.5" d="M282.075 262.685H249.842C249.199 262.686 248.562 262.56 247.967 262.315C247.373 262.069 246.833 261.709 246.377 261.255C245.922 260.8 245.561 260.261 245.315 259.667C245.069 259.073 244.942 258.436 244.942 257.793V183.676C244.942 183.033 245.069 182.396 245.315 181.802C245.561 181.208 245.922 180.668 246.377 180.214C246.833 179.759 247.373 179.399 247.967 179.154C248.562 178.908 249.199 178.783 249.842 178.784H282.075C282.422 178.784 282.755 178.921 283.001 179.167C283.246 179.412 283.384 179.745 283.384 180.093C283.384 180.44 283.246 180.773 283.001 181.018C282.755 181.264 282.422 181.402 282.075 181.402H249.842C249.544 181.397 249.248 181.451 248.971 181.562C248.695 181.672 248.443 181.837 248.231 182.046C248.018 182.254 247.85 182.504 247.734 182.778C247.619 183.053 247.56 183.348 247.56 183.646V257.763C247.56 258.061 247.619 258.356 247.734 258.63C247.85 258.905 248.018 259.154 248.231 259.363C248.443 259.572 248.695 259.736 248.971 259.847C249.248 259.957 249.544 260.012 249.842 260.007H282.075C282.422 260.007 282.755 260.145 283.001 260.39C283.246 260.636 283.384 260.969 283.384 261.316C283.392 261.493 283.364 261.67 283.302 261.835C283.24 262.001 283.145 262.153 283.023 262.281C282.9 262.409 282.753 262.51 282.59 262.58C282.427 262.649 282.252 262.685 282.075 262.685Z" fill="white"/>
</g>
<path d="M249.714 175.38H203.941V179.217H249.714V175.38Z" fill="#407BFF"/>
<path opacity="0.2" d="M249.714 175.38H203.941V179.217H249.714V175.38Z" fill="white"/>
<path d="M286.661 175.38H247.62V179.217H286.661V175.38Z" fill="#407BFF"/>
<path opacity="0.5" d="M286.661 175.38H247.62V179.217H286.661V175.38Z" fill="white"/>
<path d="M272.971 235.493L275.133 257.351H269.957L264.773 236.062L272.971 235.493Z" fill="#EEC1BB"/>
<path d="M269.47 255.893L276.076 256.005C276.196 256.008 276.312 256.051 276.405 256.129C276.497 256.206 276.561 256.313 276.584 256.431L277.692 261.825C277.738 262.054 277.693 262.292 277.566 262.488C277.438 262.684 277.239 262.822 277.011 262.872H276.824C274.438 262.79 272.336 262.625 269.343 262.573C265.85 262.513 266.725 262.947 262.611 262.939C260.135 262.939 259.731 260.104 260.778 259.985C265.603 259.461 266.127 258.017 268.012 256.327C268.428 256.008 268.948 255.854 269.47 255.893Z" fill="#263238"/>
<path opacity="0.1" d="M274.572 251.644L272.971 235.493L264.773 236.062L268.565 251.644H274.572Z" fill="black"/>
<path d="M308.414 185.097L287.184 185.845C287.184 185.845 258.586 195.847 257.838 203.529C257.015 211.443 266.62 247.806 266.62 247.806H275.156C275.156 247.806 272.799 221.123 271.902 212.955C271.004 204.786 301.667 207.486 306.993 200.522C311.863 194.134 308.414 185.097 308.414 185.097Z" fill="#263238"/>
<path opacity="0.2" d="M308.414 185.097L287.184 185.845C287.184 185.845 258.586 195.847 257.838 203.529C257.015 211.443 266.62 247.806 266.62 247.806H275.156C275.156 247.806 272.799 221.123 271.902 212.955C271.004 204.786 301.667 207.486 306.993 200.522C311.863 194.134 308.414 185.097 308.414 185.097Z" fill="black"/>
<path d="M276.577 246.609L276.764 249.624H266.216L265.184 246.609H276.577Z" fill="#407BFF"/>
<path d="M253.215 236.533L253.784 257.351H248.697L245.682 236.533H253.215Z" fill="#EEC1BB"/>
<path d="M247.994 255.893L254.599 256.005C254.72 256.008 254.836 256.051 254.928 256.129C255.021 256.206 255.084 256.313 255.108 256.431L256.215 261.825C256.262 262.054 256.217 262.292 256.089 262.488C255.962 262.684 255.763 262.822 255.534 262.872H255.347C252.961 262.79 250.859 262.625 247.867 262.573C244.366 262.513 245.249 262.947 241.134 262.939C238.658 262.939 238.254 260.104 239.302 259.984C244.127 259.461 244.65 258.017 246.535 256.326C246.951 256.007 247.471 255.852 247.994 255.893Z" fill="#263238"/>
<path opacity="0.1" d="M253.627 251.629L253.215 236.533H245.682L247.874 251.644C249.512 251.651 251.764 251.636 253.627 251.629Z" fill="black"/>
<path d="M299.183 186.855C299.183 186.855 300.948 202.998 284.529 203.753C268.109 204.509 255.287 206.387 254.913 212.229C254.539 218.071 254.913 247.836 254.913 247.836H245.989C245.989 247.836 242.518 229.015 241.164 217.346C239.848 206.013 237.424 197.792 249.071 193.954C261.436 189.87 283.414 186.099 283.414 186.099L299.243 185.097L299.183 186.855Z" fill="#263238"/>
<path d="M256.23 246.609L255.669 249.624H245.869L244.837 246.609H256.23Z" fill="#407BFF"/>
<path d="M302.721 140.543C302.721 140.543 302.721 136.908 295.368 137.327C287.558 137.775 289.032 141.261 289.032 141.261L302.721 140.543Z" fill="#407BFF"/>
<path opacity="0.3" d="M302.721 140.543C302.721 140.543 302.721 136.908 295.368 137.327C287.558 137.775 289.032 141.261 289.032 141.261L302.721 140.543Z" fill="black"/>
<path d="M309.574 156.851C309.08 164.039 309.252 185.666 309.252 185.666C309.252 185.666 293.543 186.698 281.215 186.294L279.786 144.695C279.792 143.959 280.019 143.243 280.438 142.638C280.857 142.034 281.448 141.569 282.135 141.306C285.621 139.952 293.805 138.419 306.604 140.102C311.017 140.693 310.157 148.353 309.574 156.851Z" fill="#407BFF"/>
<path d="M282.307 156.574C282.307 156.574 276.203 171.685 270.241 173.315C264.279 174.946 255.28 173.622 255.28 173.622L252.497 174.37L249.774 173.966H249.677L246.595 173.891C246.484 173.901 246.373 173.878 246.275 173.826C246.176 173.774 246.095 173.695 246.04 173.598C245.984 173.502 245.958 173.391 245.964 173.28C245.97 173.169 246.007 173.062 246.071 172.971L247.179 171.475C247.271 171.352 247.399 171.261 247.545 171.213L250.47 170.271C250.588 170.245 250.711 170.245 250.829 170.271L255.317 170.981C255.317 170.981 267.772 168.939 269.037 167.787C270.301 166.635 274.064 154.554 274.064 154.554L282.307 156.574Z" fill="#EEC1BB"/>
<path opacity="0.1" d="M282.15 149.542C282.15 149.542 281.2 150.672 280.048 152.302L280.459 164.346C285.045 162.319 286.863 150.515 286.863 150.515L283.87 148.405L282.15 149.542Z" fill="black"/>
<path d="M285.987 141.605C281.559 140.154 275.32 143.483 272.934 157.427L282.135 160.112C282.135 160.112 292.316 143.685 285.987 141.605Z" fill="#407BFF"/>
<path d="M291.845 211.586H284.925V231.865H291.845V211.586Z" fill="#263238"/>
<path opacity="0.6" d="M291.845 211.586H284.925V231.865H291.845V211.586Z" fill="white"/>
<path d="M292.914 250.237V224.474H283.848V250.237L263.209 253.102V255.967L288.381 253.821L313.553 255.967V253.102L292.914 250.237Z" fill="#263238"/>
<path d="M262.91 262.992C264.418 262.992 265.64 261.769 265.64 260.261C265.64 258.753 264.418 257.531 262.91 257.531C261.402 257.531 260.18 258.753 260.18 260.261C260.18 261.769 261.402 262.992 262.91 262.992Z" fill="#407BFF"/>
<path d="M313.553 262.992C315.061 262.992 316.284 261.769 316.284 260.261C316.284 258.753 315.061 257.531 313.553 257.531C312.045 257.531 310.823 258.753 310.823 260.261C310.823 261.769 312.045 262.992 313.553 262.992Z" fill="#407BFF"/>
<path d="M288.381 262.992C289.889 262.992 291.112 261.769 291.112 260.261C291.112 258.753 289.889 257.531 288.381 257.531C286.873 257.531 285.651 258.753 285.651 260.261C285.651 261.769 286.873 262.992 288.381 262.992Z" fill="#407BFF"/>
<path opacity="0.3" d="M291.845 211.586H284.925V216.598H291.845V211.586Z" fill="black"/>
<path d="M315.737 165.618H293.191C291.419 165.619 289.711 166.282 288.401 167.476C287.09 168.669 286.273 170.309 286.107 172.074L284.207 192.443C283.996 194.688 282.984 196.782 281.357 198.342C279.729 199.903 277.594 200.825 275.343 200.941L253.582 202.033C252.308 202.098 251.108 202.65 250.23 203.574C249.352 204.499 248.862 205.725 248.862 207V207.456C248.862 208.549 249.296 209.598 250.069 210.371C250.842 211.144 251.89 211.578 252.983 211.578H319.253L322.821 173.428C322.917 172.439 322.806 171.442 322.493 170.499C322.181 169.557 321.675 168.69 321.008 167.955C320.341 167.219 319.527 166.631 318.62 166.229C317.712 165.827 316.73 165.618 315.737 165.618Z" fill="#407BFF"/>
<path opacity="0.3" d="M315.737 165.618H293.191C291.419 165.619 289.711 166.282 288.401 167.476C287.09 168.669 286.273 170.309 286.107 172.074L284.207 192.443C283.996 194.688 282.984 196.782 281.357 198.342C279.729 199.903 277.594 200.825 275.343 200.941L253.582 202.033C252.308 202.098 251.108 202.65 250.23 203.574C249.352 204.499 248.862 205.725 248.862 207V207.456C248.862 208.549 249.296 209.598 250.069 210.371C250.842 211.144 251.89 211.578 252.983 211.578H319.253L322.821 173.428C322.917 172.439 322.806 171.442 322.493 170.499C322.181 169.557 321.675 168.69 321.008 167.955C320.341 167.219 319.527 166.631 318.62 166.229C317.712 165.827 316.73 165.618 315.737 165.618Z" fill="white"/>
<path d="M263.987 188.568H267.092V204.808C267.092 205.205 266.934 205.586 266.654 205.866C266.373 206.147 265.992 206.304 265.596 206.304H265.483C265.087 206.304 264.706 206.147 264.426 205.866C264.145 205.586 263.987 205.205 263.987 204.808V188.568Z" fill="#263238"/>
<path opacity="0.2" d="M263.987 188.568H267.092V204.808C267.092 205.205 266.934 205.586 266.654 205.866C266.373 206.147 265.992 206.304 265.596 206.304H265.483C265.087 206.304 264.706 206.147 264.426 205.866C264.145 205.586 263.987 205.205 263.987 204.808V188.568Z" fill="white"/>
<path d="M278.956 183.908H272.051V189.63H278.971C279.359 189.65 279.747 189.591 280.111 189.456C280.476 189.321 280.809 189.114 281.091 188.846C281.372 188.578 281.597 188.256 281.75 187.899C281.903 187.542 281.982 187.158 281.982 186.769C281.982 186.38 281.903 185.996 281.75 185.639C281.597 185.282 281.372 184.96 281.091 184.692C280.809 184.424 280.476 184.217 280.111 184.082C279.747 183.947 279.359 183.888 278.971 183.908H278.956Z" fill="#407BFF"/>
<path opacity="0.5" d="M278.956 183.908H272.051V189.63H278.971C279.359 189.65 279.747 189.591 280.111 189.456C280.476 189.321 280.809 189.114 281.091 188.846C281.372 188.578 281.597 188.256 281.75 187.899C281.903 187.542 281.982 187.158 281.982 186.769C281.982 186.38 281.903 185.996 281.75 185.639C281.597 185.282 281.372 184.96 281.091 184.692C280.809 184.424 280.476 184.217 280.111 184.082C279.747 183.947 279.359 183.888 278.971 183.908H278.956Z" fill="white"/>
<path d="M276.195 183.908H252.011C250.486 183.908 249.25 185.143 249.25 186.668V186.877C249.25 188.402 250.486 189.638 252.011 189.638H276.195C277.72 189.638 278.956 188.402 278.956 186.877V186.668C278.956 185.143 277.72 183.908 276.195 183.908Z" fill="#407BFF"/>
<path opacity="0.3" d="M276.195 183.908H252.011C250.486 183.908 249.25 185.143 249.25 186.668V186.877C249.25 188.402 250.486 189.638 252.011 189.638H276.195C277.72 189.638 278.956 188.402 278.956 186.877V186.668C278.956 185.143 277.72 183.908 276.195 183.908Z" fill="white"/>
<path d="M320.809 211.586H287.663L291.358 172.111C291.524 170.346 292.342 168.707 293.652 167.513C294.962 166.319 296.67 165.657 298.443 165.655H320.989C321.979 165.656 322.958 165.864 323.863 166.264C324.769 166.665 325.581 167.25 326.247 167.982C326.914 168.714 327.421 169.577 327.735 170.516C328.049 171.455 328.164 172.449 328.073 173.435L324.849 207.95C324.743 208.948 324.272 209.872 323.527 210.543C322.781 211.214 321.813 211.586 320.809 211.586Z" fill="#407BFF"/>
<path opacity="0.5" d="M320.809 211.586H287.663L291.358 172.111C291.524 170.346 292.342 168.707 293.652 167.513C294.962 166.319 296.67 165.657 298.443 165.655H320.989C321.979 165.656 322.958 165.864 323.863 166.264C324.769 166.665 325.581 167.25 326.247 167.982C326.914 168.714 327.421 169.577 327.735 170.516C328.049 171.455 328.164 172.449 328.073 173.435L324.849 207.95C324.743 208.948 324.272 209.872 323.527 210.543C322.781 211.214 321.813 211.586 320.809 211.586Z" fill="white"/>
<path d="M243.378 262.685H211.145C210.502 262.686 209.865 262.56 209.27 262.315C208.676 262.069 208.136 261.709 207.681 261.255C207.226 260.8 206.865 260.261 206.618 259.667C206.372 259.073 206.245 258.436 206.245 257.793V183.676C206.245 183.033 206.372 182.396 206.618 181.802C206.865 181.208 207.226 180.668 207.681 180.214C208.136 179.759 208.676 179.399 209.27 179.154C209.865 178.908 210.502 178.783 211.145 178.784H243.378C243.726 178.784 244.059 178.921 244.304 179.167C244.55 179.412 244.687 179.745 244.687 180.093C244.687 180.44 244.55 180.773 244.304 181.018C244.059 181.264 243.726 181.402 243.378 181.402H211.145C210.847 181.397 210.551 181.451 210.275 181.562C209.998 181.672 209.746 181.837 209.534 182.046C209.321 182.254 209.153 182.504 209.038 182.778C208.923 183.053 208.863 183.348 208.863 183.646V257.763C208.863 258.061 208.923 258.356 209.038 258.63C209.153 258.905 209.321 259.154 209.534 259.363C209.746 259.572 209.998 259.736 210.275 259.847C210.551 259.957 210.847 260.012 211.145 260.007H243.378C243.726 260.007 244.059 260.145 244.304 260.39C244.55 260.636 244.687 260.969 244.687 261.316C244.696 261.493 244.668 261.67 244.606 261.835C244.543 262.001 244.448 262.153 244.326 262.281C244.203 262.409 244.056 262.51 243.894 262.58C243.731 262.649 243.555 262.685 243.378 262.685Z" fill="#263238"/>
<g opacity="0.5">
<path opacity="0.5" d="M243.378 262.685H211.145C210.502 262.686 209.865 262.56 209.27 262.315C208.676 262.069 208.136 261.709 207.681 261.255C207.226 260.8 206.865 260.261 206.618 259.667C206.372 259.073 206.245 258.436 206.245 257.793V183.676C206.245 183.033 206.372 182.396 206.618 181.802C206.865 181.208 207.226 180.668 207.681 180.214C208.136 179.759 208.676 179.399 209.27 179.154C209.865 178.908 210.502 178.783 211.145 178.784H243.378C243.726 178.784 244.059 178.921 244.304 179.167C244.55 179.412 244.687 179.745 244.687 180.093C244.687 180.44 244.55 180.773 244.304 181.018C244.059 181.264 243.726 181.402 243.378 181.402H211.145C210.847 181.397 210.551 181.451 210.275 181.562C209.998 181.672 209.746 181.837 209.534 182.046C209.321 182.254 209.153 182.504 209.038 182.778C208.923 183.053 208.863 183.348 208.863 183.646V257.763C208.863 258.061 208.923 258.356 209.038 258.63C209.153 258.905 209.321 259.154 209.534 259.363C209.746 259.572 209.998 259.736 210.275 259.847C210.551 259.957 210.847 260.012 211.145 260.007H243.378C243.726 260.007 244.059 260.145 244.304 260.39C244.55 260.636 244.687 260.969 244.687 261.316C244.696 261.493 244.668 261.67 244.606 261.835C244.543 262.001 244.448 262.153 244.326 262.281C244.203 262.409 244.056 262.51 243.894 262.58C243.731 262.649 243.555 262.685 243.378 262.685Z" fill="white"/>
</g>
<path d="M222.074 139.788L219.83 138.292C219.773 138.255 219.726 138.205 219.693 138.145C219.66 138.086 219.643 138.019 219.643 137.951C219.643 137.883 219.66 137.817 219.693 137.757C219.726 137.698 219.773 137.647 219.83 137.611L222.074 136.115C222.156 136.061 222.257 136.041 222.353 136.061C222.45 136.08 222.535 136.137 222.59 136.219C222.642 136.301 222.66 136.4 222.64 136.495C222.621 136.59 222.565 136.673 222.485 136.728L220.623 137.962L222.485 139.197C222.565 139.251 222.621 139.335 222.64 139.43C222.66 139.525 222.642 139.623 222.59 139.705C222.531 139.782 222.444 139.833 222.348 139.849C222.252 139.864 222.154 139.842 222.074 139.788Z" fill="white"/>
<path d="M227.041 139.683C226.996 139.601 226.984 139.505 227.008 139.415C227.032 139.324 227.089 139.246 227.168 139.197L229.031 137.962L227.168 136.706C227.088 136.651 227.032 136.567 227.014 136.471C226.996 136.376 227.016 136.277 227.071 136.197C227.097 136.157 227.131 136.122 227.171 136.095C227.211 136.068 227.256 136.049 227.303 136.039C227.351 136.029 227.399 136.029 227.447 136.038C227.494 136.047 227.539 136.066 227.579 136.092L229.824 137.588C229.881 137.625 229.928 137.675 229.96 137.735C229.993 137.794 230.01 137.861 230.01 137.929C230.01 137.997 229.993 138.063 229.96 138.123C229.928 138.182 229.881 138.233 229.824 138.269L227.579 139.765C227.539 139.797 227.493 139.82 227.444 139.832C227.394 139.845 227.343 139.848 227.292 139.84C227.242 139.833 227.194 139.815 227.15 139.788C227.107 139.761 227.07 139.725 227.041 139.683Z" fill="white"/>
<path d="M223.966 140.693C223.92 140.678 223.877 140.655 223.84 140.624C223.803 140.592 223.772 140.554 223.75 140.511C223.728 140.468 223.714 140.421 223.71 140.372C223.706 140.324 223.712 140.275 223.727 140.229L225.276 135.337C225.289 135.291 225.312 135.248 225.342 135.211C225.373 135.174 225.411 135.143 225.453 135.121C225.496 135.098 225.542 135.085 225.59 135.081C225.638 135.077 225.686 135.082 225.732 135.097C225.778 135.111 225.821 135.134 225.858 135.164C225.895 135.195 225.926 135.232 225.948 135.275C225.97 135.317 225.984 135.364 225.988 135.412C225.992 135.46 225.986 135.508 225.971 135.554L224.43 140.453C224.416 140.5 224.392 140.543 224.361 140.58C224.33 140.617 224.292 140.648 224.248 140.67C224.205 140.692 224.158 140.706 224.11 140.71C224.061 140.714 224.013 140.708 223.966 140.693Z" fill="white"/>
<path d="M236.668 144.433H220.009C219.959 144.433 219.908 144.423 219.862 144.403C219.815 144.384 219.772 144.355 219.737 144.319C219.701 144.282 219.673 144.239 219.655 144.192C219.636 144.145 219.627 144.095 219.628 144.044C219.627 143.993 219.636 143.943 219.655 143.896C219.673 143.849 219.701 143.806 219.737 143.769C219.772 143.733 219.815 143.704 219.862 143.685C219.908 143.665 219.959 143.655 220.009 143.655H236.668C236.772 143.655 236.87 143.696 236.943 143.769C237.016 143.842 237.057 143.941 237.057 144.044C237.057 144.095 237.047 144.146 237.028 144.193C237.008 144.24 236.98 144.283 236.943 144.319C236.907 144.355 236.864 144.384 236.817 144.403C236.77 144.423 236.719 144.433 236.668 144.433Z" fill="white"/>
<path d="M255.804 144.433H239.137C239.086 144.433 239.035 144.423 238.988 144.403C238.941 144.384 238.898 144.355 238.862 144.319C238.826 144.283 238.797 144.24 238.778 144.193C238.758 144.146 238.748 144.095 238.748 144.044C238.756 143.946 238.8 143.855 238.872 143.788C238.944 143.722 239.039 143.685 239.137 143.685H255.789C255.892 143.685 255.991 143.726 256.064 143.799C256.137 143.872 256.178 143.971 256.178 144.074C256.17 144.169 256.128 144.259 256.059 144.325C255.99 144.391 255.899 144.43 255.804 144.433Z" fill="white"/>
<path d="M229.532 147.859H220.009C219.959 147.859 219.908 147.849 219.862 147.829C219.815 147.81 219.772 147.781 219.737 147.745C219.701 147.709 219.673 147.666 219.655 147.618C219.636 147.571 219.627 147.521 219.628 147.47C219.628 147.369 219.668 147.272 219.739 147.2C219.811 147.129 219.908 147.089 220.009 147.089H229.532C229.634 147.089 229.732 147.129 229.804 147.2C229.877 147.271 229.919 147.368 229.921 147.47C229.921 147.573 229.88 147.672 229.807 147.745C229.734 147.818 229.635 147.859 229.532 147.859Z" fill="white"/>
<path d="M247.605 147.859H232.008C231.957 147.859 231.907 147.849 231.86 147.829C231.814 147.81 231.771 147.781 231.736 147.745C231.7 147.709 231.672 147.666 231.653 147.618C231.635 147.571 231.626 147.521 231.627 147.47C231.627 147.369 231.667 147.272 231.738 147.2C231.81 147.129 231.907 147.089 232.008 147.089H247.605C247.706 147.089 247.803 147.129 247.875 147.2C247.946 147.272 247.986 147.369 247.986 147.47C247.987 147.521 247.978 147.571 247.96 147.618C247.941 147.666 247.913 147.709 247.877 147.745C247.842 147.781 247.799 147.81 247.753 147.829C247.706 147.849 247.656 147.859 247.605 147.859Z" fill="white"/>
<path d="M245.383 151.293H220.009C219.907 151.291 219.81 151.249 219.739 151.176C219.668 151.103 219.628 151.006 219.628 150.904C219.627 150.853 219.636 150.802 219.655 150.755C219.673 150.708 219.701 150.665 219.737 150.629C219.772 150.593 219.815 150.564 219.862 150.544C219.908 150.525 219.959 150.515 220.009 150.515H245.383C245.486 150.515 245.585 150.556 245.658 150.629C245.731 150.702 245.772 150.8 245.772 150.904C245.772 151.007 245.731 151.106 245.658 151.179C245.585 151.252 245.486 151.293 245.383 151.293Z" fill="white"/>
<path d="M253.163 151.293H247.867C247.764 151.293 247.665 151.252 247.592 151.179C247.519 151.106 247.478 151.007 247.478 150.904C247.478 150.8 247.519 150.702 247.592 150.629C247.665 150.556 247.764 150.515 247.867 150.515H253.163C253.266 150.515 253.365 150.556 253.438 150.629C253.511 150.702 253.552 150.8 253.552 150.904C253.552 151.007 253.511 151.106 253.438 151.179C253.365 151.252 253.266 151.293 253.163 151.293Z" fill="white"/>
<path d="M231.858 154.719H220.009C219.959 154.719 219.908 154.709 219.862 154.689C219.815 154.669 219.772 154.641 219.737 154.604C219.701 154.568 219.673 154.525 219.655 154.478C219.636 154.431 219.627 154.38 219.628 154.33C219.627 154.279 219.636 154.229 219.655 154.181C219.673 154.134 219.701 154.091 219.737 154.055C219.772 154.019 219.815 153.99 219.862 153.97C219.908 153.951 219.959 153.941 220.009 153.941H231.858C231.962 153.941 232.06 153.982 232.133 154.055C232.206 154.128 232.247 154.227 232.247 154.33C232.247 154.433 232.206 154.532 232.133 154.605C232.06 154.678 231.962 154.719 231.858 154.719Z" fill="white"/>
<path d="M249.086 154.719H234.342C234.239 154.719 234.14 154.678 234.067 154.605C233.994 154.532 233.953 154.433 233.953 154.33C233.953 154.227 233.994 154.128 234.067 154.055C234.14 153.982 234.239 153.941 234.342 153.941H249.086C249.189 153.941 249.288 153.982 249.361 154.055C249.434 154.128 249.475 154.227 249.475 154.33C249.475 154.433 249.434 154.532 249.361 154.605C249.288 154.678 249.189 154.719 249.086 154.719Z" fill="white"/>
<path d="M236.668 158.145H220.009C219.959 158.145 219.908 158.135 219.862 158.115C219.815 158.095 219.772 158.067 219.737 158.03C219.701 157.994 219.673 157.951 219.655 157.904C219.636 157.857 219.627 157.807 219.628 157.756C219.628 157.655 219.668 157.558 219.739 157.486C219.811 157.414 219.908 157.374 220.009 157.374H236.668C236.719 157.373 236.77 157.382 236.817 157.401C236.864 157.42 236.907 157.448 236.943 157.483C236.979 157.519 237.008 157.561 237.028 157.608C237.047 157.655 237.057 157.705 237.057 157.756C237.057 157.859 237.016 157.958 236.943 158.031C236.87 158.104 236.772 158.145 236.668 158.145Z" fill="white"/>
<path d="M250.904 158.145H239.137C239.034 158.145 238.935 158.104 238.862 158.031C238.789 157.958 238.748 157.859 238.748 157.756C238.748 157.705 238.758 157.655 238.778 157.608C238.797 157.561 238.826 157.519 238.862 157.483C238.899 157.448 238.942 157.42 238.989 157.401C239.036 157.382 239.086 157.373 239.137 157.374H250.889C250.99 157.374 251.087 157.414 251.159 157.486C251.23 157.558 251.27 157.655 251.27 157.756C251.272 157.856 251.235 157.952 251.167 158.025C251.098 158.098 251.004 158.141 250.904 158.145Z" fill="white"/>
<path d="M106.336 91.1869C106.642 94.7102 105.879 101.091 103.224 103.156C107.555 104.719 112.148 107.412 115.08 110.965C117.99 106.731 114.684 104.315 114.684 104.315C110.944 102.984 111.34 100.149 112.305 97.5378L106.336 91.1869Z" fill="#B97964"/>
<path d="M120.496 88.1497C120.451 88.5911 120.661 88.9726 120.953 89.0025C121.244 89.0324 121.506 88.6883 121.551 88.2545C121.596 87.8206 121.386 87.4316 121.095 87.4017C120.803 87.3718 120.549 87.7084 120.496 88.1497Z" fill="#263238"/>
<path d="M120.982 87.4092L122.067 87.1998C122.067 87.1998 121.446 88.0002 120.982 87.4092Z" fill="#263238"/>
<path d="M120.646 88.621C120.951 89.6732 121.396 90.6796 121.97 91.6132C121.727 91.7535 121.457 91.8395 121.178 91.8654C120.899 91.8912 120.618 91.8562 120.354 91.7628L120.646 88.621Z" fill="#A24E3F"/>
<path d="M121.753 85.8233C121.822 85.8124 121.886 85.7781 121.933 85.7261C121.979 85.6763 122.005 85.6108 122.005 85.5428C122.005 85.4748 121.979 85.4094 121.933 85.3595C121.625 85.0787 121.255 84.8757 120.852 84.7677C120.45 84.6597 120.028 84.6497 119.621 84.7387C119.564 84.7782 119.523 84.8379 119.508 84.9058C119.493 84.9738 119.504 85.045 119.539 85.1052C119.562 85.1436 119.595 85.1751 119.634 85.1962C119.674 85.2173 119.718 85.2272 119.763 85.2249C120.087 85.1631 120.42 85.1775 120.737 85.2671C121.054 85.3567 121.345 85.519 121.588 85.741C121.632 85.7869 121.69 85.8161 121.753 85.8233Z" fill="#263238"/>
<path d="M105.984 85.3371C105.812 90.8054 105.625 93.1318 108.064 96.1838C111.737 100.769 118.387 99.767 120.167 94.4409C121.768 89.6459 121.783 81.4772 116.749 78.8291C111.714 76.181 106.141 79.8539 105.984 85.3371Z" fill="#B97964"/>
<path d="M106.224 95.6677C100.845 94.7476 102.386 91.3589 102.386 91.3589C97.09 90.2892 101.182 87.701 101.182 87.701C96.7758 85.8009 101.182 84.0953 101.182 84.0953C96.9329 80.572 102.992 79.3527 102.992 79.3527C101.496 73.8545 106.732 76.1136 106.732 76.1136C109.575 71.386 112.029 75.8967 112.029 75.8967C117.011 69.1643 118.222 74.842 118.222 74.842C123.317 73.5029 121.364 78.859 121.364 78.859C125.553 79.9811 122.262 82.1055 122.262 82.1055C123.878 84.1477 118.035 84.4993 118.035 84.4993C118.035 84.4993 120.818 88.9876 118.035 90.2219L110.959 95.6453C110.959 95.6453 107.69 94.3137 106.224 95.6677Z" fill="#263238"/>
<path d="M111.512 91.2542C111.512 91.2542 115.252 82.2776 112.328 74.6175L114.796 73.7722C114.796 73.7722 118.02 84.9107 111.512 91.2542Z" fill="#407BFF"/>
<path d="M115.245 90.2667C115.859 91.5533 116.098 92.1144 116.981 92.5108C117.253 92.6673 117.566 92.74 117.88 92.7199C118.193 92.6999 118.494 92.588 118.744 92.3981C118.995 92.2083 119.184 91.9489 119.288 91.6524C119.392 91.3558 119.407 91.0352 119.33 90.7305C119.098 89.4438 118.11 87.5513 116.741 87.5139C116.421 87.5155 116.107 87.603 115.833 87.7673C115.558 87.9316 115.332 88.1667 115.179 88.4479C115.027 88.7292 114.952 89.0464 114.964 89.3663C114.975 89.6862 115.072 89.9972 115.245 90.2667Z" fill="#B97964"/>
<path d="M111.377 108.953C111.377 108.953 116.442 112.693 118.499 114.189L133.153 107.277C133.133 106.465 133.357 105.665 133.797 104.982C134.238 104.299 134.873 103.764 135.622 103.447L136.669 103.013L138.876 102.026C139.287 101.842 139.74 101.771 140.187 101.818C140.635 101.865 141.063 102.03 141.427 102.295C141.854 102.607 142.175 103.043 142.345 103.544C142.515 104.045 142.526 104.586 142.377 105.093C142.069 106.145 141.494 107.099 140.707 107.862C139.92 108.625 138.949 109.171 137.888 109.447L135.749 110.008C135.749 110.008 123.189 119.523 118.701 119.747C114.213 119.972 107.637 115.566 107.637 115.566L111.377 108.953Z" fill="#B97964"/>
<path d="M99.1992 102.647C103.067 102.647 107.39 105.056 114.16 109.469C113.188 112.651 111.38 115.513 108.924 117.758C108.924 117.758 105.184 116.755 100.217 112.08C94.2321 106.417 96.8279 102.654 99.1992 102.647Z" fill="#263238"/>
<path d="M172.658 113.853H136.004C135.695 113.858 135.389 113.797 135.106 113.675C134.823 113.553 134.569 113.372 134.361 113.144C134.153 112.916 133.996 112.647 133.9 112.354C133.804 112.061 133.772 111.751 133.804 111.444L136.565 79.8913C136.631 79.2389 136.933 78.6333 137.416 78.1893C137.899 77.7454 138.527 77.4939 139.183 77.4825H175.837C176.145 77.4775 176.451 77.5381 176.734 77.6603C177.017 77.7826 177.27 77.9637 177.478 78.1916C177.685 78.4195 177.841 78.6889 177.937 78.982C178.032 79.2751 178.063 79.585 178.029 79.8913L175.269 111.444C175.203 112.095 174.901 112.7 174.42 113.144C173.939 113.587 173.312 113.84 172.658 113.853Z" fill="#407BFF"/>
<path opacity="0.4" d="M172.658 113.853H136.004C135.695 113.858 135.389 113.797 135.106 113.675C134.823 113.553 134.569 113.372 134.361 113.144C134.153 112.916 133.996 112.647 133.9 112.354C133.804 112.061 133.772 111.751 133.804 111.444L136.565 79.8913C136.631 79.2389 136.933 78.6333 137.416 78.1893C137.899 77.7454 138.527 77.4939 139.183 77.4825H175.837C176.145 77.4775 176.451 77.5381 176.734 77.6603C177.017 77.7826 177.27 77.9637 177.478 78.1916C177.685 78.4195 177.841 78.6889 177.937 78.982C178.032 79.2751 178.063 79.585 178.029 79.8913L175.269 111.444C175.203 112.095 174.901 112.7 174.42 113.144C173.939 113.587 173.312 113.84 172.658 113.853Z" fill="white"/>
<path opacity="0.7" d="M172.792 112.357C173.04 112.352 173.278 112.257 173.46 112.089C173.642 111.92 173.756 111.691 173.78 111.444L176.54 79.8912C176.553 79.7752 176.541 79.6579 176.505 79.5469C176.469 79.4359 176.409 79.3339 176.331 79.2476C176.252 79.1613 176.156 79.0927 176.049 79.0463C175.942 78.9999 175.827 78.9769 175.71 78.9786H139.055C138.807 78.9828 138.568 79.0779 138.385 79.2461C138.201 79.4143 138.086 79.6438 138.06 79.8912L135.308 111.444C135.295 111.56 135.307 111.677 135.343 111.788C135.379 111.899 135.438 112.001 135.517 112.088C135.595 112.174 135.691 112.243 135.799 112.289C135.906 112.335 136.021 112.358 136.138 112.357H172.792Z" fill="white"/>
<path d="M147.321 93.805L135.353 111.13V111.444C135.34 111.56 135.352 111.677 135.388 111.788C135.424 111.899 135.483 112.001 135.562 112.088C135.64 112.174 135.736 112.243 135.843 112.289C135.951 112.335 136.066 112.358 136.183 112.357H156.949L147.321 93.805Z" fill="#407BFF"/>
<path opacity="0.3" d="M147.321 93.805L135.353 111.13V111.444C135.34 111.56 135.352 111.677 135.388 111.788C135.424 111.899 135.483 112.001 135.562 112.088C135.64 112.174 135.736 112.243 135.843 112.289C135.951 112.335 136.066 112.358 136.183 112.357H156.949L147.321 93.805Z" fill="white"/>
<path d="M173.885 110.24L163.853 91.1869L148.997 112.357H172.793C173.04 112.352 173.278 112.257 173.46 112.089C173.642 111.92 173.756 111.691 173.78 111.444L173.885 110.24Z" fill="#407BFF"/>
<path d="M159.978 87.8206C159.887 88.7324 159.464 89.5789 158.79 90.1994C158.115 90.8199 157.237 91.1713 156.32 91.1869C155.889 91.1947 155.461 91.1107 155.065 90.9402C154.669 90.7698 154.313 90.5169 154.023 90.1985C153.732 89.88 153.512 89.5032 153.378 89.0932C153.244 88.6832 153.199 88.2494 153.246 87.8206C153.336 86.9075 153.758 86.0593 154.433 85.4372C155.107 84.8152 155.987 84.4627 156.904 84.4469C157.336 84.4389 157.765 84.5232 158.161 84.6941C158.558 84.8649 158.914 85.1185 159.205 85.4378C159.496 85.7571 159.715 86.1348 159.849 86.5458C159.982 86.9567 160.026 87.3913 159.978 87.8206Z" fill="#407BFF"/>
<path opacity="0.4" d="M159.978 87.8206C159.887 88.7324 159.464 89.5789 158.79 90.1994C158.115 90.8199 157.237 91.1713 156.32 91.1869C155.889 91.1947 155.461 91.1107 155.065 90.9402C154.669 90.7698 154.313 90.5169 154.023 90.1985C153.732 89.88 153.512 89.5032 153.378 89.0932C153.244 88.6832 153.199 88.2494 153.246 87.8206C153.336 86.9075 153.758 86.0593 154.433 85.4372C155.107 84.8152 155.987 84.4627 156.904 84.4469C157.336 84.4389 157.765 84.5232 158.161 84.6941C158.558 84.8649 158.914 85.1185 159.205 85.4378C159.496 85.7571 159.715 86.1348 159.849 86.5458C159.982 86.9567 160.026 87.3913 159.978 87.8206Z" fill="white"/>
<path d="M68.507 241.208L64.7817 252.25L70.4894 254.584L74.9552 244.395L68.507 241.208Z" fill="#B97964"/>
<path d="M72.5389 254.307C72.5096 254.289 72.4858 254.264 72.4699 254.233C72.4541 254.203 72.4469 254.169 72.4491 254.135C72.4533 254.102 72.4679 254.071 72.4908 254.047C72.5136 254.023 72.5436 254.006 72.5763 254C72.696 254 75.389 253.372 76.3914 254C76.5809 254.116 76.7178 254.301 76.7729 254.516C76.8148 254.636 76.8186 254.766 76.7837 254.888C76.7489 255.009 76.6772 255.118 76.5784 255.197C76.1969 255.466 75.3067 255.354 74.4913 255.1C73.819 254.892 73.1658 254.627 72.5389 254.307ZM73.1074 254.254C74.2818 254.778 75.9425 255.279 76.3764 254.95C76.4362 254.905 76.511 254.83 76.4512 254.599C76.4396 254.531 76.4118 254.467 76.3701 254.412C76.3284 254.357 76.2741 254.314 76.2118 254.284C76.1236 254.229 76.0279 254.186 75.9276 254.157C74.9899 254.01 74.0328 254.043 73.1074 254.254Z" fill="#407BFF"/>
<path d="M72.4566 254.269C72.4422 254.244 72.4346 254.216 72.4346 254.187C72.4346 254.158 72.4422 254.13 72.4566 254.105C72.4566 254.03 73.2047 252.31 74.2594 251.861C74.4099 251.798 74.5714 251.766 74.7344 251.766C74.8975 251.766 75.0589 251.798 75.2094 251.861C75.6209 252.033 75.6882 252.295 75.6508 252.474C75.561 253.26 73.5413 254.195 72.6586 254.299C72.6481 254.305 72.6366 254.307 72.6249 254.307C72.6132 254.307 72.6017 254.305 72.5913 254.299C72.5681 254.306 72.5436 254.307 72.5201 254.302C72.4965 254.297 72.4747 254.285 72.4566 254.269ZM74.9925 252.152C74.7993 252.081 74.5872 252.081 74.3941 252.152C73.7282 252.566 73.2058 253.174 72.898 253.895C73.863 253.663 75.2394 252.871 75.3366 252.399C75.3366 252.354 75.3366 252.235 75.0823 252.13H74.9925V252.152Z" fill="#407BFF"/>
<path d="M72.1498 253.177L64.9835 250.933C64.8523 250.893 64.7112 250.898 64.5835 250.948C64.4557 250.999 64.3488 251.091 64.2803 251.21L61.1834 256.641C61.1164 256.755 61.0728 256.881 61.055 257.013C61.0372 257.144 61.0456 257.277 61.0797 257.405C61.1137 257.533 61.1728 257.653 61.2536 257.758C61.3343 257.863 61.435 257.951 61.5499 258.017C61.611 258.055 61.6763 258.085 61.7444 258.107C64.3402 258.855 66.6816 259.424 69.8982 260.426C73.6983 261.593 72.5912 261.75 77.0346 263.194C79.7126 264.061 81.1489 261.152 80.0268 260.65C75.0074 258.406 74.955 256.641 73.5187 254.15C73.1939 253.672 72.708 253.327 72.1498 253.177Z" fill="#263238"/>
<path opacity="0.2" d="M66.7188 246.505L72.7032 249.527L74.9548 244.395L68.5066 241.208L66.7188 246.505Z" fill="#263238"/>
<path d="M93.8057 139.085C93.8057 139.085 85.7641 145.226 87.4847 164.466C87.6492 166.246 88.2327 168.109 88.2327 170.144C88.2327 171.498 87.8587 172.448 87.4173 175.492C86.774 179.921 85.5921 196.438 84.3428 198.585C83.0936 200.731 82.5849 200.35 79.1065 206.274C75.3662 212.648 70.5039 223.824 66.7412 242.764C69.2536 244.538 72.1233 245.74 75.1493 246.288C75.1493 246.288 95.6983 213.882 100.067 201.816C103.979 191.022 108.64 156.574 108.64 156.574L109.014 141.613L93.8057 139.085Z" fill="#407BFF"/>
<path opacity="0.1" d="M102.603 164.466H96.783C96.783 164.466 94.868 182.778 101.196 198.053C101.855 195.6 102.521 192.66 103.171 189.481L105.692 173.353C105.333 170.63 105.056 168.55 105.012 168.416C104.884 167.989 102.603 164.466 102.603 164.466Z" fill="black"/>
<path d="M101.646 245.652L101.683 257.389L108.303 256.947L109.321 245.652H101.646Z" fill="#B97964"/>
<path d="M109.066 256.745C109.033 256.741 109.002 256.727 108.978 256.704C108.954 256.681 108.937 256.651 108.931 256.618C108.924 256.585 108.927 256.551 108.94 256.52C108.954 256.489 108.977 256.463 109.006 256.446C109.111 256.386 111.452 254.95 112.612 255.204C112.828 255.253 113.018 255.381 113.143 255.564C113.22 255.664 113.265 255.786 113.272 255.913C113.279 256.04 113.247 256.166 113.18 256.274C112.605 256.706 111.893 256.916 111.176 256.865C110.47 256.889 109.764 256.849 109.066 256.745ZM109.59 256.514C110.869 256.626 112.582 256.551 112.904 256.095C112.948 256.035 112.986 255.938 112.859 255.736C112.824 255.677 112.776 255.627 112.719 255.589C112.662 255.551 112.597 255.527 112.53 255.519C112.428 255.504 112.324 255.504 112.223 255.519C111.289 255.675 110.394 256.013 109.59 256.514Z" fill="#407BFF"/>
<path d="M108.976 256.745C108.951 256.729 108.931 256.707 108.916 256.681C108.902 256.655 108.894 256.626 108.894 256.596C108.894 256.514 109.021 254.651 109.867 253.903C109.987 253.792 110.129 253.707 110.283 253.653C110.437 253.599 110.601 253.577 110.764 253.589C111.213 253.589 111.363 253.843 111.385 254.03C111.557 254.778 109.964 256.342 109.141 256.738C109.119 256.745 109.095 256.745 109.074 256.738C109.043 256.752 109.009 256.755 108.976 256.745ZM110.667 253.903C110.461 253.907 110.264 253.987 110.113 254.127C109.62 254.737 109.327 255.484 109.276 256.267C110.106 255.736 111.146 254.531 111.086 254.067C111.086 254.023 111.048 253.903 110.757 253.888H110.667V253.903Z" fill="#407BFF"/>
<path d="M108.333 255.81L100.853 256.08C100.716 256.086 100.586 256.138 100.482 256.228C100.379 256.317 100.309 256.439 100.284 256.573L99.1472 262.722C99.0967 262.983 99.1518 263.254 99.3005 263.474C99.4492 263.694 99.6793 263.846 99.9401 263.897C100.012 263.904 100.085 263.904 100.157 263.897C102.858 263.747 105.251 263.515 108.617 263.403C112.59 263.261 111.61 263.77 116.27 263.672C119.09 263.605 119.487 260.389 118.29 260.276C112.807 259.783 112.178 258.152 110.001 256.274C109.522 255.918 108.928 255.753 108.333 255.81Z" fill="#263238"/>
<path opacity="0.2" d="M101.668 251.726L108.789 251.576L109.321 245.652H101.646L101.668 251.726Z" fill="#263238"/>
<path d="M98.2869 136.953C98.2869 136.953 90.2603 147.582 96.2073 168.371L102.94 198.734C102.94 198.734 96.5514 212.543 99.9475 248.973C103.239 249.436 106.584 249.36 109.852 248.749C109.852 248.749 117.332 210.277 118.462 197.283C119.711 182.965 118.963 139.81 118.963 139.81L98.2869 136.953Z" fill="#407BFF"/>
<path d="M103.134 102.497C103.134 102.497 101.892 97.1862 109.866 99.5052C117.841 101.824 117.167 106.365 117.167 106.365L103.134 102.497Z" fill="#263238"/>
<path opacity="0.4" d="M103.134 102.497C103.134 102.497 101.892 97.1862 109.866 99.5052C117.841 101.824 117.167 106.365 117.167 106.365L103.134 102.497Z" fill="black"/>
<path d="M122.913 115.783C122.913 117.645 122.165 120.338 121.417 123.353C121.073 124.782 120.758 126.27 120.549 127.781C119.419 136.01 119.053 144.68 119.053 144.68C114.651 145.64 110.098 145.683 105.678 144.807C101.259 143.93 97.0673 142.153 93.3647 139.586C93.3647 139.586 96.4991 136.93 95.8558 118.536C95.564 110.247 92.5718 100.395 106.269 101.944C117.834 103.253 121.723 106.844 122.658 112.461C122.658 112.529 122.658 112.604 122.658 112.678L122.726 113.202C122.839 114.058 122.901 114.92 122.913 115.783Z" fill="#263238"/>
<path opacity="0.4" d="M122.913 115.783C122.913 117.645 122.165 120.338 121.416 123.353C118.29 119.613 115.155 112.544 115.155 112.544L117.736 108.744L122.284 110.861C122.441 111.386 122.566 111.921 122.658 112.461C122.658 112.529 122.658 112.604 122.658 112.678L122.726 113.202C122.839 114.058 122.901 114.92 122.913 115.783Z" fill="black"/>
<path d="M127.677 112.536C127.677 112.536 132.166 116.965 133.939 118.745L149.453 114.092C149.555 113.29 149.894 112.537 150.427 111.929C150.961 111.321 151.663 110.886 152.445 110.681L153.538 110.397L155.871 109.753C156.306 109.636 156.764 109.634 157.2 109.748C157.636 109.862 158.034 110.088 158.355 110.404C158.731 110.775 158.983 111.253 159.077 111.772C159.171 112.292 159.102 112.828 158.879 113.307C158.417 114.301 157.706 115.159 156.814 115.797C155.923 116.435 154.882 116.832 153.792 116.95L151.593 117.182C151.593 117.182 137.746 124.744 133.288 124.325C128.829 123.907 122.972 118.543 122.972 118.543L127.677 112.536Z" fill="#B97964"/>
<path d="M116.532 104.48C120.362 105.041 124.274 108.085 130.348 113.456C128.909 116.461 126.69 119.023 123.922 120.877C123.922 120.877 120.384 119.329 116.165 113.965C111.063 107.472 114.213 104.136 116.532 104.48Z" fill="#263238"/>
</svg>
