<svg width="50" height="51" viewBox="0 0 50 51" fill="none" xmlns="http://www.w3.org/2000/svg">
<g clip-path="url(#clip0_54_4781)">
<path d="M6.25 37.883H25V41.008H3.125V3.50802H9.375V0.383018H12.5V3.50802H34.375V0.383018H37.5V3.50802H43.75V25.383H40.625V16.008H6.25V37.883ZM6.25 6.63302V12.883H40.625V6.63302H37.5V9.75802H34.375V6.63302H12.5V9.75802H9.375V6.63302H6.25ZM50 28.508V37.883H40.625V34.758H45.2637C44.5313 33.7815 43.6198 33.0165 42.5293 32.4631C41.4388 31.9097 40.2832 31.633 39.0625 31.633C38.1022 31.633 37.1989 31.7958 36.3525 32.1213C35.5062 32.4468 34.7331 32.8944 34.0332 33.4641C33.3333 34.0337 32.7637 34.7255 32.3242 35.5393C31.8848 36.3531 31.5755 37.2238 31.3965 38.1516L28.2959 37.6145C28.5238 36.2961 28.9632 35.0835 29.6143 33.9768C30.2653 32.87 31.0628 31.9097 32.0068 31.0959C32.9508 30.2821 34.0332 29.6473 35.2539 29.1916C36.4746 28.7359 37.7441 28.508 39.0625 28.508C40.5436 28.508 41.9596 28.7928 43.3106 29.3625C44.6615 29.9322 45.8496 30.7623 46.875 31.8527V28.508H50ZM39.0625 47.258C40.0065 47.258 40.9098 47.0953 41.7725 46.7697C42.6351 46.4442 43.4082 45.9966 44.0918 45.427C44.7754 44.8573 45.3451 44.1656 45.8008 43.3518C46.2565 42.538 46.5658 41.6672 46.7285 40.7395L49.8291 41.2766C49.6012 42.5949 49.1618 43.8075 48.5107 44.9143C47.8597 46.021 47.0622 46.9813 46.1182 47.7951C45.1742 48.6089 44.0918 49.2437 42.8711 49.6994C41.6504 50.1552 40.3809 50.383 39.0625 50.383C37.5814 50.383 36.1654 50.0982 34.8145 49.5285C33.4635 48.9589 32.2754 48.1288 31.25 47.0383V50.383H28.125V41.008H37.5V44.133H32.8613C33.5938 45.1096 34.5052 45.8746 35.5957 46.4279C36.6862 46.9813 37.8418 47.258 39.0625 47.258Z" fill="black"/>
</g>
<defs>
<clipPath id="clip0_54_4781">
<rect width="50" height="50" fill="white" transform="translate(0 0.383018)"/>
</clipPath>
</defs>
</svg>
