<svg width="69" height="69" viewBox="0 0 69 69" fill="none" xmlns="http://www.w3.org/2000/svg">
<rect width="68.21" height="68.21" fill="white"/>
<path d="M53.9996 11.3684H51.1575V8.52629C51.1575 6.82104 50.0207 5.6842 48.3154 5.6842C46.6102 5.6842 45.4733 6.82104 45.4733 8.52629V11.3684H22.7367V8.52629C22.7367 6.82104 21.5998 5.6842 19.8946 5.6842C18.1893 5.6842 17.0525 6.82104 17.0525 8.52629V11.3684H14.2104C9.37888 11.3684 5.68417 15.0631 5.68417 19.8946V22.7367H62.5258V19.8946C62.5258 15.0631 58.8311 11.3684 53.9996 11.3684ZM5.68417 53.9996C5.68417 58.8312 9.37888 62.5259 14.2104 62.5259H53.9996C58.8311 62.5259 62.5258 58.8312 62.5258 53.9996V28.4209H5.68417V53.9996ZM48.3154 34.105C50.0207 34.105 51.1575 35.2419 51.1575 36.9471C51.1575 38.6524 50.0207 39.7892 48.3154 39.7892C46.6102 39.7892 45.4733 38.6524 45.4733 36.9471C45.4733 35.2419 46.6102 34.105 48.3154 34.105ZM48.3154 45.4734C50.0207 45.4734 51.1575 46.6102 51.1575 48.3155C51.1575 50.0207 50.0207 51.1575 48.3154 51.1575C46.6102 51.1575 45.4733 50.0207 45.4733 48.3155C45.4733 46.6102 46.6102 45.4734 48.3154 45.4734ZM34.105 34.105C35.8103 34.105 36.9471 35.2419 36.9471 36.9471C36.9471 38.6524 35.8103 39.7892 34.105 39.7892C32.3998 39.7892 31.2629 38.6524 31.2629 36.9471C31.2629 35.2419 32.3998 34.105 34.105 34.105ZM34.105 45.4734C35.8103 45.4734 36.9471 46.6102 36.9471 48.3155C36.9471 50.0207 35.8103 51.1575 34.105 51.1575C32.3998 51.1575 31.2629 50.0207 31.2629 48.3155C31.2629 46.6102 32.3998 45.4734 34.105 45.4734ZM19.8946 34.105C21.5998 34.105 22.7367 35.2419 22.7367 36.9471C22.7367 38.6524 21.5998 39.7892 19.8946 39.7892C18.1893 39.7892 17.0525 38.6524 17.0525 36.9471C17.0525 35.2419 18.1893 34.105 19.8946 34.105ZM19.8946 45.4734C21.5998 45.4734 22.7367 46.6102 22.7367 48.3155C22.7367 50.0207 21.5998 51.1575 19.8946 51.1575C18.1893 51.1575 17.0525 50.0207 17.0525 48.3155C17.0525 46.6102 18.1893 45.4734 19.8946 45.4734Z" fill="#263A5C"/>
</svg>
