<svg width="115" height="19" viewBox="0 0 115 19" fill="none" xmlns="http://www.w3.org/2000/svg">
<path d="M8.56641 14.5664C8.56641 14.2852 8.49609 14.0312 8.35547 13.8047C8.21484 13.5703 7.94531 13.3594 7.54688 13.1719C7.15625 12.9844 6.57812 12.8125 5.8125 12.6562C5.14062 12.5078 4.52344 12.332 3.96094 12.1289C3.40625 11.918 2.92969 11.6641 2.53125 11.3672C2.13281 11.0703 1.82422 10.7188 1.60547 10.3125C1.38672 9.90625 1.27734 9.4375 1.27734 8.90625C1.27734 8.39062 1.39062 7.90234 1.61719 7.44141C1.84375 6.98047 2.16797 6.57422 2.58984 6.22266C3.01172 5.87109 3.52344 5.59375 4.125 5.39062C4.73438 5.1875 5.41406 5.08594 6.16406 5.08594C7.22656 5.08594 8.13672 5.26562 8.89453 5.625C9.66016 5.97656 10.2461 6.45703 10.6523 7.06641C11.0586 7.66797 11.2617 8.34766 11.2617 9.10547H8.4375C8.4375 8.76953 8.35156 8.45703 8.17969 8.16797C8.01562 7.87109 7.76562 7.63281 7.42969 7.45312C7.09375 7.26562 6.67188 7.17188 6.16406 7.17188C5.67969 7.17188 5.27734 7.25 4.95703 7.40625C4.64453 7.55469 4.41016 7.75 4.25391 7.99219C4.10547 8.23438 4.03125 8.5 4.03125 8.78906C4.03125 9 4.07031 9.19141 4.14844 9.36328C4.23438 9.52734 4.375 9.67969 4.57031 9.82031C4.76562 9.95312 5.03125 10.0781 5.36719 10.1953C5.71094 10.3125 6.14062 10.4258 6.65625 10.5352C7.625 10.7383 8.45703 11 9.15234 11.3203C9.85547 11.6328 10.3945 12.0391 10.7695 12.5391C11.1445 13.0312 11.332 13.6562 11.332 14.4141C11.332 14.9766 11.2109 15.4922 10.9688 15.9609C10.7344 16.4219 10.3906 16.8242 9.9375 17.168C9.48438 17.5039 8.94141 17.7656 8.30859 17.9531C7.68359 18.1406 6.98047 18.2344 6.19922 18.2344C5.05078 18.2344 4.07812 18.0312 3.28125 17.625C2.48438 17.2109 1.87891 16.6836 1.46484 16.043C1.05859 15.3945 0.855469 14.7227 0.855469 14.0273H3.58594C3.61719 14.5508 3.76172 14.9688 4.01953 15.2812C4.28516 15.5859 4.61328 15.8086 5.00391 15.9492C5.40234 16.082 5.8125 16.1484 6.23438 16.1484C6.74219 16.1484 7.16797 16.082 7.51172 15.9492C7.85547 15.8086 8.11719 15.6211 8.29688 15.3867C8.47656 15.1445 8.56641 14.8711 8.56641 14.5664ZM19.6345 18.2344C18.697 18.2344 17.8494 18.082 17.0916 17.7773C16.3416 17.4648 15.7009 17.0312 15.1697 16.4766C14.6462 15.9219 14.2439 15.2695 13.9627 14.5195C13.6814 13.7695 13.5408 12.9609 13.5408 12.0938V11.625C13.5408 10.6328 13.6853 9.73438 13.9744 8.92969C14.2634 8.125 14.6658 7.4375 15.1814 6.86719C15.697 6.28906 16.3064 5.84766 17.0095 5.54297C17.7127 5.23828 18.4744 5.08594 19.2947 5.08594C20.2009 5.08594 20.9939 5.23828 21.6736 5.54297C22.3533 5.84766 22.9158 6.27734 23.3611 6.83203C23.8142 7.37891 24.1502 8.03125 24.3689 8.78906C24.5955 9.54688 24.7087 10.3828 24.7087 11.2969V12.5039H14.9119V10.4766H21.9197V10.2539C21.9041 9.74609 21.8025 9.26953 21.615 8.82422C21.4353 8.37891 21.158 8.01953 20.783 7.74609C20.408 7.47266 19.908 7.33594 19.283 7.33594C18.8142 7.33594 18.3962 7.4375 18.0291 7.64062C17.6697 7.83594 17.3689 8.12109 17.1267 8.49609C16.8845 8.87109 16.697 9.32422 16.5642 9.85547C16.4392 10.3789 16.3767 10.9688 16.3767 11.625V12.0938C16.3767 12.6484 16.4509 13.1641 16.5994 13.6406C16.7556 14.1094 16.9822 14.5195 17.2791 14.8711C17.5759 15.2227 17.9353 15.5 18.3572 15.7031C18.7791 15.8984 19.2595 15.9961 19.7986 15.9961C20.4783 15.9961 21.0837 15.8594 21.615 15.5859C22.1462 15.3125 22.6072 14.9258 22.9978 14.4258L24.4861 15.8672C24.2127 16.2656 23.8572 16.6484 23.4197 17.0156C22.9822 17.375 22.447 17.668 21.8142 17.8945C21.1892 18.1211 20.4627 18.2344 19.6345 18.2344ZM29.9527 8.02734V18H27.1284V5.32031H29.7886L29.9527 8.02734ZM29.4487 11.1914L28.5347 11.1797C28.5425 10.2812 28.6675 9.45703 28.9097 8.70703C29.1597 7.95703 29.5034 7.3125 29.9409 6.77344C30.3862 6.23438 30.9175 5.82031 31.5347 5.53125C32.1519 5.23438 32.8394 5.08594 33.5972 5.08594C34.2066 5.08594 34.7573 5.17188 35.2495 5.34375C35.7495 5.50781 36.1753 5.77734 36.5269 6.15234C36.8862 6.52734 37.1597 7.01562 37.3472 7.61719C37.5347 8.21094 37.6284 8.94141 37.6284 9.80859V18H34.7925V9.79688C34.7925 9.1875 34.7027 8.70703 34.523 8.35547C34.3511 7.99609 34.0972 7.74219 33.7612 7.59375C33.4331 7.4375 33.023 7.35938 32.5308 7.35938C32.0464 7.35938 31.6128 7.46094 31.23 7.66406C30.8472 7.86719 30.523 8.14453 30.2573 8.49609C29.9995 8.84766 29.8003 9.25391 29.6597 9.71484C29.5191 10.1758 29.4487 10.668 29.4487 11.1914ZM46.3411 18.2344C45.4036 18.2344 44.5559 18.082 43.7981 17.7773C43.0481 17.4648 42.4075 17.0312 41.8763 16.4766C41.3528 15.9219 40.9505 15.2695 40.6692 14.5195C40.388 13.7695 40.2473 12.9609 40.2473 12.0938V11.625C40.2473 10.6328 40.3919 9.73438 40.6809 8.92969C40.97 8.125 41.3723 7.4375 41.888 6.86719C42.4036 6.28906 43.013 5.84766 43.7161 5.54297C44.4192 5.23828 45.1809 5.08594 46.0013 5.08594C46.9075 5.08594 47.7005 5.23828 48.3802 5.54297C49.0598 5.84766 49.6223 6.27734 50.0677 6.83203C50.5208 7.37891 50.8567 8.03125 51.0755 8.78906C51.302 9.54688 51.4153 10.3828 51.4153 11.2969V12.5039H41.6184V10.4766H48.6263V10.2539C48.6106 9.74609 48.5091 9.26953 48.3216 8.82422C48.1419 8.37891 47.8645 8.01953 47.4895 7.74609C47.1145 7.47266 46.6145 7.33594 45.9895 7.33594C45.5208 7.33594 45.1028 7.4375 44.7356 7.64062C44.3763 7.83594 44.0755 8.12109 43.8333 8.49609C43.5911 8.87109 43.4036 9.32422 43.2708 9.85547C43.1458 10.3789 43.0833 10.9688 43.0833 11.625V12.0938C43.0833 12.6484 43.1575 13.1641 43.3059 13.6406C43.4622 14.1094 43.6888 14.5195 43.9856 14.8711C44.2825 15.2227 44.6419 15.5 45.0638 15.7031C45.4856 15.8984 45.9661 15.9961 46.5052 15.9961C47.1848 15.9961 47.7903 15.8594 48.3216 15.5859C48.8528 15.3125 49.3138 14.9258 49.7044 14.4258L51.1927 15.8672C50.9192 16.2656 50.5638 16.6484 50.1263 17.0156C49.6888 17.375 49.1536 17.668 48.5208 17.8945C47.8958 18.1211 47.1692 18.2344 46.3411 18.2344ZM56.0147 5.32031L58.4287 9.52734L60.8897 5.32031H63.9952L60.1514 11.543L64.1475 18H61.042L58.4639 13.6172L55.8858 18H52.7686L56.753 11.543L52.9209 5.32031H56.0147ZM76.5281 12.4453H79.4578C79.3641 13.5625 79.0516 14.5586 78.5203 15.4336C77.9891 16.3008 77.243 16.9844 76.282 17.4844C75.3211 17.9844 74.1531 18.2344 72.7781 18.2344C71.7234 18.2344 70.7742 18.0469 69.9305 17.6719C69.0867 17.2891 68.3641 16.75 67.7625 16.0547C67.1609 15.3516 66.7 14.5039 66.3797 13.5117C66.0672 12.5195 65.9109 11.4102 65.9109 10.1836V8.76562C65.9109 7.53906 66.0711 6.42969 66.3914 5.4375C66.7195 4.44531 67.1883 3.59766 67.7977 2.89453C68.407 2.18359 69.1375 1.64062 69.9891 1.26562C70.8484 0.890625 71.8133 0.703125 72.8836 0.703125C74.243 0.703125 75.3914 0.953125 76.3289 1.45312C77.2664 1.95312 77.993 2.64453 78.5086 3.52734C79.032 4.41016 79.3523 5.42188 79.4695 6.5625H76.5398C76.4617 5.82812 76.2898 5.19922 76.0242 4.67578C75.7664 4.15234 75.3836 3.75391 74.8758 3.48047C74.368 3.19922 73.7039 3.05859 72.8836 3.05859C72.2117 3.05859 71.6258 3.18359 71.1258 3.43359C70.6258 3.68359 70.2078 4.05078 69.8719 4.53516C69.5359 5.01953 69.282 5.61719 69.1102 6.32812C68.9461 7.03125 68.8641 7.83594 68.8641 8.74219V10.1836C68.8641 11.043 68.9383 11.8242 69.0867 12.5273C69.243 13.2227 69.4773 13.8203 69.7898 14.3203C70.1102 14.8203 70.5164 15.207 71.0086 15.4805C71.5008 15.7539 72.0906 15.8906 72.7781 15.8906C73.6141 15.8906 74.2898 15.7578 74.8055 15.4922C75.3289 15.2266 75.7234 14.8398 75.9891 14.332C76.2625 13.8164 76.4422 13.1875 76.5281 12.4453ZM89.2369 15.457V9.41016C89.2369 8.95703 89.1548 8.56641 88.9908 8.23828C88.8267 7.91016 88.5767 7.65625 88.2408 7.47656C87.9127 7.29688 87.4986 7.20703 86.9986 7.20703C86.5377 7.20703 86.1392 7.28516 85.8033 7.44141C85.4673 7.59766 85.2056 7.80859 85.0181 8.07422C84.8306 8.33984 84.7369 8.64062 84.7369 8.97656H81.9244C81.9244 8.47656 82.0455 7.99219 82.2877 7.52344C82.5298 7.05469 82.8814 6.63672 83.3423 6.26953C83.8033 5.90234 84.3541 5.61328 84.9947 5.40234C85.6353 5.19141 86.3541 5.08594 87.1509 5.08594C88.1041 5.08594 88.9478 5.24609 89.6822 5.56641C90.4244 5.88672 91.0064 6.37109 91.4283 7.01953C91.858 7.66016 92.0728 8.46484 92.0728 9.43359V15.0703C92.0728 15.6484 92.1119 16.168 92.19 16.6289C92.2759 17.082 92.397 17.4766 92.5533 17.8125V18H89.6588C89.5259 17.6953 89.4205 17.3086 89.3423 16.8398C89.272 16.3633 89.2369 15.9023 89.2369 15.457ZM89.647 10.2891L89.6705 12.0352H87.6431C87.1197 12.0352 86.6588 12.0859 86.2603 12.1875C85.8619 12.2812 85.5298 12.4219 85.2642 12.6094C84.9986 12.7969 84.7994 13.0234 84.6666 13.2891C84.5338 13.5547 84.4673 13.8555 84.4673 14.1914C84.4673 14.5273 84.5455 14.8359 84.7017 15.1172C84.858 15.3906 85.0845 15.6055 85.3814 15.7617C85.6861 15.918 86.0533 15.9961 86.483 15.9961C87.0611 15.9961 87.565 15.8789 87.9947 15.6445C88.4322 15.4023 88.7759 15.1094 89.0259 14.7656C89.2759 14.4141 89.4088 14.082 89.4244 13.7695L90.3384 15.0234C90.2447 15.3438 90.0845 15.6875 89.858 16.0547C89.6314 16.4219 89.3345 16.7734 88.9673 17.1094C88.608 17.4375 88.1744 17.707 87.6666 17.918C87.1666 18.1289 86.5884 18.2344 85.9322 18.2344C85.1041 18.2344 84.3658 18.0703 83.7173 17.7422C83.0689 17.4062 82.5611 16.957 82.1939 16.3945C81.8267 15.8242 81.6431 15.1797 81.6431 14.4609C81.6431 13.7891 81.7681 13.1953 82.0181 12.6797C82.2759 12.1562 82.6509 11.7188 83.1431 11.3672C83.6431 11.0156 84.2525 10.75 84.9713 10.5703C85.69 10.3828 86.5103 10.2891 87.4322 10.2891H89.647ZM98.1019 7.73438V18H95.2777V5.32031H97.973L98.1019 7.73438ZM101.981 5.23828L101.957 7.86328C101.785 7.83203 101.598 7.80859 101.395 7.79297C101.2 7.77734 101.004 7.76953 100.809 7.76953C100.325 7.76953 99.8988 7.83984 99.5316 7.98047C99.1644 8.11328 98.8558 8.30859 98.6058 8.56641C98.3636 8.81641 98.1761 9.12109 98.0433 9.48047C97.9105 9.83984 97.8323 10.2422 97.8089 10.6875L97.1644 10.7344C97.1644 9.9375 97.2425 9.19922 97.3988 8.51953C97.555 7.83984 97.7894 7.24219 98.1019 6.72656C98.4222 6.21094 98.8206 5.80859 99.2972 5.51953C99.7816 5.23047 100.34 5.08594 100.973 5.08594C101.145 5.08594 101.328 5.10156 101.524 5.13281C101.727 5.16406 101.879 5.19922 101.981 5.23828ZM109.346 18.2344C108.408 18.2344 107.561 18.082 106.803 17.7773C106.053 17.4648 105.412 17.0312 104.881 16.4766C104.357 15.9219 103.955 15.2695 103.674 14.5195C103.393 13.7695 103.252 12.9609 103.252 12.0938V11.625C103.252 10.6328 103.397 9.73438 103.686 8.92969C103.975 8.125 104.377 7.4375 104.893 6.86719C105.408 6.28906 106.018 5.84766 106.721 5.54297C107.424 5.23828 108.186 5.08594 109.006 5.08594C109.912 5.08594 110.705 5.23828 111.385 5.54297C112.065 5.84766 112.627 6.27734 113.072 6.83203C113.525 7.37891 113.861 8.03125 114.08 8.78906C114.307 9.54688 114.42 10.3828 114.42 11.2969V12.5039H104.623V10.4766H111.631V10.2539C111.615 9.74609 111.514 9.26953 111.326 8.82422C111.147 8.37891 110.869 8.01953 110.494 7.74609C110.119 7.47266 109.619 7.33594 108.994 7.33594C108.525 7.33594 108.107 7.4375 107.74 7.64062C107.381 7.83594 107.08 8.12109 106.838 8.49609C106.596 8.87109 106.408 9.32422 106.275 9.85547C106.15 10.3789 106.088 10.9688 106.088 11.625V12.0938C106.088 12.6484 106.162 13.1641 106.311 13.6406C106.467 14.1094 106.693 14.5195 106.99 14.8711C107.287 15.2227 107.647 15.5 108.068 15.7031C108.49 15.8984 108.971 15.9961 109.51 15.9961C110.19 15.9961 110.795 15.8594 111.326 15.5859C111.857 15.3125 112.318 14.9258 112.709 14.4258L114.197 15.8672C113.924 16.2656 113.568 16.6484 113.131 17.0156C112.693 17.375 112.158 17.668 111.525 17.8945C110.9 18.1211 110.174 18.2344 109.346 18.2344Z" fill="white"/>
</svg>
