<svg width="27" height="24" viewBox="0 0 27 24" fill="none" xmlns="http://www.w3.org/2000/svg">
<path fill-rule="evenodd" clip-rule="evenodd" d="M16.9431 21.03C16.8324 21.71 16.1463 22.25 15.3273 22.25H11.2327C10.4137 22.25 9.72761 21.71 9.62801 20.98L9.32921 19.09C9.03041 18.95 8.74268 18.8 8.45495 18.63L6.46295 19.35C5.68828 19.61 4.83615 19.32 4.45988 18.7L2.43468 15.53C2.04735 14.87 2.21335 14.09 2.83308 13.65L4.52628 12.46C4.51521 12.31 4.50415 12.16 4.50415 12C4.50415 11.85 4.51521 11.69 4.52628 11.54L2.84415 10.35C2.19121 9.90001 2.02521 9.09001 2.43468 8.47001L4.48201 5.28001C4.85828 4.66001 5.71041 4.38001 6.46295 4.65001L8.46601 5.38001C8.75375 5.21001 9.04148 5.06001 9.32921 4.92001L9.62801 3.01001C9.72761 2.31001 10.4137 1.76001 11.2216 1.76001H15.3163C16.1352 1.76001 16.8213 2.30001 16.9209 3.03001L17.2197 4.92001C17.5185 5.06001 17.8063 5.21001 18.094 5.38001L20.086 4.66001C20.8717 4.40001 21.7239 4.69001 22.1001 5.31001L24.1364 8.49001C24.5348 9.15001 24.3577 9.93001 23.738 10.37L22.0559 11.56C22.0669 11.71 22.078 11.86 22.078 12.02C22.078 12.18 22.0669 12.33 22.0559 12.48L23.738 13.67C24.3577 14.12 24.5348 14.9 24.1475 15.53L22.0891 18.75C21.7128 19.37 20.8607 19.65 20.0971 19.38L18.1051 18.66C17.8173 18.83 17.5296 18.98 17.2419 19.12L16.9431 21.03ZM11.7528 20.25H14.8072L15.2167 17.7L15.8032 17.48C16.2901 17.3 16.7771 17.04 17.2861 16.7L17.7841 16.36L20.418 17.32L21.9452 14.92L19.6987 13.34L19.7761 12.78L19.7796 12.7531C19.8116 12.5027 19.8425 12.2607 19.8425 12C19.8425 11.73 19.8093 11.47 19.7761 11.22L19.6987 10.66L21.9452 9.08001L20.4069 6.68001L17.762 7.64001L17.264 7.29001C16.7992 6.97001 16.3012 6.71001 15.7921 6.52001L15.2167 6.30001L14.8072 3.75001H11.7528L11.3433 6.30001L10.7568 6.51001C10.2699 6.70001 9.78294 6.95001 9.27388 7.30001L8.77588 7.63001L6.14201 6.68001L4.60375 9.07001L6.85028 10.65L6.77281 11.21C6.73961 11.47 6.70641 11.74 6.70641 12C6.70641 12.26 6.72855 12.53 6.77281 12.78L6.85028 13.34L4.60375 14.92L6.13094 17.32L8.77588 16.36L9.27388 16.71C9.74974 17.04 10.2256 17.29 10.7457 17.48L11.3323 17.7L11.7528 20.25ZM17.1533 12C17.1533 13.933 15.4192 15.5 13.28 15.5C11.1408 15.5 9.40668 13.933 9.40668 12C9.40668 10.067 11.1408 8.50001 13.28 8.50001C15.4192 8.50001 17.1533 10.067 17.1533 12Z" fill="white"/>
</svg>
