<svg width="50" height="51" viewBox="0 0 50 51" fill="none" xmlns="http://www.w3.org/2000/svg">
<g clip-path="url(#clip0_54_4785)">
<path fill-rule="evenodd" clip-rule="evenodd" d="M2.34996 1.95445C3.35366 0.949501 4.71535 0.384269 6.13568 0.383018L26.0892 0.383018C27.5096 0.384269 28.8713 0.949501 29.875 1.95445L42.0678 14.1473C43.0728 15.151 43.638 16.5127 43.6392 17.933V45.0259C43.6392 46.4467 43.0748 47.8093 42.0702 48.8139C41.0655 49.8186 39.7029 50.383 38.2821 50.383H6.13925C4.71844 50.383 3.35583 49.8186 2.35118 48.8139C1.34652 47.8093 0.782104 46.4467 0.782104 45.0259V5.74016C0.782104 4.31873 1.34282 2.95445 2.34996 1.95445ZM19.0357 16.5509C19.3225 16.7552 19.5662 17.014 19.7528 17.3126C19.9395 17.6112 20.0655 17.9436 20.1235 18.2909C20.1815 18.6382 20.1706 18.9936 20.0911 19.3366C20.0117 19.6797 19.8654 20.0037 19.6607 20.2902L14.6714 27.2759C14.4451 27.592 14.1528 27.855 13.8147 28.0468C13.4766 28.2385 13.1008 28.3544 12.7134 28.3864C12.326 28.4183 11.9363 28.3655 11.5713 28.2318C11.2064 28.098 10.8749 27.8863 10.6 27.6116L7.6071 24.6187C7.13396 24.111 6.87638 23.4394 6.88862 22.7454C6.90087 22.0515 7.18198 21.3894 7.67274 20.8987C8.1635 20.4079 8.82559 20.1268 9.51952 20.1145C10.2135 20.1023 10.8851 20.3599 11.3928 20.833L12.15 21.5866L15.3 17.1794C15.7125 16.6012 16.3378 16.2106 17.0384 16.0934C17.739 15.9762 18.4574 16.1384 19.0357 16.5509ZM22.4285 23.1473C22.4285 22.4369 22.7107 21.7556 23.2131 21.2533C23.7154 20.7509 24.3967 20.4687 25.1071 20.4687H34.0357C34.7461 20.4687 35.4274 20.7509 35.9297 21.2533C36.432 21.7556 36.7142 22.4369 36.7142 23.1473C36.7142 23.8577 36.432 24.539 35.9297 25.0413C35.4274 25.5437 34.7461 25.8259 34.0357 25.8259H25.1071C24.3967 25.8259 23.7154 25.5437 23.2131 25.0413C22.7107 24.539 22.4285 23.8577 22.4285 23.1473ZM22.4285 37.3223C22.4285 36.6119 22.7107 35.9306 23.2131 35.4283C23.7154 34.9259 24.3967 34.6437 25.1071 34.6437H34.0357C34.7461 34.6437 35.4274 34.9259 35.9297 35.4283C36.432 35.9306 36.7142 36.6119 36.7142 37.3223C36.7142 38.0327 36.432 38.714 35.9297 39.2163C35.4274 39.7187 34.7461 40.0009 34.0357 40.0009H25.1071C24.3967 40.0009 23.7154 39.7187 23.2131 39.2163C22.7107 38.714 22.4285 38.0327 22.4285 37.3223ZM19.6607 34.6866C19.875 34.4011 20.03 34.0756 20.1167 33.7293C20.2034 33.383 20.22 33.0228 20.1655 32.67C20.111 32.3172 19.9866 31.9788 19.7994 31.6748C19.6123 31.3708 19.3663 31.1072 19.0759 30.8996C18.7854 30.692 18.4564 30.5446 18.1082 30.466C17.76 30.3874 17.3995 30.3791 17.0481 30.4418C16.6966 30.5045 16.3613 30.6368 16.0617 30.8309C15.7621 31.0251 15.5043 31.2771 15.3035 31.5723L12.15 35.983L11.3928 35.2259C10.8851 34.7527 10.2135 34.4951 9.51952 34.5074C8.82559 34.5196 8.1635 34.8008 7.67274 35.2915C7.18198 35.7823 6.90087 36.4444 6.88862 37.1383C6.87638 37.8322 7.13396 38.5038 7.6071 39.0116L10.6 42.0044C10.8749 42.2792 11.2064 42.4908 11.5713 42.6246C11.9363 42.7584 12.326 42.8112 12.7134 42.7792C13.1008 42.7473 13.4766 42.6314 13.8147 42.4396C14.1528 42.2479 14.4451 41.9848 14.6714 41.6687L19.6607 34.6866Z" fill="black"/>
</g>
<defs>
<clipPath id="clip0_54_4785">
<rect width="50" height="50" fill="white" transform="translate(0 0.383018)"/>
</clipPath>
</defs>
</svg>
