<svg width="30" height="30" viewBox="0 0 30 30" fill="none" xmlns="http://www.w3.org/2000/svg">
<path fill-rule="evenodd" clip-rule="evenodd" d="M20.5875 10.5875C20.4119 10.7633 20.3133 11.0016 20.3133 11.25C20.3133 11.4985 20.4119 11.7367 20.5875 11.9125L22.7375 14.0625H12.5C12.2514 14.0625 12.0129 14.1613 11.8371 14.3371C11.6613 14.5129 11.5625 14.7514 11.5625 15C11.5625 15.2487 11.6613 15.4871 11.8371 15.6629C12.0129 15.8388 12.2514 15.9375 12.5 15.9375H22.7375L20.5875 18.0875C20.4954 18.1734 20.4215 18.2769 20.3703 18.3919C20.319 18.5069 20.2915 18.631 20.2893 18.7569C20.287 18.8828 20.3102 19.0078 20.3573 19.1245C20.4045 19.2413 20.4747 19.3473 20.5637 19.4363C20.6527 19.5254 20.7588 19.5955 20.8755 19.6427C20.9922 19.6898 21.1173 19.713 21.2432 19.7108C21.369 19.7085 21.4932 19.681 21.6082 19.6298C21.7232 19.5785 21.8267 19.5046 21.9125 19.4125L25.6625 15.6625C25.8381 15.4867 25.9367 15.2485 25.9367 15C25.9367 14.7516 25.8381 14.5133 25.6625 14.3375L21.9125 10.5875C21.7367 10.412 21.4984 10.3134 21.25 10.3134C21.0016 10.3134 20.7633 10.412 20.5875 10.5875Z" fill="white"/>
<path d="M5 15C5 17.6522 6.05357 20.1957 7.92893 22.0711C9.8043 23.9464 12.3478 25 15 25V20.3125C15 19.1337 15 18.545 14.6337 18.1788C14.2675 17.8125 13.6788 17.8125 12.5 17.8125" fill="white"/>
</svg>
